<svg version="1.2" baseProfile="tiny-ps" xmlns="http://www.w3.org/2000/svg" viewBox="0 0 467 280" width="467" height="280">
	<title>boards-ai</title>
	<defs>
		<linearGradient id="grd1" gradientUnits="userSpaceOnUse"  x1="453.195" y1="-113.76" x2="453.195" y2="377.809">
			<stop offset="0" stop-color="#bf5736"  />
			<stop offset="1" stop-color="#643a2f"  />
		</linearGradient>
		<clipPath clipPathUnits="userSpaceOnUse" id="cp1">
			<path d="M447.23 266.72L4.79 266.72L4.79 124.49L447.23 124.49L447.23 266.72Z" />
		</clipPath>
	</defs>
	<style>
		tspan { white-space:pre }
		.shp0 { fill: #5c4035 } 
		.shp1 { fill: url(#grd1) } 
		.shp2 { fill: #5b4037 } 
		.shp3 { fill: none;stroke: #9f5c3f;stroke-linecap:round;stroke-linejoin:round;stroke-width: 8.865 } 
	</style>
	<g >
		<g >
			<g >
				<g >
					<path class="shp0" d="M463.94 275.32L4.79 275.32L4.79 124.49L463.94 124.49L463.94 275.32Z" />
				</g>
				<path class="shp1" d="M447.23 266.72L4.79 266.72L4.79 124.49L447.23 124.49L447.23 266.72Z" />
				<g clip-path="url(#cp1)" style="opacity: 0.149;mix-blend-mode: multiply">
					<g >
						<g >
							<g >
								<g >
									<path fill-rule="evenodd" class="shp2" d="M586.19 264.3C587.85 269.85 586.41 276 583.13 280.64C579.86 285.34 575.45 289.05 570.8 292.22C561.43 298.55 550.87 302.76 540.18 306.13C516.75 317.86 491.32 324.52 465.93 330.08C440.46 335.59 414.7 339.54 388.87 342.75C337.19 349.11 285.15 352.27 233.11 352.94C220.11 353.14 207.06 353 194.1 353.26C190.83 353.3 187.54 353.29 184.24 352.99C180.92 352.74 177.64 351.86 174.52 350.95C168.23 349.04 162.14 346.63 156.05 344.37C149.96 342.11 143.82 340.02 137.51 338.75C131.22 337.46 124.74 337.2 118.43 338.2C105.73 340.55 93.15 344.12 80.5 347.16C67.85 350.24 55.08 353.07 42.08 354.39C29.13 355.76 15.79 355.44 3.2 351.65L-1.49 350.19C-3.02 349.6 -4.5 348.88 -6.01 348.23C-7.48 347.52 -9.07 347.01 -10.45 346.13L-14.68 343.59C-20.21 340.15 -26.04 337.2 -32.27 335.45C-33.82 334.97 -35.38 334.67 -37 334.4L-41.81 333.52L-51.41 331.76C-57.74 330.09 -64.04 328.03 -69.63 324.4L-69.66 324.38L-69.7 324.35C-75.35 319.3 -82.34 316.02 -89.44 313.48C-96.58 310.94 -103.94 309.05 -111.33 307.3C-118.72 305.56 -126.17 304 -133.58 302.19C-140.97 300.39 -148.38 298.44 -155.51 295.56C-159.06 294.1 -162.56 292.47 -165.85 290.39C-169.12 288.39 -172.33 285.59 -173.65 281.53C-174.24 279.5 -174.06 277.25 -173.29 275.33C-172.53 273.41 -171.36 271.71 -170.01 270.27C-167.31 267.34 -164.08 265.11 -160.78 263.11C-154.13 259.16 -146.99 256.26 -139.75 253.78C-132.52 251.34 -125.14 249.36 -117.65 247.9C-107.44 244.53 -97.37 240.62 -86.9 238.17L-71.26 234.05C-65.97 232.84 -60.48 232.06 -54.96 232.38C-52.17 232.53 -49.49 233.04 -46.86 233.42L-38.9 234.62C-33.6 235.38 -28.3 236.03 -22.99 236.35C-12.42 237.01 -1.61 236.26 7.39 230.35C26.44 220.14 46.24 210.93 67.4 205.94C77.94 203.44 88.75 202.01 99.61 201.94C110.46 201.85 121.3 203.23 131.86 205.59C142.17 208.49 152.83 208.43 163.23 206.38C168.42 205.35 173.53 203.87 178.44 201.89L182.11 200.32L185.98 198.95C188.56 198.07 191.1 197.02 193.72 196.3C204.25 193.45 215.09 192.08 225.94 191.92C236.76 192.04 247.6 192.79 258.24 194.66C279.6 197.99 300.35 203.94 321.2 209.03C331.64 211.54 342.09 213.93 352.66 215.64C355.28 216.17 357.96 216.38 360.6 216.76C363.26 217.09 365.91 217.49 368.58 217.64L384.58 218.87L384.66 218.88L403.8 221.34L422.9 224.15L423.1 224.18L423.26 224.29C425.97 226.27 429.33 227.88 431.57 230.97L431.6 231.01L431.63 231.07C434.95 236.96 439.84 241.94 445.38 245.85C450.92 249.79 457.09 252.83 463.53 254.95C476.43 259.13 490.53 259.74 503.7 256.5C510.29 254.78 516.2 251.21 522.26 247.98C525.32 246.4 528.44 244.9 531.74 243.86C535.04 242.89 538.44 242.1 541.88 241.96C545.32 241.69 548.76 241.93 552.18 242.29C555.57 242.86 558.92 243.53 562.26 244.32C565.6 245.12 568.91 246.11 572.04 247.58C575.15 249.03 578.06 251.13 580.09 254C582.95 256.8 585.25 260.33 586.19 264.3ZM540.18 306.13C540.19 306.13 540.2 306.13 540.2 306.12L540.16 306.14C540.17 306.14 540.17 306.13 540.18 306.13ZM-117.65 247.9C-117.69 247.91 -117.72 247.93 -117.76 247.94L-117.59 247.89C-117.61 247.89 -117.63 247.9 -117.65 247.9ZM580.09 254C580.08 253.99 580.08 253.99 580.08 253.99L580.1 254.01C580.09 254.01 580.09 254 580.09 254ZM585.91 264.38C584.95 260.46 582.67 257.02 579.82 254.26L579.81 254.25L579.8 254.23C577.8 251.44 574.94 249.41 571.85 247.99C568.76 246.56 565.47 245.61 562.15 244.83C558.83 244.07 555.46 243.42 552.1 242.88C548.72 242.56 545.32 242.35 541.93 242.64C538.53 242.79 535.21 243.59 531.96 244.57C528.73 245.62 525.66 247.12 522.63 248.71C516.64 251.95 510.67 255.63 503.95 257.44C490.57 260.82 476.32 260.31 463.15 256.16C456.58 254.05 450.28 251 444.59 247.01C438.91 243.05 433.85 238.04 430.3 231.9C428.38 229.29 425.33 227.77 422.47 225.79L403.57 223.19L384.45 220.9L368.37 219.81C365.68 219.69 363.01 219.31 360.33 219C357.66 218.64 354.96 218.45 352.31 217.95C341.64 216.31 331.1 214.01 320.61 211.58L289.26 204.02C278.83 201.51 268.35 199.21 257.8 197.53C247.26 195.66 236.59 194.93 225.96 194.79C215.32 194.94 204.73 196.27 194.47 199.04C191.92 199.74 189.47 200.76 186.96 201.6L183.21 202.92L179.46 204.52C174.37 206.56 169.11 208.08 163.76 209.14C158.4 210.17 152.94 210.73 147.46 210.65C144.72 210.59 141.98 210.39 139.26 209.98C136.52 209.6 133.84 208.89 131.27 208.31C120.86 205.97 110.26 204.61 99.62 204.7C88.99 204.75 78.37 206.15 68 208.6C47.2 213.47 27.55 222.58 8.65 232.69C6.3 233.87 3.88 235.43 1.24 236.35C-0.05 236.89 -1.41 237.2 -2.73 237.63C-4.09 237.9 -5.43 238.26 -6.8 238.45C-12.25 239.29 -17.73 239.31 -23.15 238.98C-33.95 238.35 -44.67 236.03 -55.1 234.82C-60.32 234.49 -65.58 235.18 -70.77 236.33L-86.34 240.33C-96.82 242.71 -106.84 246.55 -117.05 249.83L-117.17 249.87L-117.22 249.88C-124.64 251.28 -131.99 253.19 -139.17 255.57C-146.34 257.97 -153.41 260.8 -159.92 264.61C-163.15 266.54 -166.28 268.69 -168.82 271.4C-171.32 274.05 -173.17 277.63 -172.14 281.09C-171.08 284.48 -168.17 287.18 -165.03 289.09C-161.87 291.1 -158.45 292.72 -154.96 294.17C-147.97 297.04 -140.62 299.01 -133.26 300.84C-125.89 302.67 -118.45 304.26 -111.04 306.04C-103.64 307.83 -96.25 309.76 -89.05 312.36C-81.9 314.96 -74.81 318.3 -69.02 323.52C-63.63 327.04 -57.4 329.13 -51.19 330.79L-41.61 332.59L-36.82 333.48C-35.23 333.75 -33.6 334.08 -32.03 334.58C-25.73 336.41 -19.77 339.35 -14.2 342.77L-10.01 345.26C-8.63 346.12 -7.07 346.61 -5.61 347.31C-4.12 347.94 -2.66 348.64 -1.15 349.22L3.49 350.63C15.93 354.3 29.11 354.54 41.95 353.11C54.84 351.72 67.54 348.84 80.15 345.69C92.78 342.58 105.28 338.95 118.16 336.49C124.69 335.41 131.4 335.65 137.86 336.94C144.32 338.21 150.57 340.31 156.7 342.54C162.83 344.79 168.89 347.15 175.08 348.99C178.2 349.88 181.24 350.68 184.43 350.91C187.6 351.18 190.83 351.18 194.06 351.11C207.1 350.79 220.07 350.86 233.07 350.6C285.03 349.38 337 346.87 388.65 340.89C414.47 337.9 440.21 334.09 465.68 328.88C491.07 323.54 516.6 317.33 539.96 305.64L539.98 305.62L540 305.62C550.67 302.3 561.22 298.13 570.58 291.87C575.21 288.74 579.6 285.07 582.84 280.44C586.09 275.86 587.52 269.86 585.91 264.38ZM430.3 231.9C430.3 231.9 430.31 231.91 430.32 231.92L430.26 231.83C430.27 231.85 430.28 231.87 430.3 231.9ZM422.47 225.79L422.66 225.81L422.3 225.67C422.36 225.71 422.42 225.75 422.47 225.79ZM384.45 220.9L384.51 220.91L384.43 220.9L384.45 220.9ZM-69.02 323.52C-69.03 323.51 -69.04 323.5 -69.05 323.49L-68.99 323.54C-69 323.54 -69.01 323.53 -69.02 323.52Z" />
								</g>
								<g >
									<path fill-rule="evenodd" class="shp2" d="M201.54 209.2L219.67 203.85L219.68 203.85L219.7 203.84C230.77 202.48 242.02 202.81 253.05 204.41C264.1 205.98 274.94 208.74 285.67 211.75C296.4 214.75 307.07 217.97 317.89 220.52C328.69 223.09 339.67 224.97 350.73 225.49L350.74 225.49L350.81 225.5L369.54 227.59L388.32 230L397.69 231.38C400.8 231.83 403.96 232.24 407.05 232.99C413.2 234.32 419.64 236.31 424.71 240.7L424.81 240.79L424.9 240.91C430.25 248.27 438 253.5 446.28 257.12C454.61 260.75 463.53 262.98 472.56 264.33C490.62 267.15 509.06 267.18 527.37 266.11C531.95 265.82 536.52 265.5 541.1 265.06L547.96 264.39C550.41 264.21 553.29 264.44 555.53 266.33C557.81 268.22 558.49 271.25 558.38 273.79C558.29 276.4 557.57 278.87 556.48 281.13C555.38 283.37 553.87 285.44 552.04 287.12C550.22 288.77 548.41 290.2 546.41 291.56C538.46 296.84 529.49 299.92 520.49 302.24C511.53 304.5 502.4 305.81 493.24 306.64C468.7 317.47 442.59 323.11 416.59 328.06C390.41 332.75 364.03 336.04 337.58 338.4C311.13 340.76 284.61 342.27 258.09 343.1C244.82 343.56 231.55 343.74 218.28 343.84C205.08 343.76 191.6 344.72 178.51 341.38L178.44 341.36L178.37 341.33C162.48 333.48 144.72 329.91 127.05 329.96C118.2 329.9 109.34 330.57 100.59 331.93C91.83 333.26 83.13 335.05 74.6 337.49C66.05 339.88 57.62 342.66 49.3 345.8C40.78 348.76 31.57 349.34 22.72 347.92C13.88 346.34 5.4 343.1 -2.51 338.92C-10.43 334.82 -17.88 329.9 -25.28 325.01L-33.42 323.04C-36.18 322.34 -38.92 321.8 -41.69 320.96C-47.12 319.34 -52.63 317.53 -57.62 314.5L-57.66 314.47L-57.7 314.44C-62.76 310.61 -68.45 307.62 -74.23 304.93C-80.03 302.23 -85.97 299.8 -91.89 297.29C-97.81 294.77 -103.74 292.2 -109.44 289.04C-115.07 285.86 -120.71 282.1 -124.53 276.35L-124.57 276.3L-124.6 276.23C-125.47 274.36 -125.35 271.94 -124.26 270.22C-123.22 268.47 -121.71 267.39 -120.26 266.35C-117.27 264.39 -114.05 263.12 -110.82 261.96C-104.39 259.71 -97.81 258.16 -91.23 256.73L-74.95 250.61C-72.19 249.65 -69.39 248.81 -66.61 247.9L-58.26 245.23L-58.07 245.17L-57.85 245.18C-42.4 246.24 -27.09 248.38 -11.74 248.25C-4.11 248.1 3.59 247.39 10.79 244.97C14.39 243.73 17.66 241.94 20.98 239.87L30.96 233.89C44.32 226.02 58.22 218.75 73.12 214.27C87.95 209.72 103.8 208.22 119.11 210.83L119.15 210.83L119.18 210.85C125.68 213.44 132.51 215.14 139.43 216.09C146.36 217.03 153.37 217.25 160.36 216.92C167.34 216.55 174.31 215.75 181.16 214.25L186.31 213.25L188.89 212.75L191.42 212.04L201.54 209.2ZM493.24 306.64C493.32 306.61 493.4 306.58 493.47 306.54L493.02 306.66C493.1 306.66 493.17 306.65 493.24 306.64ZM-25.28 325.01L-25.16 325.04L-25.4 324.94C-25.36 324.96 -25.32 324.99 -25.28 325.01ZM-91.23 256.73L-91.32 256.77L-91.12 256.71C-91.16 256.72 -91.19 256.73 -91.23 256.73ZM201.63 209.48L191.5 212.36L188.97 213.08L186.39 213.6L181.23 214.62C174.37 216.16 167.38 216.99 160.38 217.38C153.37 217.75 146.33 217.56 139.36 216.65C132.4 215.72 125.54 214.02 118.96 211.51C103.75 209.11 88.1 210.78 73.47 215.45C58.78 220.09 45.04 227.38 31.8 235.34L21.88 241.39C18.65 243.46 15.1 245.45 11.39 246.75C3.92 249.33 -3.95 250.11 -11.71 250.33C-27.19 250.59 -42.5 248.6 -57.77 247.67L-65.84 250.33C-68.58 251.26 -71.34 252.11 -74.08 253.09L-90.42 259.14L-90.53 259.18L-90.62 259.19C-97.19 260.58 -103.75 262.08 -110.05 264.25C-113.18 265.34 -116.3 266.58 -118.99 268.33C-120.29 269.23 -121.6 270.21 -122.31 271.44C-123.02 272.63 -123.09 273.89 -122.58 275.18C-119.19 280.32 -113.86 284.02 -108.4 287.12C-102.85 290.24 -96.99 292.82 -91.1 295.37C-85.21 297.91 -79.27 300.38 -73.42 303.14C-67.6 305.9 -61.85 308.95 -56.64 312.94C-51.91 315.83 -46.57 317.64 -41.2 319.28C-38.54 320.11 -35.73 320.69 -33 321.4L-24.76 323.45L-24.63 323.49L-24.52 323.56C-17.1 328.52 -9.7 333.48 -1.85 337.62C5.95 341.8 14.27 345.03 22.93 346.64C31.59 348.08 40.59 347.57 48.93 344.73C57.27 341.65 65.76 338.91 74.35 336.56C91.54 332.03 109.21 328.78 127.05 328.87C144.82 328.74 162.76 332.23 178.89 340.08C191.7 343.28 205.06 342.28 218.27 342.29C224.9 342.27 231.52 342.07 238.15 341.91C244.78 341.79 251.4 341.55 258.02 341.28C284.51 340.26 310.98 338.57 337.36 336.01C363.74 333.41 390.05 330.1 416.12 325.42C442.08 320.46 468.2 314.76 492.34 304.03L492.57 303.93L492.79 303.91C501.9 303.08 510.99 301.78 519.83 299.52C528.64 297.26 537.38 294.22 544.89 289.2C546.72 287.96 548.55 286.51 550.16 285.04C551.75 283.58 553.02 281.82 553.99 279.87C554.93 277.92 555.53 275.79 555.59 273.71C555.67 271.65 555.12 269.61 553.72 268.51C552.36 267.34 550.32 267.08 548.23 267.23L541.34 267.91C536.76 268.35 532.14 268.68 527.53 268.99C509.1 270.05 490.49 270.12 472.11 267.18C462.94 265.71 453.83 263.35 445.26 259.51C436.77 255.7 428.72 250.18 423.13 242.38C418.57 238.39 412.61 236.43 406.59 235.07C403.56 234.29 400.47 233.87 397.36 233.38L388.05 231.92L369.37 229.32L350.6 227.03C339.44 226.38 328.42 224.41 317.6 221.75C306.76 219.09 296.11 215.78 285.41 212.7C274.72 209.61 263.94 206.77 252.95 205.12C241.98 203.44 230.8 203.02 219.76 204.29L201.63 209.48ZM118.96 211.51C118.98 211.51 118.99 211.51 119 211.52L118.93 211.5C118.94 211.5 118.95 211.51 118.96 211.51ZM-57.77 247.67L-57.59 247.61L-58 247.66C-57.92 247.67 -57.85 247.67 -57.77 247.67ZM-122.58 275.18C-122.59 275.16 -122.61 275.14 -122.62 275.12L-122.56 275.24C-122.56 275.22 -122.57 275.2 -122.58 275.18ZM-56.64 312.94C-56.65 312.93 -56.67 312.92 -56.68 312.91L-56.6 312.96C-56.61 312.95 -56.63 312.94 -56.64 312.94ZM178.89 340.08C178.87 340.08 178.85 340.07 178.82 340.07L178.96 340.12C178.94 340.1 178.91 340.09 178.89 340.08ZM423.13 242.38C423.16 242.41 423.2 242.44 423.23 242.47L423.05 242.27C423.07 242.3 423.1 242.34 423.13 242.38ZM350.6 227.03C350.62 227.03 350.64 227.04 350.65 227.04L350.58 227.03L350.6 227.03ZM219.76 204.29L219.78 204.28L219.75 204.29C219.75 204.29 219.75 204.29 219.76 204.29Z" />
								</g>
								<g >
									<path fill-rule="evenodd" class="shp2" d="M503.26 290.27C500.81 292.18 497.9 293.32 494.95 294.06C491.99 294.79 488.96 295.15 485.94 295.44C479.89 296 473.81 296.22 467.89 297.52L467.88 297.53L467.87 297.53C464.93 297.84 462.02 298.4 459.2 299.28C456.38 300.14 453.64 301.32 450.89 302.42C445.47 304.9 439.87 306.96 434.24 308.88C422.95 312.66 411.41 315.59 399.79 318.11C376.55 323.13 353.01 326.61 329.39 329.22C317.57 330.56 305.74 331.35 293.91 332.36C282.08 333.29 270.23 334.21 258.36 334.73C246.5 335.29 234.62 335.62 222.74 335.65C216.8 335.68 210.85 335.59 204.92 335.44L187.13 335.25L186.94 335.25L186.75 335.18C170.39 328.46 152.86 324.83 135.19 323.96C130.78 323.59 126.35 323.7 121.92 323.59C117.5 323.74 113.06 323.71 108.65 324.06C99.79 324.5 90.98 325.53 82.18 326.64C64.56 328.97 47.18 332.49 29.6 335.53C20.56 336.66 11.58 333.33 4.1 328.48C-3.48 323.68 -10.04 317.52 -17.29 312.45L-26.33 309.71C-29.4 308.87 -32.39 307.75 -35.38 306.62C-38.36 305.47 -41.4 304.51 -44.3 303.1C-47.2 301.74 -50.01 300.14 -52.62 298.25C-55.14 296.86 -57.56 295.3 -59.83 293.51C-62.1 291.7 -64.26 289.68 -65.96 287.23C-67.64 284.82 -68.91 281.72 -68.35 278.52C-67.77 275.36 -65.49 273.01 -63.17 271.28C-59.8 267.53 -55.63 264.8 -51.38 262.4L-51.35 262.39L-51.31 262.37C-49.06 261.34 -46.7 260.43 -44.25 259.84C-41.81 259.24 -39.3 258.96 -36.8 258.89L-36.78 258.89L-36.73 258.89C-22.24 259.56 -7.64 258.78 6.57 255.82C13.68 254.43 20.69 252.5 27.52 250.06C34.35 247.65 41.02 244.75 47.36 241.23C53.71 237.74 59.77 233.71 65.32 229.04C66.71 227.84 67.97 226.69 69.48 225.44C70.22 224.79 70.99 224.2 71.8 223.69C72.59 223.13 73.42 222.66 74.27 222.21C77.65 220.41 81.26 219.23 84.9 218.4C99.6 215.18 114.53 216.97 128.95 219.83L129.02 219.84L129.13 219.88C140.09 223.89 151.63 226.97 163.1 226.16C165.94 225.92 168.78 225.48 171.49 224.66C174.28 223.8 177.17 222.91 180.05 222.17C185.81 220.62 191.67 219.48 197.56 218.61C221.17 215.09 245.13 216.36 268.57 219.55C280.32 221.11 291.96 223.31 303.55 225.62C315.17 227.93 326.65 230.54 338.3 232.53C349.94 234.59 361.43 237.31 373.12 239.07C378.94 240.13 384.8 240.87 390.57 242.19L407.93 245.87L408 245.89L408.07 245.93C422.18 253.1 435.2 262.14 449.23 269.28C456.24 272.83 463.5 275.91 471 278.22C478.49 280.55 486.21 282.12 494 283.04L494.01 283.04L494.01 283.04C496.39 283.54 498.76 284.1 501.05 284.97C502.17 285.43 503.35 285.93 504.18 286.93C504.6 287.43 504.74 288.2 504.45 288.81C504.2 289.43 503.71 289.85 503.26 290.27ZM-17.29 312.45L-17.19 312.48L-17.36 312.39C-17.34 312.41 -17.31 312.43 -17.29 312.45ZM-52.62 298.25C-52.61 298.26 -52.6 298.27 -52.59 298.27L-52.66 298.23C-52.65 298.24 -52.64 298.24 -52.62 298.25ZM-63.17 271.28C-63.19 271.3 -63.21 271.32 -63.23 271.34L-63.09 271.22C-63.12 271.24 -63.15 271.26 -63.17 271.28ZM503.08 290.04C503.98 289.34 504.8 288.08 503.94 287.13C503.19 286.23 502.03 285.72 500.93 285.28C498.68 284.44 496.31 283.89 493.94 283.41L493.96 283.41C486.14 282.54 478.39 281.01 470.85 278.71C463.31 276.43 456 273.39 448.95 269.86C434.82 262.86 421.66 254.05 407.59 247.12L390.29 243.7C384.53 242.45 378.65 241.78 372.83 240.79C361.13 239.18 349.57 236.59 337.92 234.68C326.26 232.84 314.66 230.35 303.07 228.19C291.48 226 279.85 224.06 268.19 222.46C244.9 219.33 221.2 218.13 198 221.63C192.21 222.49 186.46 223.62 180.81 225.15C177.96 225.89 175.21 226.74 172.35 227.62C169.39 228.52 166.37 228.99 163.33 229.25C151.15 230.11 139.33 226.8 128.23 222.73C114.18 219.88 99.49 218.12 85.5 221.15C82.03 221.92 78.63 223.03 75.54 224.67C72.41 226.24 69.94 228.66 67.02 231.14C61.31 235.92 55.08 240.02 48.58 243.55C42.09 247.11 35.27 250 28.3 252.38C21.34 254.8 14.21 256.7 6.99 258.05C-7.41 260.92 -22.17 261.59 -36.78 260.79C-39.16 260.84 -41.53 261.08 -43.84 261.63C-46.15 262.16 -48.38 263 -50.59 263.98C-54.77 266.29 -58.85 268.94 -62.03 272.44L-62.09 272.51L-62.17 272.57C-64.36 274.16 -66.35 276.24 -66.83 278.83C-67.29 281.4 -66.28 284.1 -64.73 286.35C-63.17 288.63 -61.12 290.59 -58.94 292.34C-56.74 294.1 -54.38 295.64 -51.92 297.01L-51.88 297.04L-51.84 297.06C-49.31 298.92 -46.57 300.5 -43.73 301.86C-40.91 303.25 -37.88 304.23 -34.93 305.39C-31.98 306.53 -29.02 307.65 -25.96 308.52L-16.88 311.32L-16.77 311.35L-16.7 311.41C-9.35 316.61 -2.84 322.81 4.64 327.6C12 332.43 20.7 335.7 29.52 334.66C46.91 331.5 64.4 327.83 82.01 325.37C90.82 324.18 99.66 323.08 108.56 322.57C113 322.18 117.46 322.18 121.91 321.99C126.36 322.07 130.82 321.93 135.27 322.26C153.03 323 170.73 326.53 187.34 333.18L204.95 333.24C210.88 333.35 216.8 333.4 222.72 333.32C234.57 333.22 246.41 332.8 258.24 332.16C281.89 330.85 305.59 329.2 329.18 327C352.76 324.69 376.3 321.61 399.55 316.92C411.17 314.56 422.72 311.8 434.03 308.19C439.68 306.38 445.25 304.35 450.68 301.9C453.45 300.81 456.19 299.64 459.05 298.78C461.9 297.91 464.84 297.36 467.8 297.06C473.78 295.78 479.87 295.59 485.9 295.06C488.92 294.79 491.94 294.44 494.87 293.73C497.8 293.02 500.68 291.9 503.08 290.04ZM407.59 247.12L407.65 247.13L407.51 247.08C407.54 247.1 407.56 247.11 407.59 247.12ZM128.23 222.73C128.26 222.73 128.28 222.74 128.31 222.74L128.13 222.69C128.16 222.7 128.2 222.71 128.23 222.73ZM-36.78 260.79C-36.77 260.79 -36.77 260.79 -36.77 260.79L-36.84 260.79C-36.82 260.79 -36.8 260.79 -36.78 260.79ZM-50.59 263.98C-50.57 263.97 -50.56 263.96 -50.55 263.96L-50.61 263.99C-50.6 263.99 -50.6 263.98 -50.59 263.98ZM187.34 333.18L187.15 333.18L187.53 333.25C187.46 333.23 187.4 333.2 187.34 333.18ZM467.8 297.06C467.8 297.06 467.8 297.06 467.8 297.06L467.82 297.06C467.81 297.06 467.81 297.06 467.8 297.06Z" />
								</g>
								<g >
									<path fill-rule="evenodd" class="shp2" d="M200.65 235.47C207.67 235.93 214.71 236.27 221.73 235.9L221.7 235.91C226.64 235.17 231.56 234.15 236.53 233.63C241.53 233.34 246.51 232.89 251.52 232.72C256.53 232.62 261.53 232.91 266.52 233.26C271.5 233.61 276.49 233.98 281.46 234.63L288.92 235.5L296.34 236.57C301.3 237.24 306.23 238.11 311.16 238.99C321.04 240.56 330.79 242.84 340.57 244.96C356.63 247.36 372.67 250.21 388.42 254.56C396.28 256.79 404.09 259.38 411.57 262.94C415.3 264.73 418.96 266.78 422.29 269.45C423.96 270.79 425.53 272.33 426.83 274.17C428.12 276 429.07 278.28 429.18 280.71C429.17 283.12 428.51 285.54 427.22 287.4L426.29 288.83L425.19 290.06C424.48 290.92 423.68 291.64 422.85 292.32C419.56 295.07 415.94 297.24 412.21 299.02C404.77 302.7 396.96 305.29 389.11 307.6C381.25 309.86 373.29 311.68 365.3 313.3C357.3 314.85 349.21 315.97 341.17 317.32L341.07 317.34L340.92 317.33C334.47 317.02 328.17 316.1 321.96 316.51C318.88 316.66 315.76 317.28 312.6 317.75L303.16 319.26C290.58 321.34 277.97 323.44 265.3 325.16C252.63 326.9 239.88 328.18 227.07 328.49C214.29 328.83 201.46 328.21 188.79 326.39C183.11 326.18 177.35 325.91 171.71 324.71L171.64 324.69L171.57 324.67C158.62 319.12 144.55 316.68 130.5 315.98C116.41 315.25 102.29 316.3 88.23 317.62C74.17 318.95 60.11 320.53 45.97 321.36C38.87 321.66 31.89 322.03 24.66 321.55C21.06 321.08 17.51 319.95 14.37 317.97C11.31 316.07 8.53 313.23 7.38 309.49C5.18 305.98 2.55 302.78 -0.95 300.9C-6.68 298.46 -12.42 295.75 -17.31 291.49C-19.68 289.34 -22 286.66 -22.7 283.1C-23.04 281.37 -23.01 279.49 -22.26 277.75C-21.51 276.02 -20.14 274.69 -18.71 273.78C-12.74 270.32 -6.2 270.54 -0.19 269.82C5.88 268.97 11.95 268.04 17.87 266.42C29.77 263.45 41.25 258.82 52.1 252.95C62.97 247.12 73.25 240.15 83.42 233.03L83.46 233L83.48 232.99C88.11 230.31 93.2 228.65 98.38 227.81C103.55 226.91 108.8 226.77 114.01 227.06C119.22 227.34 124.38 228.18 129.45 229.36C134.5 230.56 139.47 232.18 144.22 234.31C153.34 236.74 162.9 236.73 172.29 236.36C181.73 235.98 191.17 235.08 200.65 235.47ZM340.57 244.96C340.55 244.95 340.53 244.95 340.51 244.95L340.6 244.96C340.59 244.96 340.58 244.96 340.57 244.96ZM188.79 326.39C188.8 326.39 188.82 326.39 188.83 326.39L188.76 326.39C188.77 326.39 188.78 326.39 188.79 326.39ZM7.38 309.49C7.41 309.53 7.43 309.57 7.45 309.6L7.34 309.35C7.35 309.4 7.37 309.45 7.38 309.49ZM-0.95 300.9C-0.94 300.9 -0.92 300.91 -0.91 300.91L-1.01 300.87C-0.99 300.88 -0.97 300.89 -0.95 300.9ZM144.22 234.31C144.22 234.31 144.21 234.3 144.2 234.3L144.25 234.32C144.24 234.32 144.23 234.31 144.22 234.31ZM200.63 235.76C191.19 235.43 181.76 236.39 172.32 236.83C162.89 237.29 153.3 237.28 144.02 234.99L144 234.99L143.97 234.97C139.22 232.95 134.27 231.42 129.23 230.33C124.2 229.25 119.08 228.51 113.95 228.32C103.77 227.93 93.16 229.28 84.43 234.54C74.39 241.87 64.16 249.07 53.18 255.02C42.25 261.05 30.61 265.89 18.49 268.97C12.46 270.59 6.27 271.52 0.1 272.35C-6.05 273 -12.46 272.95 -17.42 275.87C-18.6 276.61 -19.55 277.57 -20.06 278.73C-20.57 279.89 -20.62 281.29 -20.37 282.63C-19.86 285.34 -17.96 287.75 -15.79 289.76C-11.32 293.77 -5.73 296.55 -0.13 299L-0.08 299.03L-0.03 299.05C3.94 301.23 6.8 304.91 9.02 308.59L9.1 308.71L9.13 308.84C10 312.01 12.44 314.68 15.28 316.5C18.15 318.36 21.47 319.48 24.86 319.97C31.72 320.52 38.91 320.27 45.91 320.07C60.01 319.47 74.06 317.86 88.15 316.64C102.23 315.48 116.37 314.31 130.54 314.91C144.65 315.51 158.86 317.85 172.04 323.36C177.56 324.48 183.21 324.71 188.89 324.88L188.92 324.88L188.96 324.88C201.57 326.61 214.31 327.06 227.01 326.6C239.72 326.15 252.39 324.74 264.99 322.87C277.6 321.04 290.14 318.74 302.74 316.62L312.19 315.05C315.35 314.58 318.5 313.92 321.8 313.74C328.3 313.29 334.67 314.19 340.91 314.46C348.84 313.08 356.82 311.95 364.72 310.37C372.64 308.72 380.53 306.88 388.28 304.6C396.02 302.34 403.72 299.8 410.9 296.26C414.51 294.55 417.94 292.48 420.92 289.99C423.83 287.52 426.33 284.3 426.22 280.83C426.1 277.36 423.45 274.2 420.46 271.79C417.42 269.34 413.92 267.36 410.32 265.63C403.09 262.16 395.4 259.61 387.65 257.36C372.13 252.81 356.18 249.73 340.19 247.08L340.15 247.07L340.1 247.06C330.39 244.8 320.7 242.37 310.86 240.66C305.97 239.71 301.07 238.77 296.13 238.02L288.74 236.81L281.33 235.82C276.4 235.08 271.42 234.62 266.45 234.18C261.48 233.74 256.5 233.36 251.53 233.38C246.55 233.51 241.57 233.93 236.59 234.19C231.63 234.67 226.72 235.64 221.79 236.35L221.76 236.35L221.75 236.35C214.7 236.66 207.65 236.28 200.63 235.76ZM84.43 234.54C84.44 234.53 84.44 234.53 84.45 234.52L84.4 234.56C84.41 234.55 84.42 234.55 84.43 234.54ZM172.04 323.36C172.02 323.35 172 323.35 171.98 323.35L172.11 323.39C172.09 323.38 172.06 323.37 172.04 323.36ZM340.91 314.46C340.87 314.47 340.84 314.47 340.8 314.48L341.06 314.47C341.01 314.47 340.96 314.46 340.91 314.46Z" />
								</g>
								<g >
									<path fill-rule="evenodd" class="shp2" d="M382.92 281.12C382.91 283.6 381.63 285.82 380.04 287.57C378.44 289.34 376.51 290.75 374.53 292.01C370.51 294.5 366.21 296.42 361.78 298.01C359.54 298.72 357.24 299.28 354.9 299.58C352.56 299.92 350.17 299.74 347.86 299.65C343.19 299.47 338.53 299.26 333.87 299.32C329.22 299.38 324.57 299.73 320.07 300.73C315.62 301.77 311.25 303.7 306.82 305.13C297.96 308.21 289.03 311.06 279.98 313.55C261.89 318.44 243.3 321.99 224.48 322.54C215.09 322.92 205.66 322.45 196.33 321.3C191.65 320.79 187.05 319.83 182.44 318.98L168.63 317.15L168.49 317.14L168.4 317.1C155.85 312.53 142.61 309.98 129.28 308.8C115.93 307.59 102.49 307.62 89.08 307.9L48.82 309.49C45.4 309.5 41.89 308.88 38.78 307.19C35.65 305.51 33.33 302.63 31.63 299.63C30.77 298.13 30.02 296.59 29.21 295.13L26.61 290.75C25.79 289.27 24.81 287.59 24.98 285.47C25.24 283.27 27 281.93 28.46 281.04L28.49 281.02L28.54 281C39.89 276.01 50.97 270.4 61.76 264.3C72.57 258.2 83.09 251.59 93.51 244.8L93.56 244.77L93.6 244.75C101.89 240.38 111.26 239.05 120.36 239.34C129.34 239.7 138.34 241.71 146.45 245.96L159.53 245.17C164.39 243.84 169.54 243.67 174.43 244.38C179.39 245.01 184.13 246.39 188.82 247.43C191.17 247.96 193.5 248.42 195.83 248.64C198.13 248.87 200.54 248.83 202.98 248.9C207.82 248.99 212.64 248.85 217.48 248.67C236.81 247.74 256.18 245.47 275.7 245.13C295.16 244.76 315.02 246.59 333.37 253.5L347.15 258.45L360.76 263.77C365.3 265.51 369.85 267.36 374.04 269.93C376.13 271.21 378.14 272.67 379.85 274.46C381.53 276.25 382.91 278.55 382.92 281.12ZM146.45 245.96L146.05 245.98L146.84 246.16C146.71 246.09 146.58 246.02 146.45 245.96ZM159.53 245.17C159.47 245.18 159.42 245.2 159.37 245.21L159.7 245.16L159.53 245.17ZM382.63 281.12C382.6 278.67 381.26 276.45 379.6 274.71C377.91 272.96 375.91 271.55 373.83 270.29C369.65 267.79 365.12 265.99 360.56 264.29L346.89 259.13L333.06 254.51C314.66 248.08 295.07 246.63 275.76 247.37C256.4 248.1 237.12 250.8 217.61 251.65C212.73 251.84 207.83 252 202.96 251.92C200.54 251.86 198.08 251.9 195.54 251.66C193.03 251.43 190.58 250.95 188.18 250.41C183.37 249.36 178.73 248.02 174.04 247.44C169.36 246.78 164.66 246.99 160.17 248.18L160 248.22L159.84 248.23L146.24 248.97L145.81 248.99L145.45 248.79C137.78 244.64 129 242.56 120.25 242.16C111.54 241.82 102.56 243.07 94.85 247.08C73.89 260.49 52.16 272.87 29.24 282.52C27.91 283.3 26.69 284.34 26.55 285.67C26.39 287.01 27.13 288.54 27.94 289.97L30.5 294.4C31.33 295.92 32.05 297.45 32.88 298.9C34.49 301.8 36.59 304.43 39.43 305.99C42.25 307.57 45.55 308.2 48.82 308.22L89.06 307.01C102.48 306.66 115.95 306.51 129.37 307.64C142.75 308.61 156.11 310.91 168.91 315.31L182.8 316.9C187.4 317.66 191.98 318.54 196.6 318.96C205.82 319.97 215.12 320.44 224.4 320C233.67 319.61 242.92 318.61 252.11 317.2C261.3 315.74 270.4 313.72 279.43 311.4C288.47 309.12 297.44 306.5 306.33 303.62C310.83 302.29 315.11 300.49 319.81 299.49C324.46 298.57 329.18 298.32 333.87 298.37C338.56 298.41 343.23 298.73 347.89 299.01C352.55 299.53 357.18 298.96 361.63 297.52C366.01 295.99 370.33 294.09 374.32 291.67C376.29 290.43 378.21 289.05 379.79 287.33C381.36 285.63 382.6 283.49 382.63 281.12ZM94.85 247.08C94.87 247.07 94.89 247.05 94.91 247.04L94.82 247.1C94.83 247.09 94.84 247.08 94.85 247.08ZM29.24 282.52C29.25 282.51 29.26 282.5 29.27 282.5L29.19 282.54C29.2 282.53 29.22 282.52 29.24 282.52ZM168.91 315.31L168.79 315.29L169.02 315.34C168.98 315.33 168.95 315.32 168.91 315.31Z" />
								</g>
								<g >
									<path fill-rule="evenodd" class="shp2" d="M190.84 263.08C197.38 263.78 203.99 263.89 210.54 263.37C217.33 262.16 224.12 260.92 230.89 259.61C242.15 256.31 253.94 256.16 265.24 254.24L265.29 254.23L265.32 254.23L282.12 253.51C287.73 253.4 293.36 253.75 298.96 254.35C304.57 254.94 310.13 256.07 315.59 257.65C321.03 259.27 326.36 261.47 331.27 264.51L331.35 264.56L331.41 264.61C333.02 265.93 334.64 267.3 335.96 269.26C336.59 270.23 337.2 271.46 337.17 272.97C337.15 274.51 336.29 275.86 335.38 276.7C333.4 278.35 331.64 278.96 329.88 279.99L324.56 282.83C317.42 286.53 310.23 290.13 302.91 293.48C288.28 300.17 273.23 306.09 257.62 310.07C242.05 314.08 225.96 316.35 209.88 315.89C193.83 315.52 177.87 312.48 162.78 306.99C155.06 306.35 147.5 304.87 139.92 303.58L139.89 303.58L139.86 303.57C134.24 301.95 128.39 301.18 122.54 300.75C116.68 300.32 110.8 300.15 104.9 299.89C99 299.61 93.09 299.28 87.18 298.38C81.32 297.44 75.3 296 70.09 292.49L69.86 292.33L69.71 292.05C69.19 291.04 68.69 289.93 68.44 288.67C68.2 287.41 68.29 286.03 68.72 284.81C69.61 282.38 71.34 280.71 73.04 279.28C78.13 274.4 83.73 270.04 89.8 266.49C95.86 262.91 102.36 260.07 109.09 258.1C122.59 254.22 136.83 254.05 150.51 256.15C153.93 255.92 157.37 255.71 160.81 255.74C164.27 255.77 167.77 255.97 171.13 257C174.42 258.19 177.51 259.66 180.81 260.7C184.08 261.79 187.43 262.65 190.84 263.08ZM210.54 263.37C210.54 263.37 210.54 263.37 210.53 263.37L210.56 263.37C210.55 263.37 210.55 263.37 210.54 263.37ZM230.89 259.61C230.88 259.61 230.87 259.61 230.86 259.62L230.9 259.6C230.9 259.61 230.89 259.61 230.89 259.61ZM162.78 306.99C162.81 306.99 162.83 306.99 162.85 306.99L162.73 306.96C162.74 306.97 162.76 306.98 162.78 306.99ZM73.04 279.28C73.04 279.29 73.03 279.3 73.02 279.31L73.11 279.23C73.09 279.25 73.07 279.27 73.04 279.28ZM150.51 256.15C150.49 256.15 150.47 256.15 150.45 256.15L150.55 256.15C150.54 256.15 150.52 256.15 150.51 256.15ZM190.81 263.37C187.37 262.97 183.99 262.14 180.69 261.09C177.39 260.08 174.19 258.62 170.98 257.49C167.7 256.53 164.24 256.35 160.82 256.38C157.38 256.45 153.95 256.76 150.53 257.09L150.48 257.1L150.42 257.09C136.77 255.4 122.76 256.04 109.7 260.23C96.57 264.2 84.76 271.76 74.74 281.16L74.7 281.2L74.66 281.24C73.09 282.5 71.64 283.98 71.04 285.65C70.44 287.21 70.83 288.9 71.7 290.63C76.33 293.69 81.92 295.25 87.53 296.26C93.26 297.28 99.13 297.75 104.99 298.16C110.87 298.57 116.76 298.88 122.65 299.46C128.51 300.07 134.41 300.84 140.12 302.55C147.71 303.86 155.26 305.58 162.91 306.05L162.97 306.05L163.03 306.08C178.11 311.36 194 314.17 209.91 314.33C225.84 314.53 241.69 311.97 257.02 307.74C272.36 303.44 287.25 297.62 301.71 290.8C308.96 287.44 316.06 283.75 323.17 280.07L328.48 277.26C330.2 276.3 332.23 275.42 333.34 274.45C335.73 272.76 332.57 269.35 329.65 267.05C325.05 264.19 320 262.07 314.77 260.5C309.51 258.93 304.09 257.9 298.63 257.18C293.16 256.48 287.63 256.03 282.1 256.02L265.49 256.31C253.92 257.86 242.28 257.62 231.11 260.55L231.08 260.56L231.06 260.56C224.24 261.62 217.42 262.74 210.62 263.9L210.6 263.9L210.59 263.9C204 264.34 197.36 264.16 190.81 263.37ZM71.7 290.63C71.62 290.57 71.55 290.52 71.47 290.47L71.85 290.9C71.8 290.81 71.75 290.72 71.7 290.63ZM140.12 302.55C140.11 302.55 140.1 302.55 140.09 302.55L140.15 302.56C140.14 302.56 140.13 302.55 140.12 302.55ZM329.65 267.05C329.67 267.06 329.69 267.07 329.71 267.08L329.57 266.98C329.6 267 329.62 267.02 329.65 267.05ZM265.49 256.31C265.51 256.3 265.53 256.3 265.55 256.3L265.47 256.31L265.49 256.31Z" />
								</g>
								<g >
									<path fill-rule="evenodd" class="shp2" d="M283.07 269.47C284.4 272.4 284.66 275.72 283.9 278.83C283.22 282 281.4 284.7 279.55 287.25C275.54 292.15 270.43 295.93 265.06 299.06C254.27 305.31 241.95 308.7 229.63 309.66C217.29 310.73 204.86 309.78 192.76 307.5C186.7 306.34 180.73 304.82 174.84 303.02C168.96 301.27 163.16 299.23 157.49 296.87L145.48 295.09L139.44 294.2L133.45 292.96C129.47 292.06 125.51 290.99 121.65 289.51C119.73 288.73 117.83 287.87 116.05 286.68C114.36 285.51 112.35 283.9 112.16 281.12C112.27 278.34 114.26 276.64 115.93 275.4C117.7 274.13 119.6 273.22 121.51 272.39C125.36 270.79 129.31 269.62 133.29 268.61C135.28 268.11 137.28 267.66 139.29 267.26L145.34 266.3L157.45 264.37L157.8 264.32L158.2 264.49C166.16 268.04 174.59 270.38 183.17 271.87C191.77 273.3 200.53 273.73 209.27 273.52C218.02 273.39 226.77 272.53 235.45 271.2C244.15 269.95 252.7 267.85 261.33 266.06L261.43 266.03L261.46 266.03C265.14 265.84 268.83 265.9 272.49 266.3C274.33 266.51 276.15 266.81 277.94 267.28C279.73 267.76 281.46 268.36 283.07 269.47ZM157.49 296.87L157.56 296.88L157.44 296.85C157.46 296.86 157.48 296.87 157.49 296.87ZM282.85 269.66C281.36 268.78 279.56 268.2 277.81 267.85C276.04 267.49 274.23 267.29 272.42 267.18C268.82 266.97 265.21 267.16 261.62 267.45C253.05 269.54 244.55 272.09 235.81 273.51C227.08 275.04 218.25 276.13 209.35 276.45C200.46 276.71 191.52 276.31 182.69 274.89C174.01 273.49 165.46 270.99 157.4 267.31L145.78 269.01L139.79 269.88C137.81 270.26 135.83 270.67 133.87 271.1C129.95 272 126.06 273.07 122.35 274.51C120.52 275.25 118.72 276.11 117.12 277.16C115.54 278.19 114.12 279.61 114.06 281.12C114.05 282.65 115.44 284.16 117.01 285.26C118.58 286.39 120.38 287.29 122.21 288.09C125.91 289.64 129.79 290.82 133.71 291.83C135.67 292.32 137.65 292.77 139.64 293.16L145.64 294.11L157.66 295.98L157.73 295.99L157.78 296.01C169.14 300.59 181.01 303.83 193.06 305.68C199.09 306.6 205.16 307.13 211.22 307.41C217.29 307.71 223.38 307.59 229.42 307.04C235.45 306.51 241.5 305.82 247.28 304.08C253.1 302.43 258.75 300.14 264.12 297.31C269.45 294.45 274.51 290.92 278.53 286.37C280.41 284.05 282.3 281.55 283.08 278.6C283.94 275.7 283.87 272.54 282.85 269.66ZM261.62 267.45C261.64 267.45 261.67 267.44 261.69 267.44L261.56 267.46C261.58 267.46 261.6 267.46 261.62 267.45ZM157.4 267.31L157.77 267.26L157.02 267.14C157.15 267.2 157.27 267.26 157.4 267.31Z" />
								</g>
								<g >
									<path fill-rule="evenodd" class="shp2" d="M199.65 285.69C203.98 285.74 208.31 285.79 212.64 285.67L219.12 285.51C221.26 285.36 223.4 285.16 225.53 284.87C229.81 284.29 234.08 283.7 238.47 283.27C240.66 283.09 242.89 283.04 245.22 283.29C246.37 283.43 247.58 283.63 248.8 284.23C250.05 284.67 251.23 285.96 251.79 287.42L251.85 287.6L251.86 287.88C251.89 290.47 250.8 293.06 249.16 294.92C247.53 296.8 245.49 298.07 243.44 299.09C239.29 301.09 234.92 302.09 230.57 302.79C221.82 304.11 213.02 303.87 204.35 302.98C200.03 302.48 195.7 301.92 191.43 301.04C189.3 300.55 187.17 300.16 185.04 299.56C182.93 298.94 180.9 298.15 178.85 297.42C174.73 295.97 170.63 294.4 166.73 292.24C162.85 290.12 159.08 287.19 156.79 282.97L155.92 281.38L157.71 281.08C164.88 279.88 172.1 281 178.93 282.51C182.37 283.24 185.78 284.03 189.22 284.66C192.67 285.26 196.15 285.64 199.65 285.69ZM199.64 285.98C196.14 285.95 192.63 285.65 189.14 285.27C185.64 284.92 182.16 284.43 178.69 284C175.22 283.56 171.75 283.26 168.31 283.12C165.53 283.03 162.76 283.12 160.02 283.4C161.96 286.23 164.8 288.47 167.77 290.43C171.36 292.74 175.29 294.58 179.27 296.29C187.16 299.94 195.86 301.12 204.46 301.66C213.07 302.05 221.74 301.67 230.14 300.17C234.31 299.39 238.48 298.31 242.14 296.42C245.67 294.61 248.75 291.78 248.86 288.15C248.39 287.11 246.74 286.45 244.86 286.25C242.88 286 240.76 286.05 238.64 286.16C234.38 286.28 230.06 286.8 225.69 286.91C223.52 286.99 221.32 286.99 219.13 286.94L212.63 286.53C208.3 286.24 203.97 286.11 199.64 285.98ZM160.02 283.4C159.65 282.87 159.32 282.32 159.02 281.74L158.09 283.64C158.73 283.55 159.37 283.47 160.02 283.4ZM248.86 288.15C248.89 288.21 248.92 288.27 248.94 288.34L248.87 287.88C248.87 287.97 248.87 288.06 248.86 288.15Z" />
								</g>
							</g>
						</g>
						<g >
							<g >
								<g >
									<path fill-rule="evenodd" class="shp2" d="M1045.83 155.65C1047.5 161.21 1046.07 167.36 1042.79 172.02C1039.53 176.72 1035.12 180.44 1030.47 183.62C1021.1 189.96 1010.55 194.2 999.86 197.58C986.18 204.62 971.6 209.54 956.9 213.74C942.19 218 927.22 221.24 912.22 224.2C882.17 229.96 851.84 234.03 821.42 237.11C791 240.14 760.49 242.3 729.94 243.39C714.67 243.98 699.39 244.23 684.11 244.4C676.47 244.41 668.83 244.54 661.18 244.44L638.22 243.43L638.05 243.42L637.86 243.33C623.72 236.54 609.01 230.34 593.43 229C589.56 228.75 585.66 228.64 581.81 229.08C579.87 229.24 577.97 229.59 576.05 229.92L570.3 231.17C562.63 232.89 555.01 234.83 547.36 236.75C532.1 240.61 516.69 244.3 500.95 245.87C493.09 246.49 485.14 246.88 477.27 245.88L474.31 245.59C473.33 245.45 472.37 245.23 471.39 245.05C469.45 244.65 467.49 244.32 465.56 243.88C461.79 242.64 457.9 241.74 454.34 239.94C452.55 239.07 450.63 238.46 448.96 237.38L443.85 234.32C440.5 232.27 437.02 230.43 433.4 228.93C431.59 228.19 429.75 227.52 427.87 226.96C426 226.42 424.08 225.93 422.2 225.34C418.42 224.22 414.62 223.2 410.82 222.17C395.6 218.17 380.18 214.98 364.67 212.33C349.16 209.68 333.57 207.53 317.96 205.56L306.25 204.12C302.37 203.63 298.39 203.22 294.52 202.25C286.85 200.4 279.07 197.18 273.6 190.95C270.93 187.88 269.06 183.74 269.41 179.45C269.71 175.15 272.09 171.38 274.91 168.5C280.74 162.84 287.55 158.58 294.61 154.92C308.81 147.71 323.99 142.98 339.15 138.66L361.94 132.38L373.3 129.16C377.11 128.11 380.96 127.21 384.79 126.23C392.4 124.22 400.54 122.85 408.61 124.09C416.4 125.26 424.15 126.56 431.92 127.33C439.67 128.02 447.54 128.35 455.02 126.67C458.78 125.87 462.23 124.43 465.6 122.46C469.11 120.59 472.63 118.73 476.16 116.94C490.27 109.78 504.87 103.34 520.18 99.08C535.42 94.64 551.41 92.73 567.29 93.48C571.24 93.91 575.23 93.98 579.14 94.74L585.03 95.69C586.97 96.08 588.89 96.58 590.82 97.02C598.39 99.06 606.04 99.66 613.91 100.81L647.46 100.35C658.69 100.14 669.92 100.1 681.14 100.24C703.6 100.47 726.06 101.04 748.49 102.18C793.34 104.56 838.13 108.63 882.54 115.52L882.74 115.55L882.89 115.66C885.61 117.64 888.96 119.25 891.2 122.34L891.23 122.38L891.26 122.43C894.58 128.33 899.47 133.31 905.02 137.21C910.56 141.16 916.72 144.2 923.17 146.31C936.07 150.5 950.17 151.1 963.34 147.86C969.93 146.14 975.84 142.57 981.91 139.34C984.96 137.76 988.09 136.26 991.38 135.22C994.69 134.24 998.08 133.46 1001.52 133.32C1004.96 133.05 1008.4 133.29 1011.82 133.65C1015.21 134.22 1018.57 134.88 1021.91 135.68C1025.24 136.48 1028.55 137.46 1031.68 138.93C1034.79 140.39 1037.7 142.48 1039.72 145.35C1042.59 148.16 1044.89 151.69 1045.83 155.65ZM999.86 197.58C999.87 197.58 999.88 197.57 999.89 197.56L999.82 197.59C999.84 197.59 999.85 197.58 999.86 197.58ZM613.91 100.81L613.78 100.81L614.02 100.83C613.98 100.82 613.94 100.81 613.91 100.81ZM1039.72 145.35C1039.72 145.35 1039.72 145.35 1039.72 145.35L1039.74 145.37C1039.73 145.37 1039.73 145.36 1039.72 145.35ZM1045.56 155.73C1044.59 151.82 1042.31 148.37 1039.46 145.62L1039.45 145.6L1039.44 145.59C1037.44 142.8 1034.58 140.76 1031.5 139.34C1028.4 137.91 1025.11 136.96 1021.79 136.19C1018.47 135.42 1015.1 134.78 1011.74 134.24C1008.36 133.91 1004.96 133.7 1001.57 133.99C998.17 134.14 994.84 134.94 991.6 135.92C988.37 136.97 985.3 138.47 982.27 140.06C976.28 143.3 970.31 146.98 963.59 148.79C950.21 152.17 935.96 151.66 922.8 147.5C916.23 145.4 909.93 142.35 904.24 138.35C898.56 134.4 893.49 129.38 889.94 123.23C888.03 120.63 884.98 119.11 882.12 117.13C837.79 110.66 793.09 107.01 748.35 105.04C725.95 104.03 703.54 103.33 681.12 103.11C669.9 102.97 658.69 102.99 647.49 103.2L613.85 103.63L613.72 103.63L613.61 103.61C605.95 102.48 597.88 101.82 590.23 99.75C588.33 99.31 586.43 98.82 584.52 98.43L578.75 97.5C574.92 96.74 571.01 96.68 567.14 96.25C551.59 95.51 535.91 97.35 520.89 101.72C505.81 105.9 491.37 112.24 477.33 119.35C473.81 121.13 470.35 122.96 466.89 124.8C463.43 126.83 459.54 128.45 455.58 129.28C447.63 131.04 439.55 130.67 431.68 129.96C423.78 129.18 415.99 127.86 408.23 126.63C400.65 125.42 392.91 126.64 385.34 128.59C381.53 129.54 377.71 130.4 373.91 131.43L362.52 134.58L339.7 140.72C324.56 144.92 309.45 149.54 295.41 156.56C288.46 160.1 281.68 164.31 276.09 169.68C273.41 172.39 271.26 175.8 270.99 179.57C270.66 183.34 272.28 187.06 274.76 189.94C279.83 195.79 287.37 199.01 294.85 200.84C298.62 201.8 302.5 202.22 306.41 202.73L318.13 204.23C333.74 206.27 349.34 208.49 364.86 211.21C380.38 213.93 395.81 217.2 411.05 221.27C414.86 222.31 418.66 223.35 422.43 224.49C424.31 225.08 426.21 225.54 428.13 226.09C430.03 226.64 431.9 227.31 433.74 228.06C437.43 229.55 440.96 231.4 444.36 233.45L449.43 236.46C451.1 237.52 452.99 238.1 454.75 238.95C458.27 240.71 462.11 241.57 465.83 242.77C467.74 243.19 469.67 243.51 471.59 243.89C472.55 244.06 473.5 244.28 474.47 244.41L477.39 244.68C485.16 245.63 493.03 245.19 500.83 244.53C516.43 242.89 531.75 239.13 546.98 235.19C554.61 233.23 562.24 231.24 569.93 229.47L575.71 228.18C577.66 227.83 579.65 227.46 581.63 227.28C585.6 226.82 589.6 226.91 593.58 227.14C609.48 228.43 624.38 234.62 638.55 241.34L661.2 242.22C668.82 242.28 676.45 242.11 684.08 242.07C699.34 241.81 714.6 241.48 729.85 240.82C760.35 239.63 790.84 237.94 821.23 235.08C851.62 232.23 881.94 228.4 911.97 222.86C926.97 220.01 941.93 216.88 956.63 212.72C971.33 208.64 985.9 203.82 999.55 196.9L999.59 196.89L999.62 196.88C1010.29 193.58 1020.83 189.43 1030.19 183.19C1034.83 180.06 1039.22 176.4 1042.47 171.78C1045.72 167.21 1047.15 161.22 1045.56 155.73ZM889.94 123.23C889.95 123.24 889.96 123.26 889.97 123.27L889.91 123.18C889.92 123.2 889.93 123.22 889.94 123.23ZM882.12 117.13C882.18 117.14 882.24 117.15 882.3 117.15L881.96 117.01C882.01 117.05 882.07 117.09 882.12 117.13ZM638.55 241.34L638.38 241.33L638.74 241.43C638.68 241.4 638.61 241.37 638.55 241.34Z" />
								</g>
								<g >
									<path fill-rule="evenodd" class="shp2" d="M662.64 110.29C699.89 110.15 737.15 111.24 774.32 113.87C792.91 115.2 811.47 116.91 829.98 119.09C839.24 120.22 848.47 121.4 857.71 122.82C862.34 123.45 866.96 124.31 871.52 125.6C876.06 126.9 880.6 128.88 884.32 132.1L884.41 132.18L884.49 132.29C889.85 139.67 897.61 144.91 905.9 148.53C914.23 152.17 923.16 154.39 932.19 155.75C950.26 158.46 968.7 158.54 987.01 157.46C991.58 157.17 996.16 156.85 1000.74 156.41L1007.6 155.74C1010.05 155.56 1012.93 155.78 1015.18 157.68C1017.46 159.57 1018.13 162.61 1018.03 165.15C1017.94 167.76 1017.21 170.23 1016.13 172.49C1015.03 174.73 1013.52 176.8 1011.69 178.48C1009.87 180.14 1008.05 181.56 1006.06 182.92C998.11 188.2 989.13 191.29 980.14 193.6C971.18 195.87 962.04 197.17 952.89 198.01C928.35 208.84 902.24 214.48 876.23 219.42C850.05 224.09 823.67 227.44 797.23 229.83C770.77 232.2 744.26 233.71 717.73 234.54C711.1 234.76 704.47 234.95 697.83 235.03C691.19 235.14 684.56 235.3 677.93 235.28C664.72 235.18 651.24 236.14 638.14 232.8L638.06 232.78L637.98 232.75C622.1 224.91 604.35 221.34 586.68 221.39C568.98 221.23 551.35 224.28 534.23 228.85C525.68 231.2 517.22 233.91 508.9 237.06C504.63 238.46 500.24 239.47 495.77 239.81C491.29 240.11 486.8 239.88 482.37 239.18C473.53 237.64 465.09 234.34 457.17 230.19C449.22 226.12 441.84 221.09 434.38 216.26C399.61 205.85 363.51 200.76 328.48 190.78C324.23 189.49 319.37 188.61 315.61 185.35C313.68 183.85 312.15 181.69 311.41 179.24C310.65 176.79 310.88 174.05 311.88 171.72C314.01 167.02 318.38 164.19 322.7 162.5L335.44 157.59C352.36 150.99 369.36 143.96 387.37 140.38C396.35 138.57 405.51 137.57 414.69 137.73L421.55 138.05C423.83 138.25 426.09 138.55 428.36 138.8C432.87 139.15 437.36 139.3 441.87 139.56C450.86 139.81 459.98 139.46 468.58 136.95C472.92 135.73 476.79 133.69 480.67 131.21C484.58 128.86 488.48 126.48 492.44 124.21C508.19 115.06 524.81 106.74 542.78 103.13C551.72 101.3 560.88 100.58 569.99 101.16C579.08 101.91 588 103.95 596.64 106.85L614.73 110.91L662.64 110.29ZM952.89 198.01C952.96 197.98 953.04 197.94 953.12 197.91L952.66 198.03C952.74 198.02 952.81 198.02 952.89 198.01ZM434.38 216.26C434.41 216.27 434.44 216.28 434.47 216.29L434.29 216.21C434.32 216.23 434.35 216.24 434.38 216.26ZM596.64 106.85L596.64 106.85L596.66 106.85C596.65 106.85 596.65 106.85 596.64 106.85ZM614.73 110.91L614.69 110.91L614.74 110.91L614.73 110.91ZM662.64 110.58L614.7 111.39L614.67 111.39L614.65 111.39L596.5 107.39L596.49 107.39L596.48 107.39C587.87 104.52 578.97 102.56 569.94 101.94C560.9 101.47 551.83 102.28 543 104.2C525.25 107.99 508.86 116.39 493.24 125.62C489.31 127.92 485.44 130.32 481.55 132.71C477.78 135.18 473.53 137.47 469.1 138.73C460.2 141.41 450.93 141.82 441.82 141.64C437.27 141.42 432.67 141.31 428.14 140.98C425.89 140.76 423.64 140.48 421.4 140.31L414.66 140.05C405.67 139.97 396.68 141.02 387.86 142.87C370.2 146.59 353.24 153.24 336.28 159.82L323.53 164.66C319.47 166.2 315.64 168.79 313.89 172.63C312.12 176.46 313.56 181.06 316.96 183.68C320.2 186.55 324.67 187.44 329.02 188.77C363.89 198.92 400 204.23 434.88 214.92L434.97 214.95L435.06 215C442.51 219.9 449.87 224.97 457.74 229.07C465.56 233.23 473.87 236.53 482.55 238.09C486.9 238.81 491.3 239.06 495.69 238.8C500.09 238.49 504.4 237.52 508.59 236.18C516.95 233.12 525.41 230.31 533.99 227.92C551.15 223.24 568.85 220.09 586.69 220.16C604.46 220.03 622.41 223.52 638.55 231.37C651.35 234.56 664.71 233.57 677.91 233.56C684.54 233.53 691.17 233.33 697.79 233.18C704.42 233.05 711.04 232.82 717.66 232.55C744.15 231.53 770.62 229.84 797 227.29C823.37 224.73 849.69 221.47 875.76 216.76C901.72 211.81 927.84 206.1 951.98 195.38L952.21 195.28L952.43 195.26C961.54 194.43 970.63 193.12 979.47 190.87C988.28 188.61 997.02 185.56 1004.52 180.55C1006.36 179.31 1008.19 177.86 1009.8 176.39C1011.38 174.93 1012.66 173.17 1013.62 171.22C1014.56 169.28 1015.16 167.15 1015.23 165.07C1015.3 163.01 1014.75 160.97 1013.36 159.87C1012 158.71 1009.96 158.45 1007.87 158.6L1000.99 159.27C996.4 159.72 991.78 160.05 987.17 160.35C968.75 161.41 950.12 161.51 931.76 158.47C922.6 157.01 913.49 154.65 904.92 150.81C896.44 147 888.39 141.49 882.81 133.69C879.45 130.76 875.3 128.88 870.96 127.6C866.54 126.29 862 125.4 857.41 124.73C848.24 123.23 839.01 121.95 829.79 120.73C811.33 118.36 792.8 116.51 774.24 115.04C737.12 112.12 699.88 110.74 662.64 110.58ZM638.55 231.37C638.53 231.37 638.5 231.36 638.48 231.36L638.63 231.41C638.6 231.4 638.58 231.39 638.55 231.37ZM882.81 133.69C882.84 133.72 882.87 133.75 882.91 133.78L882.73 133.59C882.76 133.62 882.78 133.66 882.81 133.69Z" />
								</g>
								<g >
									<path fill-rule="evenodd" class="shp2" d="M962.9 181.63C960.46 183.54 957.54 184.68 954.59 185.41C951.63 186.15 948.6 186.51 945.58 186.79C939.54 187.35 933.45 187.58 927.54 188.88L927.53 188.88L927.51 188.88C924.57 189.2 921.66 189.76 918.84 190.63C916.02 191.5 913.28 192.68 910.53 193.78C905.11 196.25 899.51 198.31 893.88 200.23C882.59 204.01 871.05 206.94 859.43 209.46C836.19 214.48 812.65 217.94 789.03 220.57C777.22 221.9 765.38 222.69 753.55 223.71C741.72 224.64 729.87 225.54 718.01 226.09C706.14 226.66 694.26 226.99 682.38 227.02C676.44 227.05 670.49 226.96 664.56 226.81L646.77 226.62L646.58 226.62L646.39 226.54C630.02 219.83 612.49 216.2 594.82 215.33C590.41 214.96 585.98 215.08 581.55 214.96C577.13 215.11 572.69 215.08 568.27 215.43C559.42 215.87 550.6 216.91 541.8 218.02C524.18 220.35 506.8 223.86 489.21 226.92C480.18 227.94 471.19 224.71 463.72 219.82C459.93 217.4 456.37 214.64 452.86 211.87L442.31 203.8C432.8 201.44 423.26 199.11 413.88 196.15C409.18 194.65 404.5 193.02 399.97 190.99C395.46 188.94 390.99 186.6 387.14 183.26C385.29 181.48 383.51 179.73 382.27 177.27C381.7 176.03 381.42 174.6 381.56 173.21C381.71 171.83 382.21 170.54 382.85 169.38C385.59 164.79 389.98 161.95 394.27 159.46C403.05 154.66 412.68 151.71 422.51 150.25L422.56 150.24L422.69 150.24C431.14 150.22 439.6 150.65 448.01 149.78C456.42 149.04 464.77 147.68 472.96 145.66C489.32 141.6 505.15 134.93 518.89 125.11C522.36 122.68 525.5 119.94 528.73 117.12C532.12 114.03 536.29 112.24 540.43 110.87C548.81 108.22 557.55 107.86 566.12 108.15C574.72 108.52 583.23 109.86 591.58 111.89C595.76 112.88 599.85 114.44 603.93 115.39L616 118.54L647.4 118.03L663.22 117.79L679.03 117.89L694.83 118.16C700.08 118.16 705.38 118.24 710.65 118.4C721.21 118.72 731.75 119.26 742.27 120.11C763.28 121.79 784.31 123.52 805.23 126.28C815.7 127.64 826.14 129.17 836.53 130.97C846.95 132.68 857.24 135.11 867.57 137.24L867.64 137.25L867.71 137.29C881.82 144.46 894.83 153.5 908.87 160.63C915.88 164.19 923.14 167.26 930.64 169.58C938.13 171.91 945.85 173.48 953.64 174.39L953.65 174.4L953.66 174.4C956.03 174.9 958.4 175.46 960.69 176.33C961.81 176.79 962.99 177.29 963.82 178.29C964.24 178.78 964.39 179.56 964.09 180.16C963.84 180.79 963.35 181.2 962.9 181.63ZM442.31 203.8C442.34 203.81 442.38 203.82 442.42 203.83L442.24 203.75L442.31 203.8ZM616 118.54L615.77 118.54L616.17 118.59L616 118.54ZM962.72 181.4C963.62 180.7 964.44 179.43 963.58 178.48C962.83 177.59 961.68 177.08 960.57 176.64C958.32 175.79 955.96 175.25 953.6 174.77C945.78 173.89 938.03 172.36 930.5 170.07C922.95 167.78 915.65 164.74 908.59 161.21C894.47 154.21 881.31 145.4 867.24 138.47C856.91 136.51 846.66 134.21 836.27 132.63C825.87 130.96 815.44 129.56 804.99 128.33C784.09 125.82 763.09 124.36 742.08 122.93C731.57 122.27 721.08 121.63 710.58 121.36C705.32 121.22 700.08 121.15 694.8 121.15L679 120.9L663.22 120.82L647.44 121.09L615.87 121.65L615.64 121.65L615.47 121.61L603.04 118.33C598.84 117.33 594.97 115.82 590.87 114.83C582.72 112.82 574.37 111.46 566 111.07C557.65 110.75 549.15 111.1 541.25 113.57C537.37 114.84 533.5 116.49 530.52 119.21C527.31 122 523.98 124.89 520.43 127.34C506.32 137.38 490.15 144.03 473.51 148C465.18 149.98 456.7 151.29 448.19 151.96C439.71 152.76 431.21 152.28 422.72 152.22C413.13 153.56 403.64 156.38 395.07 160.97C390.9 163.33 386.64 166.13 384.21 170.17C383.03 172.17 382.65 174.57 383.66 176.61C384.64 178.63 386.41 180.49 388.12 182.12C391.74 185.32 396.11 187.64 400.53 189.68C404.99 191.71 409.61 193.35 414.28 194.87C423.62 197.89 433.16 200.28 442.69 202.7L442.8 202.73L442.87 202.79L453.51 211.02C457.01 213.81 460.51 216.56 464.24 218.97C471.59 223.81 480.32 227.1 489.12 226C506.52 222.83 524.01 219.17 541.62 216.7C550.44 215.52 559.29 214.41 568.18 213.9C572.62 213.52 577.08 213.52 581.54 213.33C585.99 213.41 590.45 213.27 594.91 213.6C612.66 214.34 630.37 217.87 646.97 224.52L664.59 224.59C670.53 224.69 676.44 224.74 682.37 224.67C694.21 224.56 706.05 224.15 717.88 223.5C741.54 222.24 765.23 220.56 788.82 218.37C812.4 216.07 835.94 212.97 859.19 208.28C870.81 205.93 882.36 203.16 893.67 199.56C899.32 197.74 904.89 195.7 910.32 193.26C913.09 192.17 915.83 191 918.7 190.14C921.54 189.27 924.48 188.72 927.44 188.41C933.41 187.13 939.51 186.94 945.55 186.41C948.56 186.14 951.58 185.8 954.51 185.08C957.44 184.37 960.32 183.25 962.72 181.4ZM953.6 174.77C953.6 174.77 953.6 174.77 953.6 174.77L953.58 174.76C953.59 174.77 953.59 174.77 953.6 174.77ZM867.24 138.47C867.26 138.47 867.28 138.48 867.3 138.48L867.16 138.43C867.19 138.44 867.21 138.46 867.24 138.47ZM422.72 152.22C422.74 152.21 422.75 152.21 422.77 152.21L422.59 152.21C422.63 152.21 422.68 152.21 422.72 152.22ZM646.97 224.52L646.79 224.52L647.17 224.6C647.1 224.57 647.04 224.55 646.97 224.52ZM927.44 188.41C927.44 188.41 927.44 188.41 927.44 188.41L927.46 188.41C927.46 188.41 927.45 188.41 927.44 188.41Z" />
								</g>
								<g >
									<path fill-rule="evenodd" class="shp2" d="M660.35 128.65C667.28 129.44 674.24 130.12 681.21 130.29L702.13 129.6C716.09 129.18 730.06 128.7 744.05 129.18C758.02 129.58 772.04 130.95 785.76 133.88C799.44 136.37 813.35 138.09 827.08 140.96C840.8 143.78 854.51 147.1 867.58 152.65C870.84 154.05 874.05 155.61 877.13 157.48C880.19 159.37 883.22 161.48 885.64 164.45C886.83 165.93 887.89 167.65 888.44 169.63C889.05 171.6 888.87 173.8 888.29 175.73C886.98 179.64 884.16 182.4 881.32 184.67C875.45 189.05 868.9 191.95 862.3 194.47C855.68 196.96 848.93 198.98 842.13 200.75C835.33 202.51 828.47 203.97 821.59 205.33L800.81 208.68L800.7 208.7L800.56 208.69C794.11 208.38 787.81 207.46 781.61 207.87C778.53 208.01 775.4 208.64 772.24 209.11L762.8 210.62C750.22 212.71 737.61 214.8 724.94 216.53C712.28 218.26 699.52 219.55 686.71 219.86C673.93 220.2 661.1 219.57 648.43 217.75C642.75 217.54 636.99 217.27 631.35 216.07L631.28 216.06L631.21 216.03C618.26 210.48 604.19 208.04 590.14 207.34C576.06 206.63 561.93 207.65 547.87 208.97C533.81 210.29 519.75 211.89 505.62 212.7C498.51 213 491.53 213.37 484.3 212.9C480.7 212.42 477.15 211.29 474.02 209.32C470.96 207.41 468.18 204.58 467.04 200.85C464.76 197.22 462.04 193.94 458.37 192.07C454.55 190.09 450.6 188.18 446.8 185.95C443.07 183.65 439.13 181.31 436.52 177.12C435.19 175.06 434.93 171.99 436.07 169.68C437.18 167.39 438.92 165.72 440.71 164.33L440.79 164.26L440.88 164.22C442.71 163.27 444.55 162.79 446.42 162.41C448.28 162.05 450.17 161.88 452.06 161.88C468.6 160.78 484.87 156.71 500.08 150.02C515.34 143.35 529.33 134.02 543.06 124.38L543.1 124.36L543.12 124.34C547.74 121.64 552.85 120.04 558.02 119.16C563.19 118.29 568.45 118.11 573.65 118.41C584.05 119.07 594.34 121.47 603.89 125.68L603.86 125.67C608.19 127.22 612.82 127.73 617.35 128.78L638.83 128.2C645.99 128.1 653.19 127.89 660.35 128.65ZM648.43 217.75C648.44 217.76 648.46 217.76 648.47 217.76L648.4 217.75C648.41 217.75 648.42 217.75 648.43 217.75ZM467.04 200.85C467.06 200.88 467.08 200.92 467.1 200.95L466.99 200.7C467.01 200.75 467.02 200.8 467.04 200.85ZM452.06 161.88C452.05 161.88 452.03 161.88 452.02 161.88L452.11 161.88C452.09 161.88 452.08 161.88 452.06 161.88ZM617.35 128.78L617.31 128.78L617.38 128.79C617.37 128.78 617.36 128.78 617.35 128.78ZM660.32 128.94C653.19 128.23 646 128.48 638.84 128.63L617.33 129.34L617.29 129.35L617.26 129.34C612.76 128.31 608.1 127.83 603.63 126.35L603.63 126.34L603.61 126.34C594.09 122.33 583.85 120.14 573.59 119.67C568.46 119.47 563.3 119.73 558.28 120.68C553.28 121.63 548.39 123.26 544.07 125.9C537.27 130.83 530.44 135.76 523.29 140.23C516.14 144.69 508.76 148.84 501.04 152.27C493.34 155.71 485.35 158.57 477.16 160.6C468.96 162.61 460.58 163.85 452.18 164.39L452.14 164.39L452.09 164.39C450.35 164.38 448.59 164.53 446.87 164.86C445.2 165.18 443.49 165.65 442.08 166.36C440.47 167.6 439.04 169.06 438.24 170.71C437.46 172.4 437.56 174.24 438.57 175.92C440.57 179.31 444.32 181.8 447.91 184.03C451.58 186.26 455.45 188.19 459.31 190.26C463.42 192.42 466.38 196.18 468.65 199.95L468.73 200.07L468.76 200.2C469.63 203.37 472.07 206.05 474.92 207.86C477.78 209.72 481.1 210.84 484.5 211.34C491.37 211.89 498.55 211.64 505.55 211.44C519.65 210.83 533.7 209.22 547.79 208.01C561.87 206.84 576.01 205.65 590.19 206.26C604.3 206.86 618.5 209.2 631.69 214.71C637.21 215.83 642.85 216.06 648.53 216.23L648.56 216.23L648.61 216.23C661.21 217.96 673.95 218.41 686.66 217.95C699.37 217.5 712.03 216.09 724.63 214.22C737.24 212.39 749.78 210.09 762.38 207.97L771.83 206.41C774.99 205.93 778.14 205.28 781.44 205.09C787.94 204.64 794.3 205.54 800.54 205.82L821.03 202.41C827.85 201.02 834.66 199.54 841.38 197.76C848.1 195.96 854.77 194.01 861.25 191.58C867.7 189.13 874.09 186.28 879.51 182.25C882.13 180.19 884.51 177.7 885.46 174.82C886.5 171.94 885.44 168.84 883.36 166.36C881.33 163.83 878.51 161.82 875.63 160.04C872.72 158.26 869.61 156.75 866.44 155.38C853.7 150.01 840.14 146.5 826.57 143.46C812.97 140.41 799.16 138.49 785.38 135.76C771.8 132.63 757.92 131.09 744 130.42C730.08 129.74 716.11 129.82 702.15 130.19L681.2 130.73C674.2 130.51 667.25 129.78 660.32 128.94ZM544.07 125.9C544.08 125.89 544.09 125.88 544.1 125.88L544.04 125.92C544.05 125.91 544.06 125.9 544.07 125.9ZM442.08 166.36C442.11 166.34 442.14 166.32 442.17 166.29L442.01 166.4C442.03 166.39 442.05 166.38 442.08 166.36ZM631.69 214.71C631.66 214.71 631.64 214.7 631.62 214.7L631.75 214.74C631.73 214.73 631.71 214.72 631.69 214.71ZM800.54 205.82L800.45 205.83L800.7 205.82C800.65 205.82 800.59 205.82 800.54 205.82Z" />
								</g>
								<g >
									<path fill-rule="evenodd" class="shp2" d="M842.56 172.48C842.55 174.95 841.27 177.18 839.69 178.93C838.08 180.7 836.15 182.1 834.17 183.37C830.15 185.85 825.85 187.78 821.42 189.36C819.18 190.08 816.88 190.64 814.54 190.93C812.21 191.28 809.82 191.1 807.5 191.01C802.83 190.83 798.17 190.61 793.51 190.68C788.86 190.73 784.21 191.09 779.71 192.09C775.26 193.12 770.89 195.06 766.46 196.49C757.61 199.56 748.67 202.42 739.62 204.9C721.53 209.8 702.94 213.34 684.12 213.9C674.73 214.28 665.3 213.81 655.97 212.65C651.29 212.14 646.7 211.18 642.08 210.34L628.27 208.51L628.13 208.49L628.04 208.46C615.49 203.89 602.25 201.34 588.92 200.16C575.57 198.94 562.14 198.97 548.73 199.25L508.46 200.84C505.04 200.86 501.53 200.24 498.43 198.54C495.3 196.86 492.98 193.98 491.28 190.99C490.41 189.49 489.66 187.95 488.85 186.49L486.26 182.11C485.43 180.62 484.45 178.94 484.63 176.82C484.89 174.63 486.64 173.29 488.1 172.4L488.13 172.38L488.19 172.35C499.53 167.37 510.61 161.76 521.41 155.65C532.21 149.55 542.74 142.94 553.15 136.15L553.2 136.12L553.24 136.1C561.54 131.73 570.91 130.4 580.01 130.7C588.99 131.06 597.99 133.07 606.11 137.31C611.78 137 617.45 136.56 623.13 136.37L640.59 135.75L640.99 135.74L641.36 135.94C645.04 137.97 649.2 139.23 653.43 140.03C657.67 140.85 662.02 141.18 666.37 141.24C675.05 141.47 683.72 139.68 692.61 138.89C710.24 137.02 728.03 136.34 745.76 137.12C763.46 138.09 781.23 140.6 798.04 146.47C806.39 149.57 814.58 152.91 822.86 156.09C826.98 157.71 831.06 159.55 834.81 161.99C836.67 163.22 838.46 164.61 839.93 166.32C841.42 168 842.55 170.15 842.56 172.48ZM606.11 137.31C605.97 137.32 605.83 137.33 605.69 137.34L606.48 137.51C606.36 137.45 606.23 137.38 606.11 137.31ZM842.27 172.48C842.25 170.25 841.15 168.19 839.67 166.55C838.22 164.9 836.44 163.54 834.59 162.34C830.86 159.96 826.79 158.17 822.67 156.58C814.38 153.46 806.1 150.2 797.76 147.36C780.93 141.93 763.26 139.79 745.68 139.16C728.06 138.67 710.43 139.86 692.91 141.82C688.5 142.27 684.18 142.82 679.77 143.4C675.33 144.01 670.83 144.3 666.34 144.25C661.85 144.2 657.34 143.87 652.89 143.02C648.58 142.22 644.28 140.97 640.27 138.84L623.26 139.47C617.46 139.62 611.67 140.05 605.88 140.32L605.45 140.34L605.09 140.15C597.42 135.99 588.64 133.92 579.89 133.52C571.18 133.17 562.2 134.43 554.49 138.44C533.53 151.85 511.79 164.23 488.86 173.88C487.54 174.66 486.33 175.7 486.19 177.02C486.04 178.37 486.77 179.9 487.58 181.33L490.14 185.75C490.97 187.27 491.7 188.8 492.52 190.26C494.14 193.16 496.23 195.78 499.07 197.35C501.89 198.92 505.19 199.56 508.46 199.57L548.7 198.37C562.13 198.01 575.59 197.87 589.01 199C602.39 199.97 615.75 202.26 628.55 206.66L642.44 208.26C647.04 209.02 651.62 209.89 656.24 210.31C665.46 211.33 674.76 211.8 684.04 211.35C693.31 210.96 702.56 209.96 711.75 208.55C720.94 207.09 730.04 205.08 739.07 202.75C748.11 200.47 757.08 197.85 765.97 194.98C770.47 193.65 774.75 191.85 779.45 190.85C784.1 189.93 788.82 189.67 793.51 189.72C798.2 189.76 802.87 190.09 807.53 190.36C812.19 190.89 816.82 190.31 821.27 188.87C825.65 187.35 829.97 185.45 833.96 183.03C835.93 181.79 837.85 180.41 839.43 178.69C841 176.99 842.25 174.84 842.27 172.48ZM640.27 138.84L640.66 138.82L639.9 138.64C640.02 138.7 640.15 138.77 640.27 138.84ZM554.49 138.44C554.51 138.42 554.53 138.41 554.55 138.4L554.46 138.45C554.47 138.45 554.48 138.44 554.49 138.44ZM488.86 173.88C488.88 173.87 488.9 173.86 488.91 173.85L488.83 173.89C488.84 173.89 488.85 173.88 488.86 173.88ZM628.55 206.66L628.44 206.65L628.66 206.7C628.62 206.69 628.59 206.67 628.55 206.66Z" />
								</g>
								<g >
									<path fill-rule="evenodd" class="shp2" d="M650.48 154.44C657.03 155.14 663.63 155.24 670.18 154.72C690.28 151.23 710.25 146.72 730.72 145.12C740.94 144.37 751.28 144.36 761.53 145.81C771.74 147.32 781.88 150.45 790.89 155.85L790.98 155.91L791.05 155.97C792.66 157.29 794.28 158.65 795.6 160.61C796.23 161.59 796.84 162.81 796.82 164.33C796.8 165.86 795.93 167.22 795.02 168.06C793.05 169.71 791.29 170.32 789.53 171.35L784.21 174.18C777.07 177.88 769.87 181.49 762.55 184.83C747.92 191.52 732.87 197.45 717.26 201.43C701.69 205.44 685.61 207.71 669.53 207.24C653.48 206.87 637.51 203.84 622.43 198.34C614.7 197.71 607.14 196.22 599.56 194.94L599.53 194.93L599.5 194.92C593.88 193.31 588.03 192.54 582.18 192.11C576.32 191.68 570.44 191.51 564.54 191.24C558.65 190.97 552.73 190.64 546.82 189.74C540.97 188.8 534.94 187.36 529.73 183.84L529.5 183.69L529.35 183.41C528.83 182.4 528.33 181.29 528.08 180.03C527.84 178.77 527.93 177.38 528.37 176.16C529.25 173.74 530.98 172.07 532.68 170.64C537.77 165.76 543.37 161.4 549.44 157.85C555.51 154.26 562 151.43 568.73 149.46C582.24 145.58 596.47 145.4 610.15 147.5C613.57 147.27 617.01 147.06 620.45 147.1C623.91 147.13 627.41 147.33 630.77 148.35C634.06 149.55 637.15 151.02 640.46 152.06C643.72 153.14 647.07 154 650.48 154.44ZM670.18 154.72C670.18 154.73 670.18 154.73 670.17 154.73L670.2 154.72C670.19 154.72 670.19 154.72 670.18 154.72ZM622.43 198.34C622.45 198.34 622.47 198.34 622.49 198.35L622.37 198.32C622.39 198.33 622.41 198.33 622.43 198.34ZM532.68 170.64C532.68 170.65 532.67 170.66 532.66 170.66L532.75 170.59C532.73 170.61 532.71 170.62 532.68 170.64ZM610.15 147.5C610.13 147.5 610.11 147.5 610.09 147.51L610.19 147.51C610.18 147.51 610.16 147.5 610.15 147.5ZM650.45 154.73C647.01 154.33 643.63 153.5 640.33 152.44C637.03 151.44 633.83 149.97 630.62 148.85C627.34 147.88 623.88 147.7 620.46 147.73C617.02 147.8 613.6 148.12 610.17 148.45L610.12 148.45L610.06 148.45C596.41 146.75 582.4 147.39 569.34 151.58C556.22 155.55 544.4 163.12 534.38 172.52L534.34 172.56L534.3 172.59C532.73 173.86 531.28 175.33 530.68 177C530.08 178.57 530.47 180.26 531.34 181.98C535.97 185.04 541.56 186.6 547.17 187.62C552.9 188.64 558.77 189.1 564.63 189.51C570.51 189.92 576.4 190.23 582.29 190.81C588.15 191.42 594.05 192.19 599.75 193.91C607.35 195.22 614.9 196.93 622.55 197.41L622.61 197.41L622.68 197.43C637.76 202.71 653.64 205.52 669.55 205.69C685.48 205.89 701.34 203.33 716.66 199.09C732 194.8 746.9 188.97 761.35 182.16C768.6 178.8 775.7 175.1 782.81 171.43L788.12 168.62C789.84 167.66 791.87 166.77 792.98 165.81C795.36 164.12 792.21 160.71 789.31 158.41C780.73 153.24 771.01 150.22 761.1 148.68C751.16 147.06 740.98 146.89 730.86 147.39C710.55 148.36 690.39 151.98 670.26 155.25L670.25 155.26L670.23 155.26C663.64 155.7 657.01 155.51 650.45 154.73ZM531.34 181.98C531.27 181.93 531.19 181.88 531.11 181.83L531.49 182.26C531.44 182.17 531.39 182.07 531.34 181.98ZM599.75 193.91C599.75 193.9 599.74 193.9 599.74 193.9L599.79 193.92C599.78 193.91 599.77 193.91 599.75 193.91ZM789.31 158.41C789.33 158.42 789.35 158.44 789.38 158.45L789.21 158.34C789.24 158.36 789.27 158.38 789.31 158.41Z" />
								</g>
								<g >
									<path fill-rule="evenodd" class="shp2" d="M742.71 160.83C744.04 163.75 744.31 167.07 743.54 170.18C742.86 173.35 741.04 176.06 739.19 178.6C735.18 183.5 730.07 187.29 724.7 190.42C713.91 196.67 701.59 200.06 689.27 201.01C676.93 202.09 664.5 201.14 652.4 198.86C646.35 197.69 640.37 196.18 634.48 194.37C628.6 192.63 622.8 190.59 617.13 188.23L605.12 186.44L599.08 185.56L593.09 184.32C589.11 183.42 585.15 182.35 581.29 180.86C579.38 180.09 577.47 179.22 575.69 178.04C574 176.86 571.99 175.26 571.8 172.48C571.91 169.69 573.9 167.99 575.57 166.76C577.34 165.49 579.24 164.58 581.15 163.74C585 162.15 588.95 160.97 592.93 159.96C594.93 159.47 596.92 159.01 598.93 158.61L604.98 157.65L617.09 155.73L617.45 155.67L617.84 155.85C633.78 162.96 651.47 165.37 668.91 164.89C677.66 164.73 686.41 163.9 695.1 162.57C703.77 161.23 712.42 159.54 720.97 157.41L721.05 157.39L721.1 157.39C724.78 157.19 728.47 157.25 732.14 157.66C733.97 157.86 735.79 158.16 737.58 158.63C739.38 159.11 741.1 159.72 742.71 160.83ZM617.13 188.23L617.2 188.24L617.09 188.21C617.1 188.22 617.12 188.22 617.13 188.23ZM742.49 161.02C741 160.13 739.2 159.56 737.45 159.21C735.68 158.84 733.87 158.65 732.06 158.54C728.47 158.32 724.86 158.52 721.28 158.81C712.78 161.22 704.18 163.36 695.46 164.87C686.72 166.41 677.89 167.47 669 167.81C660.11 168.09 651.16 167.67 642.34 166.24C633.64 164.87 625.08 162.39 617.04 158.67L605.43 160.36L599.43 161.24C597.45 161.61 595.47 162.02 593.51 162.46C589.59 163.36 585.7 164.43 581.99 165.87C580.16 166.61 578.36 167.46 576.76 168.52C575.18 169.55 573.76 170.96 573.7 172.48C573.69 174.01 575.09 175.52 576.65 176.61C578.23 177.75 580.02 178.65 581.86 179.45C585.55 181 589.44 182.17 593.35 183.18C595.31 183.68 597.29 184.12 599.28 184.52L605.28 185.47L617.3 187.34L617.37 187.35L617.42 187.37C628.78 191.95 640.65 195.19 652.7 197.03C658.73 197.96 664.8 198.49 670.87 198.76C676.93 199.06 683.02 198.95 689.06 198.4C695.1 197.87 701.14 197.17 706.92 195.44C712.75 193.78 718.39 191.49 723.76 188.67C729.09 185.8 734.15 182.28 738.17 177.73C740.06 175.4 741.94 172.91 742.72 169.95C743.58 167.05 743.51 163.89 742.49 161.02ZM721.28 158.81C721.29 158.8 721.31 158.8 721.33 158.79L721.2 158.82C721.23 158.81 721.25 158.81 721.28 158.81ZM617.04 158.67L617.41 158.61L616.66 158.5C616.79 158.55 616.91 158.61 617.04 158.67Z" />
								</g>
								<g >
									<path fill-rule="evenodd" class="shp2" d="M659.29 177.05C663.62 177.1 667.95 177.14 672.28 177.03L678.76 176.86C680.9 176.72 683.04 176.52 685.17 176.23C689.45 175.65 693.72 175.05 698.11 174.63C700.3 174.44 702.54 174.4 704.86 174.64C706.01 174.78 707.22 174.98 708.44 175.58C709.69 176.02 710.87 177.32 711.43 178.78L711.5 178.95L711.5 179.24C711.53 181.83 710.44 184.42 708.8 186.27C707.17 188.15 705.13 189.42 703.08 190.45C698.93 192.45 694.56 193.45 690.21 194.15C681.47 195.47 672.67 195.23 664 194.34C659.67 193.83 655.34 193.27 651.07 192.39C648.94 191.9 646.81 191.52 644.68 190.92C642.57 190.29 640.54 189.5 638.49 188.78C634.37 187.33 630.27 185.76 626.37 183.59C622.49 181.47 618.73 178.54 616.43 174.33L615.56 172.74L617.36 172.44C624.52 171.23 631.74 172.36 638.57 173.87C642.01 174.6 645.42 175.38 648.86 176.02C652.31 176.61 655.79 176.99 659.29 177.05ZM659.28 177.34C655.78 177.31 652.27 177.01 648.78 176.62C645.28 176.28 641.8 175.78 638.33 175.35C634.86 174.91 631.39 174.62 627.96 174.48C625.17 174.39 622.4 174.48 619.66 174.76C621.6 177.59 624.44 179.82 627.41 181.79C631 184.1 634.93 185.94 638.91 187.65C646.81 191.29 655.5 192.48 664.1 193.01C672.71 193.4 681.38 193.02 689.78 191.52C693.95 190.75 698.12 189.67 701.78 187.78C705.31 185.96 708.39 183.14 708.5 179.5C708.03 178.47 706.38 177.81 704.5 177.6C702.52 177.36 700.4 177.41 698.28 177.52C694.02 177.63 689.7 178.15 685.33 178.26C683.16 178.35 680.96 178.35 678.77 178.29L672.27 177.89C667.94 177.6 663.61 177.46 659.28 177.34ZM619.66 174.76C619.29 174.23 618.96 173.68 618.66 173.1L617.73 174.99C618.37 174.9 619.02 174.83 619.66 174.76ZM708.5 179.5C708.53 179.56 708.56 179.63 708.58 179.7L708.51 179.24C708.51 179.32 708.51 179.41 708.5 179.5Z" />
								</g>
							</g>
						</g>
						<g >
							<g >
								<g >
									<path fill-rule="evenodd" class="shp2" d="M287.8 156.8C281.79 162.5 275.2 167.41 268.25 171.78C261.22 175.99 253.89 179.69 246.33 182.84C231.17 189.04 215.31 193.28 199.31 196.5C183.28 199.63 167.04 201.5 150.79 202.73C142.65 203.36 134.51 203.44 126.37 203.82L101.96 204.71L101.92 204.71L101.86 204.71C82.28 203.64 62.63 204.55 43.05 206.15C23.46 207.79 3.94 210.31 -15.62 212.59C-35.18 214.86 -54.78 217.05 -74.48 217.72C-94.15 218.52 -113.96 217.88 -133.47 214.8L-133.5 214.8L-133.53 214.79C-136.7 213.94 -139.78 212.6 -142.49 210.69C-145.22 208.79 -147.52 206.38 -149.73 204.01L-149.9 203.84L-149.93 203.6C-150.5 198.66 -149.9 193.61 -148.31 188.92C-146.72 184.23 -144.22 179.91 -141.24 176.04C-135.22 168.29 -127.5 162.21 -119.41 156.98C-103.07 146.65 -84.96 139.67 -66.53 134.49C-57.3 131.99 -47.88 129.85 -38.45 128.45L-10.21 123.83C8.63 120.85 27.54 118.13 46.54 116.25C65.54 114.3 84.63 113.11 103.74 112.94C113.28 112.77 122.82 113.24 132.36 113.4L146.67 113.75L153.83 113.92L160.97 114.34C199.02 116.85 237.17 122.24 273.55 134.18L273.61 134.2L273.65 134.22C277.58 136.74 281.4 139.61 284.3 143.38C285.75 145.25 286.94 147.37 287.58 149.67C288.22 151.99 288.33 154.39 287.8 156.8ZM287.55 156.65C287.96 154.44 287.85 152 287.16 149.8C286.49 147.58 285.29 145.54 283.85 143.75C280.95 140.14 277.16 137.41 273.25 135.02C236.75 123.93 198.79 118.73 160.84 116.75L153.71 116.41L146.58 116.32L132.3 116.14L118.03 115.96C113.28 115.86 108.52 115.83 103.77 115.89C84.76 116.09 65.77 117.32 46.85 119.3C27.92 121.26 9.06 123.88 -9.78 126.74L-38.01 131.21C-47.44 132.57 -56.66 134.61 -65.86 137.06C-84.15 142.02 -102.16 148.71 -118.35 158.72C-126.36 163.77 -134 169.67 -139.91 177.12C-145.77 184.4 -149.54 193.75 -148.52 203.19C-146.38 205.51 -144.22 207.76 -141.71 209.54C-139.16 211.37 -136.27 212.66 -133.24 213.5C-113.86 216.7 -94.14 217.53 -74.51 216.83C-54.86 216 -35.29 213.84 -15.78 211.27C3.73 208.71 23.23 205.9 42.86 203.99C62.45 202.02 82.2 201.17 101.92 202.11C118.15 201.43 134.41 201.19 150.62 200.33C166.82 199.23 182.96 197.35 198.94 194.47C214.88 191.48 230.69 187.48 245.82 181.53C253.39 178.57 260.75 175.07 267.83 171.04C274.82 166.87 281.5 162.1 287.55 156.65ZM273.25 135.02C273.26 135.02 273.28 135.03 273.29 135.03L273.2 134.99C273.21 135 273.23 135.01 273.25 135.02ZM-148.52 203.19C-148.57 203.13 -148.63 203.06 -148.68 203L-148.49 203.43C-148.5 203.35 -148.51 203.27 -148.52 203.19ZM-133.24 213.5C-133.25 213.5 -133.26 213.5 -133.27 213.5L-133.2 213.51C-133.22 213.51 -133.23 213.51 -133.24 213.5ZM101.92 202.11C101.91 202.11 101.91 202.11 101.9 202.11L101.99 202.11C101.97 202.11 101.94 202.11 101.92 202.11Z" />
								</g>
								<g >
									<path fill-rule="evenodd" class="shp2" d="M98.65 119.4L131.03 119.06L131.05 119.06C151.83 120.65 172.68 120.06 193.53 121.06C203.95 121.54 214.38 122.33 224.74 123.95C235.09 125.57 245.39 128.01 255.21 131.98L255.27 132L255.33 132.04C258.84 134 262.3 136.53 264.45 140.32C266.66 144.07 266.93 148.8 265.77 152.83C264.64 156.9 262.47 160.47 259.99 163.65C257.49 166.83 254.61 169.64 251.47 172.1C238.77 181.69 224.21 187.93 209.31 192.5C194.37 196.99 179 199.72 163.57 201.36C148.14 203.04 132.62 203.64 117.13 203.47L117.07 203.47L117.02 203.47C97.45 201.56 77.65 202.37 57.96 203.52C38.25 204.75 18.57 206.69 -1.13 208.32C-10.98 209.14 -20.84 209.88 -30.72 210.42C-40.59 211.02 -50.48 211.42 -60.38 211.24C-70.27 210.99 -80.23 210.37 -89.93 207.91C-94.75 206.59 -99.52 204.71 -103.64 201.65C-105.71 200.13 -107.52 198.19 -108.93 196.01C-110.23 193.71 -111.4 191.45 -112.11 188.93C-113.65 183.99 -113.66 178.37 -111.68 173.48C-109.8 168.54 -106.42 164.45 -102.69 161.01C-95.04 154.21 -85.98 149.6 -76.81 145.71C-67.61 141.83 -58.1 138.82 -48.5 136.28C-38.9 133.76 -29.21 131.62 -19.47 129.82C0.04 126.31 19.71 123.92 39.42 122.26C59.13 120.68 78.88 119.52 98.65 119.4ZM98.65 119.69C59.15 120.32 19.65 124.27 -19.07 131.97C-38.41 135.8 -57.62 140.7 -75.86 148.08C-84.9 151.86 -93.8 156.36 -101.12 162.81C-104.72 166.03 -107.93 169.82 -109.7 174.28C-111.57 178.71 -111.65 183.74 -110.29 188.38C-109.68 190.73 -108.56 192.97 -107.43 195.03C-106.17 197.05 -104.55 198.85 -102.64 200.31C-98.82 203.24 -94.25 205.15 -89.56 206.52C-80.11 209.11 -70.2 209.89 -60.36 210.16C-40.63 210.63 -20.89 209 -1.23 207.19C18.45 205.37 38.11 203.3 57.85 201.84C77.54 200.44 97.36 199.37 117.17 201.04C132.58 200.96 147.99 200.33 163.27 198.57C178.56 196.84 193.76 194.06 208.45 189.55C223.06 185.04 237.46 178.9 249.65 169.72C252.63 167.39 255.37 164.73 257.7 161.77C260.02 158.82 261.99 155.55 262.96 152.04C263.95 148.55 263.71 144.83 261.94 141.78C260.21 138.72 257.25 136.43 254.09 134.56C244.61 130.54 234.56 127.95 224.38 126.17C214.17 124.4 203.81 123.41 193.44 122.75C172.67 121.46 151.8 121.35 131.01 119.63L98.65 119.69ZM117.17 201.04C117.16 201.04 117.15 201.04 117.14 201.04L117.24 201.04C117.22 201.04 117.2 201.04 117.17 201.04ZM254.09 134.56C254.11 134.57 254.13 134.58 254.16 134.59L254.04 134.53C254.05 134.54 254.07 134.55 254.09 134.56ZM131.01 119.63L131.03 119.63L131.01 119.63C131.01 119.63 131.01 119.63 131.01 119.63Z" />
								</g>
								<g >
									<path fill-rule="evenodd" class="shp2" d="M254.82 157.34C242.89 166.85 229.29 173.81 215.1 179.03C200.9 184.22 186.15 187.77 171.28 190.26C156.39 192.69 141.36 194.14 126.3 194.7C111.28 195.21 96.3 195.92 81.3 196.8C51.3 198.45 21.25 200.15 -8.83 200.16C-23.87 200.15 -38.91 199.74 -53.92 198.66C-61.41 198.03 -68.92 197.4 -76.37 196.37C-80.09 195.84 -83.85 195.58 -87.59 194.68C-89.45 194.21 -91.31 193.64 -93.04 192.66C-94.75 191.74 -96.48 190.36 -97.26 188.3C-98.04 186.25 -97.68 184 -96.94 182.15C-96.2 180.26 -95.07 178.63 -93.89 177.08C-91.47 174.03 -88.64 171.39 -85.66 169C-79.68 164.22 -73.16 160.23 -66.32 156.88C-52.37 150.82 -38.37 145.46 -24.01 140.68C4.66 131.28 34.46 124.96 64.6 123.13C79.68 122.12 94.77 122.35 109.8 122.85L132.36 123.54C139.88 123.87 147.39 124.48 154.88 125.15C184.86 127.93 214.7 132.54 243.91 139.89L243.98 139.91L244.03 139.94C247.15 141.8 250.2 143.94 252.52 146.85C253.66 148.29 254.62 149.95 255.05 151.78C255.48 153.62 255.42 155.49 254.82 157.34ZM254.58 157.17C255.04 155.52 255.11 153.6 254.63 151.89C254.18 150.15 253.22 148.59 252.08 147.22C249.78 144.49 246.76 142.48 243.67 140.74C214.34 134.23 184.6 129.79 154.69 127.54C147.21 126.98 139.73 126.48 132.23 126.26L109.72 125.8C94.72 125.34 79.72 125.15 64.79 126.18C34.93 128.18 5.34 133.98 -23.22 143.22C-37.46 147.81 -51.71 153.01 -65.46 158.77C-72.21 161.95 -78.69 165.8 -84.59 170.39C-87.54 172.69 -90.32 175.22 -92.66 178.09C-94.89 180.88 -97.03 184.49 -95.88 187.76C-95.32 189.34 -93.91 190.55 -92.35 191.4C-90.81 192.3 -89.04 192.87 -87.27 193.33C-83.7 194.23 -79.93 194.54 -76.22 195.1C-68.78 196.2 -61.31 196.9 -53.84 197.61C-38.88 198.93 -23.85 199.21 -8.84 199.09C21.2 198.86 51.16 196.26 81.16 194.35C111.15 191.89 141.35 193.05 170.94 188.05C185.73 185.73 200.43 182.53 214.61 177.61C228.74 172.71 242.56 166.22 254.58 157.17ZM243.67 140.74C243.68 140.74 243.7 140.75 243.72 140.75L243.61 140.71C243.63 140.72 243.65 140.73 243.67 140.74Z" />
								</g>
								<g >
									<path fill-rule="evenodd" class="shp2" d="M101.19 130.28L138.44 130.12C150.86 130.23 163.29 130.72 175.69 131.65C188.1 132.59 200.5 134.01 212.74 136.8C218.82 138.32 224.98 139.93 230.57 143.62C231.26 144.1 231.9 144.7 232.57 145.24C233.16 145.89 233.79 146.56 234.28 147.34C235.28 148.95 235.71 151.1 235.24 153.01C234.26 156.84 231.53 159.11 229.09 161.15C219.06 169.15 207.47 174.47 195.68 178.66C183.85 182.81 171.68 185.8 159.42 188.09C153.29 189.23 147.13 190.21 140.95 190.97C134.76 191.76 128.56 192.25 122.4 192.94C110.06 194.24 97.68 195.46 85.29 196.37C60.52 198.32 35.56 198.8 10.81 196.15C-1.55 194.75 -13.85 192.5 -25.8 188.84C-31.66 187.17 -38.17 185.01 -42.33 179.63C-43.47 178.4 -44.11 176.78 -44.81 175.24L-45.39 172.74C-45.58 171.91 -45.47 171.04 -45.51 170.19C-45.35 166.81 -44.3 163.44 -42.4 160.75C-38.84 155.11 -33.39 151.27 -27.75 148.37C-26.29 147.72 -24.88 146.98 -23.39 146.41L-18.89 144.79C-15.87 144 -12.84 143.22 -9.81 142.5C2.31 139.62 14.52 137.09 26.86 135.41C51.51 131.89 76.37 130.66 101.19 130.28ZM101.19 130.58C88.79 130.87 76.38 131.36 64.02 132.45C51.66 133.52 39.35 135.12 27.14 137.23C14.92 139.35 2.8 141.92 -9.22 144.96L-18.19 147.31L-22.48 148.82C-23.89 149.36 -25.25 150.06 -26.64 150.67C-32.02 153.37 -37.18 157.01 -40.4 162.07C-42.13 164.51 -43.1 167.4 -43.3 170.27C-43.27 170.99 -43.4 171.73 -43.25 172.44L-42.8 174.56C-42.21 175.87 -41.74 177.27 -40.74 178.38C-39.96 179.63 -38.75 180.54 -37.66 181.55C-36.49 182.46 -35.17 183.21 -33.89 183.99C-32.49 184.58 -31.14 185.26 -29.71 185.8L-25.31 187.28C-13.58 191.22 -1.38 193.7 10.92 195.14C35.56 198.11 60.49 196.88 85.16 194.77C97.52 193.65 109.84 192.21 122.16 190.7C134.52 189.27 146.78 187.79 158.93 185.39C171.06 183.01 183.08 179.96 194.69 175.77C206.23 171.56 217.66 166.43 227.23 158.8C229.53 156.98 231.83 154.75 232.38 152.32C232.65 151.14 232.43 150 231.8 148.92C231.46 148.39 230.99 147.89 230.56 147.39C230 146.96 229.5 146.47 228.91 146.06C226.55 144.38 223.71 143.22 220.88 142.17C218.03 141.12 215.06 140.3 212.1 139.51C200.15 136.54 187.82 134.96 175.52 133.57C163.2 132.24 150.82 131.39 138.42 130.93C126.02 130.66 113.61 130.71 101.19 130.58Z" />
								</g>
								<g >
									<path fill-rule="evenodd" class="shp2" d="M215.29 157.82C199.46 166.45 182.35 172.06 164.91 176.02C156.17 177.91 147.35 179.47 138.49 180.54C129.6 181.46 120.7 182.39 111.8 183.19C94.01 183.37 76.34 185.19 58.53 186.34C40.77 187.49 22.81 187.91 5.14 184.95C1.26 184.68 -2.67 184.28 -6.44 182.82C-8.27 182.07 -10.28 180.89 -11.14 178.7C-11.97 176.47 -11.2 174.21 -10.34 172.39C-8.45 168.72 -5.78 165.75 -3.19 162.79C-0.59 159.85 2.15 157.02 4.43 153.96L4.49 153.88L4.57 153.81C10.64 148.27 18 144.52 25.53 141.74C33.09 138.96 40.95 137.21 48.84 135.88C56.75 134.67 64.7 133.93 72.67 133.48C80.63 133.08 88.6 133.08 96.56 133.22C104.52 133.42 112.46 133.79 120.4 134.3C128.32 134.91 136.23 135.71 144.14 136.42L191.53 140.88L191.61 140.89L191.65 140.9C196.73 142.18 201.8 143.7 206.56 146.01C208.92 147.17 211.26 148.52 213.19 150.39C215.17 152.16 216.47 155.13 215.29 157.82ZM5.14 184.95C5.15 184.95 5.17 184.95 5.18 184.95L5.12 184.95C5.13 184.95 5.13 184.95 5.14 184.95ZM215.08 157.62C215.96 155.19 214.75 152.44 212.77 150.85C210.85 149.13 208.54 147.91 206.17 146.88C201.44 144.82 196.41 143.54 191.38 142.35L143.94 138.95C136.03 138.38 128.12 137.9 120.22 137.24C112.32 136.77 104.41 136.43 96.5 136.27C80.7 136.05 64.86 136.42 49.25 138.67C41.47 139.87 33.78 141.6 26.36 144.13C18.99 146.66 11.84 150.13 5.95 155.26C3.48 158.42 0.71 161.14 -1.92 163.99C-4.54 166.85 -7.23 169.75 -8.99 173.09C-9.82 174.74 -10.39 176.61 -9.81 178.18C-9.24 179.75 -7.62 180.84 -5.93 181.56C-2.46 182.97 1.44 183.45 5.26 183.76L5.3 183.77L5.32 183.77C22.8 187.12 40.75 186.58 58.43 184.98C76.12 183.4 93.86 180.83 111.7 180.64C120.52 179.7 129.35 178.91 138.19 178.1C147.01 177.14 155.77 175.65 164.47 173.91C173.17 172.16 181.81 170.03 190.27 167.31C198.73 164.67 207.12 161.43 215.08 157.62ZM191.38 142.35L191.44 142.35L191.32 142.34C191.34 142.34 191.36 142.35 191.38 142.35ZM5.95 155.26C5.97 155.23 5.99 155.2 6.01 155.17L5.88 155.32C5.9 155.3 5.92 155.28 5.95 155.26Z" />
								</g>
								<g >
									<path fill-rule="evenodd" class="shp2" d="M101.84 141.41C108.5 141.26 115.15 141.22 121.81 141.29C128.47 141.28 135.13 141.38 141.79 141.62L141.84 141.62L141.94 141.65C145.61 142.49 149.41 142.93 153.2 143.36L164.62 144.66C168.44 145.15 172.26 145.67 176.1 146.56C178.02 147.03 179.94 147.61 181.85 148.62C182.79 149.17 183.79 149.77 184.57 150.98C185.42 152.21 185.32 154.08 184.73 155.2L184.62 155.41L184.54 155.51C178.86 162.38 171.18 166.77 163.42 170.2C155.57 173.54 147.37 175.8 139.12 177.52C122.63 180.82 105.93 183 89.16 183.63C72.39 184.23 55.58 183.6 38.97 181.21C34.82 180.57 30.69 179.84 26.58 178.95C24.52 178.56 22.47 178.07 20.43 177.52C18.38 177.02 16.32 176.54 14.32 175.64C12.34 174.79 10.43 173.7 8.71 172.26C7.03 170.84 5.45 168.91 5.02 166.41C4.54 163.87 5.7 161.34 7.24 159.65C8.79 157.9 10.68 156.71 12.57 155.6L12.6 155.59L12.65 155.56C19.63 152.43 26.92 150.07 34.33 148.43C41.73 146.73 49.22 145.56 56.73 144.77C64.24 143.94 71.76 143.36 79.28 142.9L101.84 141.41ZM101.85 141.7C94.35 142.31 86.83 142.85 79.34 143.62C71.86 144.42 64.38 145.33 56.96 146.5C49.54 147.7 42.15 149.05 34.89 150.84C27.66 152.7 20.49 154.82 13.67 157.81C11.94 158.78 10.27 159.87 8.96 161.25C7.65 162.63 6.84 164.35 7.12 166.09C7.34 167.83 8.5 169.49 9.96 170.8C11.43 172.11 13.16 173.2 15.01 174.07C22.61 177.04 30.93 178.81 39.12 180.19C55.61 182.92 72.43 183.07 89.07 181.95C105.71 180.71 122.24 178.2 138.55 174.76C146.66 172.98 154.65 170.6 162.23 167.34C169.69 164.11 176.96 159.92 182.14 153.78C182.34 153.25 182.33 152.95 182.1 152.55C181.84 152.1 181.18 151.61 180.46 151.21C178.98 150.4 177.2 149.86 175.41 149.37C171.81 148.42 168.04 147.78 164.28 147.2L152.92 145.49C149.14 144.85 145.36 144.23 141.61 143.18C135.02 142.63 128.41 142.23 121.79 141.95C115.15 141.76 108.49 141.68 101.85 141.7ZM13.67 157.81C13.68 157.8 13.7 157.79 13.71 157.78L13.63 157.82C13.64 157.82 13.66 157.81 13.67 157.81ZM182.14 153.78C182.13 153.83 182.11 153.87 182.09 153.93L182.28 153.61C182.24 153.67 182.19 153.72 182.14 153.78ZM141.61 143.18C141.64 143.18 141.67 143.19 141.7 143.19L141.55 143.17C141.57 143.17 141.59 143.18 141.61 143.18Z" />
								</g>
								<g >
									<path fill-rule="evenodd" class="shp2" d="M163.66 158.14C154.57 162.47 145.1 165.48 135.4 167.83C125.67 170.1 115.85 171.47 106.06 172.88C96.24 174.25 86.33 175.19 76.39 175.4C71.43 175.52 66.44 175.33 61.5 174.57C56.68 173.74 51.36 172.21 48.22 167.69L48.27 167.75C46.73 165.92 45.39 163.32 46.01 160.55C46.67 157.83 48.74 155.99 50.74 154.63C54.88 151.91 59.52 150.51 64.11 149.34C73.37 147.13 82.83 146.29 92.3 146.31C101.81 146.69 111.04 147.52 120.39 148.27C129.69 149.09 138.99 149.57 148.29 149.2L148.42 149.19L148.49 149.21C151.54 149.88 154.58 150.64 157.5 151.8C158.96 152.38 160.41 153.03 161.73 153.95C162.38 154.41 163 154.97 163.46 155.66C163.92 156.37 164.09 157.29 163.66 158.14ZM163.46 157.93C163.97 156.5 162.61 155.21 161.37 154.51C160.08 153.75 158.63 153.23 157.17 152.78C154.28 151.93 151.31 151.34 148.32 150.85C138.97 151.83 129.54 151.57 120.2 151.09C110.87 150.57 101.45 149.68 92.25 149.42C83.02 149.22 73.69 149.92 64.66 151.81C60.17 152.77 55.68 154.08 51.8 156.33C49.9 157.46 48.15 158.99 47.58 160.96C47.02 162.93 47.92 165.13 49.29 166.91L49.32 166.95L49.33 166.98C51.83 171.1 56.94 172.79 61.65 173.64C66.48 174.55 71.45 174.46 76.36 174.29C86.21 173.77 95.95 171.98 105.7 170.43C115.46 168.69 125.33 167.76 134.94 165.67C144.59 163.78 154.2 161.16 163.46 157.93ZM148.32 150.85C148.35 150.84 148.38 150.84 148.41 150.84L148.2 150.82C148.24 150.83 148.28 150.84 148.32 150.85Z" />
								</g>
								<g >
									<path fill-rule="evenodd" class="shp2" d="M100.4 152.66C106 152.61 111.61 152.28 117.27 152.39C120.1 152.41 122.94 152.64 125.78 153.11C127.2 153.36 128.61 153.67 130.06 154.16C130.79 154.41 131.51 154.69 132.29 155.17C132.68 155.43 133.09 155.7 133.51 156.26C133.93 156.75 134.23 157.86 133.9 158.7L133.54 159.61L132.65 159.74C124.9 160.83 117.11 162.53 109.26 163.85C105.33 164.49 101.37 165.04 97.42 165.54C93.46 166.08 89.5 166.53 85.49 166.72C83.49 166.82 81.46 166.8 79.41 166.56C77.39 166.28 75.24 165.72 73.47 164.19C71.64 162.69 70.77 160.14 70.85 157.91C70.88 157.54 71 157.07 71.13 156.67C71.27 156.28 71.54 156.03 71.77 155.72C72.24 155.16 72.78 154.85 73.29 154.54C74.31 153.98 75.34 153.67 76.36 153.41C84.5 151.64 92.46 152.84 100.4 152.66ZM100.4 152.95C92.5 152.95 84.4 154 77.02 155.88C76.12 156.14 75.26 156.48 74.51 156.85C73.8 157.25 73.36 157.71 73.38 157.97C73.27 159.77 73.72 161.43 74.88 162.66C76.04 163.9 77.83 164.66 79.68 165.1C81.54 165.56 83.51 165.74 85.47 165.74C93.38 165.64 101.13 163.55 108.82 161.63C112.68 160.69 116.54 159.75 120.44 158.9C123.35 158.24 126.28 157.6 129.25 157.09C129.19 157.07 129.13 157.05 129.07 157.03C127.88 156.57 126.55 156.26 125.23 155.95C122.57 155.34 119.84 154.88 117.09 154.4C111.6 153.51 106 152.89 100.4 152.95ZM129.25 157.09C129.78 157.3 130.29 157.54 130.66 157.79C130.81 157.89 130.95 158.01 130.99 158.07C130.97 157.98 130.93 157.78 130.99 157.67L132.24 156.63C131.24 156.77 130.24 156.92 129.25 157.09ZM131.01 158.1C131.01 158.09 131.01 158.08 130.99 158.07C131 158.1 131.01 158.12 131.01 158.1Z" />
								</g>
							</g>
						</g>
					</g>
				</g>
				<path class="shp0" d="M66.06 19.07C66.06 25.75 60.74 31.16 54.18 31.16C47.62 31.16 42.3 25.75 42.3 19.07C42.3 12.39 47.62 6.98 54.18 6.98C60.74 6.98 66.06 12.39 66.06 19.07Z" />
				<path class="shp0" d="M66.06 150.53C66.06 157.2 60.74 162.61 54.18 162.61C47.62 162.61 42.3 157.2 42.3 150.53C42.3 143.85 47.62 138.43 54.18 138.43C60.74 138.43 66.06 143.85 66.06 150.53Z" />
				<path class="shp3" d="M54.18 17.46L54.18 151.22" />
				<g >
					<path class="shp0" d="M414.77 14.01C414.77 20.69 409.45 26.1 402.89 26.1C396.33 26.1 391.01 20.69 391.01 14.01C391.01 7.33 396.33 1.92 402.89 1.92C409.45 1.92 414.77 7.33 414.77 14.01Z" />
					<path class="shp0" d="M414.77 145.47C414.77 152.15 409.45 157.56 402.89 157.56C396.33 157.56 391.01 152.15 391.01 145.47C391.01 138.79 396.33 133.38 402.89 133.38C409.45 133.38 414.77 138.79 414.77 145.47Z" />
					<path class="shp3" d="M402.89 12.41L402.89 146.16" />
				</g>
			</g>
		</g>
		<g >
		</g>
	</g>
</svg>