<svg version="1.2" baseProfile="tiny-ps" xmlns="http://www.w3.org/2000/svg" width="467" height="280"><defs><linearGradient id="prefix__grd1" gradientUnits="userSpaceOnUse" x1="453.195" y1="-113.76" x2="453.195" y2="377.809"><stop offset="0" stop-color="#bf5736"/><stop offset="1" stop-color="#643a2f"/></linearGradient><clipPath clipPathUnits="userSpaceOnUse" id="prefix__cp1"><path d="M447.23 266.72H4.79V124.49h442.44v142.23z"/></clipPath></defs><style>.prefix__shp0{fill:#5c4035}.prefix__shp2{fill:#5b4037}.prefix__shp3{fill:none;stroke:#9f5c3f;stroke-linecap:round;stroke-linejoin:round;stroke-width:8.865}</style><path class="prefix__shp0" d="M463.94 275.32H4.79V124.49h459.15v150.83z"/><path d="M447.23 266.72H4.79V124.49h442.44v142.23z" fill="url(#prefix__grd1)"/><g clip-path="url(#prefix__cp1)" style="mix-blend-mode:multiply" opacity=".149"><path fill-rule="evenodd" class="prefix__shp2" d="M586.19 264.3c1.66 5.55.22 11.7-3.06 16.34-3.27 4.7-7.68 8.41-12.33 11.58-9.37 6.33-19.93 10.54-30.62 13.91-23.43 11.73-48.86 18.39-74.25 23.95-25.47 5.51-51.23 9.46-77.06 12.67-51.68 6.36-103.72 9.52-155.76 10.19-13 .2-26.05.06-39.01.32-3.27.04-6.56.03-9.86-.27-3.32-.25-6.6-1.13-9.72-2.04-6.29-1.91-12.38-4.32-18.47-6.58-6.09-2.26-12.23-4.35-18.54-5.62-6.29-1.29-12.77-1.55-19.08-.55-12.7 2.35-25.28 5.92-37.93 8.96-12.65 3.08-25.42 5.91-38.42 7.23-12.95 1.37-26.29 1.05-38.88-2.74l-4.69-1.46c-1.53-.59-3.01-1.31-4.52-1.96-1.47-.71-3.06-1.22-4.44-2.1l-4.23-2.54c-5.53-3.44-11.36-6.39-17.59-8.14-1.55-.48-3.11-.78-4.73-1.05l-4.81-.88-9.6-1.76c-6.33-1.67-12.63-3.73-18.22-7.36l-.03-.02-.04-.03c-5.65-5.05-12.64-8.33-19.74-10.87-7.14-2.54-14.5-4.43-21.89-6.18-7.39-1.74-14.84-3.3-22.25-5.11-7.39-1.8-14.8-3.75-21.93-6.63-3.55-1.46-7.05-3.09-10.34-5.17-3.27-2-6.48-4.8-7.8-8.86-.59-2.03-.41-4.28.36-6.2.76-1.92 1.93-3.62 3.28-5.06 2.7-2.93 5.93-5.16 9.23-7.16 6.65-3.95 13.79-6.85 21.03-9.33 7.23-2.44 14.61-4.42 22.1-5.88 10.21-3.37 20.28-7.28 30.75-9.73l15.64-4.12c5.29-1.21 10.78-1.99 16.3-1.67 2.79.15 5.47.66 8.1 1.04l7.96 1.2c5.3.76 10.6 1.41 15.91 1.73 10.57.66 21.38-.09 30.38-6 19.05-10.21 38.85-19.42 60.01-24.41 10.54-2.5 21.35-3.93 32.21-4 10.85-.09 21.69 1.29 32.25 3.65 10.31 2.9 20.97 2.84 31.37.79 5.19-1.03 10.3-2.51 15.21-4.49l3.67-1.57 3.87-1.37c2.58-.88 5.12-1.93 7.74-2.65 10.53-2.85 21.37-4.22 32.22-4.38 10.82.12 21.66.87 32.3 2.74 21.36 3.33 42.11 9.28 62.96 14.37 10.44 2.51 20.89 4.9 31.46 6.61 2.62.53 5.3.74 7.94 1.12 2.66.33 5.31.73 7.98.88l16 1.23.08.01 19.14 2.46 19.1 2.81.2.03.16.11c2.71 1.98 6.07 3.59 8.31 6.68l.03.04.03.06c3.32 5.89 8.21 10.87 13.75 14.78 5.54 3.94 11.71 6.98 18.15 9.1 12.9 4.18 27 4.79 40.17 1.55 6.59-1.72 12.5-5.29 18.56-8.52 3.06-1.58 6.18-3.08 9.48-4.12 3.3-.97 6.7-1.76 10.14-1.9 3.44-.27 6.88-.03 10.3.33 3.39.57 6.74 1.24 10.08 2.03 3.34.8 6.65 1.79 9.78 3.26 3.11 1.45 6.02 3.55 8.05 6.42 2.86 2.8 5.16 6.33 6.1 10.3zm-46.01 41.83c.01 0 .02 0 .02-.01l-.04.02c.01 0 .01-.01.02-.01zm-657.83-58.23c-.04.01-.07.03-.11.04l.17-.05c-.02 0-.04.01-.06.01zm697.74 6.1l-.01-.01.02.02c-.01 0-.01-.01-.01-.01zm5.82 10.38c-.96-3.92-3.24-7.36-6.09-10.12l-.01-.01-.01-.02c-2-2.79-4.86-4.82-7.95-6.24-3.09-1.43-6.38-2.38-9.7-3.16-3.32-.76-6.69-1.41-10.05-1.95-3.38-.32-6.78-.53-10.17-.24-3.4.15-6.72.95-9.97 1.93-3.23 1.05-6.3 2.55-9.33 4.14-5.99 3.24-11.96 6.92-18.68 8.73-13.38 3.38-27.63 2.87-40.8-1.28-6.57-2.11-12.87-5.16-18.56-9.15-5.68-3.96-10.74-8.97-14.29-15.11-1.92-2.61-4.97-4.13-7.83-6.11l-18.9-2.6-19.12-2.29-16.08-1.09c-2.69-.12-5.36-.5-8.04-.81-2.67-.36-5.37-.55-8.02-1.05-10.67-1.64-21.21-3.94-31.7-6.37l-31.35-7.56c-10.43-2.51-20.91-4.81-31.46-6.49-10.54-1.87-21.21-2.6-31.84-2.74-10.64.15-21.23 1.48-31.49 4.25-2.55.7-5 1.72-7.51 2.56l-3.75 1.32-3.75 1.6c-5.09 2.04-10.35 3.56-15.7 4.62-5.36 1.03-10.82 1.59-16.3 1.51-2.74-.06-5.48-.26-8.2-.67-2.74-.38-5.42-1.09-7.99-1.67-10.41-2.34-21.01-3.7-31.65-3.61-10.63.05-21.25 1.45-31.62 3.9-20.8 4.87-40.45 13.98-59.35 24.09-2.35 1.18-4.77 2.74-7.41 3.66-1.29.54-2.65.85-3.97 1.28-1.36.27-2.7.63-4.07.82-5.45.84-10.93.86-16.35.53-10.8-.63-21.52-2.95-31.95-4.16-5.22-.33-10.48.36-15.67 1.51l-15.57 4c-10.48 2.38-20.5 6.22-30.71 9.5l-.12.04-.05.01c-7.42 1.4-14.77 3.31-21.95 5.69-7.17 2.4-14.24 5.23-20.75 9.04-3.23 1.93-6.36 4.08-8.9 6.79-2.5 2.65-4.35 6.23-3.32 9.69 1.06 3.39 3.97 6.09 7.11 8 3.16 2.01 6.58 3.63 10.07 5.08 6.99 2.87 14.34 4.84 21.7 6.67 7.37 1.83 14.81 3.42 22.22 5.2 7.4 1.79 14.79 3.72 21.99 6.32 7.15 2.6 14.24 5.94 20.03 11.16 5.39 3.52 11.62 5.61 17.83 7.27l9.58 1.8 4.79.89c1.59.27 3.22.6 4.79 1.1 6.3 1.83 12.26 4.77 17.83 8.19l4.19 2.49c1.38.86 2.94 1.35 4.4 2.05 1.49.63 2.95 1.33 4.46 1.91l4.64 1.41c12.44 3.67 25.62 3.91 38.46 2.48 12.89-1.39 25.59-4.27 38.2-7.42 12.63-3.11 25.13-6.74 38.01-9.2 6.53-1.08 13.24-.84 19.7.45 6.46 1.27 12.71 3.37 18.84 5.6 6.13 2.25 12.19 4.61 18.38 6.45 3.12.89 6.16 1.69 9.35 1.92 3.17.27 6.4.27 9.63.2 13.04-.32 26.01-.25 39.01-.51 51.96-1.22 103.93-3.73 155.58-9.71 25.82-2.99 51.56-6.8 77.03-12.01 25.39-5.34 50.92-11.55 74.28-23.24l.02-.02h.02c10.67-3.32 21.22-7.49 30.58-13.75 4.63-3.13 9.02-6.8 12.26-11.43 3.25-4.58 4.68-10.58 3.07-16.06zM430.3 231.9l.02.02-.06-.09c.01.02.02.04.04.07zm-7.83-6.11l.19.02-.36-.14c.06.04.12.08.17.12zm-38.02-4.89l.06.01-.08-.01h.02zM-69.02 323.52l-.03-.03.06.05c-.01 0-.02-.01-.03-.02z"/><path fill-rule="evenodd" class="prefix__shp2" d="M201.54 209.2l18.13-5.35h.01l.02-.01c11.07-1.36 22.32-1.03 33.35.57 11.05 1.57 21.89 4.33 32.62 7.34 10.73 3 21.4 6.22 32.22 8.77 10.8 2.57 21.78 4.45 32.84 4.97h.01l.07.01 18.73 2.09 18.78 2.41 9.37 1.38c3.11.45 6.27.86 9.36 1.61 6.15 1.33 12.59 3.32 17.66 7.71l.1.09.09.12c5.35 7.36 13.1 12.59 21.38 16.21 8.33 3.63 17.25 5.86 26.28 7.21 18.06 2.82 36.5 2.85 54.81 1.78 4.58-.29 9.15-.61 13.73-1.05l6.86-.67c2.45-.18 5.33.05 7.57 1.94 2.28 1.89 2.96 4.92 2.85 7.46-.09 2.61-.81 5.08-1.9 7.34-1.1 2.24-2.61 4.31-4.44 5.99a50.588 50.588 0 01-5.63 4.44c-7.95 5.28-16.92 8.36-25.92 10.68-8.96 2.26-18.09 3.57-27.25 4.4-24.54 10.83-50.65 16.47-76.65 21.42-26.18 4.69-52.56 7.98-79.01 10.34-26.45 2.36-52.97 3.87-79.49 4.7-13.27.46-26.54.64-39.81.74-13.2-.08-26.68.88-39.77-2.46l-.07-.02-.07-.03c-15.89-7.85-33.65-11.42-51.32-11.37-8.85-.06-17.71.61-26.46 1.97-8.76 1.33-17.46 3.12-25.99 5.56-8.55 2.39-16.98 5.17-25.3 8.31-8.52 2.96-17.73 3.54-26.58 2.12-8.84-1.58-17.32-4.82-25.23-9-7.92-4.1-15.37-9.02-22.77-13.91l-8.14-1.97c-2.76-.7-5.5-1.24-8.27-2.08-5.43-1.62-10.94-3.43-15.93-6.46l-.04-.03-.04-.03c-5.06-3.83-10.75-6.82-16.53-9.51-5.8-2.7-11.74-5.13-17.66-7.64-5.92-2.52-11.85-5.09-17.55-8.25-5.63-3.18-11.27-6.94-15.09-12.69l-.04-.05-.03-.07c-.87-1.87-.75-4.29.34-6.01 1.04-1.75 2.55-2.83 4-3.87 2.99-1.96 6.21-3.23 9.44-4.39 6.43-2.25 13.01-3.8 19.59-5.23l16.28-6.12c2.76-.96 5.56-1.8 8.34-2.71l8.35-2.67.19-.06.22.01c15.45 1.06 30.76 3.2 46.11 3.07 7.63-.15 15.33-.86 22.53-3.28 3.6-1.24 6.87-3.03 10.19-5.1l9.98-5.98c13.36-7.87 27.26-15.14 42.16-19.62 14.83-4.55 30.68-6.05 45.99-3.44h.04l.03.02c6.5 2.59 13.33 4.29 20.25 5.24 6.93.94 13.94 1.16 20.93.83 6.98-.37 13.95-1.17 20.8-2.67l5.15-1 2.58-.5 2.53-.71 10.12-2.84zm291.7 97.44c.08-.03.16-.06.23-.1l-.45.12c.08 0 .15-.01.22-.02zm-518.52 18.37l.12.03-.24-.1c.04.02.08.05.12.07zm-65.95-68.28l-.09.04.2-.06c-.04.01-.07.02-.11.02zm292.86-47.25l-10.13 2.88-2.53.72-2.58.52-5.16 1.02c-6.86 1.54-13.85 2.37-20.85 2.76-7.01.37-14.05.18-21.02-.73-6.96-.93-13.82-2.63-20.4-5.14-15.21-2.4-30.86-.73-45.49 3.94-14.69 4.64-28.43 11.93-41.67 19.89l-9.92 6.05c-3.23 2.07-6.78 4.06-10.49 5.36-7.47 2.58-15.34 3.36-23.1 3.58-15.48.26-30.79-1.73-46.06-2.66l-8.07 2.66c-2.74.93-5.5 1.78-8.24 2.76l-16.34 6.05-.11.04-.09.01c-6.57 1.39-13.13 2.89-19.43 5.06-3.13 1.09-6.25 2.33-8.94 4.08-1.3.9-2.61 1.88-3.32 3.11-.71 1.19-.78 2.45-.27 3.74 3.39 5.14 8.72 8.84 14.18 11.94 5.55 3.12 11.41 5.7 17.3 8.25 5.89 2.54 11.83 5.01 17.68 7.77 5.82 2.76 11.57 5.81 16.78 9.8 4.73 2.89 10.07 4.7 15.44 6.34 2.66.83 5.47 1.41 8.2 2.12l8.24 2.05.13.04.11.07c7.42 4.96 14.82 9.92 22.67 14.06 7.8 4.18 16.12 7.41 24.78 9.02 8.66 1.44 17.66.93 26-1.91 8.34-3.08 16.83-5.82 25.42-8.17 17.19-4.53 34.86-7.78 52.7-7.69 17.77-.13 35.71 3.36 51.84 11.21 12.81 3.2 26.17 2.2 39.38 2.21 6.63-.02 13.25-.22 19.88-.38 6.63-.12 13.25-.36 19.87-.63 26.49-1.02 52.96-2.71 79.34-5.27 26.38-2.6 52.69-5.91 78.76-10.59 25.96-4.96 52.08-10.66 76.22-21.39l.23-.1.22-.02c9.11-.83 18.2-2.13 27.04-4.39 8.81-2.26 17.55-5.3 25.06-10.32 1.83-1.24 3.66-2.69 5.27-4.16 1.59-1.46 2.86-3.22 3.83-5.17.94-1.95 1.54-4.08 1.6-6.16.08-2.06-.47-4.1-1.87-5.2-1.36-1.17-3.4-1.43-5.49-1.28l-6.89.68c-4.58.44-9.2.77-13.81 1.08-18.43 1.06-37.04 1.13-55.42-1.81-9.17-1.47-18.28-3.83-26.85-7.67-8.49-3.81-16.54-9.33-22.13-17.13-4.56-3.99-10.52-5.95-16.54-7.31-3.03-.78-6.12-1.2-9.23-1.69l-9.31-1.46-18.68-2.6-18.77-2.29c-11.16-.65-22.18-2.62-33-5.28-10.84-2.66-21.49-5.97-32.19-9.05-10.69-3.09-21.47-5.93-32.46-7.58-10.97-1.68-22.15-2.1-33.19-.83l-18.13 5.19zm-82.67 2.03c.02 0 .03 0 .04.01l-.07-.02c.01 0 .02.01.03.01zm-176.73 36.16l.18-.06-.41.05c.08.01.15.01.23.01zm-64.81 27.51c-.01-.02-.03-.04-.04-.06l.06.12c0-.02-.01-.04-.02-.06zm65.94 37.76c-.01-.01-.03-.02-.04-.03l.08.05a.076.076 0 00-.04-.02zm235.53 27.14c-.02 0-.04-.01-.07-.01l.14.05c-.02-.02-.05-.03-.07-.04zm244.24-97.7c.03.03.07.06.1.09l-.18-.2c.02.03.05.07.08.11zm-72.53-15.35c.02 0 .04.01.05.01l-.07-.01h.02zm-130.84-22.74l.02-.01-.03.01h.01z"/><path fill-rule="evenodd" class="prefix__shp2" d="M503.26 290.27c-2.45 1.91-5.36 3.05-8.31 3.79-2.96.73-5.99 1.09-9.01 1.38-6.05.56-12.13.78-18.05 2.08l-.01.01h-.01c-2.94.31-5.85.87-8.67 1.75-2.82.86-5.56 2.04-8.31 3.14-5.42 2.48-11.02 4.54-16.65 6.46-11.29 3.78-22.83 6.71-34.45 9.23-23.24 5.02-46.78 8.5-70.4 11.11-11.82 1.34-23.65 2.13-35.48 3.14-11.83.93-23.68 1.85-35.55 2.37-11.86.56-23.74.89-35.62.92-5.94.03-11.89-.06-17.82-.21l-17.79-.19h-.19l-.19-.07c-16.36-6.72-33.89-10.35-51.56-11.22-4.41-.37-8.84-.26-13.27-.37-4.42.15-8.86.12-13.27.47-8.86.44-17.67 1.47-26.47 2.58-17.62 2.33-35 5.85-52.58 8.89-9.04 1.13-18.02-2.2-25.5-7.05-7.58-4.8-14.14-10.96-21.39-16.03l-9.04-2.74c-3.07-.84-6.06-1.96-9.05-3.09-2.98-1.15-6.02-2.11-8.92-3.52-2.9-1.36-5.71-2.96-8.32-4.85-2.52-1.39-4.94-2.95-7.21-4.74-2.27-1.81-4.43-3.83-6.13-6.28-1.68-2.41-2.95-5.51-2.39-8.71.58-3.16 2.86-5.51 5.18-7.24 3.37-3.75 7.54-6.48 11.79-8.88l.03-.01.04-.02c2.25-1.03 4.61-1.94 7.06-2.53 2.44-.6 4.95-.88 7.45-.95h.07c14.49.67 29.09-.11 43.3-3.07 7.11-1.39 14.12-3.32 20.95-5.76 6.83-2.41 13.5-5.31 19.84-8.83 6.35-3.49 12.41-7.52 17.96-12.19 1.39-1.2 2.65-2.35 4.16-3.6.74-.65 1.51-1.24 2.32-1.75.79-.56 1.62-1.03 2.47-1.48 3.38-1.8 6.99-2.98 10.63-3.81 14.7-3.22 29.63-1.43 44.05 1.43l.07.01.11.04c10.96 4.01 22.5 7.09 33.97 6.28 2.84-.24 5.68-.68 8.39-1.5 2.79-.86 5.68-1.75 8.56-2.49 5.76-1.55 11.62-2.69 17.51-3.56 23.61-3.52 47.57-2.25 71.01.94 11.75 1.56 23.39 3.76 34.98 6.07 11.62 2.31 23.1 4.92 34.75 6.91 11.64 2.06 23.13 4.78 34.82 6.54 5.82 1.06 11.68 1.8 17.45 3.12l17.36 3.68.07.02.07.04c14.11 7.17 27.13 16.21 41.16 23.35 7.01 3.55 14.27 6.63 21.77 8.94 7.49 2.33 15.21 3.9 23 4.82h.01c2.38.5 4.75 1.06 7.04 1.93 1.12.46 2.3.96 3.13 1.96.42.5.56 1.27.27 1.88-.25.62-.74 1.04-1.19 1.46zm-520.55 22.18l.1.03-.17-.09c.02.02.05.04.07.06zm-35.33-14.2c.01.01.02.02.03.02l-.07-.04c.01.01.02.01.04.02zm-10.55-26.97l-.06.06.14-.12c-.03.02-.06.04-.08.06zm566.25 18.76c.9-.7 1.72-1.96.86-2.91-.75-.9-1.91-1.41-3.01-1.85-2.25-.84-4.62-1.39-6.99-1.87h.02c-7.82-.87-15.57-2.4-23.11-4.7-7.54-2.28-14.85-5.32-21.9-8.85-14.13-7-27.29-15.81-41.36-22.74l-17.3-3.42c-5.76-1.25-11.64-1.92-17.46-2.91-11.7-1.61-23.26-4.2-34.91-6.11-11.66-1.84-23.26-4.33-34.85-6.49-11.59-2.19-23.22-4.13-34.88-5.73-23.29-3.13-46.99-4.33-70.19-.83-5.79.86-11.54 1.99-17.19 3.52-2.85.74-5.6 1.59-8.46 2.47-2.96.9-5.98 1.37-9.02 1.63-12.18.86-24-2.45-35.1-6.52-14.05-2.85-28.74-4.61-42.73-1.58-3.47.77-6.87 1.88-9.96 3.52-3.13 1.57-5.6 3.99-8.52 6.47-5.71 4.78-11.94 8.88-18.44 12.41-6.49 3.56-13.31 6.45-20.28 8.83-6.96 2.42-14.09 4.32-21.31 5.67-14.4 2.87-29.16 3.54-43.77 2.74-2.38.05-4.75.29-7.06.84-2.31.53-4.54 1.37-6.75 2.35-4.18 2.31-8.26 4.96-11.44 8.46l-.06.07-.08.06c-2.19 1.59-4.18 3.67-4.66 6.26-.46 2.57.55 5.27 2.1 7.52 1.56 2.28 3.61 4.24 5.79 5.99 2.2 1.76 4.56 3.3 7.02 4.67l.04.03.04.02c2.53 1.86 5.27 3.44 8.11 4.8 2.82 1.39 5.85 2.37 8.8 3.53 2.95 1.14 5.91 2.26 8.97 3.13l9.08 2.8.11.03.07.06c7.35 5.2 13.86 11.4 21.34 16.19 7.36 4.83 16.06 8.1 24.88 7.06 17.39-3.16 34.88-6.83 52.49-9.29 8.81-1.19 17.65-2.29 26.55-2.8 4.44-.39 8.9-.39 13.35-.58 4.45.08 8.91-.06 13.36.27 17.76.74 35.46 4.27 52.07 10.92l17.61.06c5.93.11 11.85.16 17.77.08 11.85-.1 23.69-.52 35.52-1.16 23.65-1.31 47.35-2.96 70.94-5.16 23.58-2.31 47.12-5.39 70.37-10.08 11.62-2.36 23.17-5.12 34.48-8.73 5.65-1.81 11.22-3.84 16.65-6.29 2.77-1.09 5.51-2.26 8.37-3.12 2.85-.87 5.79-1.42 8.75-1.72 5.98-1.28 12.07-1.47 18.1-2 3.02-.27 6.04-.62 8.97-1.33 2.93-.71 5.81-1.83 8.21-3.69zm-95.49-42.92l.06.01-.14-.05a.3.3 0 00.08.04zm-279.36-24.39c.03 0 .05.01.08.01l-.18-.05c.03.01.07.02.1.04zm-165.01 38.06h.01-.07.06zm-13.81 3.19c.02-.01.03-.02.04-.02l-.06.03c.01 0 .01-.01.02-.01zm237.93 69.2h-.19l.38.07c-.07-.02-.13-.05-.19-.07zm280.46-36.12h.02-.02z"/><path fill-rule="evenodd" class="prefix__shp2" d="M200.65 235.47c7.02.46 14.06.8 21.08.43l-.03.01c4.94-.74 9.86-1.76 14.83-2.28 5-.29 9.98-.74 14.99-.91 5.01-.1 10.01.19 15 .54 4.98.35 9.97.72 14.94 1.37l7.46.87 7.42 1.07c4.96.67 9.89 1.54 14.82 2.42 9.88 1.57 19.63 3.85 29.41 5.97 16.06 2.4 32.1 5.25 47.85 9.6 7.86 2.23 15.67 4.82 23.15 8.38 3.73 1.79 7.39 3.84 10.72 6.51 1.67 1.34 3.24 2.88 4.54 4.72 1.29 1.83 2.24 4.11 2.35 6.54-.01 2.41-.67 4.83-1.96 6.69l-.93 1.43-1.1 1.23c-.71.86-1.51 1.58-2.34 2.26-3.29 2.75-6.91 4.92-10.64 6.7-7.44 3.68-15.25 6.27-23.1 8.58-7.86 2.26-15.82 4.08-23.81 5.7-8 1.55-16.09 2.67-24.13 4.02l-.1.02-.15-.01c-6.45-.31-12.75-1.23-18.96-.82-3.08.15-6.2.77-9.36 1.24l-9.44 1.51c-12.58 2.08-25.19 4.18-37.86 5.9-12.67 1.74-25.42 3.02-38.23 3.33-12.78.34-25.61-.28-38.28-2.1-5.68-.21-11.44-.48-17.08-1.68l-.07-.02-.07-.02c-12.95-5.55-27.02-7.99-41.07-8.69-14.09-.73-28.21.32-42.27 1.64-14.06 1.33-28.12 2.91-42.26 3.74-7.1.3-14.08.67-21.31.19-3.6-.47-7.15-1.6-10.29-3.58-3.06-1.9-5.84-4.74-6.99-8.48-2.2-3.51-4.83-6.71-8.33-8.59-5.73-2.44-11.47-5.15-16.36-9.41-2.37-2.15-4.69-4.83-5.39-8.39-.34-1.73-.31-3.61.44-5.35.75-1.73 2.12-3.06 3.55-3.97 5.97-3.46 12.51-3.24 18.52-3.96 6.07-.85 12.14-1.78 18.06-3.4 11.9-2.97 23.38-7.6 34.23-13.47 10.87-5.83 21.15-12.8 31.32-19.92l.04-.03.02-.01c4.63-2.68 9.72-4.34 14.9-5.18 5.17-.9 10.42-1.04 15.63-.75 5.21.28 10.37 1.12 15.44 2.3 5.05 1.2 10.02 2.82 14.77 4.95 9.12 2.43 18.68 2.42 28.07 2.05 9.44-.38 18.88-1.28 28.36-.89zm139.92 9.49c-.02-.01-.04-.01-.06-.01l.09.01h-.03zm-151.78 81.43h.04-.07.03zM7.38 309.49c.03.04.05.08.07.11l-.11-.25c.01.05.03.1.04.14zm-8.33-8.59c.01 0 .03.01.04.01l-.1-.04.06.03zm145.17-66.59s-.01-.01-.02-.01l.05.02c-.01 0-.02-.01-.03-.01zm56.41 1.45c-9.44-.33-18.87.63-28.31 1.07-9.43.46-19.02.45-28.3-1.84H144l-.03-.02c-4.75-2.02-9.7-3.55-14.74-4.64-5.03-1.08-10.15-1.82-15.28-2.01-10.18-.39-20.79.96-29.52 6.22-10.04 7.33-20.27 14.53-31.25 20.48-10.93 6.03-22.57 10.87-34.69 13.95-6.03 1.62-12.22 2.55-18.39 3.38-6.15.65-12.56.6-17.52 3.52-1.18.74-2.13 1.7-2.64 2.86-.51 1.16-.56 2.56-.31 3.9.51 2.71 2.41 5.12 4.58 7.13 4.47 4.01 10.06 6.79 15.66 9.24l.05.03.05.02c3.97 2.18 6.83 5.86 9.05 9.54l.08.12.03.13c.87 3.17 3.31 5.84 6.15 7.66 2.87 1.86 6.19 2.98 9.58 3.47 6.86.55 14.05.3 21.05.1 14.1-.6 28.15-2.21 42.24-3.43 14.08-1.16 28.22-2.33 42.39-1.73 14.11.6 28.32 2.94 41.5 8.45 5.52 1.12 11.17 1.35 16.85 1.52h.07c12.61 1.73 25.35 2.18 38.05 1.72 12.71-.45 25.38-1.86 37.98-3.73 12.61-1.83 25.15-4.13 37.75-6.25l9.45-1.57c3.16-.47 6.31-1.13 9.61-1.31 6.5-.45 12.87.45 19.11.72 7.93-1.38 15.91-2.51 23.81-4.09 7.92-1.65 15.81-3.49 23.56-5.77 7.74-2.26 15.44-4.8 22.62-8.34 3.61-1.71 7.04-3.78 10.02-6.27 2.91-2.47 5.41-5.69 5.3-9.16-.12-3.47-2.77-6.63-5.76-9.04-3.04-2.45-6.54-4.43-10.14-6.16-7.23-3.47-14.92-6.02-22.67-8.27-15.52-4.55-31.47-7.63-47.46-10.28l-.04-.01-.05-.01c-9.71-2.26-19.4-4.69-29.24-6.4-4.89-.95-9.79-1.89-14.73-2.64l-7.39-1.21-7.41-.99c-4.93-.74-9.91-1.2-14.88-1.64-4.97-.44-9.95-.82-14.92-.8-4.98.13-9.96.55-14.94.81-4.96.48-9.87 1.45-14.8 2.16h-.04c-7.05.31-14.1-.07-21.12-.59zm-116.2-1.22l.02-.02-.05.04c.01-.01.02-.01.03-.02zm87.61 88.82c-.02-.01-.04-.01-.06-.01l.13.04c-.02-.01-.05-.02-.07-.03zm168.87-8.9c-.04.01-.07.01-.11.02l.26-.01c-.05 0-.1-.01-.15-.01z"/><path fill-rule="evenodd" class="prefix__shp2" d="M382.92 281.12c-.01 2.48-1.29 4.7-2.88 6.45-1.6 1.77-3.53 3.18-5.51 4.44-4.02 2.49-8.32 4.41-12.75 6-2.24.71-4.54 1.27-6.88 1.57-2.34.34-4.73.16-7.04.07-4.67-.18-9.33-.39-13.99-.33-4.65.06-9.3.41-13.8 1.41-4.45 1.04-8.82 2.97-13.25 4.4-8.86 3.08-17.79 5.93-26.84 8.42-18.09 4.89-36.68 8.44-55.5 8.99-9.39.38-18.82-.09-28.15-1.24-4.68-.51-9.28-1.47-13.89-2.32l-13.81-1.83-.14-.01-.09-.04c-12.55-4.57-25.79-7.12-39.12-8.3-13.35-1.21-26.79-1.18-40.2-.9l-40.26 1.59c-3.42.01-6.93-.61-10.04-2.3-3.13-1.68-5.45-4.56-7.15-7.56-.86-1.5-1.61-3.04-2.42-4.5l-2.6-4.38c-.82-1.48-1.8-3.16-1.63-5.28.26-2.2 2.02-3.54 3.48-4.43l.03-.02.05-.02c11.35-4.99 22.43-10.6 33.22-16.7 10.81-6.1 21.33-12.71 31.75-19.5l.05-.03.04-.02c8.29-4.37 17.66-5.7 26.76-5.41 8.98.36 17.98 2.37 26.09 6.62l13.08-.79c4.86-1.33 10.01-1.5 14.9-.79 4.96.63 9.7 2.01 14.39 3.05 2.35.53 4.68.99 7.01 1.21 2.3.23 4.71.19 7.15.26 4.84.09 9.66-.05 14.5-.23 19.33-.93 38.7-3.2 58.22-3.54 19.46-.37 39.32 1.46 57.67 8.37l13.78 4.95 13.61 5.32c4.54 1.74 9.09 3.59 13.28 6.16 2.09 1.28 4.1 2.74 5.81 4.53 1.68 1.79 3.06 4.09 3.07 6.66zm-236.47-35.16l-.4.02.79.18c-.13-.07-.26-.14-.39-.2zm13.08-.79c-.06.01-.11.03-.16.04l.33-.05-.17.01zm223.1 35.95c-.03-2.45-1.37-4.67-3.03-6.41-1.69-1.75-3.69-3.16-5.77-4.42-4.18-2.5-8.71-4.3-13.27-6l-13.67-5.16-13.83-4.62c-18.4-6.43-37.99-7.88-57.3-7.14-19.36.73-38.64 3.43-58.15 4.28-4.88.19-9.78.35-14.65.27-2.42-.06-4.88-.02-7.42-.26-2.51-.23-4.96-.71-7.36-1.25-4.81-1.05-9.45-2.39-14.14-2.97-4.68-.66-9.38-.45-13.87.74l-.17.04-.16.01-13.6.74-.43.02-.36-.2c-7.67-4.15-16.45-6.23-25.2-6.63-8.71-.34-17.69.91-25.4 4.92-20.96 13.41-42.69 25.79-65.61 35.44-1.33.78-2.55 1.82-2.69 3.15-.16 1.34.58 2.87 1.39 4.3l2.56 4.43c.83 1.52 1.55 3.05 2.38 4.5 1.61 2.9 3.71 5.53 6.55 7.09 2.82 1.58 6.12 2.21 9.39 2.23l40.24-1.21c13.42-.35 26.89-.5 40.31.63 13.38.97 26.74 3.27 39.54 7.67l13.89 1.59c4.6.76 9.18 1.64 13.8 2.06 9.22 1.01 18.52 1.48 27.8 1.04 9.27-.39 18.52-1.39 27.71-2.8 9.19-1.46 18.29-3.48 27.32-5.8 9.04-2.28 18.01-4.9 26.9-7.78 4.5-1.33 8.78-3.13 13.48-4.13 4.65-.92 9.37-1.17 14.06-1.12 4.69.04 9.36.36 14.02.64 4.66.52 9.29-.05 13.74-1.49 4.38-1.53 8.7-3.43 12.69-5.85 1.97-1.24 3.89-2.62 5.47-4.34 1.57-1.7 2.81-3.84 2.84-6.21zM94.85 247.08c.02-.01.04-.03.06-.04l-.09.06c.01-.01.02-.02.03-.02zm-65.61 35.44c.01-.01.02-.02.03-.02l-.08.04c.01-.01.03-.02.05-.02zm139.67 32.79l-.12-.02.23.05-.11-.03z"/><path fill-rule="evenodd" class="prefix__shp2" d="M190.84 263.08c6.54.7 13.15.81 19.7.29 6.79-1.21 13.58-2.45 20.35-3.76 11.26-3.3 23.05-3.45 34.35-5.37l.05-.01h.03l16.8-.72c5.61-.11 11.24.24 16.84.84 5.61.59 11.17 1.72 16.63 3.3 5.44 1.62 10.77 3.82 15.68 6.86l.08.05.06.05c1.61 1.32 3.23 2.69 4.55 4.65.63.97 1.24 2.2 1.21 3.71-.02 1.54-.88 2.89-1.79 3.73-1.98 1.65-3.74 2.26-5.5 3.29l-5.32 2.84c-7.14 3.7-14.33 7.3-21.65 10.65-14.63 6.69-29.68 12.61-45.29 16.59-15.57 4.01-31.66 6.28-47.74 5.82-16.05-.37-32.01-3.41-47.1-8.9-7.72-.64-15.28-2.12-22.86-3.41h-.03l-.03-.01c-5.62-1.62-11.47-2.39-17.32-2.82-5.86-.43-11.74-.6-17.64-.86-5.9-.28-11.81-.61-17.72-1.51-5.86-.94-11.88-2.38-17.09-5.89l-.23-.16-.15-.28c-.52-1.01-1.02-2.12-1.27-3.38-.24-1.26-.15-2.64.28-3.86.89-2.43 2.62-4.1 4.32-5.53 5.09-4.88 10.69-9.24 16.76-12.79a84.92 84.92 0 0119.29-8.39c13.5-3.88 27.74-4.05 41.42-1.95 3.42-.23 6.86-.44 10.3-.41 3.46.03 6.96.23 10.32 1.26 3.29 1.19 6.38 2.66 9.68 3.7 3.27 1.09 6.62 1.95 10.03 2.38zm19.7.29h-.01.03-.02zm20.35-3.76c-.01 0-.02 0-.03.01l.04-.02c0 .01-.01.01-.01.01zm-68.11 47.38h.07l-.12-.03c.01.01.03.02.05.03zm-89.74-27.71c0 .01-.01.02-.02.03l.09-.08a.18.18 0 01-.07.05zm77.47-23.13h-.06.1-.04zm40.3 7.22c-3.44-.4-6.82-1.23-10.12-2.28-3.3-1.01-6.5-2.47-9.71-3.6-3.28-.96-6.74-1.14-10.16-1.11-3.44.07-6.87.38-10.29.71l-.05.01-.06-.01c-13.65-1.69-27.66-1.05-40.72 3.14-13.13 3.97-24.94 11.53-34.96 20.93l-.04.04-.04.04c-1.57 1.26-3.02 2.74-3.62 4.41-.6 1.56-.21 3.25.66 4.98 4.63 3.06 10.22 4.62 15.83 5.63 5.73 1.02 11.6 1.49 17.46 1.9 5.88.41 11.77.72 17.66 1.3 5.86.61 11.76 1.38 17.47 3.09 7.59 1.31 15.14 3.03 22.79 3.5h.06l.06.03c15.08 5.28 30.97 8.09 46.88 8.25 15.93.2 31.78-2.36 47.11-6.59 15.34-4.3 30.23-10.12 44.69-16.94 7.25-3.36 14.35-7.05 21.46-10.73l5.31-2.81c1.72-.96 3.75-1.84 4.86-2.81 2.39-1.69-.77-5.1-3.69-7.4-4.6-2.86-9.65-4.98-14.88-6.55-5.26-1.57-10.68-2.6-16.14-3.32-5.47-.7-11-1.15-16.53-1.16l-16.61.29c-11.57 1.55-23.21 1.31-34.38 4.24l-.03.01h-.02c-6.82 1.06-13.64 2.18-20.44 3.34h-.03c-6.59.44-13.23.26-19.78-.53zM71.7 290.63c-.08-.06-.15-.11-.23-.16l.38.43-.15-.27zm68.42 11.92h-.03l.06.01c-.01 0-.02-.01-.03-.01zm189.53-35.5l.06.03-.14-.1a.5.5 0 01.08.07zm-64.16-10.74c.02-.01.04-.01.06-.01l-.08.01h.02z"/><path fill-rule="evenodd" class="prefix__shp2" d="M283.07 269.47c1.33 2.93 1.59 6.25.83 9.36-.68 3.17-2.5 5.87-4.35 8.42-4.01 4.9-9.12 8.68-14.49 11.81-10.79 6.25-23.11 9.64-35.43 10.6-12.34 1.07-24.77.12-36.87-2.16-6.06-1.16-12.03-2.68-17.92-4.48-5.88-1.75-11.68-3.79-17.35-6.15l-12.01-1.78-6.04-.89-5.99-1.24c-3.98-.9-7.94-1.97-11.8-3.45-1.92-.78-3.82-1.64-5.6-2.83-1.69-1.17-3.7-2.78-3.89-5.56.11-2.78 2.1-4.48 3.77-5.72 1.77-1.27 3.67-2.18 5.58-3.01 3.85-1.6 7.8-2.77 11.78-3.78 1.99-.5 3.99-.95 6-1.35l6.05-.96 12.11-1.93.35-.05.4.17c7.96 3.55 16.39 5.89 24.97 7.38 8.6 1.43 17.36 1.86 26.1 1.65 8.75-.13 17.5-.99 26.18-2.32 8.7-1.25 17.25-3.35 25.88-5.14l.1-.03h.03c3.68-.19 7.37-.13 11.03.27 1.84.21 3.66.51 5.45.98 1.79.48 3.52 1.08 5.13 2.19zm-125.58 27.4l.07.01-.12-.03c.02.01.04.02.05.02zm125.36-27.21c-1.49-.88-3.29-1.46-5.04-1.81-1.77-.36-3.58-.56-5.39-.67-3.6-.21-7.21-.02-10.8.27-8.57 2.09-17.07 4.64-25.81 6.06-8.73 1.53-17.56 2.62-26.46 2.94-8.89.26-17.83-.14-26.66-1.56-8.68-1.4-17.23-3.9-25.29-7.58l-11.62 1.7-5.99.87c-1.98.38-3.96.79-5.92 1.22-3.92.9-7.81 1.97-11.52 3.41-1.83.74-3.63 1.6-5.23 2.65-1.58 1.03-3 2.45-3.06 3.96-.01 1.53 1.38 3.04 2.95 4.14 1.57 1.13 3.37 2.03 5.2 2.83 3.7 1.55 7.58 2.73 11.5 3.74 1.96.49 3.94.94 5.93 1.33l6 .95 12.02 1.87.07.01.05.02a158.97 158.97 0 0035.28 9.67c6.03.92 12.1 1.45 18.16 1.73 6.07.3 12.16.18 18.2-.37 6.03-.53 12.08-1.22 17.86-2.96 5.82-1.65 11.47-3.94 16.84-6.77 5.33-2.86 10.39-6.39 14.41-10.94 1.88-2.32 3.77-4.82 4.55-7.77.86-2.9.79-6.06-.23-8.94zm-21.23-2.21c.02 0 .05-.01.07-.01l-.13.02c.02 0 .04 0 .06-.01zm-104.22-.14l.37-.05-.75-.12c.13.06.25.12.38.17z"/><path fill-rule="evenodd" class="prefix__shp2" d="M199.65 285.69c4.33.05 8.66.1 12.99-.02l6.48-.16c2.14-.15 4.28-.35 6.41-.64 4.28-.58 8.55-1.17 12.94-1.6 2.19-.18 4.42-.23 6.75.02 1.15.14 2.36.34 3.58.94 1.25.44 2.43 1.73 2.99 3.19l.06.18.01.28c.03 2.59-1.06 5.18-2.7 7.04-1.63 1.88-3.67 3.15-5.72 4.17-4.15 2-8.52 3-12.87 3.7-8.75 1.32-17.55 1.08-26.22.19-4.32-.5-8.65-1.06-12.92-1.94-2.13-.49-4.26-.88-6.39-1.48-2.11-.62-4.14-1.41-6.19-2.14-4.12-1.45-8.22-3.02-12.12-5.18-3.88-2.12-7.65-5.05-9.94-9.27l-.87-1.59 1.79-.3c7.17-1.2 14.39-.08 21.22 1.43 3.44.73 6.85 1.52 10.29 2.15 3.45.6 6.93.98 10.43 1.03zm-.01.29c-3.5-.03-7.01-.33-10.5-.71-3.5-.35-6.98-.84-10.45-1.27-3.47-.44-6.94-.74-10.38-.88-2.78-.09-5.55 0-8.29.28 1.94 2.83 4.78 5.07 7.75 7.03 3.59 2.31 7.52 4.15 11.5 5.86 7.89 3.65 16.59 4.83 25.19 5.37 8.61.39 17.28.01 25.68-1.49 4.17-.78 8.34-1.86 12-3.75 3.53-1.81 6.61-4.64 6.72-8.27-.47-1.04-2.12-1.7-4-1.9-1.98-.25-4.1-.2-6.22-.09-4.26.12-8.58.64-12.95.75-2.17.08-4.37.08-6.56.03l-6.5-.41c-4.33-.29-8.66-.42-12.99-.55zm-39.62-2.58c-.37-.53-.7-1.08-1-1.66l-.93 1.9c.64-.09 1.28-.17 1.93-.24zm88.84 4.75c.03.06.06.12.08.19l-.07-.46c0 .09 0 .18-.01.27z"/><g><path fill-rule="evenodd" class="prefix__shp2" d="M1045.83 155.65c1.67 5.56.24 11.71-3.04 16.37-3.26 4.7-7.67 8.42-12.32 11.6-9.37 6.34-19.92 10.58-30.61 13.96-13.68 7.04-28.26 11.96-42.96 16.16-14.71 4.26-29.68 7.5-44.68 10.46-30.05 5.76-60.38 9.83-90.8 12.91-30.42 3.03-60.93 5.19-91.48 6.28-15.27.59-30.55.84-45.83 1.01-7.64.01-15.28.14-22.93.04l-22.96-1.01-.17-.01-.19-.09c-14.14-6.79-28.85-12.99-44.43-14.33-3.87-.25-7.77-.36-11.62.08-1.94.16-3.84.51-5.76.84l-5.75 1.25c-7.67 1.72-15.29 3.66-22.94 5.58-15.26 3.86-30.67 7.55-46.41 9.12-7.86.62-15.81 1.01-23.68.01l-2.96-.29c-.98-.14-1.94-.36-2.92-.54-1.94-.4-3.9-.73-5.83-1.17-3.77-1.24-7.66-2.14-11.22-3.94-1.79-.87-3.71-1.48-5.38-2.56l-5.11-3.06c-3.35-2.05-6.83-3.89-10.45-5.39a59.54 59.54 0 00-5.53-1.97c-1.87-.54-3.79-1.03-5.67-1.62-3.78-1.12-7.58-2.14-11.38-3.17-15.22-4-30.64-7.19-46.15-9.84-15.51-2.65-31.1-4.8-46.71-6.77l-11.71-1.44c-3.88-.49-7.86-.9-11.73-1.87-7.67-1.85-15.45-5.07-20.92-11.3-2.67-3.07-4.54-7.21-4.19-11.5.3-4.3 2.68-8.07 5.5-10.95 5.83-5.66 12.64-9.92 19.7-13.58 14.2-7.21 29.38-11.94 44.54-16.26l22.79-6.28 11.36-3.22c3.81-1.05 7.66-1.95 11.49-2.93 7.61-2.01 15.75-3.38 23.82-2.14 7.79 1.17 15.54 2.47 23.31 3.24 7.75.69 15.62 1.02 23.1-.66 3.76-.8 7.21-2.24 10.58-4.21 3.51-1.87 7.03-3.73 10.56-5.52 14.11-7.16 28.71-13.6 44.02-17.86a144.45 144.45 0 0147.11-5.6c3.95.43 7.94.5 11.85 1.26l5.89.95c1.94.39 3.86.89 5.79 1.33 7.57 2.04 15.22 2.64 23.09 3.79l33.55-.46c11.23-.21 22.46-.25 33.68-.11 22.46.23 44.92.8 67.35 1.94 44.85 2.38 89.64 6.45 134.05 13.34l.2.03.15.11c2.72 1.98 6.07 3.59 8.31 6.68l.03.04.03.05c3.32 5.9 8.21 10.88 13.76 14.78 5.54 3.95 11.7 6.99 18.15 9.1 12.9 4.19 27 4.79 40.17 1.55 6.59-1.72 12.5-5.29 18.57-8.52 3.05-1.58 6.18-3.08 9.47-4.12 3.31-.98 6.7-1.76 10.14-1.9 3.44-.27 6.88-.03 10.3.33 3.39.57 6.75 1.23 10.09 2.03 3.33.8 6.64 1.78 9.77 3.25 3.11 1.46 6.02 3.55 8.04 6.42 2.87 2.81 5.17 6.34 6.11 10.3zm-45.97 41.93c.01 0 .02-.01.03-.02l-.07.03c.02 0 .03-.01.04-.01zm-385.95-96.77h-.13l.24.02a.516.516 0 00-.11-.02zm425.81 44.54l.02.02c-.01 0-.01-.01-.02-.02zm5.84 10.38c-.97-3.91-3.25-7.36-6.1-10.11l-.01-.02-.01-.01c-2-2.79-4.86-4.83-7.94-6.25-3.1-1.43-6.39-2.38-9.71-3.15-3.32-.77-6.69-1.41-10.05-1.95-3.38-.33-6.78-.54-10.17-.25-3.4.15-6.73.95-9.97 1.93-3.23 1.05-6.3 2.55-9.33 4.14-5.99 3.24-11.96 6.92-18.68 8.73-13.38 3.38-27.63 2.87-40.79-1.29-6.57-2.1-12.87-5.15-18.56-9.15-5.68-3.95-10.75-8.97-14.3-15.12-1.91-2.6-4.96-4.12-7.82-6.1-44.33-6.47-89.03-10.12-133.77-12.09-22.4-1.01-44.81-1.71-67.23-1.93-11.22-.14-22.43-.12-33.63.09l-33.64.43h-.13l-.11-.02c-7.66-1.13-15.73-1.79-23.38-3.86-1.9-.44-3.8-.93-5.71-1.32l-5.77-.93c-3.83-.76-7.74-.82-11.61-1.25-15.55-.74-31.23 1.1-46.25 5.47-15.08 4.18-29.52 10.52-43.56 17.63-3.52 1.78-6.98 3.61-10.44 5.45-3.46 2.03-7.35 3.65-11.31 4.48-7.95 1.76-16.03 1.39-23.9.68-7.9-.78-15.69-2.1-23.45-3.33-7.58-1.21-15.32.01-22.89 1.96-3.81.95-7.63 1.81-11.43 2.84l-11.39 3.15-22.82 6.14c-15.14 4.2-30.25 8.82-44.29 15.84-6.95 3.54-13.73 7.75-19.32 13.12-2.68 2.71-4.83 6.12-5.1 9.89-.33 3.77 1.29 7.49 3.77 10.37 5.07 5.85 12.61 9.07 20.09 10.9 3.77.96 7.65 1.38 11.56 1.89l11.72 1.5c15.61 2.04 31.21 4.26 46.73 6.98 15.52 2.72 30.95 5.99 46.19 10.06 3.81 1.04 7.61 2.08 11.38 3.22 1.88.59 3.78 1.05 5.7 1.6 1.9.55 3.77 1.22 5.61 1.97 3.69 1.49 7.22 3.34 10.62 5.39l5.07 3.01c1.67 1.06 3.56 1.64 5.32 2.49 3.52 1.76 7.36 2.62 11.08 3.82 1.91.42 3.84.74 5.76 1.12.96.17 1.91.39 2.88.52l2.92.27c7.77.95 15.64.51 23.44-.15 15.6-1.64 30.92-5.4 46.15-9.34 7.63-1.96 15.26-3.95 22.95-5.72l5.78-1.29c1.95-.35 3.94-.72 5.92-.9 3.97-.46 7.97-.37 11.95-.14 15.9 1.29 30.8 7.48 44.97 14.2l22.65.88c7.62.06 15.25-.11 22.88-.15 15.26-.26 30.52-.59 45.77-1.25 30.5-1.19 60.99-2.88 91.38-5.74 30.39-2.85 60.71-6.68 90.74-12.22 15-2.85 29.96-5.98 44.66-10.14 14.7-4.08 29.27-8.9 42.92-15.82l.04-.01.03-.01c10.67-3.3 21.21-7.45 30.57-13.69 4.64-3.13 9.03-6.79 12.28-11.41 3.25-4.57 4.68-10.56 3.09-16.05zm-155.62-32.5c.01.01.02.03.03.04l-.06-.09c.01.02.02.04.03.05zm-7.82-6.1c.06.01.12.02.18.02l-.34-.14c.05.04.11.08.16.12zM638.55 241.34l-.17-.01.36.1c-.06-.03-.13-.06-.19-.09z"/><path fill-rule="evenodd" class="prefix__shp2" d="M662.64 110.29c37.25-.14 74.51.95 111.68 3.58 18.59 1.33 37.15 3.04 55.66 5.22 9.26 1.13 18.49 2.31 27.73 3.73 4.63.63 9.25 1.49 13.81 2.78 4.54 1.3 9.08 3.28 12.8 6.5l.09.08.08.11c5.36 7.38 13.12 12.62 21.41 16.24 8.33 3.64 17.26 5.86 26.29 7.22 18.07 2.71 36.51 2.79 54.82 1.71 4.57-.29 9.15-.61 13.73-1.05l6.86-.67c2.45-.18 5.33.04 7.58 1.94 2.28 1.89 2.95 4.93 2.85 7.47-.09 2.61-.82 5.08-1.9 7.34-1.1 2.24-2.61 4.31-4.44 5.99a50.342 50.342 0 01-5.63 4.44c-7.95 5.28-16.93 8.37-25.92 10.68-8.96 2.27-18.1 3.57-27.25 4.41-24.54 10.83-50.65 16.47-76.66 21.41-26.18 4.67-52.56 8.02-79 10.41-26.46 2.37-52.97 3.88-79.5 4.71-6.63.22-13.26.41-19.9.49-6.64.11-13.27.27-19.9.25-13.21-.1-26.69.86-39.79-2.48l-.08-.02-.08-.03c-15.88-7.84-33.63-11.41-51.3-11.36-17.7-.16-35.33 2.89-52.45 7.46-8.55 2.35-17.01 5.06-25.33 8.21-4.27 1.4-8.66 2.41-13.13 2.75-4.48.3-8.97.07-13.4-.63-8.84-1.54-17.28-4.84-25.2-8.99-7.95-4.07-15.33-9.1-22.79-13.93-34.77-10.41-70.87-15.5-105.9-25.48-4.25-1.29-9.11-2.17-12.87-5.43-1.93-1.5-3.46-3.66-4.2-6.11-.76-2.45-.53-5.19.47-7.52 2.13-4.7 6.5-7.53 10.82-9.22l12.74-4.91c16.92-6.6 33.92-13.63 51.93-17.21 8.98-1.81 18.14-2.81 27.32-2.65l6.86.32c2.28.2 4.54.5 6.81.75 4.51.35 9 .5 13.51.76 8.99.25 18.11-.1 26.71-2.61 4.34-1.22 8.21-3.26 12.09-5.74 3.91-2.35 7.81-4.73 11.77-7 15.75-9.15 32.37-17.47 50.34-21.08 8.94-1.83 18.1-2.55 27.21-1.97 9.09.75 18.01 2.79 26.65 5.69l18.09 4.06 47.91-.62zm290.25 87.72c.07-.03.15-.07.23-.1l-.46.12c.08-.01.15-.01.23-.02zm-518.51 18.25l.09.03-.18-.08c.03.02.06.03.09.05zm162.26-109.41h.02-.02zm18.09 4.06h-.04.05-.01zm47.91-.33l-47.94.81h-.05l-18.15-4h-.02c-8.61-2.87-17.51-4.83-26.54-5.45-9.04-.47-18.11.34-26.94 2.26-17.75 3.79-34.14 12.19-49.76 21.42-3.93 2.3-7.8 4.7-11.69 7.09-3.77 2.47-8.02 4.76-12.45 6.02-8.9 2.68-18.17 3.09-27.28 2.91-4.55-.22-9.15-.33-13.68-.66-2.25-.22-4.5-.5-6.74-.67l-6.74-.26c-8.99-.08-17.98.97-26.8 2.82-17.66 3.72-34.62 10.37-51.58 16.95l-12.75 4.84c-4.06 1.54-7.89 4.13-9.64 7.97-1.77 3.83-.33 8.43 3.07 11.05 3.24 2.87 7.71 3.76 12.06 5.09 34.87 10.15 70.98 15.46 105.86 26.15l.09.03.09.05c7.45 4.9 14.81 9.97 22.68 14.07 7.82 4.16 16.13 7.46 24.81 9.02 4.35.72 8.75.97 13.14.71 4.4-.31 8.71-1.28 12.9-2.62 8.36-3.06 16.82-5.87 25.4-8.26 17.16-4.68 34.86-7.83 52.7-7.76 17.77-.13 35.72 3.36 51.86 11.21 12.8 3.19 26.16 2.2 39.36 2.19 6.63-.03 13.26-.23 19.88-.38 6.63-.13 13.25-.36 19.87-.63 26.49-1.02 52.96-2.71 79.34-5.26 26.37-2.56 52.69-5.82 78.76-10.53 25.96-4.95 52.08-10.66 76.22-21.38l.23-.1.22-.02c9.11-.83 18.2-2.14 27.04-4.39 8.81-2.26 17.55-5.31 25.05-10.32 1.84-1.24 3.67-2.69 5.28-4.16 1.58-1.46 2.86-3.22 3.82-5.17.94-1.94 1.54-4.07 1.61-6.15.07-2.06-.48-4.1-1.87-5.2-1.36-1.16-3.4-1.42-5.49-1.27l-6.88.67c-4.59.45-9.21.78-13.82 1.08-18.42 1.06-37.05 1.16-55.41-1.88-9.16-1.46-18.27-3.82-26.84-7.66-8.48-3.81-16.53-9.32-22.11-17.12-3.36-2.93-7.51-4.81-11.85-6.09-4.42-1.31-8.96-2.2-13.55-2.87-9.17-1.5-18.4-2.78-27.62-4-18.46-2.37-36.99-4.22-55.55-5.69-37.12-2.92-74.36-4.3-111.6-4.46zm-24.09 120.79c-.02 0-.05-.01-.07-.01l.15.05a.3.3 0 01-.08-.04zm244.26-97.68c.03.03.06.06.1.09l-.18-.19c.03.03.05.07.08.1z"/><path fill-rule="evenodd" class="prefix__shp2" d="M962.9 181.63c-2.44 1.91-5.36 3.05-8.31 3.78-2.96.74-5.99 1.1-9.01 1.38-6.04.56-12.13.79-18.04 2.09h-.03c-2.94.32-5.85.88-8.67 1.75-2.82.87-5.56 2.05-8.31 3.15-5.42 2.47-11.02 4.53-16.65 6.45-11.29 3.78-22.83 6.71-34.45 9.23-23.24 5.02-46.78 8.48-70.4 11.11-11.81 1.33-23.65 2.12-35.48 3.14-11.83.93-23.68 1.83-35.54 2.38-11.87.57-23.75.9-35.63.93-5.94.03-11.89-.06-17.82-.21l-17.79-.19h-.19l-.19-.08c-16.37-6.71-33.9-10.34-51.57-11.21-4.41-.37-8.84-.25-13.27-.37-4.42.15-8.86.12-13.28.47-8.85.44-17.67 1.48-26.47 2.59-17.62 2.33-35 5.84-52.59 8.9-9.03 1.02-18.02-2.21-25.49-7.1-3.79-2.42-7.35-5.18-10.86-7.95l-10.55-8.07c-9.51-2.36-19.05-4.69-28.43-7.65-4.7-1.5-9.38-3.13-13.91-5.16-4.51-2.05-8.98-4.39-12.83-7.73-1.85-1.78-3.63-3.53-4.87-5.99-.57-1.24-.85-2.67-.71-4.06.15-1.38.65-2.67 1.29-3.83 2.74-4.59 7.13-7.43 11.42-9.92 8.78-4.8 18.41-7.75 28.24-9.21l.05-.01h.13c8.45-.02 16.91.41 25.32-.46 8.41-.74 16.76-2.1 24.95-4.12 16.36-4.06 32.19-10.73 45.93-20.55 3.47-2.43 6.61-5.17 9.84-7.99 3.39-3.09 7.56-4.88 11.7-6.25 8.38-2.65 17.12-3.01 25.69-2.72 8.6.37 17.11 1.71 25.46 3.74 4.18.99 8.27 2.55 12.35 3.5l12.07 3.15 31.4-.51 15.82-.24 15.81.1 15.8.27c5.25 0 10.55.08 15.82.24 10.56.32 21.1.86 31.62 1.71 21.01 1.68 42.04 3.41 62.96 6.17 10.47 1.36 20.91 2.89 31.3 4.69 10.42 1.71 20.71 4.14 31.04 6.27l.07.01.07.04c14.11 7.17 27.12 16.21 41.16 23.34 7.01 3.56 14.27 6.63 21.77 8.95 7.49 2.33 15.21 3.9 23 4.81l.01.01h.01c2.37.5 4.74 1.06 7.03 1.93 1.12.46 2.3.96 3.13 1.96.42.49.57 1.27.27 1.87-.25.63-.74 1.04-1.19 1.47zM442.31 203.8c.03.01.07.02.11.03l-.18-.08.07.05zM616 118.54h-.23l.4.05-.17-.05zm346.72 62.86c.9-.7 1.72-1.97.86-2.92-.75-.89-1.9-1.4-3.01-1.84-2.25-.85-4.61-1.39-6.97-1.87-7.82-.88-15.57-2.41-23.1-4.7-7.55-2.29-14.85-5.33-21.91-8.86-14.12-7-27.28-15.81-41.35-22.74-10.33-1.96-20.58-4.26-30.97-5.84-10.4-1.67-20.83-3.07-31.28-4.3-20.9-2.51-41.9-3.97-62.91-5.4-10.51-.66-21-1.3-31.5-1.57-5.26-.14-10.5-.21-15.78-.21l-15.8-.25-15.78-.08-15.78.27-31.57.56h-.23l-.17-.04-12.43-3.28c-4.2-1-8.07-2.51-12.17-3.5-8.15-2.01-16.5-3.37-24.87-3.76-8.35-.32-16.85.03-24.75 2.5-3.88 1.27-7.75 2.92-10.73 5.64-3.21 2.79-6.54 5.68-10.09 8.13-14.11 10.04-30.28 16.69-46.92 20.66-8.33 1.98-16.81 3.29-25.32 3.96-8.48.8-16.98.32-25.47.26-9.59 1.34-19.08 4.16-27.65 8.75-4.17 2.36-8.43 5.16-10.86 9.2-1.18 2-1.56 4.4-.55 6.44.98 2.02 2.75 3.88 4.46 5.51 3.62 3.2 7.99 5.52 12.41 7.56 4.46 2.03 9.08 3.67 13.75 5.19 9.34 3.02 18.88 5.41 28.41 7.83l.11.03.07.06 10.64 8.23c3.5 2.79 7 5.54 10.73 7.95 7.35 4.84 16.08 8.13 24.88 7.03 17.4-3.17 34.89-6.83 52.5-9.3 8.82-1.18 17.67-2.29 26.56-2.8 4.44-.38 8.9-.38 13.36-.57 4.45.08 8.91-.06 13.37.27 17.75.74 35.46 4.27 52.06 10.92l17.62.07c5.94.1 11.85.15 17.78.08 11.84-.11 23.68-.52 35.51-1.17 23.66-1.26 47.35-2.94 70.94-5.13 23.58-2.3 47.12-5.4 70.37-10.09 11.62-2.35 23.17-5.12 34.48-8.72 5.65-1.82 11.22-3.86 16.65-6.3 2.77-1.09 5.51-2.26 8.38-3.12 2.84-.87 5.78-1.42 8.74-1.73 5.97-1.28 12.07-1.47 18.11-2 3.01-.27 6.03-.61 8.96-1.33 2.93-.71 5.81-1.83 8.21-3.68zm-9.12-6.63l-.02-.01c.01.01.01.01.02.01zm-86.36-36.3c.02 0 .04.01.06.01l-.14-.05c.03.01.05.03.08.04zm-444.52 13.75c.02-.01.03-.01.05-.01h-.18c.04 0 .09 0 .13.01zm224.25 72.3h-.18l.38.08c-.07-.03-.13-.05-.2-.08zm280.47-36.11h0z"/><path fill-rule="evenodd" class="prefix__shp2" d="M660.35 128.65c6.93.79 13.89 1.47 20.86 1.64l20.92-.69c13.96-.42 27.93-.9 41.92-.42 13.97.4 27.99 1.77 41.71 4.7 13.68 2.49 27.59 4.21 41.32 7.08 13.72 2.82 27.43 6.14 40.5 11.69 3.26 1.4 6.47 2.96 9.55 4.83 3.06 1.89 6.09 4 8.51 6.97 1.19 1.48 2.25 3.2 2.8 5.18.61 1.97.43 4.17-.15 6.1-1.31 3.91-4.13 6.67-6.97 8.94-5.87 4.38-12.42 7.28-19.02 9.8-6.62 2.49-13.37 4.51-20.17 6.28-6.8 1.76-13.66 3.22-20.54 4.58l-20.78 3.35-.11.02-.14-.01c-6.45-.31-12.75-1.23-18.95-.82-3.08.14-6.21.77-9.37 1.24l-9.44 1.51c-12.58 2.09-25.19 4.18-37.86 5.91-12.66 1.73-25.42 3.02-38.23 3.33-12.78.34-25.61-.29-38.28-2.11-5.68-.21-11.44-.48-17.08-1.68l-.07-.01-.07-.03c-12.95-5.55-27.02-7.99-41.07-8.69-14.08-.71-28.21.31-42.27 1.63-14.06 1.32-28.12 2.92-42.25 3.73-7.11.3-14.09.67-21.32.2-3.6-.48-7.15-1.61-10.28-3.58-3.06-1.91-5.84-4.74-6.98-8.47-2.28-3.63-5-6.91-8.67-8.78-3.82-1.98-7.77-3.89-11.57-6.12-3.73-2.3-7.67-4.64-10.28-8.83-1.33-2.06-1.59-5.13-.45-7.44 1.11-2.29 2.85-3.96 4.64-5.35l.08-.07.09-.04c1.83-.95 3.67-1.43 5.54-1.81 1.86-.36 3.75-.53 5.64-.53 16.54-1.1 32.81-5.17 48.02-11.86 15.26-6.67 29.25-16 42.98-25.64l.04-.02.02-.02c4.62-2.7 9.73-4.3 14.9-5.18 5.17-.87 10.43-1.05 15.63-.75 10.4.66 20.69 3.06 30.24 7.27l-.03-.01c4.33 1.55 8.96 2.06 13.49 3.11l21.48-.58c7.16-.1 14.36-.31 21.52.45zm-11.92 89.1c.01.01.03.01.04.01l-.07-.01h.03zm-181.39-16.9c.02.03.04.07.06.1l-.11-.25c.02.05.03.1.05.15zm-14.98-38.97h-.04.09-.05zm165.29-33.1h-.04l.07.01c-.01-.01-.02-.01-.03-.01zm42.97.16c-7.13-.71-14.32-.46-21.48-.31l-21.51.71-.04.01-.03-.01c-4.5-1.03-9.16-1.51-13.63-2.99v-.01h-.02c-9.52-4.01-19.76-6.2-30.02-6.67-5.13-.2-10.29.06-15.31 1.01-5 .95-9.89 2.58-14.21 5.22-6.8 4.93-13.63 9.86-20.78 14.33-7.15 4.46-14.53 8.61-22.25 12.04-7.7 3.44-15.69 6.3-23.88 8.33-8.2 2.01-16.58 3.25-24.98 3.79h-.09c-1.74-.01-3.5.14-5.22.47-1.67.32-3.38.79-4.79 1.5-1.61 1.24-3.04 2.7-3.84 4.35-.78 1.69-.68 3.53.33 5.21 2 3.39 5.75 5.88 9.34 8.11 3.67 2.23 7.54 4.16 11.4 6.23 4.11 2.16 7.07 5.92 9.34 9.69l.08.12.03.13c.87 3.17 3.31 5.85 6.16 7.66 2.86 1.86 6.18 2.98 9.58 3.48 6.87.55 14.05.3 21.05.1 14.1-.61 28.15-2.22 42.24-3.43 14.08-1.17 28.22-2.36 42.4-1.75 14.11.6 28.31 2.94 41.5 8.45 5.52 1.12 11.16 1.35 16.84 1.52h.08c12.6 1.73 25.34 2.18 38.05 1.72 12.71-.45 25.37-1.86 37.97-3.73 12.61-1.83 25.15-4.13 37.75-6.25l9.45-1.56c3.16-.48 6.31-1.13 9.61-1.32 6.5-.45 12.86.45 19.1.73l20.49-3.41c6.82-1.39 13.63-2.87 20.35-4.65 6.72-1.8 13.39-3.75 19.87-6.18 6.45-2.45 12.84-5.3 18.26-9.33 2.62-2.06 5-4.55 5.95-7.43 1.04-2.88-.02-5.98-2.1-8.46-2.03-2.53-4.85-4.54-7.73-6.32-2.91-1.78-6.02-3.29-9.19-4.66-12.74-5.37-26.3-8.88-39.87-11.92-13.6-3.05-27.41-4.97-41.19-7.7-13.58-3.13-27.46-4.67-41.38-5.34-13.92-.68-27.89-.6-41.85-.23l-20.95.54c-7-.22-13.95-.95-20.88-1.79zm-116.25-3.04c.01-.01.02-.02.03-.02l-.06.04c.01-.01.02-.02.03-.02zm-101.99 40.46a.55.55 0 00.09-.07l-.16.11c.02-.01.04-.02.07-.04zm189.61 48.35c-.03 0-.05-.01-.07-.01l.13.04-.06-.03zm168.85-8.89l-.09.01.25-.01h-.16z"/><path fill-rule="evenodd" class="prefix__shp2" d="M842.56 172.48c-.01 2.47-1.29 4.7-2.87 6.45-1.61 1.77-3.54 3.17-5.52 4.44-4.02 2.48-8.32 4.41-12.75 5.99-2.24.72-4.54 1.28-6.88 1.57-2.33.35-4.72.17-7.04.08-4.67-.18-9.33-.4-13.99-.33-4.65.05-9.3.41-13.8 1.41-4.45 1.03-8.82 2.97-13.25 4.4-8.85 3.07-17.79 5.93-26.84 8.41-18.09 4.9-36.68 8.44-55.5 9-9.39.38-18.82-.09-28.15-1.25-4.68-.51-9.27-1.47-13.89-2.31l-13.81-1.83-.14-.02-.09-.03c-12.55-4.57-25.79-7.12-39.12-8.3-13.35-1.22-26.78-1.19-40.19-.91l-40.27 1.59c-3.42.02-6.93-.6-10.03-2.3-3.13-1.68-5.45-4.56-7.15-7.55-.87-1.5-1.62-3.04-2.43-4.5l-2.59-4.38c-.83-1.49-1.81-3.17-1.63-5.29.26-2.19 2.01-3.53 3.47-4.42l.03-.02.06-.03c11.34-4.98 22.42-10.59 33.22-16.7 10.8-6.1 21.33-12.71 31.74-19.5l.05-.03.04-.02c8.3-4.37 17.67-5.7 26.77-5.4 8.98.36 17.98 2.37 26.1 6.61 5.67-.31 11.34-.75 17.02-.94l17.46-.62.4-.01.37.2c3.68 2.03 7.84 3.29 12.07 4.09 4.24.82 8.59 1.15 12.94 1.21 8.68.23 17.35-1.56 26.24-2.35 17.63-1.87 35.42-2.55 53.15-1.77 17.7.97 35.47 3.48 52.28 9.35 8.35 3.1 16.54 6.44 24.82 9.62 4.12 1.62 8.2 3.46 11.95 5.9 1.86 1.23 3.65 2.62 5.12 4.33 1.49 1.68 2.62 3.83 2.63 6.16zm-236.45-35.17l-.42.03.79.17c-.12-.06-.25-.13-.37-.2zm236.16 35.17c-.02-2.23-1.12-4.29-2.6-5.93-1.45-1.65-3.23-3.01-5.08-4.21-3.73-2.38-7.8-4.17-11.92-5.76-8.29-3.12-16.57-6.38-24.91-9.22-16.83-5.43-34.5-7.57-52.08-8.2-17.62-.49-35.25.7-52.77 2.66-4.41.45-8.73 1-13.14 1.58-4.44.61-8.94.9-13.43.85-4.49-.05-9-.38-13.45-1.23-4.31-.8-8.61-2.05-12.62-4.18l-17.01.63c-5.8.15-11.59.58-17.38.85l-.43.02-.36-.19c-7.67-4.16-16.45-6.23-25.2-6.63-8.71-.35-17.69.91-25.4 4.92-20.96 13.41-42.7 25.79-65.63 35.44-1.32.78-2.53 1.82-2.67 3.14-.15 1.35.58 2.88 1.39 4.31l2.56 4.42c.83 1.52 1.56 3.05 2.38 4.51 1.62 2.9 3.71 5.52 6.55 7.09 2.82 1.57 6.12 2.21 9.39 2.22l40.24-1.2c13.43-.36 26.89-.5 40.31.63 13.38.97 26.74 3.26 39.54 7.66l13.89 1.6c4.6.76 9.18 1.63 13.8 2.05 9.22 1.02 18.52 1.49 27.8 1.04 9.27-.39 18.52-1.39 27.71-2.8 9.19-1.46 18.29-3.47 27.32-5.8 9.04-2.28 18.01-4.9 26.9-7.77 4.5-1.33 8.78-3.13 13.48-4.13 4.65-.92 9.37-1.18 14.06-1.13 4.69.04 9.36.37 14.02.64 4.66.53 9.29-.05 13.74-1.49 4.38-1.52 8.7-3.42 12.69-5.84 1.97-1.24 3.89-2.62 5.47-4.34 1.57-1.7 2.82-3.85 2.84-6.21zm-202-33.64l.39-.02-.76-.18c.12.06.25.13.37.2zm-85.78-.4a.21.21 0 01.06-.04l-.09.05c.01 0 .02-.01.03-.01zm-65.63 35.44c.02-.01.04-.02.05-.03l-.08.04c.01 0 .02-.01.03-.01zm139.69 32.78l-.11-.01.22.05c-.04-.01-.07-.03-.11-.04z"/><path fill-rule="evenodd" class="prefix__shp2" d="M650.48 154.44c6.55.7 13.15.8 19.7.28 20.1-3.49 40.07-8 60.54-9.6 10.22-.75 20.56-.76 30.81.69 10.21 1.51 20.35 4.64 29.36 10.04l.09.06.07.06c1.61 1.32 3.23 2.68 4.55 4.64.63.98 1.24 2.2 1.22 3.72-.02 1.53-.89 2.89-1.8 3.73-1.97 1.65-3.73 2.26-5.49 3.29l-5.32 2.83c-7.14 3.7-14.34 7.31-21.66 10.65-14.63 6.69-29.68 12.62-45.29 16.6-15.57 4.01-31.65 6.28-47.73 5.81-16.05-.37-32.02-3.4-47.1-8.9-7.73-.63-15.29-2.12-22.87-3.4l-.03-.01-.03-.01c-5.62-1.61-11.47-2.38-17.32-2.81-5.86-.43-11.74-.6-17.64-.87-5.89-.27-11.81-.6-17.72-1.5-5.85-.94-11.88-2.38-17.09-5.9l-.23-.15-.15-.28c-.52-1.01-1.02-2.12-1.27-3.38-.24-1.26-.15-2.65.29-3.87.88-2.42 2.61-4.09 4.31-5.52 5.09-4.88 10.69-9.24 16.76-12.79a84.67 84.67 0 0119.29-8.39c13.51-3.88 27.74-4.06 41.42-1.96 3.42-.23 6.86-.44 10.3-.4 3.46.03 6.96.23 10.32 1.25 3.29 1.2 6.38 2.67 9.69 3.71 3.26 1.08 6.61 1.94 10.02 2.38zm19.7.28c0 .01 0 .01-.01.01l.03-.01h-.02zm-47.75 43.62c.02 0 .04 0 .06.01l-.12-.03c.02.01.04.01.06.02zm-89.75-27.7c0 .01-.01.02-.02.02l.09-.07c-.02.02-.04.03-.07.05zm77.47-23.14c-.02 0-.04 0-.06.01h.1c-.01 0-.03-.01-.04-.01zm40.3 7.23c-3.44-.4-6.82-1.23-10.12-2.29-3.3-1-6.5-2.47-9.71-3.59-3.28-.97-6.74-1.15-10.16-1.12-3.44.07-6.86.39-10.29.72h-.11c-13.65-1.7-27.66-1.06-40.72 3.13-13.12 3.97-24.94 11.54-34.96 20.94l-.04.04-.04.03c-1.57 1.27-3.02 2.74-3.62 4.41-.6 1.57-.21 3.26.66 4.98 4.63 3.06 10.22 4.62 15.83 5.64 5.73 1.02 11.6 1.48 17.46 1.89 5.88.41 11.77.72 17.66 1.3 5.86.61 11.76 1.38 17.46 3.1 7.6 1.31 15.15 3.02 22.8 3.5h.06l.07.02c15.08 5.28 30.96 8.09 46.87 8.26 15.93.2 31.79-2.36 47.11-6.6 15.34-4.29 30.24-10.12 44.69-16.93 7.25-3.36 14.35-7.06 21.46-10.73l5.31-2.81c1.72-.96 3.75-1.85 4.86-2.81 2.38-1.69-.77-5.1-3.67-7.4-8.58-5.17-18.3-8.19-28.21-9.73-9.94-1.62-20.12-1.79-30.24-1.29-20.31.97-40.47 4.59-60.6 7.86l-.01.01h-.02c-6.59.44-13.22.25-19.78-.53zm-119.11 27.25a4.6 4.6 0 00-.23-.15l.38.43c-.05-.09-.1-.19-.15-.28zm68.41 11.93c0-.01-.01-.01-.01-.01l.05.02c-.01-.01-.02-.01-.04-.01zm189.56-35.5c.02.01.04.03.07.04l-.17-.11c.03.02.06.04.1.07z"/><path fill-rule="evenodd" class="prefix__shp2" d="M742.71 160.83c1.33 2.92 1.6 6.24.83 9.35-.68 3.17-2.5 5.88-4.35 8.42-4.01 4.9-9.12 8.69-14.49 11.82-10.79 6.25-23.11 9.64-35.43 10.59-12.34 1.08-24.77.13-36.87-2.15a172.57 172.57 0 01-17.92-4.49c-5.88-1.74-11.68-3.78-17.35-6.14l-12.01-1.79-6.04-.88-5.99-1.24c-3.98-.9-7.94-1.97-11.8-3.46-1.91-.77-3.82-1.64-5.6-2.82-1.69-1.18-3.7-2.78-3.89-5.56.11-2.79 2.1-4.49 3.77-5.72 1.77-1.27 3.67-2.18 5.58-3.02 3.85-1.59 7.8-2.77 11.78-3.78 2-.49 3.99-.95 6-1.35l6.05-.96 12.11-1.92.36-.06.39.18c15.94 7.11 33.63 9.52 51.07 9.04 8.75-.16 17.5-.99 26.19-2.32 8.67-1.34 17.32-3.03 25.87-5.16l.08-.02h.05c3.68-.2 7.37-.14 11.04.27 1.83.2 3.65.5 5.44.97 1.8.48 3.52 1.09 5.13 2.2zm-125.58 27.4l.07.01-.11-.03c.01.01.03.01.04.02zm125.36-27.21c-1.49-.89-3.29-1.46-5.04-1.81-1.77-.37-3.58-.56-5.39-.67-3.59-.22-7.2-.02-10.78.27-8.5 2.41-17.1 4.55-25.82 6.06-8.74 1.54-17.57 2.6-26.46 2.94-8.89.28-17.84-.14-26.66-1.57-8.7-1.37-17.26-3.85-25.3-7.57l-11.61 1.69-6 .88c-1.98.37-3.96.78-5.92 1.22-3.92.9-7.81 1.97-11.52 3.41-1.83.74-3.63 1.59-5.23 2.65-1.58 1.03-3 2.44-3.06 3.96-.01 1.53 1.39 3.04 2.95 4.13 1.58 1.14 3.37 2.04 5.21 2.84 3.69 1.55 7.58 2.72 11.49 3.73 1.96.5 3.94.94 5.93 1.34l6 .95 12.02 1.87.07.01.05.02c11.36 4.58 23.23 7.82 35.28 9.66 6.03.93 12.1 1.46 18.17 1.73 6.06.3 12.15.19 18.19-.36 6.04-.53 12.08-1.23 17.86-2.96 5.83-1.66 11.47-3.95 16.84-6.77 5.33-2.87 10.39-6.39 14.41-10.94 1.89-2.33 3.77-4.82 4.55-7.78.86-2.9.79-6.06-.23-8.93zm-21.21-2.21c.01-.01.03-.01.05-.02l-.13.03c.03-.01.05-.01.08-.01zm-104.24-.14l.37-.06-.75-.11c.13.05.25.11.38.17z"/><path fill-rule="evenodd" class="prefix__shp2" d="M659.29 177.05c4.33.05 8.66.09 12.99-.02l6.48-.17c2.14-.14 4.28-.34 6.41-.63 4.28-.58 8.55-1.18 12.94-1.6 2.19-.19 4.43-.23 6.75.01 1.15.14 2.36.34 3.58.94 1.25.44 2.43 1.74 2.99 3.2l.07.17v.29c.03 2.59-1.06 5.18-2.7 7.03-1.63 1.88-3.67 3.15-5.72 4.18-4.15 2-8.52 3-12.87 3.7-8.74 1.32-17.54 1.08-26.21.19-4.33-.51-8.66-1.07-12.93-1.95-2.13-.49-4.26-.87-6.39-1.47-2.11-.63-4.14-1.42-6.19-2.14-4.12-1.45-8.22-3.02-12.12-5.19-3.88-2.12-7.64-5.05-9.94-9.26l-.87-1.59 1.8-.3c7.16-1.21 14.38-.08 21.21 1.43 3.44.73 6.85 1.51 10.29 2.15 3.45.59 6.93.97 10.43 1.03zm-.01.29c-3.5-.03-7.01-.33-10.5-.72-3.5-.34-6.98-.84-10.45-1.27-3.47-.44-6.94-.73-10.37-.87-2.79-.09-5.56 0-8.3.28 1.94 2.83 4.78 5.06 7.75 7.03 3.59 2.31 7.52 4.15 11.5 5.86 7.9 3.64 16.59 4.83 25.19 5.36 8.61.39 17.28.01 25.68-1.49 4.17-.77 8.34-1.85 12-3.74 3.53-1.82 6.61-4.64 6.72-8.28-.47-1.03-2.12-1.69-4-1.9-1.98-.24-4.1-.19-6.22-.08-4.26.11-8.58.63-12.95.74-2.17.09-4.37.09-6.56.03l-6.5-.4c-4.33-.29-8.66-.43-12.99-.55zm-39.62-2.58c-.37-.53-.7-1.08-1-1.66l-.93 1.89c.64-.09 1.29-.16 1.93-.23zm88.84 4.74c.03.06.06.13.08.2l-.07-.46c0 .08 0 .17-.01.26z"/></g><g><path fill-rule="evenodd" class="prefix__shp2" d="M287.8 156.8c-6.01 5.7-12.6 10.61-19.55 14.98-7.03 4.21-14.36 7.91-21.92 11.06-15.16 6.2-31.02 10.44-47.02 13.66-16.03 3.13-32.27 5-48.52 6.23-8.14.63-16.28.71-24.42 1.09l-24.41.89h-.1c-19.58-1.07-39.23-.16-58.81 1.44-19.59 1.64-39.11 4.16-58.67 6.44-19.56 2.27-39.16 4.46-58.86 5.13-19.67.8-39.48.16-58.99-2.92h-.03l-.03-.01c-3.17-.85-6.25-2.19-8.96-4.1-2.73-1.9-5.03-4.31-7.24-6.68l-.17-.17-.03-.24c-.57-4.94.03-9.99 1.62-14.68 1.59-4.69 4.09-9.01 7.07-12.88 6.02-7.75 13.74-13.83 21.83-19.06 16.34-10.33 34.45-17.31 52.88-22.49 9.23-2.5 18.65-4.64 28.08-6.04l28.24-4.62c18.84-2.98 37.75-5.7 56.75-7.58 19-1.95 38.09-3.14 57.2-3.31 9.54-.17 19.08.3 28.62.46l14.31.35 7.16.17 7.14.42c38.05 2.51 76.2 7.9 112.58 19.84l.06.02.04.02c3.93 2.52 7.75 5.39 10.65 9.16 1.45 1.87 2.64 3.99 3.28 6.29.64 2.32.75 4.72.22 7.13zm-.25-.15c.41-2.21.3-4.65-.39-6.85-.67-2.22-1.87-4.26-3.31-6.05-2.9-3.61-6.69-6.34-10.6-8.73-36.5-11.09-74.46-16.29-112.41-18.27l-7.13-.34-7.13-.09-14.28-.18-14.27-.18c-4.75-.1-9.51-.13-14.26-.07-19.01.2-38 1.43-56.92 3.41-18.93 1.96-37.79 4.58-56.63 7.44l-28.23 4.47c-9.43 1.36-18.65 3.4-27.85 5.85-18.29 4.96-36.3 11.65-52.49 21.66-8.01 5.05-15.65 10.95-21.56 18.4-5.86 7.28-9.63 16.63-8.61 26.07 2.14 2.32 4.3 4.57 6.81 6.35 2.55 1.83 5.44 3.12 8.47 3.96 19.38 3.2 39.1 4.03 58.73 3.33 19.65-.83 39.22-2.99 58.73-5.56 19.51-2.56 39.01-5.37 58.64-7.28 19.59-1.97 39.34-2.82 59.06-1.88 16.23-.68 32.49-.92 48.7-1.78 16.2-1.1 32.34-2.98 48.32-5.86 15.94-2.99 31.75-6.99 46.88-12.94a168.62 168.62 0 0022.01-10.49c6.99-4.17 13.67-8.94 19.72-14.39zm-14.3-21.63c.01 0 .03.01.04.01l-.09-.04c.01.01.03.02.05.03zm-421.77 68.17l-.16-.19.19.43-.03-.24zm15.28 10.31h-.03l.07.01c-.02 0-.03 0-.04-.01zm235.16-11.39h-.02.09-.07z"/><path fill-rule="evenodd" class="prefix__shp2" d="M98.65 119.4l32.38-.34h.02c20.78 1.59 41.63 1 62.48 2 10.42.48 20.85 1.27 31.21 2.89 10.35 1.62 20.65 4.06 30.47 8.03l.06.02.06.04c3.51 1.96 6.97 4.49 9.12 8.28 2.21 3.75 2.48 8.48 1.32 12.51-1.13 4.07-3.3 7.64-5.78 10.82-2.5 3.18-5.38 5.99-8.52 8.45-12.7 9.59-27.26 15.83-42.16 20.4-14.94 4.49-30.31 7.22-45.74 8.86-15.43 1.68-30.95 2.28-46.44 2.11h-.11c-19.57-1.91-39.37-1.1-59.06.05-19.71 1.23-39.39 3.17-59.09 4.8-9.85.82-19.71 1.56-29.59 2.1-9.87.6-19.76 1-29.66.82-9.89-.25-19.85-.87-29.55-3.33-4.82-1.32-9.59-3.2-13.71-6.26a21.54 21.54 0 01-5.29-5.64c-1.3-2.3-2.47-4.56-3.18-7.08-1.54-4.94-1.55-10.56.43-15.45 1.88-4.94 5.26-9.03 8.99-12.47 7.65-6.8 16.71-11.41 25.88-15.3 9.2-3.88 18.71-6.89 28.31-9.43 9.6-2.52 19.29-4.66 29.03-6.46 19.51-3.51 39.18-5.9 58.89-7.56 19.71-1.58 39.46-2.74 59.23-2.86zm0 .29c-39.5.63-79 4.58-117.72 12.28-19.34 3.83-38.55 8.73-56.79 16.11-9.04 3.78-17.94 8.28-25.26 14.73-3.6 3.22-6.81 7.01-8.58 11.47-1.87 4.43-1.95 9.46-.59 14.1.61 2.35 1.73 4.59 2.86 6.65 1.26 2.02 2.88 3.82 4.79 5.28 3.82 2.93 8.39 4.84 13.08 6.21 9.45 2.59 19.36 3.37 29.2 3.64 19.73.47 39.47-1.16 59.13-2.97 19.68-1.82 39.34-3.89 59.08-5.35 19.69-1.4 39.51-2.47 59.32-.8 15.41-.08 30.82-.71 46.1-2.47 15.29-1.73 30.49-4.51 45.18-9.02 14.61-4.51 29.01-10.65 41.2-19.83 2.98-2.33 5.72-4.99 8.05-7.95 2.32-2.95 4.29-6.22 5.26-9.73.99-3.49.75-7.21-1.02-10.26-1.73-3.06-4.69-5.35-7.85-7.22-9.48-4.02-19.53-6.61-29.71-8.39-10.21-1.77-20.57-2.76-30.94-3.42-20.77-1.29-41.64-1.4-62.43-3.12l-32.36.06zm18.52 81.35h-.03.1-.07zm136.92-66.48c.02.01.04.02.07.03l-.12-.06c.01.01.03.02.05.03zm-123.08-14.93h.02-.02z"/><path fill-rule="evenodd" class="prefix__shp2" d="M254.82 157.34c-11.93 9.51-25.53 16.47-39.72 21.69-14.2 5.19-28.95 8.74-43.82 11.23-14.89 2.43-29.92 3.88-44.98 4.44-15.02.51-30 1.22-45 2.1-30 1.65-60.05 3.35-90.13 3.36-15.04-.01-30.08-.42-45.09-1.5-7.49-.63-15-1.26-22.45-2.29-3.72-.53-7.48-.79-11.22-1.69-1.86-.47-3.72-1.04-5.45-2.02-1.71-.92-3.44-2.3-4.22-4.36-.78-2.05-.42-4.3.32-6.15.74-1.89 1.87-3.52 3.05-5.07 2.42-3.05 5.25-5.69 8.23-8.08 5.98-4.78 12.5-8.77 19.34-12.12a510.09 510.09 0 0142.31-16.2c28.67-9.4 58.47-15.72 88.61-17.55 15.08-1.01 30.17-.78 45.2-.28l22.56.69c7.52.33 15.03.94 22.52 1.61 29.98 2.78 59.82 7.39 89.03 14.74l.07.02.05.03c3.12 1.86 6.17 4 8.49 6.91 1.14 1.44 2.1 3.1 2.53 4.93.43 1.84.37 3.71-.23 5.56zm-.24-.17c.46-1.65.53-3.57.05-5.28-.45-1.74-1.41-3.3-2.55-4.67-2.3-2.73-5.32-4.74-8.41-6.48-29.33-6.51-59.07-10.95-88.98-13.2-7.48-.56-14.96-1.06-22.46-1.28l-22.51-.46c-15-.46-30-.65-44.93.38-29.86 2-59.45 7.8-88.01 17.04-14.24 4.59-28.49 9.79-42.24 15.55-6.75 3.18-13.23 7.03-19.13 11.62-2.95 2.3-5.73 4.83-8.07 7.7-2.23 2.79-4.37 6.4-3.22 9.67.56 1.58 1.97 2.79 3.53 3.64 1.54.9 3.31 1.47 5.08 1.93 3.57.9 7.34 1.21 11.05 1.77 7.44 1.1 14.91 1.8 22.38 2.51 14.96 1.32 29.99 1.6 45 1.48 30.04-.23 60-2.83 90-4.74 29.99-2.46 60.19-1.3 89.78-6.3 14.79-2.32 29.49-5.52 43.67-10.44 14.13-4.9 27.95-11.39 39.97-20.44zm-10.91-16.43c.01 0 .03.01.05.01l-.11-.04.06.03z"/><path fill-rule="evenodd" class="prefix__shp2" d="M101.19 130.28l37.25-.16c12.42.11 24.85.6 37.25 1.53 12.41.94 24.81 2.36 37.05 5.15 6.08 1.52 12.24 3.13 17.83 6.82.69.48 1.33 1.08 2 1.62.59.65 1.22 1.32 1.71 2.1 1 1.61 1.43 3.76.96 5.67-.98 3.83-3.71 6.1-6.15 8.14-10.03 8-21.62 13.32-33.41 17.51-11.83 4.15-24 7.14-36.26 9.43-6.13 1.14-12.29 2.12-18.47 2.88-6.19.79-12.39 1.28-18.55 1.97-12.34 1.3-24.72 2.52-37.11 3.43-24.77 1.95-49.73 2.43-74.48-.22-12.36-1.4-24.66-3.65-36.61-7.31-5.86-1.67-12.37-3.83-16.53-9.21-1.14-1.23-1.78-2.85-2.48-4.39l-.58-2.5c-.19-.83-.08-1.7-.12-2.55.16-3.38 1.21-6.75 3.11-9.44 3.56-5.64 9.01-9.48 14.65-12.38 1.46-.65 2.87-1.39 4.36-1.96l4.5-1.62c3.02-.79 6.05-1.57 9.08-2.29 12.12-2.88 24.33-5.41 36.67-7.09 24.65-3.52 49.51-4.75 74.33-5.13zm0 .3c-12.4.29-24.81.78-37.17 1.87a438.966 438.966 0 00-36.88 4.78 489.408 489.408 0 00-36.36 7.73l-8.97 2.35-4.29 1.51c-1.41.54-2.77 1.24-4.16 1.85-5.38 2.7-10.54 6.34-13.76 11.4-1.73 2.44-2.7 5.33-2.9 8.2.03.72-.1 1.46.05 2.17l.45 2.12c.59 1.31 1.06 2.71 2.06 3.82.78 1.25 1.99 2.16 3.08 3.17 1.17.91 2.49 1.66 3.77 2.44 1.4.59 2.75 1.27 4.18 1.81l4.4 1.48c11.73 3.94 23.93 6.42 36.23 7.86 24.64 2.97 49.57 1.74 74.24-.37 12.36-1.12 24.68-2.56 37-4.07 12.36-1.43 24.62-2.91 36.77-5.31 12.13-2.38 24.15-5.43 35.76-9.62 11.54-4.21 22.97-9.34 32.54-16.97 2.3-1.82 4.6-4.05 5.15-6.48.27-1.18.05-2.32-.58-3.4-.34-.53-.81-1.03-1.24-1.53-.56-.43-1.06-.92-1.65-1.33-2.36-1.68-5.2-2.84-8.03-3.89-2.85-1.05-5.82-1.87-8.78-2.66-11.95-2.97-24.28-4.55-36.58-5.94-12.32-1.33-24.7-2.18-37.1-2.64-12.4-.27-24.81-.22-37.23-.35z"/><path fill-rule="evenodd" class="prefix__shp2" d="M215.29 157.82c-15.83 8.63-32.94 14.24-50.38 18.2-8.74 1.89-17.56 3.45-26.42 4.52-8.89.92-17.79 1.85-26.69 2.65-17.79.18-35.46 2-53.27 3.15-17.76 1.15-35.72 1.57-53.39-1.39-3.88-.27-7.81-.67-11.58-2.13-1.83-.75-3.84-1.93-4.7-4.12-.83-2.23-.06-4.49.8-6.31 1.89-3.67 4.56-6.64 7.15-9.6 2.6-2.94 5.34-5.77 7.62-8.83l.06-.08.08-.07c6.07-5.54 13.43-9.29 20.96-12.07 7.56-2.78 15.42-4.53 23.31-5.86 7.91-1.21 15.86-1.95 23.83-2.4 7.96-.4 15.93-.4 23.89-.26 7.96.2 15.9.57 23.84 1.08 7.92.61 15.83 1.41 23.74 2.12l47.39 4.46.08.01.04.01c5.08 1.28 10.15 2.8 14.91 5.11 2.36 1.16 4.7 2.51 6.63 4.38 1.98 1.77 3.28 4.74 2.1 7.43zM5.14 184.95h.04-.06.02zm209.94-27.33c.88-2.43-.33-5.18-2.31-6.77-1.92-1.72-4.23-2.94-6.6-3.97-4.73-2.06-9.76-3.34-14.79-4.53l-47.44-3.4c-7.91-.57-15.82-1.05-23.72-1.71-7.9-.47-15.81-.81-23.72-.97-15.8-.22-31.64.15-47.25 2.4-7.78 1.2-15.47 2.93-22.89 5.46-7.37 2.53-14.52 6-20.41 11.13-2.47 3.16-5.24 5.88-7.87 8.73-2.62 2.86-5.31 5.76-7.07 9.1-.83 1.65-1.4 3.52-.82 5.09.57 1.57 2.19 2.66 3.88 3.38 3.47 1.41 7.37 1.89 11.19 2.2l.04.01h.02c17.48 3.35 35.43 2.81 53.11 1.21 17.69-1.58 35.43-4.15 53.27-4.34 8.82-.94 17.65-1.73 26.49-2.54 8.82-.96 17.58-2.45 26.28-4.19 8.7-1.75 17.34-3.88 25.8-6.6 8.46-2.64 16.85-5.88 24.81-9.69zm-23.7-15.27h.06l-.12-.01c.02 0 .04.01.06.01zM5.95 155.26l.06-.09-.13.15c.02-.02.04-.04.07-.06z"/><path fill-rule="evenodd" class="prefix__shp2" d="M101.84 141.41c6.66-.15 13.31-.19 19.97-.12 6.66-.01 13.32.09 19.98.33h.05l.1.03c3.67.84 7.47 1.28 11.26 1.71l11.42 1.3c3.82.49 7.64 1.01 11.48 1.9 1.92.47 3.84 1.05 5.75 2.06.94.55 1.94 1.15 2.72 2.36.85 1.23.75 3.1.16 4.22l-.11.21-.08.1c-5.68 6.87-13.36 11.26-21.12 14.69-7.85 3.34-16.05 5.6-24.3 7.32-16.49 3.3-33.19 5.48-49.96 6.11-16.77.6-33.58-.03-50.19-2.42-4.15-.64-8.28-1.37-12.39-2.26-2.06-.39-4.11-.88-6.15-1.43-2.05-.5-4.11-.98-6.11-1.88-1.98-.85-3.89-1.94-5.61-3.38-1.68-1.42-3.26-3.35-3.69-5.85-.48-2.54.68-5.07 2.22-6.76 1.55-1.75 3.44-2.94 5.33-4.05l.03-.01.05-.03c6.98-3.13 14.27-5.49 21.68-7.13 7.4-1.7 14.89-2.87 22.4-3.66 7.51-.83 15.03-1.41 22.55-1.87l22.56-1.49zm.01.29c-7.5.61-15.02 1.15-22.51 1.92-7.48.8-14.96 1.71-22.38 2.88-7.42 1.2-14.81 2.55-22.07 4.34-7.23 1.86-14.4 3.98-21.22 6.97-1.73.97-3.4 2.06-4.71 3.44s-2.12 3.1-1.84 4.84c.22 1.74 1.38 3.4 2.84 4.71 1.47 1.31 3.2 2.4 5.05 3.27 7.6 2.97 15.92 4.74 24.11 6.12 16.49 2.73 33.31 2.88 49.95 1.76 16.64-1.24 33.17-3.75 49.48-7.19 8.11-1.78 16.1-4.16 23.68-7.42 7.46-3.23 14.73-7.42 19.91-13.56.2-.53.19-.83-.04-1.23-.26-.45-.92-.94-1.64-1.34-1.48-.81-3.26-1.35-5.05-1.84-3.6-.95-7.37-1.59-11.13-2.17l-11.36-1.71c-3.78-.64-7.56-1.26-11.31-2.31-6.59-.55-13.2-.95-19.82-1.23-6.64-.19-13.3-.27-19.94-.25zm-88.18 16.11c.01-.01.03-.02.04-.03l-.08.04c.01 0 .03-.01.04-.01zm168.47-4.03c-.01.05-.03.09-.05.15l.19-.32c-.04.06-.09.11-.14.17zm-40.53-10.6c.03 0 .06.01.09.01l-.15-.02c.02 0 .04.01.06.01z"/><path fill-rule="evenodd" class="prefix__shp2" d="M163.66 158.14c-9.09 4.33-18.56 7.34-28.26 9.69-9.73 2.27-19.55 3.64-29.34 5.05-9.82 1.37-19.73 2.31-29.67 2.52-4.96.12-9.95-.07-14.89-.83-4.82-.83-10.14-2.36-13.28-6.88l.05.06c-1.54-1.83-2.88-4.43-2.26-7.2.66-2.72 2.73-4.56 4.73-5.92 4.14-2.72 8.78-4.12 13.37-5.29 9.26-2.21 18.72-3.05 28.19-3.03 9.51.38 18.74 1.21 28.09 1.96 9.3.82 18.6 1.3 27.9.93l.13-.01.07.02c3.05.67 6.09 1.43 9.01 2.59 1.46.58 2.91 1.23 4.23 2.15.65.46 1.27 1.02 1.73 1.71.46.71.63 1.63.2 2.48zm-.2-.21c.51-1.43-.85-2.72-2.09-3.42-1.29-.76-2.74-1.28-4.2-1.73-2.89-.85-5.86-1.44-8.85-1.93-9.35.98-18.78.72-28.12.24-9.33-.52-18.75-1.41-27.95-1.67-9.23-.2-18.56.5-27.59 2.39-4.49.96-8.98 2.27-12.86 4.52-1.9 1.13-3.65 2.66-4.22 4.63-.56 1.97.34 4.17 1.71 5.95l.03.04.01.03c2.5 4.12 7.61 5.81 12.32 6.66 4.83.91 9.8.82 14.71.65 9.85-.52 19.59-2.31 29.34-3.86 9.76-1.74 19.63-2.67 29.24-4.76a208.88 208.88 0 0028.52-7.74zm-15.14-7.08c.03-.01.06-.01.09-.01l-.21-.02.12.03z"/><path fill-rule="evenodd" class="prefix__shp2" d="M100.4 152.66c5.6-.05 11.21-.38 16.87-.27 2.83.02 5.67.25 8.51.72 1.42.25 2.83.56 4.28 1.05.73.25 1.45.53 2.23 1.01.39.26.8.53 1.22 1.09.42.49.72 1.6.39 2.44l-.36.91-.89.13c-7.75 1.09-15.54 2.79-23.39 4.11-3.93.64-7.89 1.19-11.84 1.69-3.96.54-7.92.99-11.93 1.18-2 .1-4.03.08-6.08-.16-2.02-.28-4.17-.84-5.94-2.37-1.83-1.5-2.7-4.05-2.62-6.28.03-.37.15-.84.28-1.24.14-.39.41-.64.64-.95.47-.56 1.01-.87 1.52-1.18 1.02-.56 2.05-.87 3.07-1.13 8.14-1.77 16.1-.57 24.04-.75zm0 .29c-7.9 0-16 1.05-23.38 2.93-.9.26-1.76.6-2.51.97-.71.4-1.15.86-1.13 1.12-.11 1.8.34 3.46 1.5 4.69 1.16 1.24 2.95 2 4.8 2.44 1.86.46 3.83.64 5.79.64 7.91-.1 15.66-2.19 23.35-4.11 3.86-.94 7.72-1.88 11.62-2.73 2.91-.66 5.84-1.3 8.81-1.81l-.18-.06c-1.19-.46-2.52-.77-3.84-1.08-2.66-.61-5.39-1.07-8.14-1.55-5.49-.89-11.09-1.51-16.69-1.45zm28.85 4.14c.53.21 1.04.45 1.41.7.15.1.29.22.33.28-.02-.09-.06-.29 0-.4l1.25-1.04c-1 .14-2 .29-2.99.46zm1.76 1.01c0-.01 0-.02-.02-.03.01.03.02.05.02.03z"/></g></g><path class="prefix__shp0" d="M66.06 19.07c0 6.68-5.32 12.09-11.88 12.09-6.56 0-11.88-5.41-11.88-12.09S47.62 6.98 54.18 6.98c6.56 0 11.88 5.41 11.88 12.09zM66.06 150.53c0 6.67-5.32 12.08-11.88 12.08-6.56 0-11.88-5.41-11.88-12.08 0-6.68 5.32-12.1 11.88-12.1 6.56 0 11.88 5.42 11.88 12.1z"/><path class="prefix__shp3" d="M54.18 17.46v133.76"/><path class="prefix__shp0" d="M414.77 14.01c0 6.68-5.32 12.09-11.88 12.09-6.56 0-11.88-5.41-11.88-12.09s5.32-12.09 11.88-12.09c6.56 0 11.88 5.41 11.88 12.09zM414.77 145.47c0 6.68-5.32 12.09-11.88 12.09-6.56 0-11.88-5.41-11.88-12.09s5.32-12.09 11.88-12.09c6.56 0 11.88 5.41 11.88 12.09z"/><path class="prefix__shp3" d="M402.89 12.41v133.75"/></svg>