<?xml version="1.0" encoding="UTF-8"?>
<!DOCTYPE svg PUBLIC "-//W3C//DTD SVG 1.1//EN" "http://www.w3.org/Graphics/SVG/1.1/DTD/svg11.dtd">
<svg version="1.1" xmlns="http://www.w3.org/2000/svg" xmlns:xlink="http://www.w3.org/1999/xlink" x="0" y="0" width="1600" height="1200" viewBox="0, 0, 1600, 1200" class = "campsiteSvg">
  <defs>
    <clipPath id="Clip_1">
      <path d="M251.959,415.305 L424.77,415.305 L424.77,824.855 L251.959,824.855 z"/>
    </clipPath>
    <clipPath id="Clip_2">
      <path d="M26.216,274.226 L271.424,274.226 L271.424,855.352 L26.216,855.352 z"/>
    </clipPath>
    <clipPath id="Clip_3">
      <path d="M254.175,877.644 L280.795,877.644 L280.795,949.544 L254.175,949.544 z"/>
    </clipPath>
    <clipPath id="Clip_4">
      <path d="M808.943,984.624 L837.411,984.624 L837.411,1056.55 L808.943,1056.55 z"/>
    </clipPath>
    <clipPath id="Clip_5">
      <path d="M1327.12,911.26 L1355.01,911.26 L1355.01,983.178 L1327.12,983.178 z"/>
    </clipPath>
    <clipPath id="Clip_6">
      <path d="M1219.66,997.936 L1239.59,997.936 L1239.59,1020.455 L1219.66,1020.455 z"/>
    </clipPath>
    <clipPath id="Clip_7">
      <path d="M1323.7,325.475 L1535.78,325.475 L1535.78,828.101 L1323.7,828.101 z"/>
    </clipPath>
  </defs>
  <g id="レイヤー_1">
    <g>
      <path d="M1579.684,918.17 C1579.684,792.045 1230.607,689.801 800,689.801 C369.392,689.801 20.315,792.045 20.315,918.17 C20.315,1044.295 210.613,1146.539 800,1146.539 C1230.607,1146.539 1579.684,1044.295 1579.684,918.17" fill="#6BB72D"/>
      <path d="M1131.511,200.797 C1131.511,155.608 1094.878,118.976 1049.69,118.976 C1004.501,118.976 967.869,155.608 967.869,200.797 C967.869,245.986 1004.501,282.618 1049.69,282.618 C1094.878,282.618 1131.511,245.986 1131.511,200.797" fill="#E45826"/>
      <path d="M1046.728,52.89 L1046.728,97.318" fill-opacity="0" stroke="#E45826" stroke-width="5.924" stroke-linecap="round" stroke-linejoin="round"/>
      <path d="M1046.728,310.571 L1046.728,354.999" fill-opacity="0" stroke="#E45826" stroke-width="5.924" stroke-linecap="round" stroke-linejoin="round"/>
      <path d="M1200.744,200.982 L1156.316,200.982" fill-opacity="0" stroke="#E45826" stroke-width="5.924" stroke-linecap="round" stroke-linejoin="round"/>
      <path d="M943.063,200.982 L898.635,200.982" fill-opacity="0" stroke="#E45826" stroke-width="5.924" stroke-linecap="round" stroke-linejoin="round"/>
      <path d="M1155.389,94.446 L1124.235,125.599" fill-opacity="0" stroke="#E45826" stroke-width="6.294" stroke-linecap="round" stroke-linejoin="round"/>
      <path d="M972.919,276.916 L941.766,308.069" fill-opacity="0" stroke="#E45826" stroke-width="6.294" stroke-linecap="round" stroke-linejoin="round"/>
      <path d="M1158.726,306.957 L1127.573,275.804" fill-opacity="0" stroke="#E45826" stroke-width="6.294" stroke-linecap="round" stroke-linejoin="round"/>
      <path d="M976.257,124.487 L945.104,93.334" fill-opacity="0" stroke="#E45826" stroke-width="6.294" stroke-linecap="round" stroke-linejoin="round"/>
      <path d="M500.183,582.425 C509.793,571.867 515.679,557.855 515.751,542.457 C515.897,511.371 492.304,485.716 461.989,482.665 C461.989,482.573 461.996,482.478 461.997,482.382 C462.172,445.08 432.077,414.695 394.776,414.52 C357.47,414.345 327.088,444.446 326.913,481.748 C326.907,483.134 326.954,484.503 327.031,485.863 C292.362,488.577 264.991,517.464 264.825,552.861 C264.764,565.87 268.394,578.03 274.719,588.367 C260.288,599.976 251.013,617.746 250.919,637.709 C250.754,672.878 279.133,701.524 314.304,701.689 C329.029,701.758 342.598,696.809 353.425,688.469 C362.758,696.848 375.073,701.974 388.6,702.038 C405.14,702.115 419.944,694.619 429.732,682.804 C440.588,692.534 454.906,698.488 470.634,698.562 C504.739,698.722 532.515,671.205 532.675,637.102 C532.786,613.48 519.615,592.902 500.183,582.425" fill="#078B43"/>
      <path d="M449.692,635.742 L440.052,633.771 C434.189,661.269 416.801,675.079 403.663,681.76 L393.852,611.361 L382.262,613.234 L376.65,658.887 C363.36,652.68 343.912,638.75 337.895,609.166 L328.237,611.053 C328.237,611.053 326.208,669.913 372.845,689.042 L356.186,823.753 L423.73,824.07 L407.958,711.743 C451.086,691.508 449.692,635.742 449.692,635.742" fill="#A17A51"/>
      <g clip-path="url(#Clip_1)" opacity="0.46">
        <path d="M281.706,638.495 C281.8,618.532 291.075,600.762 305.506,589.154 C299.181,578.817 295.551,566.656 295.612,553.647 C295.777,518.25 323.149,489.363 357.817,486.649 C357.741,485.289 357.693,483.92 357.7,482.535 C357.851,450.453 380.352,423.717 410.378,416.968 C405.688,415.914 400.82,415.33 395.815,415.306 C358.509,415.131 328.128,445.233 327.953,482.535 C327.946,483.92 327.994,485.289 328.07,486.649 C293.402,489.363 266.03,518.25 265.865,553.647 C265.803,566.656 269.434,578.817 275.759,589.154 C261.328,600.762 252.053,618.532 251.959,638.495 C251.794,673.664 280.172,702.31 315.344,702.475 C320.574,702.5 325.655,701.88 330.523,700.711 C302.41,693.986 281.565,668.647 281.706,638.495" fill="#CBCBCB"/>
        <path d="M372.634,699.95 L357.227,824.539 L424.77,824.855 L424.751,824.716 L386.974,824.539 C386.974,824.539 371.151,699.44 372.634,699.95" fill="#886138"/>
      </g>
      <path d="M668.95,144.513 C668.951,144.511 668.951,144.508 668.952,144.506 C667.774,119.763 632.084,101.434 589.02,103.412 C570.598,104.259 553.899,108.748 540.838,115.491 C532.528,109.73 522.204,106.541 511.119,107.051 C490.459,108 473.528,121.557 468.079,139.535 C463.457,138.484 458.489,138.021 453.323,138.258 C430.336,139.314 412.331,153.834 413.105,170.685 C413.879,187.536 433.144,200.341 456.131,199.285 C460.391,199.089 464.48,198.43 468.31,197.38 C470.135,220.617 509.652,237.595 557.257,235.408 C587.445,234.021 613.69,225.257 628.779,213.087 C640.31,218.995 655.579,222.242 672.181,221.479 C706.894,219.884 734.144,201.324 733.17,180.116 C732.2,159.009 705.182,143.586 668.95,144.513" fill="#AADDE5"/>
      <path d="M424.128,242.366 C424.128,242.365 424.129,242.364 424.129,242.363 C424.364,227.396 406.017,216.005 387.867,218.475 C380.102,219.532 373.541,222.982 368.45,227.669 C364.533,224.208 360.047,222.507 355.375,223.143 C346.667,224.328 340.45,233.516 339.35,245.189 C337.317,244.644 335.204,244.5 333.027,244.796 C323.338,246.114 316.688,255.928 318.155,266.705 C319.622,277.483 328.672,285.155 338.361,283.836 C340.157,283.592 341.852,283.057 343.407,282.277 C345.751,297.118 363.677,306.896 383.742,304.165 C396.466,302.434 407.018,296.085 412.603,287.865 C417.897,291.33 424.6,292.984 431.598,292.032 C446.228,290.041 456.095,277.17 454.249,263.606 C452.412,250.107 437.926,240.439 424.128,242.366" fill="#BBE4EA"/>
      <path d="M729.307,167.815 C727.139,187.42 701.097,203.93 668.446,205.43 C651.844,206.193 636.575,202.947 625.044,197.039 C609.955,209.208 583.71,217.973 553.522,219.359 C505.917,221.547 466.4,204.568 464.576,181.332 C460.745,182.381 456.657,183.041 452.396,183.237 C435.229,184.025 420.143,177.082 413.279,166.497 C413.087,167.873 413.009,169.269 413.074,170.685 C413.848,187.536 433.112,200.341 456.1,199.285 C460.36,199.089 464.449,198.43 468.279,197.38 C470.103,220.617 509.62,237.595 557.225,235.408 C587.413,234.021 613.659,225.257 628.748,213.087 C640.278,218.995 655.548,222.242 672.15,221.479 C706.862,219.884 734.113,201.324 733.138,180.116 C732.937,175.737 731.6,171.609 729.307,167.815" fill="#AADDE5"/>
      <path d="M450.488,254.051 C449.005,265.003 440.121,274.316 427.863,275.984 C420.865,276.936 414.163,275.282 408.868,271.817 C403.283,280.037 392.731,286.386 380.007,288.117 C359.943,290.848 342.016,281.07 339.673,266.229 C338.117,267.009 336.422,267.544 334.626,267.788 C328.196,268.663 322.061,265.564 318.223,260.239 C317.881,262.312 317.821,264.485 318.124,266.706 C319.59,277.483 328.641,285.155 338.33,283.837 C340.125,283.592 341.82,283.057 343.376,282.278 C345.719,297.118 363.646,306.896 383.711,304.166 C396.434,302.434 406.987,296.086 412.571,287.866 C417.866,291.33 424.569,292.984 431.567,292.032 C446.197,290.041 456.063,277.17 454.218,263.606 C453.743,260.12 452.42,256.892 450.488,254.051" fill="#AADDE5"/>
      <path d="M1428.191,216.555 C1428.191,216.553 1428.192,216.551 1428.192,216.549 C1427.292,197.641 1400.019,183.635 1367.111,185.147 C1353.033,185.794 1340.272,189.224 1330.291,194.377 C1323.941,189.974 1316.052,187.538 1307.581,187.927 C1291.793,188.653 1278.855,199.013 1274.691,212.751 C1271.159,211.948 1267.362,211.594 1263.415,211.775 C1245.848,212.582 1232.09,223.678 1232.681,236.555 C1233.273,249.432 1247.994,259.217 1265.561,258.41 C1268.816,258.261 1271.941,257.757 1274.868,256.955 C1276.262,274.712 1306.46,287.686 1342.838,286.014 C1365.907,284.955 1385.963,278.257 1397.493,268.958 C1406.305,273.472 1417.973,275.953 1430.66,275.37 C1457.186,274.152 1478.011,259.968 1477.266,243.762 C1476.525,227.633 1455.878,215.847 1428.191,216.555" fill="#AADDE5"/>
      <path d="M1477.38,243.762 C1477.15,238.747 1474.992,234.153 1471.304,230.223 C1466.493,243.088 1448.16,253.294 1425.839,254.319 C1413.151,254.902 1401.406,252.421 1392.595,247.906 C1381.065,257.206 1361.009,263.903 1337.94,264.963 C1301.562,266.635 1271.364,253.66 1269.97,235.903 C1267.043,236.705 1263.92,237.21 1260.664,237.359 C1249.891,237.854 1240.205,234.354 1234.176,228.611 C1233.087,231.124 1232.519,233.793 1232.646,236.555 C1233.237,249.432 1247.956,259.218 1265.521,258.41 C1268.778,258.261 1271.901,257.757 1274.828,256.955 C1276.222,274.712 1306.42,287.686 1342.797,286.015 C1365.867,284.955 1385.922,278.257 1397.453,268.958 C1406.265,273.473 1418.01,275.953 1430.697,275.37 C1457.223,274.152 1478.125,259.968 1477.38,243.762" fill="#AADDE5"/>
      <path d="M378.757,511.605 C392.393,496.623 400.744,476.742 400.847,454.893 C401.053,410.784 367.578,374.381 324.562,370.052 C324.563,369.921 324.573,369.786 324.573,369.65 C324.821,316.72 282.119,273.606 229.19,273.358 C176.256,273.11 133.146,315.822 132.898,368.751 C132.889,370.717 132.956,372.66 133.064,374.589 C83.873,378.44 45.034,419.429 44.799,469.655 C44.712,488.114 49.864,505.369 58.838,520.036 C38.361,536.508 25.2,561.724 25.067,590.049 C24.833,639.952 65.1,680.599 115.006,680.833 C135.9,680.931 155.153,673.909 170.516,662.074 C183.759,673.964 201.235,681.238 220.428,681.328 C243.897,681.438 264.903,670.801 278.792,654.037 C294.195,667.842 314.512,676.292 336.828,676.396 C385.221,676.623 424.634,637.578 424.861,589.188 C425.018,555.67 406.33,526.472 378.757,511.605" fill="#006536"/>
      <path d="M307.113,587.259 L293.435,584.463 C285.115,623.48 260.442,643.075 241.8,652.556 L227.88,552.663 L211.434,555.322 L203.47,620.1 C184.614,611.294 157.017,591.528 148.48,549.55 L134.776,552.226 C134.776,552.226 131.898,635.746 198.072,662.888 L174.434,854.034 L270.275,854.484 L247.895,695.099 C309.091,666.388 307.113,587.259 307.113,587.259" fill="#A17A51"/>
      <g clip-path="url(#Clip_2)" opacity="0.29">
        <path d="M59.09,590.917 C59.223,562.592 72.384,537.376 92.861,520.905 C83.886,506.237 78.735,488.982 78.822,470.524 C79.057,420.298 117.895,379.308 167.087,375.457 C166.979,373.528 166.911,371.585 166.921,369.619 C167.142,322.449 201.416,283.422 246.337,275.657 C241.135,274.757 235.796,274.252 230.34,274.226 C177.406,273.978 134.296,316.69 134.048,369.619 C134.039,371.585 134.107,373.528 134.214,375.457 C85.022,379.308 46.184,420.298 45.949,470.524 C45.862,488.982 51.013,506.237 59.988,520.905 C39.511,537.376 26.35,562.592 26.217,590.917 C25.983,640.82 66.25,681.467 116.156,681.701 C121.925,681.729 127.562,681.194 133.032,680.185 C90.8,672.428 58.882,635.356 59.09,590.917" fill="#CBCBCB"/>
        <path d="M204.539,662.942 C199.117,667.119 193.203,670.681 186.911,673.558 C190.28,675.333 193.799,676.862 197.446,678.117 L175.584,854.902 L271.424,855.351 L271.403,855.197 L208.457,854.902 C208.457,854.902 211.953,669.599 204.539,662.942" fill="#886138"/>
      </g>
      <path d="M289.123,883.102 L284.346,942.45 L283.708,942.485 C283.559,946.499 284.962,948.96 275.486,949.477 C266.01,949.994 265.141,947.503 264.556,943.529 L264.376,943.539 L254.175,885.007 z" fill="#A17A51"/>
      <path d="M254.363,885.463 C254.158,881.71 261.864,878.239 271.574,877.71 C281.284,877.181 289.322,879.794 289.526,883.546 C289.731,887.299 282.025,890.77 272.315,891.299 C262.605,891.828 254.568,889.216 254.363,885.463" fill="#C1996B"/>
      <g clip-path="url(#Clip_3)" opacity="0.5">
        <path d="M254.399,884.995 C254.827,881.425 262.271,878.218 271.575,877.709 C273.498,877.606 275.351,877.628 277.095,877.755 C270.491,878.961 265.723,881.562 265.383,884.396 L265.159,884.408 L275.36,942.94 L275.54,942.93 C275.977,945.898 276.576,948.036 280.795,948.716 C279.589,949.089 277.888,949.346 275.487,949.477 C266.011,949.994 265.142,947.503 264.557,943.529 L264.376,943.539 L254.175,885.007 z" fill="#C1996B"/>
      </g>
      <path d="M566.75,515.149 L289.531,916.323 C289.531,916.323 275.84,928.676 260.42,920.838" fill-opacity="0" stroke="#C1996B" stroke-width="4" stroke-linecap="round" stroke-linejoin="round"/>
      <path d="M568.58,505.617 L744.002,1011.849 L307.12,944.748 C307.12,944.748 419.98,803.432 451.289,741.683 C482.599,679.935 568.58,505.617 568.58,505.617" fill="#F4E45C"/>
      <path d="M1049,457 L568.775,505.823 C568.775,505.823 612.244,644.776 654.486,788.062 C681.33,879.121 744.003,1011.849 744.003,1011.849 L1290.934,934.274 C1290.934,934.274 1200.646,801 1151,699.948 C1097.452,590.954 1049,457 1049,457" fill="#F1DD33"/>
      <path d="M568.775,505.823 C568.452,508.97 530.487,884.031 472.973,969.688 L534.83,979.545 C534.83,979.545 538.751,654.851 568.775,505.823" fill="#F1C933"/>
      <path d="M802.533,989.657 L805.576,1049.119 L806.213,1049.172 C806.245,1053.189 804.771,1055.609 814.227,1056.402 C823.684,1057.194 824.626,1054.73 825.326,1050.775 L825.506,1050.79 L837.411,992.581 z" fill="#A17A51"/>
      <path d="M837.209,993.032 C837.523,989.287 829.922,985.593 820.231,984.78 C810.541,983.968 802.43,986.345 802.117,990.09 C801.803,993.835 809.404,997.53 819.094,998.342 C828.785,999.154 836.895,996.777 837.209,993.032" fill="#C1996B"/>
      <g clip-path="url(#Clip_4)" opacity="0.5">
        <path d="M837.187,992.562 C836.863,988.982 829.516,985.558 820.231,984.779 C818.312,984.619 816.459,984.587 814.712,984.663 C821.278,986.063 825.968,988.801 826.225,991.643 L826.449,991.662 L814.544,1049.871 L814.364,1049.856 C813.841,1052.809 813.18,1054.93 808.943,1055.485 C810.138,1055.895 811.83,1056.201 814.227,1056.402 C823.684,1057.194 824.625,1054.73 825.326,1050.775 L825.506,1050.79 L837.41,992.581 z" fill="#C1996B"/>
      </g>
      <path d="M830.165,1028.01 C817.33,1035.02 808.943,1028.01 808.943,1028.01 L569.774,507.823" fill-opacity="0" stroke="#C1996B" stroke-width="4" stroke-linecap="round" stroke-linejoin="round"/>
      <path d="M1320.111,916.422 L1323.693,975.854 L1324.33,975.902 C1324.399,979.918 1322.946,982.351 1332.409,983.058 C1341.873,983.765 1342.792,981.292 1343.457,977.331 L1343.637,977.344 L1355.014,919.03 z" fill="#A17A51"/>
      <path d="M1354.816,919.482 C1355.096,915.734 1347.462,912.109 1337.764,911.384 C1328.067,910.66 1319.978,913.111 1319.698,916.858 C1319.418,920.606 1327.053,924.231 1336.75,924.956 C1346.448,925.68 1354.536,923.23 1354.816,919.482" fill="#C1996B"/>
      <g clip-path="url(#Clip_5)" opacity="0.5">
        <path d="M1354.79,919.013 C1354.434,915.437 1347.056,912.079 1337.764,911.384 C1335.843,911.241 1333.991,911.226 1332.245,911.317 C1338.822,912.658 1343.538,915.354 1343.821,918.193 L1344.044,918.21 L1332.667,976.525 L1332.487,976.511 C1331.991,979.469 1331.349,981.596 1327.117,982.189 C1328.315,982.588 1330.01,982.879 1332.409,983.058 C1341.873,983.765 1342.792,981.292 1343.457,977.331 L1343.637,977.344 L1355.013,919.03 z" fill="#C1996B"/>
      </g>
      <path d="M1348.551,953.637 C1336.287,961.605 1327.391,955.256 1327.391,955.256 L1048.233,458.832" fill-opacity="0" stroke="#C1996B" stroke-width="3" stroke-linecap="round" stroke-linejoin="round"/>
      <path d="M1088.866,943.407 C1088.56,937.076 1086.728,930.968 1077.625,928.524 C1066.936,925.653 1056.232,939.782 1056.232,939.782 C1056.232,939.782 1051.52,944.293 1046.652,945.656 C1041.783,947.02 1023.843,950.144 1023.843,950.144 C1023.843,950.144 1009.818,946.997 1006.483,946.997 C1003.148,946.997 1001.845,947.952 1005.104,950.643 C1005.104,950.643 1002.294,950.999 1003.221,953.667 C1003.907,955.642 1015.189,953.867 1021.004,952.812 C1021.491,952.887 1021.905,952.99 1022.227,953.123 C1025.278,954.386 1032.743,971.44 1052.299,972.218 C1054.126,973.977 1056.68,976.261 1057.548,976.177 C1058.962,976.042 1060.238,973.622 1061.084,971.531 C1082.752,967.206 1089.165,949.597 1088.866,943.407" fill="#8DD1DD"/>
      <path d="M1219.657,1009.786 C1219.657,1009.786 1249.287,993.193 1252.843,984.896 C1256.4,976.6 1275.363,960.006 1275.363,960.006 C1275.363,960.006 1270.623,969.487 1267.066,974.23 C1263.512,978.97 1256.4,983.713 1262.326,983.713 C1264.422,983.713 1268.744,982.674 1273.665,981.332 C1282.652,978.88 1293.636,975.416 1296.699,975.416 C1301.439,975.416 1315.662,978.97 1315.662,978.97 C1315.662,978.97 1299.066,975.416 1289.586,981.342 C1280.103,987.266 1254.03,990.823 1252.843,996.749 C1251.66,1002.676 1246.917,1002.676 1246.917,1002.676 L1224.4,1020.455" fill="#A17A51"/>
      <g clip-path="url(#Clip_6)" opacity="0.45">
        <path d="M1219.657,1009.786 L1224.4,1020.455 L1239.586,1008.464 C1239.199,1004.77 1238.88,1001.226 1238.631,997.936 C1229.581,1004.228 1219.657,1009.786 1219.657,1009.786" fill="#A17A51"/>
      </g>
      <path d="M1277.002,985.072 C1279.333,983.805 1291.632,977.662 1303.148,982.224 C1315.935,987.289 1324.108,999.553 1324.108,999.553 C1324.108,999.553 1323.957,999.564 1323.68,999.581 C1319.093,997.271 1313.263,994.381 1309.305,992.581 C1303.375,989.883 1287.38,985.936 1277.002,985.072" fill="#078B43"/>
      <path d="M1294.829,996.487 C1286.345,991.896 1276.606,985.293 1276.606,985.293 C1276.606,985.293 1276.744,985.212 1277.001,985.072 C1289.721,984.735 1300.868,987.093 1309.755,991.081 C1313.721,992.86 1319.092,997.271 1323.679,999.581 C1320.682,999.767 1302.597,1000.69 1294.829,996.487" fill="#3DAB4A"/>
      <path d="M1250.407,1066.733 C1237.766,1055.671 1232.864,1008.674 1232.073,986.885 L1231.813,986.885 C1231.879,986.885 1231.916,986.235 1231.916,985.969 C1231.916,976.458 1190.521,968.687 1139.463,968.687 C1088.401,968.687 1047.009,976.367 1047.009,985.88 C1046.218,1007.052 1041.475,1054.771 1028.834,1065.833 C1016.19,1076.898 1033.574,1073.731 1044.639,1072.151 C1055.701,1070.571 1058.862,1070.568 1054.119,1083.208 C1049.379,1095.853 1073.085,1080.047 1085.726,1080.047 C1098.373,1080.047 1094.304,1082.969 1099.044,1094.031 C1103.787,1105.094 1112.593,1083.204 1117.336,1083.204 C1122.079,1083.204 1124.808,1099.01 1132.71,1099.01 C1140.611,1099.01 1142.543,1092.443 1146.744,1087.157 C1150.945,1081.874 1153.199,1086.959 1158.428,1089.526 C1162.683,1091.616 1171.351,1102.962 1176.094,1091.896 C1180.834,1080.834 1181.424,1077.074 1193.496,1080.834 C1205.837,1084.678 1229.854,1096.64 1225.114,1083.995 C1220.374,1071.353 1223.537,1071.413 1234.602,1072.993 C1245.664,1074.574 1263.051,1077.799 1250.407,1066.733" fill="#A17A51"/>
      <path d="M1229.621,984.892 C1229.621,976.679 1189.344,970.02 1139.657,970.02 C1089.97,970.02 1049.689,976.679 1049.689,984.892 C1049.689,993.111 1089.97,1001.101 1139.657,1001.101 C1189.344,1001.101 1229.621,993.111 1229.621,984.892" fill="#CDAD89"/>
      <path d="M1222.436,984.964 C1222.436,977.527 1185.359,971.498 1139.622,971.498 C1093.884,971.498 1056.805,977.527 1056.805,984.964 C1056.805,992.406 1093.884,998.433 1139.622,998.433 C1185.359,998.433 1222.436,992.406 1222.436,984.964" fill="#DAC2A6"/>
      <path d="M1204.192,984.826 C1204.192,979.027 1175.281,974.324 1139.622,974.324 C1103.959,974.324 1075.049,979.027 1075.049,984.826 C1075.049,990.628 1103.959,995.328 1139.622,995.328 C1175.281,995.328 1204.192,990.628 1204.192,984.826" fill="#C1996B"/>
      <path d="M1190.629,984.969 C1190.642,981.93 1167.814,979.374 1139.644,979.255 C1111.472,979.137 1088.624,981.501 1088.611,984.54 C1088.598,987.579 1111.426,990.138 1139.598,990.256 C1167.768,990.375 1190.616,988.008 1190.629,984.969" fill="#A17A51"/>
      <path d="M1096.706,1067.379 C1097.174,1058.963 1095.303,1049.143 1093.433,1058.382 C1091.571,1067.581 1072.854,1082.896 1072.691,1083.029 C1077.323,1081.419 1082.004,1080.048 1085.726,1080.048 C1095.104,1080.048 1095.291,1081.656 1096.694,1086.997 C1096.693,1086.985 1096.239,1075.791 1096.706,1067.379" fill="#886138"/>
      <path d="M1234.602,1073.011 C1237.518,1073.428 1240.873,1073.96 1244.002,1074.315 L1244.002,1074.315 C1224.84,1068.16 1214.536,1040.259 1215.318,1048.023 C1216.1,1055.786 1223.59,1079.411 1223.59,1079.412 C1221.412,1071.404 1225.083,1071.653 1234.602,1073.011" fill="#886138"/>
      <path d="M1060.834,1056.012 C1059.562,1061.945 1044.639,1072.155 1044.639,1072.155 C1054.203,1070.787 1057.86,1070.601 1055.61,1078.745 C1060.803,1070.006 1062.106,1050.079 1060.834,1056.012" fill="#886138"/>
      <path d="M1118.736,1066.836 C1118.4,1068.951 1116.034,1079.376 1114.897,1084.348 C1115.701,1083.637 1116.447,1083.205 1117.113,1083.205 C1119.781,1083.205 1121.812,1088.206 1124.484,1092.582 L1124.484,1092.581 C1121.339,1082.884 1119.181,1064.036 1118.736,1066.836" fill="#886138"/>
      <path d="M1149.419,1070.825 C1149.419,1075.835 1144.725,1089.643 1144.725,1089.643 C1145.29,1088.804 1145.879,1087.966 1146.521,1087.158 C1150.722,1081.874 1152.976,1086.959 1158.205,1089.527 C1153.652,1081.667 1149.419,1065.815 1149.419,1070.825" fill="#886138"/>
      <path d="M1182.77,1066.836 C1179.213,1065.633 1179.157,1084.448 1179.157,1084.449 C1181.799,1079.34 1184.513,1078.106 1193.273,1080.835 C1197.275,1082.082 1202.504,1084.181 1207.582,1086.019 C1207.062,1085.695 1205.911,1085.259 1203.969,1084.685 z" fill="#886138"/>
      <path d="M1056.805,998.433 C1056.805,998.433 1056.782,1030.24 1052.963,1037.355 C1049.144,1044.47 1044.639,1051.14 1044.639,1051.14 C1044.639,1051.14 1058.927,1041.457 1058.927,1033.848 C1058.927,1026.238 1056.805,998.433 1056.805,998.433" fill="#886138"/>
      <path d="M1084.735,1009.196 C1084.735,1009.196 1084.703,1009.892 1084.636,1011.113 C1084.212,1018.97 1082.401,1048.582 1078.938,1054.927 L1074.936,1062.258 C1074.936,1062.258 1085.173,1050.881 1084.735,1033.848" fill="#886138"/>
      <path d="M1112.289,1024.787 C1112.289,1024.787 1110.066,1041.754 1110.51,1046.67 C1110.955,1051.585 1111.37,1054.927 1111.37,1054.927 C1111.37,1054.927 1114.512,1034.897 1112.289,1024.787" fill="#886138"/>
      <path d="M1105.618,1009.196 C1105.618,1009.196 1106.063,1031.229 1105.618,1033.848 C1105.173,1036.466 1105.618,1041.802 1105.618,1041.802 C1105.618,1041.802 1109.18,1025.023 1105.618,1009.196" fill="#886138"/>
      <path d="M1223.65,1002.88 C1223.65,1002.88 1223.673,1034.687 1227.492,1041.802 C1231.311,1048.917 1235.816,1055.587 1235.816,1055.587 C1235.816,1055.587 1221.528,1045.904 1221.528,1038.295 C1221.528,1030.685 1223.65,1002.88 1223.65,1002.88" fill="#886138"/>
      <path d="M1195.72,1013.642 C1195.72,1013.642 1195.752,1014.338 1195.819,1015.559 C1196.243,1023.416 1198.054,1053.028 1201.517,1059.373 L1205.519,1066.704 C1205.519,1066.704 1195.282,1055.328 1195.72,1038.294" fill="#886138"/>
      <path d="M1168.166,1029.234 C1168.166,1029.234 1170.389,1046.201 1169.945,1051.117 C1169.5,1056.031 1169.085,1059.374 1169.085,1059.374 C1169.085,1059.374 1165.943,1039.344 1168.166,1029.234" fill="#886138"/>
      <path d="M1174.836,1013.642 C1174.836,1013.642 1174.391,1035.676 1174.836,1038.294 C1175.281,1040.912 1174.836,1046.248 1174.836,1046.248 C1174.836,1046.248 1171.274,1029.469 1174.836,1013.642" fill="#886138"/>
      <path d="M1134.523,1020.455 C1134.523,1020.455 1132.744,1048.027 1132.744,1055.587 L1132.744,1072.929 C1132.744,1072.929 1136.323,1042.524 1134.523,1020.455" fill="#886138"/>
      <path d="M1064.718,979.68 L1064.367,979.366 L1062.743,972.294 L1064.192,972.035 L1065.086,978.968 C1065.155,978.981 1065.223,978.995 1065.292,979.01 C1065.352,979.023 1065.41,979.04 1065.469,979.054 L1065.539,978.994 L1065.598,979.086 C1065.662,979.103 1065.728,979.116 1065.791,979.134 C1066.121,979.223 1066.442,979.336 1066.759,979.457 C1066.916,979.522 1067.074,979.582 1067.227,979.656 C1067.382,979.724 1067.535,979.797 1067.684,979.877 C1067.836,979.951 1067.982,980.036 1068.128,980.121 C1068.276,980.202 1068.415,980.298 1068.557,980.388 C1068.7,980.476 1068.833,980.582 1068.969,980.679 C1069.107,980.775 1069.233,980.888 1069.363,980.993 C1069.621,981.207 1069.86,981.428 1070.11,981.645 L1071.594,982.953 L1069.993,981.792 C1069.725,981.601 1069.46,981.398 1069.191,981.217 C1069.056,981.128 1068.926,981.032 1068.784,980.953 C1068.644,980.872 1068.508,980.784 1068.363,980.714 C1068.219,980.64 1068.078,980.562 1067.93,980.499 C1067.783,980.432 1067.637,980.365 1067.487,980.309 C1067.338,980.247 1067.187,980.192 1067.035,980.142 C1066.884,980.087 1066.729,980.045 1066.576,979.999 C1066.422,979.956 1066.267,979.916 1066.111,979.88 L1068.405,983.429 L1064.744,979.682 C1064.736,979.681 1064.726,979.68 1064.718,979.68" fill="#EEE93A"/>
      <path d="M1066.936,967.764 C1066.936,967.764 1065.483,975.128 1062.968,975.37 C1061.565,975.505 1055.113,969.526 1055.113,969.526" fill="#AADDE5"/>
      <path d="M1086.806,938.058 C1086.806,938.058 1088.477,938.156 1090.192,938.551 C1092.372,939.052 1094.275,940.506 1094.275,940.506 L1086.885,941.975 z" fill="#EEE93A"/>
      <path d="M1058.321,982.423 L1058.254,982.133 L1056.668,975.268 L1058.117,975.008 L1058.988,981.749 C1059.057,981.767 1059.125,981.786 1059.194,981.806 L1059.219,981.784 L1059.243,981.82 C1059.398,981.865 1059.552,981.914 1059.704,981.966 C1060.03,982.074 1060.348,982.204 1060.662,982.339 C1060.817,982.412 1060.974,982.478 1061.126,982.557 C1061.279,982.633 1061.431,982.71 1061.579,982.794 C1061.73,982.875 1061.876,982.961 1062.021,983.051 C1062.168,983.137 1062.309,983.233 1062.45,983.328 C1062.592,983.42 1062.727,983.524 1062.863,983.625 C1063.001,983.724 1063.13,983.834 1063.26,983.943 C1063.522,984.159 1063.764,984.383 1064.017,984.603 L1065.518,985.927 L1063.898,984.751 C1063.627,984.559 1063.359,984.353 1063.087,984.17 C1062.951,984.078 1062.816,983.984 1062.674,983.902 C1062.534,983.817 1062.395,983.731 1062.249,983.656 C1062.105,983.578 1061.961,983.5 1061.813,983.432 C1061.666,983.359 1061.518,983.291 1061.367,983.228 C1061.218,983.162 1061.066,983.103 1060.913,983.045 C1060.762,982.984 1060.606,982.936 1060.453,982.882 C1060.249,982.817 1060.043,982.757 1059.837,982.702 L1062.33,986.402 L1058.48,982.439 z" fill="#EEE93A"/>
      <path d="M1076.268,948.62 C1079.346,944.19 1085.599,943.566 1088.721,943.549 C1088.722,943.569 1088.723,943.589 1088.724,943.608 C1089.023,949.798 1082.833,967.407 1061.164,971.733 C1060.647,973.013 1059.968,974.415 1059.194,975.342 C1058.703,975.929 1058.177,976.326 1057.628,976.379 C1057.281,976.412 1056.667,976.068 1055.938,975.531 C1054.838,974.722 1053.478,973.476 1052.38,972.419 C1039.348,971.901 1031.909,964.156 1027.344,958.671 C1053.64,969.429 1072.291,954.344 1076.268,948.62" fill="#C6E8EE"/>
      <path d="M1078.35,937.667 C1078.221,936.799 1078.819,935.991 1079.687,935.861 C1080.555,935.732 1081.364,936.331 1081.493,937.199 C1081.622,938.066 1081.023,938.875 1080.156,939.004 C1079.288,939.134 1078.479,938.535 1078.35,937.667" fill="#231815"/>
      <path d="M1069.868,954.658 L1067.906,955.854 L1065.905,956.985 L1063.862,958.041 C1063.165,958.36 1062.475,958.695 1061.77,958.999 C1061.058,959.283 1060.36,959.605 1059.632,959.852 C1058.913,960.122 1058.187,960.372 1057.45,960.59 C1056.721,960.835 1055.97,961.004 1055.229,961.209 C1054.478,961.371 1053.73,961.556 1052.971,961.675 C1049.943,962.228 1046.864,962.402 1043.805,962.539 C1042.277,962.601 1040.727,962.72 1039.165,962.46 C1038.41,962.297 1037.548,962.145 1036.962,961.381 C1036.68,960.992 1036.65,960.449 1036.791,960.039 C1036.927,959.615 1037.142,959.269 1037.429,958.94 L1037.685,959.429 C1036.835,959.553 1035.977,959.647 1035.099,959.626 C1034.662,959.622 1034.217,959.568 1033.774,959.465 C1033.335,959.35 1032.881,959.155 1032.52,958.797 C1032.345,958.615 1032.2,958.395 1032.118,958.155 C1032.028,957.916 1031.998,957.666 1031.999,957.427 C1032,956.945 1032.131,956.502 1032.292,956.088 C1032.629,955.258 1033.097,954.531 1033.645,953.841 L1033.909,954.284 C1032.97,954.465 1032.024,954.613 1031.068,954.706 C1030.114,954.796 1029.149,954.862 1028.174,954.742 C1027.697,954.669 1027.174,954.581 1026.772,954.193 C1026.574,953.997 1026.48,953.698 1026.509,953.435 C1026.536,953.17 1026.635,952.935 1026.754,952.721 C1027.256,951.875 1027.982,951.235 1028.724,950.643 C1028.026,951.28 1027.345,951.98 1026.929,952.81 C1026.726,953.216 1026.656,953.718 1026.978,953.983 C1027.29,954.247 1027.763,954.344 1028.215,954.385 C1029.136,954.463 1030.081,954.365 1031.013,954.24 C1031.946,954.108 1032.875,953.928 1033.803,953.746 L1034.521,953.606 L1034.067,954.19 C1033.571,954.83 1033.123,955.55 1032.834,956.297 C1032.541,957.032 1032.454,957.888 1032.957,958.366 C1033.203,958.604 1033.553,958.763 1033.931,958.856 C1034.312,958.943 1034.711,959.004 1035.121,959.011 C1035.938,959.041 1036.771,958.962 1037.598,958.851 L1038.389,958.746 L1037.854,959.34 C1037.41,959.834 1037.068,960.585 1037.425,961.065 C1037.775,961.57 1038.557,961.792 1039.262,961.931 C1040.727,962.192 1042.263,962.172 1043.788,962.109 C1046.846,962.005 1049.905,961.864 1052.914,961.348 C1053.67,961.238 1054.411,961.058 1055.16,960.914 C1055.899,960.725 1056.648,960.571 1057.376,960.342 C1058.113,960.139 1058.839,959.903 1059.559,959.648 C1060.288,959.417 1060.988,959.109 1061.703,958.839 C1062.41,958.55 1063.105,958.229 1063.806,957.923 L1065.865,956.909 L1067.884,955.817 z" fill="#2DA0D2"/>
      <path d="M978.092,577.834 L817.209,594.19 C808.634,595.062 803.377,604.016 806.795,611.929 L862.124,740.028 C864.411,745.321 869.965,748.421 875.671,747.588 L1028.251,725.306 C1036.341,724.124 1041.243,715.741 1038.306,708.111 L991.28,585.938 C989.214,580.572 983.812,577.252 978.092,577.834" fill="#F4E45C"/>
      <path d="M873.823,737.723 C872.729,737.723 871.741,737.072 871.305,736.063 L815.975,607.965 C815.494,606.851 815.864,605.931 816.128,605.482 C816.391,605.034 817.013,604.262 818.219,604.139 L979.103,587.783 C979.198,587.773 979.294,587.768 979.387,587.768 C980.512,587.768 981.542,588.477 981.948,589.532 L1028.974,711.702 C1029.387,712.777 1029.03,713.652 1028.781,714.078 C1028.532,714.505 1027.943,715.244 1026.805,715.411 L874.225,737.693 C874.092,737.713 873.956,737.723 873.823,737.723" fill="#B2B2B2"/>
      <path d="M993.033,565.592 C993.033,565.592 945.583,571.945 884.086,577.768 C822.589,583.591 802.533,587.768 802.533,587.768 C802.533,587.768 795.204,610.313 812.6,625.369 C829.996,640.424 837.218,625.369 837.218,625.369 C837.218,625.369 887.323,598.409 922.452,600 C957.582,601.59 996.692,600 996.692,600 C996.692,600 1010.485,573.092 993.033,565.592" fill="#F4E45C"/>
      <path d="M810.54,589.218 C807.901,589.662 806.742,589.903 806.742,589.903 C806.742,589.903 800.641,608.669 815.121,621.201 C825.053,629.796 830.999,626.602 833.756,623.746 C831.836,614.822 826.285,604.991 822.571,599.107 C819.496,594.233 814.895,591.156 810.54,589.218" fill="#F1C833"/>
      <path d="M995.629,567.012 C1008.334,577.768 994.334,595 994.334,595 C994.334,595 951.583,591.59 916.453,590 C881.323,588.41 831.219,615.369 831.219,615.369 C831.219,615.369 831.085,615.639 830.828,616.057 C832.604,620.125 834.111,624.354 834.988,628.426 C836.505,626.855 837.219,625.369 837.219,625.369 C837.219,625.369 887.323,598.41 922.453,600 C957.583,601.59 996.693,600 996.693,600 C996.693,600 1008.99,575.988 995.629,567.012" fill="#F1C833"/>
      <path d="M893.25,576.886 C893.25,576.886 901.867,589.209 901.434,601.771 L916.224,600 C916.224,600 915.239,590.67 907.12,575.501 z" fill="#E45826"/>
      <path d="M1230.864,530.789 C1219.07,517.831 1211.847,500.635 1211.758,481.737 C1211.579,443.587 1240.533,412.102 1277.738,408.357 C1277.738,408.244 1277.729,408.127 1277.728,408.01 C1277.514,362.23 1314.448,324.94 1360.227,324.725 C1406.011,324.51 1443.297,361.453 1443.512,407.232 C1443.52,408.932 1443.461,410.613 1443.368,412.282 C1485.915,415.612 1519.507,451.065 1519.71,494.506 C1519.785,510.471 1515.33,525.395 1507.568,538.081 C1525.279,552.328 1536.661,574.137 1536.776,598.636 C1536.979,641.799 1502.151,676.955 1458.986,677.157 C1440.915,677.242 1424.263,671.169 1410.975,660.932 C1399.521,671.216 1384.406,677.507 1367.806,677.585 C1347.507,677.681 1329.338,668.48 1317.326,653.98 C1304.003,665.921 1286.43,673.229 1267.129,673.319 C1225.273,673.516 1191.185,639.745 1190.988,597.892 C1190.852,568.901 1207.016,543.647 1230.864,530.789" fill="#006536"/>
      <path d="M1292.83,596.223 L1304.661,593.804 C1311.857,627.551 1333.196,644.499 1349.32,652.7 L1361.36,566.3 L1375.584,568.6 L1382.472,624.628 C1398.782,617.011 1422.65,599.915 1430.035,563.608 L1441.887,565.923 C1441.887,565.923 1444.377,638.16 1387.141,661.636 L1407.586,826.962 L1324.692,827.351 L1344.049,689.496 C1291.119,664.663 1292.83,596.223 1292.83,596.223" fill="#A17A51"/>
      <g clip-path="url(#Clip_7)" opacity="0.29">
        <path d="M1507.35,599.387 C1507.235,574.888 1495.852,553.079 1478.141,538.832 C1485.903,526.146 1490.359,511.222 1490.284,495.257 C1490.08,451.815 1456.489,416.363 1413.942,413.032 C1414.035,411.363 1414.093,409.683 1414.085,407.983 C1413.894,367.184 1384.25,333.429 1345.397,326.713 C1349.896,325.935 1354.514,325.498 1359.233,325.476 C1405.017,325.261 1442.303,362.203 1442.518,407.983 C1442.526,409.683 1442.467,411.363 1442.374,413.032 C1484.921,416.363 1518.513,451.815 1518.716,495.257 C1518.791,511.222 1514.336,526.146 1506.574,538.832 C1524.284,553.079 1535.667,574.888 1535.783,599.387 C1535.985,642.549 1501.157,677.706 1457.992,677.908 C1453.003,677.931 1448.128,677.469 1443.396,676.596 C1479.923,669.887 1507.53,637.823 1507.35,599.387" fill="#CBCBCB"/>
        <path d="M1381.549,661.683 C1386.238,665.296 1391.354,668.377 1396.796,670.865 C1393.882,672.4 1390.838,673.723 1387.683,674.808 L1406.592,827.712 L1323.699,828.101 L1323.717,827.968 L1378.16,827.712 C1378.16,827.712 1375.137,667.44 1381.549,661.683" fill="#886138"/>
      </g>
    </g>
  </g>
</svg>
