<svg xmlns="http://www.w3.org/2000/svg" xmlns:xlink="http://www.w3.org/1999/xlink" viewBox="0 0 794.9 333.36"><defs><linearGradient id="prefix__e"><stop offset="0" stop-color="#fb8b00"/><stop offset="1" stop-color="#fb8b00" stop-opacity="0"/></linearGradient><linearGradient id="prefix__d"><stop offset="0" stop-color="#eee"/><stop offset="1" stop-color="#666"/></linearGradient><linearGradient id="prefix__a"><stop offset="0" stop-opacity="0"/><stop offset="1"/></linearGradient><linearGradient id="prefix__b"><stop offset="0" stop-color="#fdd99b"/><stop offset="1" stop-color="#816647"/></linearGradient><linearGradient id="prefix__c"><stop stop-opacity=".406" offset="0"/><stop stop-color="gray" offset=".52"/><stop stop-color="#fff" offset=".785"/><stop stop-opacity=".563" offset="1"/></linearGradient><linearGradient id="prefix__E" y2="593.97" xlink:href="#prefix__c" gradientUnits="userSpaceOnUse" x2="937.64" gradientTransform="matrix(-.49808 0 0 .49808 511.64 306.65)" y1="640.04" x1="937.64"/><linearGradient id="prefix__A" y2="686.88" xlink:href="#prefix__c" gradientUnits="userSpaceOnUse" x2="890.36" gradientTransform="matrix(-.49808 0 0 .49808 511.64 306.65)" y1="686.88" x1="574.02"/><linearGradient id="prefix__z" y2="769.31" gradientUnits="userSpaceOnUse" x2="759.88" gradientTransform="matrix(-.49808 0 0 .49808 511.64 306.65)" y1="714.36" x1="770.84"><stop stop-color="#4d4d4d" stop-opacity=".937" offset="0"/><stop stop-color="#4d4d4d" stop-opacity="0" offset="1"/></linearGradient><linearGradient id="prefix__y" y2="718.23" xlink:href="#prefix__c" gradientUnits="userSpaceOnUse" x2="777.88" gradientTransform="matrix(-.49808 0 0 .49808 511.64 306.65)" y1="629.14" x1="784.8"/><linearGradient id="prefix__u" y2="364.09" gradientUnits="userSpaceOnUse" x2="1033.3" gradientTransform="matrix(-.49808 0 0 .49808 511.64 306.65)" y1="356.34" x1="975.26"><stop stop-color="#ccc" offset="0"/><stop stop-opacity=".208" offset="1"/></linearGradient><linearGradient id="prefix__B" y2="468.1" gradientUnits="userSpaceOnUse" x2="166.33" y1="472.51" x1="25.356"><stop offset="0" stop-color="#fff"/><stop offset="1" stop-color="#fff" stop-opacity="0"/></linearGradient><linearGradient id="prefix__D" y2="454.89" gradientUnits="userSpaceOnUse" x2="171.47" y1="377.8" x1="168.53"><stop offset="0" stop-color="#fff"/><stop offset="1" stop-color="#fff" stop-opacity="0"/></linearGradient><linearGradient id="prefix__C" y2="548.87" gradientUnits="userSpaceOnUse" x2="231.67" y1="529.04" x1="364.57"><stop offset="0" stop-color="#fff"/><stop offset="1" stop-color="#fff" stop-opacity="0"/></linearGradient><linearGradient id="prefix__s" y2="593.97" xlink:href="#prefix__c" gradientUnits="userSpaceOnUse" x2="937.64" gradientTransform="translate(-38.062 296.09) scale(.49808)" y1="640.04" x1="937.64"/><linearGradient id="prefix__r" y2="547.65" gradientUnits="userSpaceOnUse" x2="540.22" gradientTransform="translate(-.734 -.734)" y1="377.88" x1="726.08"><stop offset="0" stop-color="#fff"/><stop offset="1" stop-color="#fff" stop-opacity="0"/></linearGradient><linearGradient id="prefix__q" y2="686.88" xlink:href="#prefix__c" gradientUnits="userSpaceOnUse" x2="890.36" gradientTransform="translate(219.43 305.74) scale(.49808)" y1="686.88" x1="574.02"/><linearGradient id="prefix__p" y2="769.31" gradientUnits="userSpaceOnUse" x2="759.88" gradientTransform="translate(219.43 305.74) scale(.49808)" y1="714.36" x1="770.84"><stop stop-color="#4d4d4d" stop-opacity=".937" offset="0"/><stop stop-color="#4d4d4d" stop-opacity="0" offset="1"/></linearGradient><linearGradient id="prefix__o" y2="718.23" xlink:href="#prefix__c" gradientUnits="userSpaceOnUse" x2="777.88" gradientTransform="translate(219.43 305.74) scale(.49808)" y1="629.14" x1="784.8"/><linearGradient id="prefix__f" y2="364.09" gradientUnits="userSpaceOnUse" x2="1033.3" gradientTransform="translate(219.43 305.74) scale(.49808)" y1="356.34" x1="975.26"><stop stop-color="#ccc" offset="0"/><stop stop-opacity=".208" offset="1"/></linearGradient><linearGradient id="prefix__k" y2="424.72" xlink:href="#prefix__e" gradientUnits="userSpaceOnUse" x2="537.36" y1="387.92" x1="564.05"/><linearGradient id="prefix__ag" y2="424.72" xlink:href="#prefix__e" gradientUnits="userSpaceOnUse" x2="537.36" gradientTransform="translate(.24 16.181)" y1="387.92" x1="564.05"/><linearGradient id="prefix__ah" y2="424.72" xlink:href="#prefix__e" gradientUnits="userSpaceOnUse" x2="537.36" gradientTransform="translate(.74 32.847)" y1="387.92" x1="564.05"/><linearGradient id="prefix__j" y2="400.25" gradientUnits="userSpaceOnUse" x2="453.62" y1="377.89" x1="476.13"><stop offset="0" stop-color="#60c"/><stop offset="1" stop-color="#60c" stop-opacity="0"/></linearGradient><linearGradient id="prefix__l" y2="600.57" gradientUnits="userSpaceOnUse" x2="503.99" y1="543.25" x1="565.27"><stop offset="0" stop-color="#390"/><stop offset="1" stop-color="#eee" stop-opacity="0"/></linearGradient><linearGradient id="prefix__m" y2="585.56" gradientUnits="userSpaceOnUse" x2="540.33" y1="551.33" x1="566.97"><stop offset="0" stop-color="#eee"/><stop offset="1" stop-color="#eee" stop-opacity="0"/></linearGradient><linearGradient id="prefix__n" y2="610.57" gradientUnits="userSpaceOnUse" x2="535.81" y1="571.33" x1="567.04"><stop offset="0" stop-color="#ff0"/><stop offset="1" stop-color="#eee" stop-opacity="0"/></linearGradient><linearGradient id="prefix__x" y2="241.89" gradientUnits="userSpaceOnUse" x2="204.59" gradientTransform="rotate(-.822 24110.12 2643.932)" y1="251.27" x1="204.92"><stop offset="0"/><stop offset="1" stop-color="#999" stop-opacity="0"/></linearGradient><linearGradient id="prefix__ai" y2="582.04" gradientUnits="userSpaceOnUse" x2="156.57" gradientTransform="matrix(1.0312 0 0 1 -13.278 2.232)" y1="600.55" x1="156.14"><stop offset="0"/><stop offset="1" stop-opacity="0"/></linearGradient><radialGradient id="prefix__T" gradientUnits="userSpaceOnUse" cy="291.85" cx="192.18" gradientTransform="matrix(-1.9246 -.19703 -.05667 .55355 660.28 2.095)" r="156.08"><stop offset="0" stop-color="#357ab9"/><stop offset="1"/></radialGradient><radialGradient id="prefix__U" xlink:href="#prefix__a" gradientUnits="userSpaceOnUse" cy="138.51" cx="470.83" gradientTransform="matrix(-1.8978 -.11411 -.36142 6.0087 1266.4 -637.14)" r="78.497"/><radialGradient id="prefix__O" xlink:href="#prefix__b" gradientUnits="userSpaceOnUse" cy="233.94" cx="-41.605" gradientTransform="matrix(.58335 .26979 -.29055 .62823 474.09 313.71)" r="123.57"/><radialGradient id="prefix__L" xlink:href="#prefix__b" gradientUnits="userSpaceOnUse" cy="459.5" cx="-111.98" gradientTransform="matrix(.52554 .03767 -.0254 .35447 410.39 395.8)" r="55.161"/><radialGradient id="prefix__I" gradientUnits="userSpaceOnUse" cy="664.9" cx="227.22" gradientTransform="matrix(1.4634 -.1045 .12625 1.7681 -46.291 -684.3)" r="67.672"><stop offset="0" stop-color="#e9c6af"/><stop offset=".479" stop-color="#deaa87"/><stop offset="1"/></radialGradient><radialGradient id="prefix__H" gradientUnits="userSpaceOnUse" cy="729.56" cx="257.73" gradientTransform="matrix(2.471 -1.8859 .79422 1.0406 -793.3 305.57)" r="67.672"><stop offset="0"/><stop offset="1" stop-opacity="0"/></radialGradient><radialGradient id="prefix__F" gradientUnits="userSpaceOnUse" cy="585.4" cx="396.42" gradientTransform="matrix(.61665 -.35764 -.34916 -.60202 274.05 1092)" r="3.839"><stop stop-color="#98fc66" offset="0"/><stop stop-color="#390" offset=".347"/><stop offset="1"/></radialGradient><radialGradient id="prefix__w" gradientUnits="userSpaceOnUse" cy="345.9" cx="714.63" gradientTransform="matrix(-.59272 -.13453 -.13638 .60089 626.46 367.22)" r="319.13"><stop stop-color="#00b5fb" offset="0"/><stop stop-color="#005ab8" offset=".5"/><stop stop-color="#000075" offset="1"/></radialGradient><radialGradient id="prefix__S" xlink:href="#prefix__d" gradientUnits="userSpaceOnUse" cy="146.04" cx="344.19" gradientTransform="matrix(1.6152 .03967 -.18791 7.651 -196.5 -989.38)" r="9.174"/><radialGradient id="prefix__P" xlink:href="#prefix__d" gradientUnits="userSpaceOnUse" cy="146.04" cx="344.19" gradientTransform="matrix(-1.6152 .03967 .18791 7.651 958.67 -645.52)" r="9.174"/><radialGradient id="prefix__V" gradientUnits="userSpaceOnUse" cy="291.85" cx="192.18" gradientTransform="matrix(1.9246 -.19703 .05667 .55355 96.563 203.51)" r="156.08"><stop offset="0" stop-color="#881bb2"/><stop offset="1"/></radialGradient><radialGradient id="prefix__W" xlink:href="#prefix__a" gradientUnits="userSpaceOnUse" cy="138.51" cx="470.83" gradientTransform="matrix(1.8978 -.11411 .36142 6.0087 -509.6 -435.73)" r="78.497"/><radialGradient id="prefix__t" gradientUnits="userSpaceOnUse" cy="585.51" cx="394.83" gradientTransform="matrix(.5799 .23524 -.18723 .46155 576.64 244.53)" r="3.839"><stop stop-color="#0197fd" offset="0"/><stop stop-color="#0169c9" offset=".5"/><stop stop-color="#036" offset="1"/></radialGradient><radialGradient id="prefix__i" gradientUnits="userSpaceOnUse" cy="467.57" cx="408.92" gradientTransform="matrix(1.6849 -9.0211 .60409 .11283 -532.35 4147.4)" r="26.938"><stop offset="0" stop-color="purple"/><stop offset="1"/></radialGradient><radialGradient id="prefix__h" gradientUnits="userSpaceOnUse" cy="514.17" cx="591.22" gradientTransform="matrix(.98983 .11306 -.20535 1.7983 86.385 -493.02)" r="158.95"><stop offset="0" stop-color="#f0f"/><stop offset=".744" stop-color="#60c"/><stop offset="1"/></radialGradient><radialGradient id="prefix__X" gradientUnits="userSpaceOnUse" cy="593.25" cx="196.54" gradientTransform="matrix(3.3011 -.69772 -1.0888 2.707 -136.05 -873.12)" r="4.816"><stop offset="0" stop-color="#090"/><stop offset="1"/></radialGradient><radialGradient id="prefix__Y" gradientUnits="userSpaceOnUse" cy="592.65" cx="209.13" gradientTransform="matrix(1.4893 -1.0738 .68827 1.8958 -839.93 -304.08)" r="4.816"><stop offset="0" stop-color="#900"/><stop offset="1"/></radialGradient><radialGradient id="prefix__Z" gradientUnits="userSpaceOnUse" cy="593.52" cx="221.79" gradientTransform="matrix(1.1932 -1.1241 .88732 1.586 -899.18 -96.014)" r="4.816"><stop offset="0" stop-color="#f30"/><stop offset="1"/></radialGradient><radialGradient id="prefix__aa" gradientUnits="userSpaceOnUse" cy="593.1" cx="231.46" gradientTransform="matrix(1.6495 -1.1881 .63154 1.8785 -854.59 -243.63)" r="4.816"><stop offset="0" stop-color="#09f"/><stop offset="1"/></radialGradient><radialGradient id="prefix__ab" gradientUnits="userSpaceOnUse" cy="592.92" cx="243.97" gradientTransform="matrix(1.66 -1.384 .71178 1.8819 -912.73 -182.89)" r="4.816"><stop offset="0" stop-color="#66c"/><stop offset="1"/></radialGradient><radialGradient id="prefix__ac" gradientUnits="userSpaceOnUse" cy="593.26" cx="256.95" gradientTransform="matrix(1.1929 -1.4102 1.0785 1.8237 -1019.1 -123.91)" r="4.816"><stop offset="0" stop-color="#ff0"/><stop offset="1"/></radialGradient><radialGradient id="prefix__ad" gradientUnits="userSpaceOnUse" cy="592.46" cx="269.01" gradientTransform="matrix(1.2901 -1.6014 1.0993 1.9963 -1059 -157.12)" r="4.816"><stop offset="0" stop-color="#039"/><stop offset="1"/></radialGradient><radialGradient id="prefix__ae" gradientUnits="userSpaceOnUse" cy="592.99" cx="279.96" gradientTransform="matrix(1.0207 -1.8233 1.2013 1.4649 -1047.9 237.28)" r="4.816"><stop offset="0" stop-color="#c90"/><stop offset="1"/></radialGradient><radialGradient id="prefix__af" gradientUnits="userSpaceOnUse" cy="593.43" cx="291.92" gradientTransform="matrix(.87804 -2.0596 1.3614 1.4922 -1102 311.77)" r="4.816"><stop offset="0" stop-color="#f60"/><stop offset="1"/></radialGradient><filter id="prefix__R" height="2.952" width="1.037" color-interpolation-filters="sRGB" y="-.976" x="-.018"><feGaussianBlur stdDeviation=".448"/></filter><filter id="prefix__Q" height="1.367" width="1.04" color-interpolation-filters="sRGB" y="-.184" x="-.02"><feGaussianBlur stdDeviation=".515"/></filter><filter id="prefix__M" color-interpolation-filters="sRGB"><feGaussianBlur stdDeviation="2.998"/></filter><filter id="prefix__K" color-interpolation-filters="sRGB"><feGaussianBlur stdDeviation="1.367"/></filter><filter id="prefix__G" color-interpolation-filters="sRGB"><feGaussianBlur stdDeviation="2.799"/></filter><filter id="prefix__v" color-interpolation-filters="sRGB"><feGaussianBlur stdDeviation="2.821"/></filter><filter id="prefix__g" color-interpolation-filters="sRGB"><feGaussianBlur stdDeviation="2.821"/></filter><filter id="prefix__J" color-interpolation-filters="sRGB"><feGaussianBlur stdDeviation="6.403"/></filter><filter id="prefix__N" height="1.168" width="1.23" color-interpolation-filters="sRGB" y="-.084" x="-.115"><feGaussianBlur stdDeviation="8.641"/></filter></defs><g transform="translate(31.913 -342.21)"><path d="M451.67 368.73l294.96-26.199-41.425 272.66-300.13-10.848c-.626-.697-1.017-1.674-.29-3.95l42.752-227.02c.416-3.337 2.136-4.253 4.134-4.652z" opacity=".752" fill="#ccc"/><path d="M405.07 604.34l300 10.873c.09 5.872 8 7.337 15.475 9.04l-298.11-13.493c-8.32-.667-16.609-3.372-17.365-6.42z" opacity=".373" fill="#4d4d4d"/><path d="M746.7 342.48c1.584-.359 3.143-.438 4.612.244l9.454 5.549c1.564 1.384 2.162 2.993 2.221 4.721l-40.678 268.3c-.333 1.51-.896 2.576-2.032 2.944-4.637-1.424-15.27-2.171-15.087-9.03l41.51-272.73z" fill="url(#prefix__f)"/><path transform="translate(-114.97 399.7) scale(.49808)" d="M1142.6-36.395c-.05-4.2 2.42-5.87 6.93-5.52l549.24-45.87c4.01-.13 4.72 2 4.2 4.96l-73.32 479.58c.3 3.62-.97 5.68-4.39 5.58l-555.06-18.59c-5.213-.29-5.626-1.18-5.227-4.86l77.627-415.28z" opacity=".441" filter="url(#prefix__g)"/><path d="M455.14 381.57c.3-2.23.927-2.669 3.452-2.75l273.57-22.846c1.997-.065 2.35.996 2.092 2.47l-36.52 238.87c-.238 1.729-.637 2.79-2.186 2.78l-276.46-9.26c-2.596-.144-2.802-.588-2.603-2.42z" opacity=".783" fill="url(#prefix__h)"/><path d="M458.46 379.68h10.952c1.57 0 2.607 1.243 2.326 2.787l-37.166 204.18c-.282 1.544-1.771 2.787-3.34 2.787h-10.953c-1.57 0-2.606-1.243-2.325-2.787l37.166-204.18c.28-1.544 1.77-2.787 3.34-2.787z" fill="url(#prefix__i)"/><path d="M458.96 386.21h6.675c1 0 1.636.787 1.425 1.765l-2.19 10.184c-.211.978-1.186 1.765-2.186 1.765h-6.675c-1 0-1.636-.787-1.426-1.765l2.192-10.184c.21-.978 1.185-1.765 2.185-1.765z" fill="url(#prefix__j)"/><rect ry="1.806" transform="skewX(-12.143) scale(1 .97762)" height="14.028" width="10.286" y="410.82" x="540.31" fill="url(#prefix__k)"/><rect ry="1.806" transform="skewX(-12.143) scale(1 .97762)" height="14.028" width="10.286" y="550.48" x="545.56" fill="url(#prefix__l)"/><rect transform="skewX(-12.143) scale(1 .97762)" ry="1.806" height="14.028" width="10.286" y="567.54" x="545.07" fill="url(#prefix__m)"/><rect ry="1.806" transform="skewX(-12.143) scale(1 .97762)" height="14.028" width="10.286" y="585.36" x="545.48" fill="url(#prefix__n)"/><path d="M580.05 617.55l74.05 3.69 7.486 29.064c.23 8.348-.847 15.39-8.308 16.048l-78.029-5.903c3.676-1.917 6.256-4.806 7.97-9.946.517-2.132.627-4.264.841-6.39l-4.01-26.564z" fill="url(#prefix__o)"/><path d="M507.04 664.5l68.406-4.174 79.324 5.833-39.333 4.831c-9.31.443-18.872.822-31.997.314l-76.52-5.1c-.897-.374-3.173-.459.12-1.704z" fill="url(#prefix__p)"/><path d="M505.33 666.06l72.839 4.896c11.112.682 21.98.887 32.385.155l41.171-4.662c17.886-.932 5.529-28.107 2.346-45.395l1.32.179c2.525 12.352 7.626 23.09 7.501 35.827-.389 5.1-2.705 10.13-10.888 11.924-64.482 11.75-97.464 1.793-146.68.797v-3.721z" fill="url(#prefix__q)"/><path d="M576.93 372.91l151.5-10.729-37.341 234.33-90.98-3.003-23.176-220.6z" opacity=".461" fill="url(#prefix__r)"/><path d="M450.75 420.55l58.37 114.16-89.271 50.645 30.901-164.8z" fill-opacity=".105" fill="#eee"/><path d="M412.72 594l16.511.463-.349 6.42-16.7-.622.537-6.261z" opacity=".441" fill="#333"/><path d="M412.95 594.23l16.008.389-.463 6.071-15.968-.737.423-5.723z" opacity=".441" fill="url(#prefix__s)"/><path d="M698.2 608.08a1.913 1.913 0 11-3.826-.001 1.913 1.913 0 013.826.001z" fill="url(#prefix__t)"/><path d="M455.62 380.02c.16-.957 1.862-1.191 3.25-1.202l273.29-22.847c1.998-.065 2.352.996 2.093 2.47l-.635 1.878c-.239 1.729-.638 2.79-2.187 2.78l-273.94 21.163c-1.16.017-2.987.292-2.696-1.077z"/><path d="M457.8 378.92l275.52-22.747c-70.792 147.39-252.7 98.386-275.52 22.747z" fill-opacity=".123" fill="#eee"/><path d="M577.66 373.65l151.5-10.729-37.341 234.33-90.98-3.003-23.176-220.6z" opacity=".461" fill-opacity=".31" fill="#eee"/><path d="M279.4 369.64l-294.96-26.2L25.864 616.1l300.13-10.85c.626-.697 1.017-1.674.29-3.95l-42.75-227.01c-.416-3.337-2.136-4.253-4.134-4.652z" opacity=".752" fill="#ccc"/><path d="M326 605.25L26 616.12c-.09 5.872-8 7.337-15.475 9.04l298.12-13.49c8.32-.667 16.609-3.372 17.365-6.42z" opacity=".373" fill="#4d4d4d"/><path d="M-15.626 343.39c-1.584-.359-3.143-.438-4.612.244l-9.454 5.549c-1.564 1.384-2.162 2.993-2.221 4.721l40.678 268.31c.334 1.51.896 2.576 2.032 2.944 4.637-1.424 15.271-2.171 15.087-9.03l-41.51-272.73z" fill="url(#prefix__u)"/><path d="M108.48 237.64c-.05-4.2 2.42-5.87 6.93-5.52l549.24-45.87c4.01-.13 4.72 2 4.2 4.96l-73.32 479.58c.3 3.62-.97 5.68-4.39 5.58L36.08 657.78c-5.213-.29-5.626-1.18-5.227-4.86l77.627-415.28z" transform="matrix(-.49808 0 0 .49808 330.96 264.11)" opacity=".441" filter="url(#prefix__v)"/><path d="M275.93 382.48c.025-2.092-1.205-2.924-3.452-2.75l-273.57-22.85c-1.997-.064-2.35.997-2.092 2.471l36.522 238.87c.24 1.728.638 2.79 2.187 2.78l276.46-9.26c2.596-.144 2.802-.588 2.603-2.42l-38.665-206.84z" opacity=".783" fill="url(#prefix__w)"/><path d="M125.24 594.51l5.85-2.99 102.04-3.532 3.081 3.147z" fill="url(#prefix__x)"/><path d="M151.02 618.46l-74.05 3.69-7.486 29.064c-.23 8.348.847 15.39 8.308 16.048l78.029-5.902c-3.676-1.918-6.256-4.807-7.97-9.947-.518-2.132-.627-4.264-.841-6.39l4.01-26.564z" fill="url(#prefix__y)"/><path d="M224.03 665.41l-68.406-4.174L76.3 667.07l39.333 4.831c9.31.443 18.872.822 31.997.314l76.52-5.1c.897-.374 3.173-.459-.12-1.704z" fill="url(#prefix__z)"/><path d="M225.74 666.97l-72.839 4.896c-11.112.682-21.98.887-32.385.155l-41.171-4.662c-17.886-.932-5.529-28.107-2.346-45.395l-1.32.179c-2.525 12.352-7.625 23.09-7.501 35.827.389 5.1 2.705 10.13 10.888 11.924 64.482 11.75 97.465 1.793 146.67.797v-3.721z" fill="url(#prefix__A)"/><path d="M154.15 373.82L2.65 363.09l37.34 234.33 90.98-3.01 23.18-220.59z" opacity=".379" fill="url(#prefix__B)"/><path d="M280.32 421.46l-58.37 114.16 89.271 50.645-30.901-164.8z" opacity=".534" fill="url(#prefix__C)"/><path d="M274.31 379.83L-1.21 357.08c70.791 147.4 252.7 98.39 275.52 22.75z" opacity=".248" fill="url(#prefix__D)"/><path d="M60.864 604.56l-16.511.463.349 6.42 16.7-.622-.537-6.261z" opacity=".441" fill="#333"/><path d="M60.63 604.79l-16.008.389.463 6.071 15.968-.737-.423-5.723z" opacity=".441" fill="url(#prefix__E)"/><path d="M312.79 598.77a1.913 1.913 0 103.826-.001 1.913 1.913 0 00-3.826.001z" fill="url(#prefix__F)"/><path d="M347.38 579.94c-11.151-.767-16.228-3.432-17.786-9.335-.351-1.331-1.1-1.921-3.376-2.659-3.777-1.223-6.692-4.056-7.579-7.366-.553-2.065-1.055-2.698-2.341-2.956-4.593-.918-6.973-5.794-6.973-14.28v-4.793l-3.712-2.04c-2.042-1.123-3.97-2.041-4.284-2.041-.314 0-.955 1.298-1.423 2.885-.469 1.586-1.805 3.894-2.97 5.13-1.733 1.837-2.307 1.697-3.55 1.725-.752-.077-26.206-.568-56.485-.627-30.28-.06-56.132-.31-57.45-.558-11.02-2.067-21.941-17.326-26.122-36.5-2.359-10.816-2.694-27.619-.734-36.798 2.324-10.887 6.385-18.354 11.663-21.447l2.682-1.572 10.397.91c5.719.501 22.477 1.782 37.241 2.846 60.148 4.335 85.312 7.067 89.328 9.699.884.58 1.793 1.793 2.02 2.697.41 1.63.451 1.641 4.906 1.23 13.58-1.255 11.727-.631 18.216-6.132 7.151-6.063 9.482-7.255 15.965-8.168 2.778-.391 7.325-1.579 10.105-2.64 7.466-2.85 15.227-2.355 22.423 1.43 1.216.64 3.774 1.507 5.684 1.926 1.911.42 5.464 1.762 7.896 2.982 7.55 3.79 26.433 11.502 28.16 11.502 1.37 0 1.769-.42 2.4-2.529.417-1.39 1.416-2.96 2.221-3.488 3.989-2.613 29.46-5.354 90.89-9.782 14.662-1.056 30.922-2.296 36.133-2.754 8.796-.774 9.636-.753 11.728.287 5.03 2.501 9.33 9.346 12.068 19.214 1.247 4.494 1.403 6.555 1.409 18.633.006 12.43-.133 14.169-1.634 20.528-4.275 18.105-12.286 30.795-22.446 35.556l-3.652 1.711-47.373-.199c-28.35-.118-51.685.068-58.111.465-12.017.743-12.751.564-14.807-3.608-1.481-3.007-2.347-2.473-2.724 1.677-.468 5.16-2.38 9.206-4.995 10.572-2.385 1.245-8.624 1.428-11.417.334-1.597-.624-1.758-.544-2.097 1.042-.647 3.033-2.177 6.732-3.375 8.164-1.514 1.809-6.261 2.978-10.199 2.512-2.997-.355-3.133-.303-3.49 1.337-1.023 4.696-4.088 8.478-7.582 9.355-1.626.408-6.11.06-7.846-.61-.661-.256-1.33.44-2.21 2.298-.998 2.103-1.797 2.845-3.79 3.518-3.287 1.109-11.329 1.384-21.004.718z" opacity=".658" filter="url(#prefix__G)"/><path d="M287.999 494.097c-1.58 22.576 1.92 40.855 7.818 40.75 5.88-.103 11.96-18.516 13.54-41.091s-1.1-40.614-7.499-40.558c-7.038.062-12.28 18.323-13.86 40.9z" fill="#036"/><path d="M295.59 458.69c10.415.485 16.964-1.486 29.093-2.033 2.223-.86 9.327-8.032 13.411-10.748 4.152-2.762 9.885-2.392 14.778-3.339 4.526-1.703 8.326-3.998 12.594-4.014 4.893-.02 11.681 1.64 16.28 4.919l23.151 52.244c7.166 10.456 14.33 20.911 21.497 31.364 2.82 5.853.81 13.9-2.238 17.051-2.617 2.706-10.403 3.32-14.75.516-.48 4.279-2.338 9.064-5.008 11.379-3.258 1.348-8.698 2.02-12.176.496.31 3.743-2.288 8.382-5.019 10.09-2.818 1.769-6.399 2.545-11.631.343-.68 1.756-1.102 4.095-2.531 4.99-2.66 1.665-6.325 1.882-9.737 2.685-12.232-8.372-46.738-44.643-74.738-52.935-2.864-2.35-2.315-51.523 7.023-63.009z" fill-rule="evenodd" fill="#fca"/><path d="M324.68 456.65c2.223-.86 9.327-8.031 13.411-10.748 4.152-2.762 9.885-2.392 14.778-3.338 4.526-1.704 8.326-3.999 12.594-4.014 4.893-.02 11.681 1.639 16.28 4.918l23.151 52.244c7.166 10.456 14.33 20.911 21.497 31.364 2.82 5.854.81 13.9-2.238 17.051-2.617 2.706-10.403 3.32-14.75.516-.48 4.28-2.338 9.065-5.008 11.379-3.258 1.348-8.698 2.02-12.176.496.31 3.744-2.288 8.382-5.019 10.09-2.818 1.77-6.399 2.545-11.631.344-.68 1.756-1.102 4.094-2.531 4.99-2.66 1.664-6.325 1.881-9.737 2.685-13.774-8.972-46.205-45.198-74.357-53.341-2.331-17.516-1.111-43.97 6.64-62.584 9.546.411 21.487-1.673 29.095-2.052z" opacity=".564" fill-rule="evenodd" fill="url(#prefix__H)"/><path d="M295.59 458.66c10.517.434 16.965-1.465 29.094-2.012 2.223-.86 9.327-8.031 13.411-10.748 4.152-2.762 9.885-2.392 14.778-3.338 4.526-1.704 8.326-3.999 12.594-4.014 4.893-.02 11.681 1.639 16.28 4.919l23.151 52.244c7.166 10.456 14.33 20.91 21.497 31.364 2.82 5.853.81 13.9-2.238 17.05-2.617 2.706-10.403 3.32-14.75.516-.48 4.28-2.338 9.065-5.008 11.379-3.258 1.348-8.698 2.02-12.176.496.31 3.744-2.288 8.382-5.019 10.091-2.818 1.768-6.399 2.545-11.631.343-.68 1.756-1.102 4.094-2.531 4.99-2.66 1.664-6.325 1.881-9.737 2.685-27.762-21.951-48.779-43.875-74.834-52.97-3-7.77-1.968-49.137 7.12-62.995z" opacity=".712" fill-rule="evenodd" fill="url(#prefix__I)"/><path d="M-346.6 320.87c0 68.134-40.329 123.37-90.078 123.37s-90.078-55.233-90.078-123.37c0-68.134 40.329-123.37 90.078-123.37s90.078 55.233 90.078 123.37z" transform="translate(394.59 326.46) scale(.49808)" filter="url(#prefix__J)" fill="#000030"/><path d="M687.25 380.3c-1.112 9.936.732 23.377 5.457 29.296 1.982 2.338 10.431 6.258 12.951 6.151-.968 3.541.178 3.354 1.191 7.465.968 3.928 7.043 9.346 9.866 10.754 3.574 1.782 10.53 2.335 10.53 2.335s-.308 3.633 3.032 9.41c2.523 4.362 4.057 5.794 8.479 8.315 6.662 3.575 8.275 3.76 14.264 4.518 6.02.76 16.385.56 22.853 1.105 5.574.47 13.351 2.199 16.627-.039 3.806-2.599 3.718-8.333 2.562-13.376-.78-3.4-5.932-6.644-9.563-9.13 2.715-2.312 6.09-3.694 6.696-6.38 1.367-6.059 2.35-9.194-2.117-14.387-4.085-4.748-13.786-8.344-21.475-7.652 2.337-1.752 4.648-8.26 5.119-12.076.344-2.791-.568-5.695-1.81-8.274-3.844-7.984-14.178-8.727-23.211-7.943-15.257 1.322-17.532 3.951-26.74 5.495-6.492 1.088-15.648 5.293-19.368 3.953-4.375-2.65-9.55-5.903-15.344-9.54z" transform="translate(-31.913 343.12) scale(.49808)" opacity=".263" fill-rule="evenodd" filter="url(#prefix__K)" stroke="#816647" stroke-width="1.494"/><path d="M310.11 533c-1.069 4.972-.244 13.114 2.42 16.453.988 1.165 5.196 3.117 6.452 3.064-.483 1.763.088 1.67.593 3.718.482 1.956 3.508 4.655 4.914 5.356 1.78.888 5.245 1.163 5.245 1.163s-.154 1.81 1.51 4.687c1.256 2.173 2.02 2.886 4.223 4.142 3.318 1.78 4.121 1.873 7.105 2.25 2.998.379 8.16.279 11.383.55 2.776.234 6.65 1.095 8.281-.019 1.896-1.294 1.853-4.15 1.277-6.662-.389-1.694-2.955-3.309-4.764-4.548 1.353-1.15 3.033-1.84 3.335-3.178.681-3.017 1.171-4.579-1.054-7.165-2.035-2.365-6.866-4.156-10.696-3.811 1.164-.873 2.315-4.115 2.55-6.015.171-1.39-.283-2.837-.902-4.122-1.914-3.976-7.061-4.346-11.56-3.956-7.6.659-8.733 1.968-13.32 2.737-3.233.542-7.793 2.637-9.647 1.969-.315-.35-.387-1.121-.068-1.587-2.45-1.938-5.322-3.94-7.277-5.025z" fill-rule="evenodd" stroke="#816647" stroke-width=".744" fill="url(#prefix__L)"/><path d="M928.4 237.83c-6.263.352-18.484 3.385-24.334 1.448-6.387-2.12-18.078-8.183-32.547-13.56-14.744-5.476-21.585-12.292-35.221-15.482-15.794-3.7-22.236 5.607-31.728 12.047-16.702 7.29-40.711 12.968-46.558 19.463-6.343 7.044-17.366 24.198-18.93 31.467-5.678 7.171-13.431 13.372-15.682 22.132-3.29 12.805 12.928 17.549 20.764 15.998 5.734-1.137 9.834-4.651 14.752-6.98 13.143-2.288 24.301-15.172 35.475-26.234 9.642-1.185 15.478-3.464 23.195-7.943 2.888 4.376 8.409 4.51 13.847 3.17-2.305 8.38 35.809 34.353 44.674 41.588 13.861 21.596 30.324 39.664 45.313 61.117.835 1.709 1.634 3.486 1.362 8.901 2.941-.983 5.533-.507 7.95-2.27 3.182-2.326 5.32-6.206 7.978-9.311 10.466-.749 20.93-1.492 31.391-2.241-4.754-47.016-9.513-94.028-14.267-141.04-9.35 3.025-18.084 4.709-27.434 7.734z" transform="translate(-31.913 343.12) scale(.49808)" opacity=".263" filter="url(#prefix__M)"/><path d="M442.29 494.84c1.58 22.576-2.433 41.594-8.536 41.469-6.059-.124-11.242-19.234-12.822-41.81-1.58-22.576 1.099-40.615 7.498-40.559 7.039.062 12.28 18.324 13.86 40.9z" fill="#2c0058"/><path d="M-346.6 320.87c0 68.134-40.329 123.37-90.078 123.37s-90.078-55.233-90.078-123.37c0-68.134 40.329-123.37 90.078-123.37s90.078 55.233 90.078 123.37z" transform="matrix(-.49808 0 0 .49808 335.67 327.21)" filter="url(#prefix__N)"/><path d="M431.55 458.33c-3.12.175-10.748 1.466-13.662.501-3.181-1.056-9.004-4.076-16.211-6.754-7.344-2.728-10.751-6.123-17.543-7.711-7.867-1.843-11.075 2.792-15.803 6-8.32 3.631-20.277 6.46-23.19 9.694-3.16 3.509-8.65 12.052-9.429 15.673-2.828 3.572-6.69 6.66-7.81 11.024-1.64 6.378 6.438 8.741 10.341 7.968 2.856-.566 4.898-2.316 7.348-3.476 6.546-1.14 12.104-7.557 17.669-13.067 4.802-.59 7.709-1.725 11.553-3.956 1.438 2.18 4.188 2.247 6.897 1.579-1.148 4.174 17.836 17.11 22.25 20.714 3.73 10.157 22.684 27.396 23.693 35.104 15.125-2.363 12.45-67.06 3.895-73.293z" fill="url(#prefix__O)"/><path d="M433.08 454.81c-3.136.084-7.99-.138-8.43 4.331 10.651-11.177 19.72 66.194 5.293 71.566 2.405 4.826 11.727 3.607 12.166.018 2.11-17.627 2.556-59.239-9.03-75.916z" fill="url(#prefix__P)"/><path d="M704.76 420.3s19.316-1.017 33.891-2.57c12.746-1.359 6.041-2.073 28.05-4.158" transform="translate(-31.913 343.12) scale(.49808)" opacity=".44" filter="url(#prefix__Q)" stroke="#000" stroke-width="1.494" fill="none"/><path d="M726.45 441.16s19.455.407 32.634-.44c14.233-.913 8.16-.544 25.945.587" transform="translate(-31.913 343.12) scale(.49808)" opacity=".51" filter="url(#prefix__R)" stroke="#000" stroke-width="1.494" fill="none"/><path d="M390.17 522.46s6.114 7.13 10.42 11.843c4.792 5.245 2.227 4.66 8.562 10.877M372.27 534.32s6.114 7.13 10.42 11.843c4.792 5.245 2.227 4.66 8.562 10.877M358.11 546.03s4.892 4.813 8.443 10.119c4.208 6.286 3.439 3.354 7.935 11.142" opacity=".272" stroke="#000" stroke-width=".744" fill="none"/><path d="M329.348 487.464c.894.498 2.885 1.158 2.885 1.158s1.47.79 3.403-.325 5.096-4.573 5.653-5.443c.558-.87 1.57-2.278 1.211-2.855-.358-.576-5.398-2.01-6.18-2.004-.783.006-1.85-.237-2.037-.078-.187.16-2.953 2.996-4.208 5.036-1.111 1.807-.638 1.1-1.134 2.147-.492 1.039-.445.99-.354 1.847.51.475-.133.018.761.517z" opacity=".457" fill="#eee"/><path d="M351.56 543.9259999999999c-.096-.662-.754-2.442-.754-2.442s-.674-1.024-2.845-1.539c-2.171-.514-5.806-.085-6.808.166-1.002.252-1.973.84-2.107 1.505-.135.666.77 3.208 1.122 3.908.518 1.029 2.162 1.433 2.407 1.445.246.012 2.048.156 4.405-.266 1.971-.353 1.382-.203 2.455-.481 1.08-.28 1.23-.07 1.735-.573.505-.503.484-1.061.389-1.723zM361.057 559.8c.022-.668-.316-2.535-.316-2.535s-.486-1.127-2.534-2.011-5.702-1.094-6.733-1.021c-1.03.073-2.088.483-2.337 1.115-.248.631.2 3.293.425 4.042.331 1.104 1.88 1.788 2.12 1.843.24.055 1.989.51 4.383.505 2.003 0 1.397.04 2.501-.047 1.113-.087 1.224.146 1.809-.262.584-.407.661-.96.682-1.63zM362.798 572.724c.077-.499-.035-1.935-.035-1.935s-.3-.898-1.906-1.781-4.594-1.435-5.448-1.492c-.855-.057-1.761.137-2.022.585-.26.447-.128 2.49-.01 3.077.174.863 1.388 1.542 1.58 1.61.192.066 1.59.596 3.562.85 1.647.213 1.145.181 2.06.235.924.054.995.241 1.512 0 .517-.242.63-.65.706-1.148z" opacity=".724" fill-opacity=".579" fill="#fff"/><path d="M329.1 110.95c3.136.084 7.99-.138 8.43 4.331-10.651-11.177-16.772 74.73-5.011 68.52-.001 1.165-.708 2.5-1.571 3.055-5.155 3.323-9.064 1.927-10.3 2.032-2.11-17.627-3.134-61.26 8.452-77.938z" transform="translate(-31.913 343.12)" fill="url(#prefix__S)"/><g fill-rule="evenodd"><path d="M340.26 113.99c-.026-1.599-3.409-6.612-6.55-7.182-28.089-5.697-107.73-9.15-134.24-12.106-27.814 10.054-19.2 101.28 20.496 97.256 28.401-.666 88.34-1.393 107.23.625 1.915.319 7.378-5.8 7.708-9.047-.136-.055-.499-.247-.62-.282 0 0-3.216 7.914-6.926 7.41-9.349-2.92-8.785-34.633-7.75-43.19 1.006-7.56 4.534-38.56 14.528-38.27 2.743.079 4.518 4.92 4.518 4.92a12.44 12.44 0 001.596-.134z" fill="url(#prefix__T)" transform="translate(-31.913 344.18)"/><path d="M340.25 113.98c-.026-1.599-3.177-6.442-6.542-7.177-28.089-5.697-107.73-9.15-134.24-12.106-27.814 10.054-19.2 101.28 20.496 97.256 28.401-.666 88.34-1.393 107.23.625 1.915.319 7.38-5.797 7.71-9.044-.11-.055-.479-.235-.62-.289 0 0-3.136 7.857-6.928 7.404-10.633-4.031-7.701-39.18-6.929-46.3 1.696-13.537 4.896-35.098 13.707-35.15 2.833.114 4.523 4.942 4.523 4.942.336-.041 1.263-.119 1.584-.16z" fill="url(#prefix__U)" transform="translate(-31.913 344.18)"/></g><g fill-rule="evenodd"><path d="M416.71 315.03c.026-1.599 3.287-6.245 6.427-6.815 28.09-5.697 107.73-9.15 134.24-12.106 27.814 10.054 19.2 101.28-20.496 97.256-28.4-.666-88.34-1.393-107.23.625-1.915.319-6.481-3.187-6.81-6.434.135-.056.497-.248.619-.282 0 0 2.32 5.301 6.03 4.796 9.349-2.92 8.784-34.632 7.75-43.189-1.006-7.56-4.534-38.56-14.528-38.27-2.744.079-4.258 4.37-4.258 4.37-.318.03-1.38.047-1.734.05z" fill="url(#prefix__V)" transform="translate(5.765 143.86)"/><path d="M416.72 315.01c.026-1.522 3.04-6.06 6.404-6.794 28.09-5.697 107.73-9.15 134.24-12.106 27.814 10.054 19.2 101.28-20.496 97.256-28.4-.666-88.34-1.393-107.23.625-1.915.318-6.432-3.16-6.762-6.407.11-.055.479-.234.62-.288 0 0 2.188 5.218 5.98 4.766 10.633-4.032 7.702-39.181 6.929-46.301-1.696-13.536-4.896-35.097-13.707-35.15-2.832.114-4.278 4.362-4.278 4.362-.39.004-1.508.049-1.69.037z" fill="url(#prefix__W)" transform="translate(5.765 143.86)"/></g><rect ry="2.227" transform="matrix(-.99941 .0344 .15809 .98742 0 0)" height="11.948" width="9.633" y="589.88" x="-137.46" opacity=".695" fill="url(#prefix__X)"/><rect transform="matrix(-.99941 .0344 .15809 .98742 0 0)" ry="2.227" height="11.948" width="9.633" y="589.88" x="-125.43" opacity=".695" fill="url(#prefix__Y)"/><rect ry="2.227" transform="matrix(-.99941 .0344 .15809 .98742 0 0)" height="11.948" width="9.633" y="589.88" x="-113.43" opacity=".695" fill="url(#prefix__Z)"/><rect transform="matrix(-.99941 .0344 .15809 .98742 0 0)" ry="2.227" height="11.948" width="9.633" y="589.85" x="-101.93" opacity=".695" fill="url(#prefix__aa)"/><rect ry="2.227" transform="matrix(-.99941 .0344 .15809 .98742 0 0)" height="11.948" width="9.633" y="589.85" x="-89.907" opacity=".695" fill="url(#prefix__ab)"/><rect transform="matrix(-.99941 .0344 .15809 .98742 0 0)" ry="2.227" height="11.948" width="9.633" y="589.85" x="-77.907" opacity=".695" fill="url(#prefix__ac)"/><rect ry="2.227" transform="matrix(-.99941 .0344 .15809 .98742 0 0)" height="11.948" width="9.633" y="589.31" x="-65.988" opacity=".695" fill="url(#prefix__ad)"/><rect transform="matrix(-.99941 .0344 .15809 .98742 0 0)" ry="2.227" height="11.948" width="9.633" y="589.31" x="-53.964" opacity=".695" fill="url(#prefix__ae)"/><rect ry="2.227" transform="matrix(-.99941 .0344 .15809 .98742 0 0)" height="11.948" width="9.633" y="589.31" x="-41.964" opacity=".695" fill="url(#prefix__af)"/><rect transform="skewX(-12.143) scale(1 .97762)" ry="1.806" height="14.028" width="10.286" y="427" x="540.55" fill="url(#prefix__ag)"/><rect ry="1.806" transform="skewX(-12.143) scale(1 .97762)" height="14.028" width="10.286" y="443.67" x="541.05" fill="url(#prefix__ah)"/><rect ry="1.162" transform="matrix(.99946 -.0328 .03488 .99939 0 0)" height="2.324" width="112.2" y="598.28" x="103.55" opacity=".868" fill="url(#prefix__ai)"/></g></svg>