<svg xmlns="http://www.w3.org/2000/svg" id="prefix__svg2" viewBox="0 0 761.97 667.28" version="1.1"><defs id="prefix__defs4"><linearGradient id="prefix__linearGradient4197" y2="1166.9" gradientUnits="userSpaceOnUse" x2="2521.9" gradientTransform="translate(-2037.5 -805.14) scale(1.0813)" y1="1166.9" x1="1845.2"><stop id="prefix__stop8756" stop-color="#000" offset="0" stop-opacity=".451"/><stop id="prefix__stop8758" stop-color="#000" offset=".162" stop-opacity="0"/><stop id="prefix__stop8760" stop-color="#000" offset=".262" stop-opacity=".384"/><stop id="prefix__stop8762" stop-color="#000" offset=".388" stop-opacity="0"/><stop id="prefix__stop8764" stop-color="#000" offset=".522" stop-opacity=".416"/><stop id="prefix__stop8766" stop-color="#000" offset=".681" stop-opacity="0"/><stop id="prefix__stop8768" stop-color="#000" offset="1" stop-opacity=".455"/></linearGradient><linearGradient id="prefix__linearGradient4199" y2="368.31" gradientUnits="userSpaceOnUse" x2="93.642" gradientTransform="translate(-82.857 147.36)" y1="372.35" x1="64.222"><stop id="prefix__stop3935" offset="0" stop-color="#fff"/><stop id="prefix__stop3937" offset="1" stop-color="#b2b2b2"/></linearGradient><radialGradient id="prefix__radialGradient4201" gradientUnits="userSpaceOnUse" cy="18.076" cx="1410" gradientTransform="matrix(1.9351 -.34604 .35567 1.0456 -2786.3 659.27)" r="22.857"><stop id="prefix__stop3988" offset="0" stop-color="#decca7"/><stop id="prefix__stop3990" offset="1" stop-color="#9c7d3b"/></radialGradient><style id="style3208" type="text/css"></style></defs><g id="prefix__layer1" transform="translate(73.498 -166.61)"><g id="prefix__g4128"><g id="prefix__g4061"><g id="prefix__g3992"><g id="prefix__g4137" transform="translate(-1683.1 146.03) scale(1.0813)"><path id="prefix__path4139" d="M1516.6 55.268c226-119.68 421.8 342.39 676.7 173.03l-197.13 290.84c-207.99 77.714-230.29-205.17-420.41-62.01-6.126-130.82-15.017-262.27-59.166-401.86z" fill="#fff"/><path id="prefix__path4141" d="M1575.1 423.54c189.41-90.794 259.56 155.68 432.04 80.661l-14.302 23.364c-177.98 80.675-236.45-161.71-417.74-71.713z" fill-rule="evenodd" fill="#bb133e"/><path id="prefix__path4143" d="M1570 358.92c170.5-107.69 278.54 164.97 458.89 112.62l-13.971 20.92c-179.2 58.99-276.5-216.24-442.9-101.23z" fill-rule="evenodd" fill="#bb133e"/><path id="prefix__path4145" d="M1565.6 296.31c129.61-99.65 314.48 179.84 488.43 138.23l-11.051 18.763c-193.8 34.81-336.8-232.06-475.4-126.7z" fill-rule="evenodd" fill="#bb133e"/><path id="prefix__path4147" d="M1557.7 235.73c173.09-127.47 332.49 228.33 527.46 152.42l-11.84 19.927c-185.26 71.108-358.65-272.13-512.26-142.25z" fill-rule="evenodd" fill="#bb133e"/><path id="prefix__path4149" d="M1547.7 175.14c165.37-126.75 350.12 246.76 565.57 170.52l-10.326 18.85c-204.1 87.44-386.4-275.32-550.6-158.48z" fill-rule="evenodd" fill="#bb133e"/><path id="prefix__path4151" d="M1534.3 114.55c197.15-158.99 349.1 288.92 610.23 185.59l-13.396 21.083c-251.4 107.3-437.5-347.91-587.1-168.08z" fill-rule="evenodd" fill="#bb133e"/><path id="prefix__path4153" d="M1515.3 53.97c237.9-154 442.21 325.84 677.21 174.99l-27.071 40.619c-220.4 156.53-417.9-338.4-641-191.63z" fill-rule="evenodd" fill="#bb133e"/><g id="prefix__g4155" transform="matrix(1.759 0 0 -2.1368 1518.8 278.98)" fill="#002664"><path id="prefix__path4157" d="M23.165 5.702c43.47 29.969 86.675 5.553 115.82-9.143l13.77 91.532c-54.152 32.81-112.1 43.29-154.02 16.87z" fill-rule="evenodd" fill="#002664"/></g><path id="prefix__path4159" d="M1564.7 227.28l8.007-.966 1.047-8.561 5.434 8.472 8.432.69-4.635 6.19 4.164 9.006-8.308-4.65-5.855 4.849-.478-9.043-7.808-5.987z" fill-rule="evenodd" fill="#fff"/><path id="prefix__path4161" d="M1611.4 227.28l8.007-.966 1.047-8.561 5.434 8.472 8.432.69-4.635 6.19 4.164 9.006-8.308-4.65-5.855 4.849-.478-9.043-7.808-5.987z" fill-rule="evenodd" fill="#fff"/><path id="prefix__path4163" d="M1655 220.58l8.007-.966 1.047-8.561 5.434 8.472 8.432.69-4.636 6.19 4.165 9.006-8.308-4.65-5.855 4.849-.478-9.043-7.808-5.987z" fill-rule="evenodd" fill="#fff"/><path id="prefix__path4165" d="M1709 224.49l8.007-.966 1.047-8.561 5.434 8.472 8.432.69-4.636 6.19 4.165 9.006-8.308-4.65-5.855 4.849-.478-9.043-7.808-5.987z" fill-rule="evenodd" fill="#fff"/><path id="prefix__path4167" d="M1549.9 40.991l8.007-.966 1.047-8.561 5.434 8.472 8.432.69-4.636 6.19 4.165 9.006-8.308-4.65-5.855 4.849-.478-9.043-7.808-5.987z" fill-rule="evenodd" fill="#fff"/><path id="prefix__path4169" d="M1687.7 233.6l8.007-.966 1.047-8.561 5.434 8.472 8.432.69-4.636 6.19 4.165 9.006-8.308-4.65-5.855 4.849-.478-9.043-7.808-5.987z" fill-rule="evenodd" fill="#fff"/><path id="prefix__path4171" d="M1584.1 207.31l8.007-.966 1.047-8.561 5.434 8.472 8.432.69-4.636 6.19 4.165 9.006-8.308-4.65-5.855 4.849-.478-9.043-7.808-5.987z" fill-rule="evenodd" fill="#fff"/><path id="prefix__path4173" d="M1554.3 185.34l8.007-.966 1.047-8.561 5.434 8.472 8.432.69-4.636 6.19 4.165 9.006-8.308-4.65-5.855 4.849-.478-9.043-7.808-5.987z" fill-rule="evenodd" fill="#fff"/><path id="prefix__path4175" d="M1573.7 165.37l8.007-.966 1.047-8.561 5.434 8.472 8.432.69-4.636 6.19 4.165 9.006-8.308-4.65-5.855 4.849-.478-9.043-7.808-5.987z" fill-rule="evenodd" fill="#fff"/><path id="prefix__path4177" d="M1544 143.41l8.007-.966 1.047-8.561 5.434 8.472 8.432.69-4.636 6.19 4.165 9.006-8.308-4.65-5.855 4.849-.478-9.043-7.808-5.987z" fill-rule="evenodd" fill="#fff"/><path id="prefix__path4179" d="M1563.4 123.43l8.007-.966 1.047-8.561 5.434 8.472 8.432.69-4.636 6.19 4.164 9.006-8.307-4.65-5.855 4.849-.478-9.043-7.808-5.987z" fill-rule="evenodd" fill="#fff"/><path id="prefix__path4181" d="M1533.7 101.47l8.007-.966 1.047-8.561 5.434 8.472 8.432.69-4.636 6.19 4.164 9.006-8.307-4.65-5.855 4.849-.478-9.043-7.808-5.987z" fill-rule="evenodd" fill="#fff"/><path id="prefix__path4183" d="M1553.1 81.496l8.007-.966 1.047-8.561 5.434 8.472 8.432.69-4.636 6.19 4.165 9.006-8.308-4.65-5.855 4.849-.478-9.043-7.808-5.987z" fill-rule="evenodd" fill="#fff"/><path id="prefix__path4185" d="M1523.4 59.527l8.007-.966 1.047-8.561 5.434 8.472 8.432.69-4.636 6.19 4.164 9.006-8.307-4.65-5.855 4.849-.478-9.043-7.808-5.987z" fill-rule="evenodd" fill="#fff"/><path id="prefix__path4187" d="M1630.8 205.64l8.007-.966 1.047-8.561 5.434 8.472 8.432.69-4.636 6.19 4.165 9.006-8.308-4.65-5.855 4.849-.478-9.043-7.808-5.987z" fill-rule="evenodd" fill="#fff"/><path id="prefix__path4189" d="M1601.1 185.34l8.007-.966 1.047-8.561 5.434 8.472 8.432.69-4.636 6.19 4.165 9.006-8.308-4.65-5.855 4.849-.478-9.043-7.808-5.987z" fill-rule="evenodd" fill="#fff"/><path id="prefix__path4191" d="M1620.5 164.82l8.007-.966 1.047-8.561 5.434 8.472 8.432.69-4.636 6.19 4.165 9.006-8.308-4.65-5.855 4.849-.478-9.043-7.808-5.987z" fill-rule="evenodd" fill="#fff"/><path id="prefix__path4193" d="M1590.8 143.41l8.007-.966 1.047-8.561 5.434 8.472 8.432.69-4.636 6.19 4.165 9.006-8.308-4.65-5.855 4.849-.478-9.043-7.808-5.987z" fill-rule="evenodd" fill="#fff"/><path id="prefix__path4195" d="M1610.2 123.43l8.007-.966 1.047-8.561 5.434 8.472 8.432.69-4.636 6.19 4.165 9.006-8.308-4.65-5.855 4.849-.478-9.043-7.808-5.987z" fill-rule="evenodd" fill="#fff"/><path id="prefix__path4197" d="M1580.4 101.47l8.007-.966 1.047-8.561 5.434 8.472 8.432.69-4.636 6.19 4.165 9.006-8.308-4.65-5.855 4.849-.478-9.043-7.808-5.987z" fill-rule="evenodd" fill="#fff"/><path id="prefix__path4199" d="M1599.8 81.496l8.007-.966 1.047-8.561 5.434 8.472 8.432.69-4.636 6.19 4.165 9.006-8.308-4.65-5.855 4.849-.478-9.043-7.808-5.987z" fill-rule="evenodd" fill="#fff"/><path id="prefix__path4201" d="M1570.1 59.527l8.007-.966 1.047-8.561 5.434 8.472 8.432.69-4.636 6.19 4.165 9.006-8.308-4.65-5.855 4.849-.478-9.043-7.808-5.987z" fill-rule="evenodd" fill="#fff"/><path id="prefix__path4203" d="M1677.6 207.31l8.007-.966 1.047-8.561 5.434 8.472 8.432.69-4.636 6.19 4.165 9.006-8.308-4.65-5.855 4.849-.478-9.043-7.808-5.987z" fill-rule="evenodd" fill="#fff"/><path id="prefix__path4205" d="M1648.1 179.2l8.007-.966 1.047-8.561 5.434 8.472 8.432.69-4.636 6.19 4.165 9.006-8.308-4.65-5.855 4.849-.478-9.043-7.808-5.987z" fill-rule="evenodd" fill="#fff"/><path id="prefix__path4207" d="M1742.6 182.88l8.007-.966 1.047-8.561 5.434 8.472 8.432.69-4.636 6.19 4.165 9.006-8.308-4.65-5.855 4.849-.478-9.043-7.808-5.987z" fill-rule="evenodd" fill="#fff"/><path id="prefix__path4209" d="M1696.5 185.34l8.007-.966 1.047-8.561 5.434 8.472 8.432.69-4.636 6.19 4.165 9.006-8.308-4.65-5.855 4.849-.478-9.043-7.808-5.987z" fill-rule="evenodd" fill="#fff"/><path id="prefix__path4211" d="M1746.9 219.15l8.007-.966 1.047-8.561 5.434 8.472 8.432.69-4.636 6.19 4.165 9.006-8.308-4.65-5.855 4.849-.478-9.043-7.808-5.987z" fill-rule="evenodd" fill="#fff"/><path id="prefix__path4213" d="M1723 204.94l8.007-.966 1.047-8.561 5.434 8.472 8.432.69-4.636 6.19 4.165 9.006-8.308-4.65-5.855 4.849-.478-9.043-7.808-5.987z" fill-rule="evenodd" fill="#fff"/><path id="prefix__path4215" d="M1619.3 55.062l8.007-.966 1.047-8.561 5.434 8.472 8.432.69-4.636 6.19 4.165 9.006-8.308-4.65-5.855 4.849-.478-9.043-7.808-5.987z" fill-rule="evenodd" fill="#fff"/><path id="prefix__path4217" d="M1646.6 81.496l8.007-.966 1.047-8.561 5.434 8.472 8.432.69-4.636 6.19 4.165 9.006-8.308-4.65-5.855 4.849-.478-9.043-7.808-5.987z" fill-rule="evenodd" fill="#fff"/><path id="prefix__path4219" d="M1628 96.443l8.007-.966 1.047-8.561 5.434 8.472 8.432.69-4.636 6.19 4.164 9.006-8.307-4.65-5.855 4.849-.478-9.043-7.808-5.987z" fill-rule="evenodd" fill="#fff"/><path id="prefix__path4221" d="M1656.9 123.43l8.007-.966 1.047-8.561 5.434 8.472 8.432.69-4.636 6.19 4.165 9.006-8.308-4.65-5.855 4.849-.478-9.043-7.808-5.987z" fill-rule="evenodd" fill="#fff"/><path id="prefix__path4223" d="M1637.7 137.82l8.007-.966 1.047-8.561 5.434 8.472 8.432.69-4.636 6.19 4.164 9.006-8.307-4.65-5.855 4.849-.478-9.043-7.808-5.987z" fill-rule="evenodd" fill="#fff"/><path id="prefix__path4225" d="M1667.3 164.26l8.007-.966 1.047-8.561 5.434 8.472 8.432.69-4.636 6.19 4.165 9.006-8.308-4.65-5.855 4.849-.478-9.043-7.808-5.987z" fill-rule="evenodd" fill="#fff"/><path id="prefix__path4227" d="M1731.5 248.4l8.007-.966 1.047-8.561 5.434 8.472 8.432.69-4.636 6.19 4.164 9.006-8.307-4.65-5.855 4.849-.478-9.043-7.808-5.987z" fill-rule="evenodd" fill="#fff"/><path id="prefix__path4229" d="M1686.2 143.41l8.007-.966 1.047-8.561 5.434 8.472 8.432.69-4.636 6.19 4.164 9.006-8.307-4.65-5.855 4.849-.478-9.043-7.808-5.987z" fill-rule="evenodd" fill="#fff"/><path id="prefix__path4231" d="M1665.5 59.527l8.007-.966 1.047-8.561 5.434 8.472 8.432.69-4.636 6.19 4.165 9.006-8.308-4.65-5.855 4.849-.478-9.043-7.808-5.987z" fill-rule="evenodd" fill="#fff"/><path id="prefix__path4233" d="M1675.8 101.47l8.007-.966 1.047-8.561 5.434 8.472 8.432.69-4.636 6.19 4.165 9.006-8.308-4.65-5.855 4.849-.478-9.043-7.808-5.987z" fill-rule="evenodd" fill="#fff"/><path id="prefix__path4235" d="M1753.2 160.31l8.007-.966 1.047-8.561 5.434 8.472 8.432.69-4.635 6.19 4.164 9.006-8.308-4.65-5.855 4.849-.478-9.043-7.808-5.987z" fill-rule="evenodd" fill="#fff"/><path id="prefix__path4237" d="M1715.9 165.37l8.007-.966 1.047-8.561 5.434 8.472 8.432.69-4.636 6.19 4.165 9.006-8.308-4.65-5.855 4.849-.478-9.043-7.808-5.987z" fill-rule="evenodd" fill="#fff"/><path id="prefix__path4239" d="M1695.2 81.496l8.007-.966 1.047-8.561 5.434 8.472 8.432.69-4.636 6.19 4.165 9.006-8.308-4.65-5.855 4.849-.478-9.043-7.808-5.987z" fill-rule="evenodd" fill="#fff"/><path id="prefix__path4241" d="M1705.5 123.43l8.007-.966 1.047-8.561 5.434 8.472 8.432.69-4.636 6.19 4.165 9.006-8.308-4.65-5.855 4.849-.478-9.043-7.808-5.987z" fill-rule="evenodd" fill="#fff"/><path id="prefix__path4243" d="M1733.5 140.62l8.007-.966 1.047-8.561 5.434 8.472 8.432.69-4.636 6.19 4.165 9.006-8.308-4.65-5.855 4.849-.478-9.043-7.808-5.987z" fill-rule="evenodd" fill="#fff"/><path id="prefix__path4245" d="M1712.3 59.527l8.007-.966 1.047-8.561 5.434 8.472 8.432.69-4.636 6.19 4.165 9.006-8.308-4.65-5.855 4.849-.478-9.043-7.808-5.987z" fill-rule="evenodd" fill="#fff"/><path id="prefix__path4247" d="M1722.6 101.47l8.007-.966 1.047-8.561 5.434 8.472 8.432.69-4.636 6.19 4.164 9.006-8.307-4.65-5.855 4.849-.478-9.043-7.808-5.987z" fill-rule="evenodd" fill="#fff"/><path id="prefix__path4249" d="M1592.7 37.425l8.007-.966 1.047-8.561 5.434 8.472 8.432.69-4.636 6.19 4.165 9.006-8.308-4.65-5.855 4.849-.478-9.043-7.808-5.987z" fill-rule="evenodd" fill="#fff"/><path id="prefix__path4251" d="M1742 81.496l8.007-.966 1.047-8.561 5.434 8.472 8.432.69-4.636 6.19 4.165 9.006-8.308-4.65-5.855 4.849-.478-9.043-7.808-5.987z" fill-rule="evenodd" fill="#fff"/><path id="prefix__path4253" d="M1638.6 37.527l8.007-.966 1.047-8.561 5.434 8.472 8.432.69-4.636 6.19 4.165 9.006-8.308-4.65-5.855 4.849-.478-9.043-7.808-5.987z" fill-rule="evenodd" fill="#fff"/><path id="prefix__path4255" d="M1755.1 116.18l8.007-.966 1.047-8.561 5.434 8.472 8.432.69-4.636 6.19 4.165 9.006-8.308-4.65-5.855 4.849-.478-9.043-7.808-5.987z" fill-rule="evenodd" fill="#fff"/></g><path id="prefix__path4257" d="M-45.457 204.58c274.41-165.71 459.14 347.04 730.92 191.72-68.96 102.56-135.24 201.39-213.92 317.56-178.55 97.16-264.15-178.4-451.03-74.96C14.12 419.43-9.848 374.59-45.454 204.58z" fill="url(#prefix__linearGradient4197)"/></g><g id="prefix__g4057"><path id="prefix__rect4265" d="M-38.826 191.39l-21.219 2.938 89 639.56 21.219-2.938-89-639.56z" fill="url(#prefix__linearGradient4199)"/><path id="prefix__path3982" d="M-73.065 197.13c3.32 6.594 13.262 12.126 25.214 8.32 11.952-3.807 16.377-13.58 13.057-20.174-3.764-11.042-17.705-5.462-24.302-18.666-.797 12.95-17.251 20.885-13.968 30.52z" fill="url(#prefix__radialGradient4201)"/></g></g></g></g></svg>