<?xml version='1.0' encoding='utf-8'?>
<svg xmlns="http://www.w3.org/2000/svg" width="297mm" height="210mm" style="shape-rendering:geometricPrecision; text-rendering:geometricPrecision; image-rendering:optimizeQuality; fill-rule:evenodd; clip-rule:evenodd" viewBox="0 0 297 210"> <defs> <style type="text/css">  .fil1 {fill:#663333;fill-rule:nonzero} .fil3 {fill:red;fill-rule:nonzero} .fil2 {fill:white;fill-rule:nonzero} .fil0 {fill:black;fill-rule:nonzero}  </style> </defs> <g id="Warstwa_x0020_1"> <metadata id="CorelCorpID_0Corel-Layer"/> <path class="fil0" d="M89.0035 40.3976c-0.0016,0.0058 -0.0031,0.0118 -0.0051,0.0176l-0.3213 0.9095c5.7182,-0.9119 10.3641,-3.4672 15.018,-6.0271 3.523,-1.9379 7.0513,-3.8787 11.0699,-5.1271 6.151,-1.9108 11.5274,0.5515 17.5134,3.2929 1.9322,0.8849 3.9289,1.7995 6.046,2.6066 4.6882,1.7872 9.8592,3.1047 14.962,3.7674 4.8179,0.6258 9.5758,0.6687 13.8097,-0.0264 4.5235,-0.7426 9.7091,-2.2159 14.7875,-4.3398 4.5422,-1.8996 8.9965,-4.3194 12.8106,-7.2016 0.6159,-0.4654 1.4895,-1.1216 2.3692,-1.7824 3.1673,-2.3793 6.3484,-4.7687 8.7544,-6.7982 0.22,-0.1856 0.4302,-0.3654 0.6384,-0.5433 2.2684,-1.9396 4.2924,-3.6701 7.2434,-3.1784 3.3469,0.5577 5.659,1.7522 7.9351,2.928 6.95,3.5905 13.5612,7.0058 48.9543,-9.1324 0.0838,-0.038 0.1859,-0.0281 0.2617,0.0342 0.1062,0.0873 0.1215,0.2444 0.0342,0.3506 -9.9218,12.0849 -18.7935,24.97 -26.7807,38.5285 -0.3128,0.531 -0.6243,1.0634 -0.9344,1.5964 -0.0047,0.0092 -0.0098,0.0182 -0.0155,0.0268 -7.601,13.0689 -14.395,26.7581 -20.5277,40.9553l-0.0002 -0.0001c-0.0053,0.0125 -0.0117,0.0245 -0.0193,0.0363 -0.0744,0.1159 -0.2289,0.1496 -0.3448,0.0752 -13.9175,-8.9718 -28.4614,-1.5678 -42.8867,5.7759 -8.9626,4.5627 -17.8802,9.1025 -26.6195,9.724 -11.3821,0.8096 -16.4276,-0.9643 -22.5003,-3.0992 -9.3072,-3.2722 -21.0465,-7.3984 -62.1301,-4.2674l-35.135 99.4562c-0.0311,0.0882 -0.1065,0.1477 -0.1925,0.1627l0.0001 0.0004 -6.4478 1.1379c-0.1359,0.0237 -0.2654,-0.0672 -0.2891,-0.2031 -0.009,-0.0517 -0.0011,-0.1027 0.0192,-0.1471l59.9316 -160.121c-0.3025,-0.1791 -0.5662,-0.376 -0.7151,-0.6331l-0.0096 -0.0158c-0.2633,-0.4748 -0.398,-0.9744 -0.4222,-1.4662 -0.0313,-0.6366 0.1232,-1.2602 0.4244,-1.8014 0.3011,-0.5412 0.7494,-1.0006 1.3051,-1.3086 0.4284,-0.2374 0.9203,-0.3853 1.4573,-0.4116 0.1701,-0.0083 0.3328,-0.0009 0.4875,0.0208 0.6624,0.0932 1.1864,0.4435 1.5523,0.9425 0.3564,0.4859 0.5604,1.114 0.593,1.7783 0.0119,0.2442 0.001,0.4933 -0.0339,0.7414 -0.0826,0.5878 -0.3561,1.2785 -0.7483,1.8502 -0.2536,0.3699 -0.5597,0.6942 -0.8992,0.9154z"/> <path class="fil1" d="M88.0628 41.5649c0.0028,-0.0095 0.0061,-0.0188 0.0099,-0.0279l0.3063 -0.867c-0.1791,0.0406 -0.3635,0.051 -0.5518,0.0245 -0.2415,-0.0339 -0.4853,-0.1275 -0.726,-0.2926 -0.1861,-0.1276 -0.4151,-0.2492 -0.642,-0.3697l-0.0062 -0.0033 -59.7591 159.66 5.8747 -1.0367 55.4942 -157.087z"/> <path class="fil2" d="M242.785 49.9438c0.2953,-0.5073 0.5919,-1.0141 0.8897,-1.5196 7.8193,-13.2734 16.4849,-25.9023 26.1518,-37.7687 -34.7633,15.7325 -41.4254,12.2969 -48.4203,8.6832 -2.2415,-1.1579 -4.5186,-2.3344 -7.7885,-2.8792 -2.7218,-0.4535 -4.6623,1.2056 -6.8372,3.0652 -0.213,0.1821 -0.4287,0.3666 -0.6404,0.5451 -2.4063,2.0297 -5.5989,4.4278 -8.7778,6.8158 -0.7089,0.5325 -1.4226,1.0687 -2.3672,1.7824 -3.8489,2.9085 -8.341,5.3492 -12.92,7.2642 -5.1126,2.1382 -10.3376,3.6222 -14.8989,4.371 -4.2816,0.703 -9.0884,0.6601 -13.9523,0.0284 -5.1463,-0.6684 -10.357,-1.9954 -15.0772,-3.7948 -2.1141,-0.806 -4.1271,-1.728 -6.0752,-2.6202 -5.8948,-2.6996 -11.1892,-5.1243 -17.16,-3.2695 -3.966,1.2321 -7.4737,3.1615 -10.9761,5.0881 -4.7639,2.6204 -9.5193,5.236 -15.4469,6.1237l-9.9777 28.2439c12.5312,-5.5559 24.7676,-2.8161 36.9669,-0.084 8.1785,1.8315 16.3404,3.6595 24.5389,2.9583 8.263,-0.7068 16.4824,-3.4202 24.7227,-6.1403 7.2171,-2.3824 14.4508,-4.7703 21.7684,-5.8313 4.2413,-0.6149 8.2785,-0.3611 12.3109,-0.1075 4.4499,0.2797 8.8945,0.5591 13.5767,-0.341 5.3016,-1.0192 10.8833,-3.3078 16.4547,-5.592 4.7069,-1.9297 9.4069,-3.8564 13.935,-5.0212z"/> <path class="fil3" d="M68.3074 98.9851c41.0069,-3.1071 52.7779,1.029 62.1124,4.3109 6.0192,2.1161 11.0203,3.8744 22.3011,3.072 8.6369,-0.6142 17.5101,-5.1314 26.4281,-9.6714 14.4673,-7.3651 29.0527,-14.7873 43.1342,-5.9061 6.0288,-13.9312 12.6983,-27.3787 20.1475,-40.2369 -4.3564,1.1685 -8.8706,3.0189 -13.3914,4.8724 -5.5962,2.2944 -11.2028,4.5931 -16.5503,5.6212 -4.7436,0.9119 -9.22,0.6305 -13.7017,0.3488 -4.006,-0.2519 -8.017,-0.5041 -12.2093,0.1037 -7.2705,1.0541 -14.4848,3.4356 -21.6826,5.8117 -8.2681,2.7293 -16.5151,5.4518 -24.8379,6.1637 -8.2684,0.7071 -16.4696,-1.1296 -24.6873,-2.9699 -12.2593,-2.7454 -24.5566,-5.4987 -37.0897,0.2492l-9.9731 28.2307z"/> <path class="fil1" d="M88.0755 34.647c-0.4572,0.0224 -0.8752,0.1479 -1.2385,0.3492 -0.4731,0.2622 -0.855,0.6538 -1.1117,1.1152 -0.2569,0.4616 -0.3886,0.9933 -0.362,1.5358 0.0205,0.4176 0.1354,0.8426 0.3598,1.2474l0.0047 0.0091c0.1451,0.2511 0.5522,0.4676 0.9658,0.6871 0.2362,0.1254 0.4746,0.252 0.6888,0.3989 0.1749,0.12 0.347,0.1873 0.5132,0.2106 0.2868,0.0403 0.5702,-0.0477 0.8332,-0.2184 0.2823,-0.1833 0.5421,-0.4605 0.7617,-0.7809 0.3504,-0.5108 0.5938,-1.1218 0.6663,-1.6374 0.0308,-0.2188 0.0405,-0.437 0.0301,-0.6496 -0.0279,-0.5676 -0.1989,-1.0998 -0.4974,-1.5067 -0.2889,-0.394 -0.7005,-0.6704 -1.2183,-0.7433 -0.1259,-0.0176 -0.258,-0.0237 -0.3957,-0.017z"/> </g> </svg>