<svg xmlns="http://www.w3.org/2000/svg" version="1.1" width="1233.183" height="1152.148" id="prefix__svg4617"><defs id="prefix__defs4586"><filter id="prefix__filter5491" x="-.361" width="1.721" y="-.352" height="1.705" color-interpolation-filters="sRGB"><feGaussianBlur stdDeviation="138.937" id="prefix__feGaussianBlur5493"/></filter><style type="text/css" id="style4584">@import url(https://fonts.googleapis.com/css?family=Josefin+Sans:400:latin-ext);</style></defs><clipPath id="prefix__cp1"><path d="M0 0h1920v1080H0zm0 0h2400v1350H0z" id="prefix__path4588" fill-rule="evenodd"/></clipPath><path id="prefix__rect4593" opacity="1" fill="#222" stroke="none" stroke-width=".662" d="M0 0h1233.183v1152.148H0z"/><path d="M904.346 263.894c-37.2-52.64-67.81-109.988-109.693-159.26-50.879-19.14-123.194-26.14-157.128 26.024-40.647 49.6-114.72 27.709-164.8 62.743-41.488 17.9-86.469 35.635-132.421 27.552-17.39 28.466-26.463 59.383-65.906 62.02-44.281 16.995-103.539 41.558-104.314 97.405-2.183 58.174-19.269 115.89-16.508 174.792 6.125 65.124-4.287 134.943 23.686 195.817 39.979 34.474 88.229 59.713 98.554 117.097 22.455 63.293 95.904 46.96 138.025 85.514 39.921 28.644 80.867 57.405 127.157 74.462 67.427 20.972 136.958-.556 204.581-8.312 47.023-8.585 93.083-29.053 125.28-65.157 43.62-36.1 120.057-33.13 140.57-94.322 45.023-84.104 67.843-180.014 66.425-275.283-5.21-67.415-23.85-134.92-65.96-189.14-6.253-56.2-64.057-78.324-96.706-118.187l-5.6-6.74z" id="prefix__path5393" fill="#9d9191" stroke="none" stroke-width="1" stroke-linecap="butt" stroke-linejoin="miter" stroke-opacity="1" fill-opacity="1" opacity=".145" filter="url(#prefix__filter5491)"/><g aria-label="love" style="line-height:normal" id="prefix__text4595" transform="translate(-395.113)" font-style="normal" font-variant="normal" font-weight="400" font-stretch="normal" font-size="450.458" font-family="Josefin Sans" text-anchor="start" opacity="1" fill="#e82c0c" stroke="none"><path d="M597.072 430.847h40.471v342.242h-40.47z" style="line-height:normal" id="prefix__path5384" opacity="1"/><path d="M817.463 555.119q-32.553 0-51.469 25.514-18.915 25.294-18.915 69.504 0 44.21 18.695 69.724 18.916 25.295 51.689 25.295 32.332 0 51.248-25.515 18.916-25.514 18.916-69.504 0-43.77-18.916-69.284-18.916-25.734-51.248-25.734zm0-34.313q52.788 0 82.921 34.313 30.133 34.312 30.133 95.018 0 60.486-30.133 95.019-30.133 34.312-82.921 34.312-53.008 0-83.142-34.312-29.913-34.533-29.913-95.019 0-60.706 29.913-95.018 30.134-34.313 83.142-34.313z" style="line-height:normal" id="prefix__path5386" opacity="1"/><path d="M968.349 526.745h42.89l76.983 206.753 76.982-206.753h42.89l-92.379 246.344h-54.987z" style="line-height:normal" id="prefix__path5388" opacity="1"/><path d="M1474.674 639.8v19.795h-186.078q2.64 41.79 25.075 63.786 22.655 21.775 62.905 21.775 23.315 0 45.09-5.719 21.995-5.719 43.55-17.156v38.271q-21.775 9.238-44.65 14.077-22.874 4.839-46.409 4.839-58.947 0-93.479-34.312-34.312-34.313-34.312-92.82 0-60.486 32.552-95.898 32.773-35.632 88.2-35.632 49.71 0 78.523 32.113 29.033 31.893 29.033 86.88zm-40.47-11.878q-.44-33.212-18.696-53.008-18.036-19.795-47.95-19.795-33.872 0-54.327 19.135-20.236 19.136-23.315 53.888z" style="line-height:normal" id="prefix__path5390" opacity="1"/></g><g aria-label="family" style="line-height:normal" id="prefix__text4597" transform="translate(-395.113)" font-style="normal" font-variant="normal" font-weight="400" font-stretch="normal" font-size="225.229" font-family="Josefin Sans" text-anchor="start" opacity="1" fill="#ff530d" stroke="none"><path d="M713.764 331.093v16.826h-19.356q-10.887 0-15.176 4.399-4.18 4.399-4.18 15.836v10.888h33.323v15.726h-33.322v107.446h-20.346V394.768h-19.355v-15.726h19.355v-8.578q0-20.566 9.568-29.913 9.568-9.458 30.353-9.458z" style="line-height:normal" id="prefix__path5371" opacity="1"/><path d="M786.568 440.298q-24.525 0-33.983 5.609-9.458 5.608-9.458 19.135 0 10.778 7.039 17.157 7.148 6.268 19.355 6.268 16.827 0 26.944-11.877 10.228-11.987 10.228-31.783v-4.509zm40.36-8.358v70.274h-20.235v-18.696q-6.928 11.218-17.266 16.606-10.338 5.28-25.294 5.28-18.916 0-30.134-10.558-11.107-10.668-11.107-28.484 0-20.785 13.857-31.343 13.967-10.557 41.57-10.557h28.374v-1.98q0-13.967-9.238-21.555-9.128-7.698-25.734-7.698-10.558 0-20.565 2.53-10.008 2.528-19.246 7.587v-18.695q11.107-4.29 21.555-6.379 10.448-2.2 20.345-2.2 26.724 0 39.921 13.857 13.198 13.857 13.198 42.01z" style="line-height:normal" id="prefix__path5373" opacity="1"/><path d="M964.617 402.686q7.589-13.636 18.146-20.125 10.558-6.488 24.855-6.488 19.245 0 29.693 13.526 10.448 13.417 10.448 38.272v74.343h-20.346v-73.683q0-17.706-6.268-26.284-6.269-8.578-19.136-8.578-15.726 0-24.854 10.447-9.128 10.448-9.128 28.484v69.614H947.68v-73.683q0-17.816-6.268-26.284-6.269-8.578-19.356-8.578-15.506 0-24.634 10.557-9.128 10.448-9.128 28.374v69.614h-20.346V379.042h20.346v19.136q6.928-11.328 16.606-16.717 9.678-5.389 22.985-5.389 13.417 0 22.765 6.819 9.457 6.818 13.966 19.795z" style="line-height:normal" id="prefix__path5375" opacity="1"/><path d="M1088.23 379.042h20.235v123.172h-20.235zm0-47.95h20.235v25.625h-20.235z" style="line-height:normal" id="prefix__path5377" opacity="1"/><path d="M1150.695 331.093h20.236v171.121h-20.236z" style="line-height:normal" id="prefix__path5379" opacity="1"/><path d="M1264.41 513.651q-8.578 21.995-16.717 28.704-8.138 6.708-21.775 6.708h-16.166v-16.936h11.877q8.358 0 12.977-3.959 4.62-3.959 10.228-18.696l3.63-9.238-49.82-121.192h21.446l38.491 96.338 38.491-96.338h21.445z" style="line-height:normal" id="prefix__path5381" opacity="1"/></g><g aria-label="holiday" transform="matrix(.99406 0 0 1.00598 -395.113 0)" id="prefix__text4599" font-size="99.209" text-anchor="start" opacity="1" fill="#e87b0c" fill-opacity="1" stroke="none" stroke-width="8.267"><path d="M895.791 760.677v32.747h-8.913v-32.456q0-7.703-3.004-11.53-3.003-3.826-9.01-3.826-7.218 0-11.384 4.601-4.166 4.602-4.166 12.547v30.664h-8.961v-75.376h8.961v29.55q3.198-4.893 7.509-7.315 4.36-2.422 10.027-2.422 9.35 0 14.145 5.813 4.796 5.764 4.796 17.003z" id="prefix__path5356" opacity="1"/><path d="M934.69 745.418q-7.17 0-11.335 5.619-4.166 5.57-4.166 15.308 0 9.736 4.117 15.356 4.166 5.57 11.384 5.57 7.121 0 11.287-5.619t4.166-15.307q0-9.64-4.166-15.26-4.166-5.667-11.287-5.667zm0-7.557q11.626 0 18.263 7.557 6.636 7.557 6.636 20.927 0 13.321-6.636 20.927-6.637 7.556-18.263 7.556-11.674 0-18.311-7.556-6.588-7.606-6.588-20.927 0-13.37 6.588-20.927 6.637-7.557 18.311-7.557z" id="prefix__path5358" opacity="1"/><path d="M974.316 718.048h8.913v75.376h-8.913z" id="prefix__path5360" opacity="1"/><path d="M1001.83 739.169h8.914v54.255h-8.913zm0-21.12h8.914v11.286h-8.913z" id="prefix__path5362" opacity="1"/><path d="M1065.047 747.404v-29.356h8.913v75.376h-8.913v-8.139q-2.81 4.845-7.12 7.218-4.264 2.325-10.27 2.325-9.834 0-16.035-7.847-6.152-7.848-6.152-20.636 0-12.789 6.152-20.637 6.2-7.847 16.034-7.847 6.007 0 10.27 2.373 4.312 2.326 7.121 7.17zm-30.373 18.94q0 9.834 4.02 15.454 4.07 5.57 11.142 5.57 7.073 0 11.142-5.57 4.07-5.62 4.07-15.453 0-9.834-4.07-15.405-4.07-5.62-11.142-5.62-7.072 0-11.141 5.62-4.02 5.57-4.02 15.405z" id="prefix__path5364" opacity="1"/><path d="M1116.977 766.15q-10.803 0-14.969 2.471-4.166 2.471-4.166 8.43 0 4.747 3.1 7.556 3.15 2.761 8.526 2.761 7.412 0 11.869-5.231 4.505-5.28 4.505-14v-1.986zm17.778-3.68v30.954h-8.913v-8.235q-3.052 4.94-7.606 7.314-4.553 2.325-11.141 2.325-8.332 0-13.273-4.65-4.893-4.699-4.893-12.546 0-9.156 6.104-13.806 6.152-4.65 18.31-4.65h12.499v-.873q0-6.152-4.07-9.494-4.02-3.391-11.335-3.391-4.65 0-9.058 1.114-4.409 1.114-8.478 3.342v-8.235q4.893-1.889 9.495-2.81 4.602-.968 8.962-.968 11.771 0 17.584 6.103 5.813 6.104 5.813 18.505z" id="prefix__path5366" opacity="1"/><path d="M1175.737 798.462q-3.778 9.688-7.363 12.643-3.585 2.955-9.592 2.955h-7.12v-7.46h5.231q3.682 0 5.716-1.744 2.035-1.744 4.505-8.235l1.599-4.07-21.944-53.382h9.446l16.955 42.435 16.954-42.435h9.446z" id="prefix__path5368" opacity="1"/></g><g aria-label="winter" style="line-height:normal" id="prefix__text4601" transform="translate(-395.113)" font-style="normal" font-variant="normal" font-weight="400" font-stretch="normal" font-size="112.615" font-family="Josefin Sans" text-anchor="start" opacity="1" fill="#49ba2c" fill-opacity="1" stroke="none"><path d="M744.843 316.524h10.118l12.647 48.06 12.592-48.06h11.933l12.647 48.06 12.592-48.06h10.118l-16.112 61.586h-11.932l-13.252-50.478-13.307 50.478h-11.932z" style="line-height:normal" id="prefix__path5343" opacity="1"/><path d="M842.886 316.524h10.118v61.586h-10.118zm0-23.974h10.118v12.812h-10.118z" style="line-height:normal" id="prefix__path5345" opacity="1"/><path d="M925.313 340.939v37.171h-10.118V341.27q0-8.743-3.41-13.088-3.408-4.344-10.227-4.344-8.193 0-12.922 5.224-4.729 5.224-4.729 14.242v34.807h-10.173v-61.586h10.173v9.568q3.63-5.554 8.523-8.303 4.949-2.75 11.383-2.75 10.612 0 16.056 6.599 5.444 6.544 5.444 19.3z" style="line-height:normal" id="prefix__path5347" opacity="1"/><path d="M955.61 299.038v17.486h20.841v7.863h-20.84v33.433q0 7.533 2.034 9.678 2.09 2.144 8.414 2.144h10.392v8.468h-10.393q-11.712 0-16.166-4.344-4.454-4.399-4.454-15.946v-33.433h-7.423v-7.863h7.423v-17.486z" style="line-height:normal" id="prefix__path5349" opacity="1"/><path d="M1042.491 344.788v4.949h-46.52q.66 10.447 6.27 15.946 5.663 5.444 15.726 5.444 5.828 0 11.272-1.43 5.499-1.43 10.888-4.289v9.568q-5.444 2.31-11.163 3.52-5.718 1.209-11.602 1.209-14.737 0-23.37-8.578-8.578-8.578-8.578-23.205 0-15.122 8.138-23.975 8.193-8.908 22.05-8.908 12.428 0 19.63 8.029 7.26 7.973 7.26 21.72zm-10.118-2.97q-.11-8.303-4.673-13.252-4.51-4.948-11.988-4.948-8.468 0-13.582 4.783-5.059 4.784-5.828 13.472z" style="line-height:normal" id="prefix__path5351" opacity="1"/><path d="M1094.784 325.982q-1.704-.99-3.739-1.43-1.98-.495-4.399-.495-8.578 0-13.197 5.61-4.564 5.553-4.564 16v32.443h-10.172v-61.586h10.172v9.568q3.19-5.609 8.303-8.303 5.114-2.75 12.428-2.75 1.044 0 2.31.165 1.264.11 2.804.385z" style="line-height:normal" id="prefix__path5353" opacity="1"/></g><g aria-label="xmas" transform="rotate(-32.88 -197.556 669.5)" style="line-height:normal" id="prefix__text4603" font-style="normal" font-variant="normal" font-weight="400" font-stretch="normal" font-size="112.615" font-family="Josefin Sans" text-anchor="start" opacity="1" fill="red" stroke="none"><path d="M394.86 1319.515l-22.27 29.968 23.424 31.618h-11.932l-17.926-24.195-17.926 24.195h-11.932l23.92-32.223-21.886-29.363h11.932l16.332 21.94 16.331-21.94z" style="line-height:normal" id="prefix__path5334" opacity="1"/><path d="M458.26 1331.337q3.794-6.818 9.073-10.063 5.279-3.244 12.427-3.244 9.623 0 14.847 6.764 5.224 6.708 5.224 19.135v37.172h-10.173v-36.842q0-8.853-3.134-13.142-3.135-4.289-9.568-4.289-7.863 0-12.427 5.224-4.564 5.224-4.564 14.242v34.807h-10.173v-36.842q0-8.908-3.134-13.142-3.135-4.289-9.678-4.289-7.753 0-12.317 5.279-4.564 5.224-4.564 14.187v34.807h-10.173v-61.586h10.173v9.568q3.464-5.664 8.303-8.358 4.839-2.695 11.492-2.695 6.709 0 11.383 3.41 4.729 3.409 6.983 9.897z" style="line-height:normal" id="prefix__path5336" opacity="1"/><path d="M548.055 1350.143q-12.263 0-16.991 2.804-4.73 2.805-4.73 9.568 0 5.389 3.52 8.578 3.574 3.134 9.678 3.134 8.413 0 13.472-5.938 5.113-5.994 5.113-15.892v-2.254zm20.18-4.18v35.138h-10.118v-9.348q-3.464 5.609-8.633 8.303-5.168 2.64-12.647 2.64-9.458 0-15.066-5.28-5.554-5.333-5.554-14.241 0-10.393 6.928-15.671 6.984-5.28 20.786-5.28h14.186v-.99q0-6.982-4.619-10.777-4.563-3.849-12.867-3.849-5.278 0-10.282 1.265-5.004 1.265-9.623 3.794v-9.348q5.554-2.144 10.777-3.19 5.224-1.099 10.173-1.099 13.362 0 19.96 6.929 6.6 6.928 6.6 21.005z" style="line-height:normal" id="prefix__path5338" opacity="1"/><path d="M628.392 1321.33v9.567q-4.29-2.2-8.908-3.299-4.62-1.1-9.568-1.1-7.534 0-11.328 2.31-3.739 2.31-3.739 6.928 0 3.52 2.695 5.554 2.694 1.98 10.832 3.794l3.464.77q10.778 2.31 15.287 6.543 4.564 4.18 4.564 11.713 0 8.578-6.819 13.582-6.763 5.004-18.64 5.004-4.95 0-10.338-.99-5.334-.935-11.273-2.86V1368.4q5.61 2.914 11.053 4.399 5.444 1.43 10.778 1.43 7.148 0 10.997-2.42 3.85-2.474 3.85-6.928 0-4.125-2.805-6.324-2.75-2.2-12.152-4.234l-3.52-.825q-9.403-1.98-13.582-6.049-4.179-4.124-4.179-11.272 0-8.688 6.159-13.417 6.159-4.729 17.486-4.729 5.609 0 10.558.825t9.128 2.474z" style="line-height:normal" id="prefix__path5340" opacity="1"/></g><g aria-label="snow" style="line-height:normal" id="prefix__text4605" transform="translate(-395.113)" font-style="normal" font-variant="normal" font-weight="400" font-stretch="normal" font-size="90.092" font-family="Josefin Sans" text-anchor="start" opacity="1" fill="#ff3c00" fill-opacity="1" stroke="none"><path d="M902.903 812.458v7.654q-3.431-1.76-7.127-2.64-3.695-.88-7.654-.88-6.027 0-9.062 1.848-2.991 1.848-2.991 5.543 0 2.816 2.155 4.443 2.156 1.584 8.666 3.036l2.772.615q8.622 1.848 12.229 5.235 3.651 3.343 3.651 9.37 0 6.863-5.455 10.866-5.41 4.003-14.912 4.003-3.96 0-8.27-.792-4.267-.748-9.018-2.288v-8.358q4.487 2.332 8.842 3.52 4.355 1.143 8.622 1.143 5.718 0 8.798-1.935 3.08-1.98 3.08-5.543 0-3.3-2.244-5.059-2.2-1.76-9.722-3.387l-2.816-.66q-7.522-1.584-10.865-4.839-3.343-3.3-3.343-9.018 0-6.95 4.926-10.733 4.927-3.784 13.99-3.784 4.486 0 8.445.66 3.96.66 7.303 1.98z" style="line-height:normal" id="prefix__path5325" opacity="1"/><path d="M959.43 830.538v29.737h-8.094v-29.473q0-6.995-2.728-10.47-2.727-3.475-8.182-3.475-6.554 0-10.337 4.179-3.784 4.179-3.784 11.393v27.846h-8.138v-49.269h8.138v7.654q2.904-4.443 6.819-6.642 3.96-2.2 9.106-2.2 8.49 0 12.845 5.28 4.355 5.234 4.355 15.44z" style="line-height:normal" id="prefix__path5327" opacity="1"/><path d="M994.754 816.68q-6.51 0-10.294 5.104-3.783 5.059-3.783 13.9 0 8.843 3.74 13.945 3.783 5.06 10.337 5.06 6.467 0 10.25-5.104 3.783-5.102 3.783-13.9 0-8.754-3.783-13.857-3.783-5.147-10.25-5.147zm0-6.862q10.558 0 16.584 6.863 6.027 6.862 6.027 19.004 0 12.097-6.027 19.003-6.026 6.863-16.584 6.863-10.602 0-16.628-6.863-5.983-6.906-5.983-19.003 0-12.142 5.983-19.004 6.026-6.863 16.628-6.863z" style="line-height:normal" id="prefix__path5329" opacity="1"/><path d="M1026.031 811.006h8.094l10.118 38.447 10.074-38.447h9.545l10.118 38.447 10.074-38.447h8.094l-12.889 49.269h-9.546l-10.602-40.383-10.645 40.383h-9.546z" style="line-height:normal" id="prefix__path5331" opacity="1"/></g><g aria-label="festivus" transform="matrix(.90867 0 0 1.1005 -395.113 0)" id="prefix__text4607" font-size="28.51" text-anchor="start" opacity="1" fill="#2eff0d" fill-opacity="1" stroke="none" stroke-width="2.376"><path d="M967.005 454.128v2.13h-2.45q-1.378 0-1.921.556-.53.557-.53 2.005v1.378h4.219v1.99h-4.218v13.601h-2.576v-13.6h-2.45v-1.99h2.45v-1.087q0-2.603 1.211-3.786 1.212-1.197 3.843-1.197z" id="prefix__path5308" opacity="1"/><path d="M982.47 467.352v1.253h-11.776q.167 2.645 1.587 4.037 1.434 1.379 3.981 1.379 1.476 0 2.854-.362 1.392-.362 2.756-1.086v2.422q-1.378.585-2.826.89-1.447.307-2.937.307-3.73 0-5.916-2.171-2.172-2.172-2.172-5.875 0-3.828 2.06-6.07 2.075-2.255 5.583-2.255 3.146 0 4.97 2.033 1.837 2.018 1.837 5.498zm-2.56-.751q-.028-2.102-1.184-3.355-1.141-1.253-3.035-1.253-2.143 0-3.438 1.211-1.28 1.211-1.476 3.41z" id="prefix__path5310" opacity="1"/><path d="M996.615 460.656v2.423q-1.086-.557-2.256-.836-1.169-.278-2.422-.278-1.907 0-2.868.585-.946.584-.946 1.754 0 .89.682 1.406.682.5 2.742.96l.877.195q2.729.585 3.87 1.657 1.156 1.058 1.156 2.965 0 2.172-1.726 3.438-1.713 1.267-4.72 1.267-1.252 0-2.617-.25-1.35-.237-2.853-.724v-2.645q1.42.738 2.798 1.113 1.378.362 2.728.362 1.81 0 2.784-.612.975-.627.975-1.754 0-1.044-.71-1.601-.696-.557-3.077-1.072l-.89-.209q-2.381-.501-3.44-1.531-1.057-1.044-1.057-2.854 0-2.2 1.559-3.397 1.56-1.197 4.427-1.197 1.42 0 2.673.209 1.253.209 2.31.626z" id="prefix__path5312" opacity="1"/><path d="M1004.076 455.77v4.427h5.276v1.99h-5.276v8.465q0 1.907.515 2.45.53.543 2.13.543h2.631v2.143h-2.63q-2.966 0-4.094-1.1-1.127-1.113-1.127-4.036v-8.464h-1.88v-1.99h1.88v-4.428z" id="prefix__path5314" opacity="1"/><path d="M1012.735 460.197h2.561v15.591h-2.561zm0-6.07h2.561v3.244h-2.561z" id="prefix__path5316" opacity="1"/><path d="M1018.804 460.197h2.715l4.872 13.086 4.873-13.086h2.714l-5.847 15.591h-3.48z" id="prefix__path5318" opacity="1"/><path d="M1037.25 469.635v-9.438h2.561v9.341q0 2.213.863 3.327.863 1.1 2.59 1.1 2.074 0 3.27-1.323 1.212-1.322 1.212-3.605v-8.84h2.561v15.591h-2.561v-2.394q-.933 1.42-2.172 2.116-1.225.682-2.854.682-2.686 0-4.078-1.67-1.392-1.67-1.392-4.887zm6.445-9.814z" id="prefix__path5320" opacity="1"/><path d="M1065.55 460.656v2.423q-1.085-.557-2.254-.836-1.17-.278-2.423-.278-1.907 0-2.867.585-.947.584-.947 1.754 0 .89.682 1.406.682.5 2.743.96l.877.195q2.728.585 3.87 1.657 1.155 1.058 1.155 2.965 0 2.172-1.726 3.438-1.712 1.267-4.72 1.267-1.252 0-2.617-.25-1.35-.237-2.853-.724v-2.645q1.42.738 2.798 1.113 1.378.362 2.728.362 1.81 0 2.784-.612.975-.627.975-1.754 0-1.044-.71-1.601-.696-.557-3.076-1.072l-.891-.209q-2.38-.501-3.439-1.531-1.058-1.044-1.058-2.854 0-2.2 1.56-3.397 1.558-1.197 4.426-1.197 1.42 0 2.673.209 1.253.209 2.31.626z" id="prefix__path5322" opacity="1"/></g><g aria-label="jingle-bells" style="line-height:normal" id="prefix__text4609" transform="translate(-395.113)" font-style="normal" font-variant="normal" font-weight="400" font-stretch="normal" font-size="33.784" font-family="Josefin Sans" text-anchor="start" opacity="1" fill="#15e80c" fill-opacity="1" stroke="none"><path d="M940.166 285.595h3.036V304.4q0 3.53-1.353 5.113-1.336 1.584-4.322 1.584h-1.155v-2.573h.809q1.732 0 2.359-.809.626-.792.626-3.315zm0-7.193h3.036v3.844h-3.036z" style="line-height:normal" id="prefix__path5283" opacity="1"/><path d="M949.536 285.595h3.036v18.476h-3.036zm0-7.193h3.036v3.844h-3.036z" style="line-height:normal" id="prefix__path5285" opacity="1"/><path d="M974.264 292.92v11.15h-3.035v-11.052q0-2.623-1.023-3.926t-3.068-1.303q-2.458 0-3.877 1.567-1.418 1.567-1.418 4.273v10.442h-3.052v-18.476h3.052v2.87q1.088-1.666 2.556-2.49 1.485-.826 3.415-.826 3.184 0 4.817 1.98 1.633 1.963 1.633 5.79z" style="line-height:normal" id="prefix__path5287" opacity="1"/><path d="M992.51 294.618q0-3.299-1.37-5.114-1.353-1.814-3.81-1.814-2.442 0-3.811 1.814-1.353 1.815-1.353 5.114 0 3.283 1.353 5.098 1.369 1.814 3.81 1.814 2.458 0 3.81-1.814 1.37-1.815 1.37-5.098zm3.034 7.16q0 4.718-2.095 7.01-2.095 2.31-6.417 2.31-1.6 0-3.018-.247-1.42-.231-2.755-.726v-2.953q1.336.726 2.64 1.072 1.302.347 2.655.347 2.986 0 4.47-1.568 1.485-1.55 1.485-4.701v-1.501q-.94 1.633-2.408 2.441-1.468.809-3.514.809-3.398 0-5.477-2.59-2.078-2.59-2.078-6.863 0-4.289 2.078-6.879 2.079-2.59 5.477-2.59 2.046 0 3.514.809 1.468.808 2.408 2.441v-2.804h3.035z" style="line-height:normal" id="prefix__path5289" opacity="1"/><path d="M1001.797 278.402h3.035v25.669h-3.035z" style="line-height:normal" id="prefix__path5291" opacity="1"/><path d="M1026.97 294.074v1.485h-13.956q.198 3.134 1.88 4.783 1.7 1.634 4.718 1.634 1.75 0 3.382-.43 1.65-.428 3.266-1.286v2.87q-1.633.693-3.348 1.056-1.716.363-3.48.363-4.422 0-7.012-2.573-2.573-2.574-2.573-6.962 0-4.536 2.441-7.192 2.458-2.673 6.615-2.673 3.728 0 5.89 2.409 2.177 2.392 2.177 6.516zm-3.035-.89q-.033-2.492-1.403-3.977-1.352-1.484-3.596-1.484-2.54 0-4.074 1.435-1.518 1.435-1.749 4.042z" style="line-height:normal" id="prefix__path5293" opacity="1"/><path d="M1030.418 293.464h8.891v2.705h-8.891z" style="line-height:normal" id="prefix__path5295" opacity="1"/><path d="M1057.422 294.85q0-3.35-1.386-5.247-1.369-1.913-3.777-1.913-2.409 0-3.795 1.913-1.369 1.897-1.369 5.246t1.37 5.263q1.385 1.897 3.794 1.897 2.408 0 3.777-1.897 1.386-1.914 1.386-5.263zm-10.327-6.45q.957-1.65 2.409-2.442 1.468-.809 3.497-.809 3.365 0 5.46 2.673 2.112 2.672 2.112 7.027t-2.112 7.028q-2.095 2.672-5.46 2.672-2.03 0-3.497-.792-1.452-.808-2.409-2.458v2.772h-3.052v-25.669h3.052z" style="line-height:normal" id="prefix__path5297" opacity="1"/><path d="M1081.408 294.074v1.485h-13.956q.198 3.134 1.88 4.783 1.7 1.634 4.718 1.634 1.749 0 3.382-.43 1.65-.428 3.266-1.286v2.87q-1.633.693-3.348 1.056-1.716.363-3.481.363-4.421 0-7.011-2.573-2.574-2.574-2.574-6.962 0-4.536 2.442-7.192 2.458-2.673 6.615-2.673 3.728 0 5.89 2.409 2.177 2.392 2.177 6.516zm-3.036-.89q-.033-2.492-1.402-3.977-1.353-1.484-3.596-1.484-2.54 0-4.075 1.435-1.517 1.435-1.748 4.042z" style="line-height:normal" id="prefix__path5299" opacity="1"/><path d="M1086.39 278.402h3.035v25.669h-3.036z" style="line-height:normal" id="prefix__path5301" opacity="1"/><path d="M1095.76 278.402h3.035v25.669h-3.036z" style="line-height:normal" id="prefix__path5303" opacity="1"/><path d="M1116.908 286.14v2.87q-1.287-.66-2.673-.99-1.385-.33-2.87-.33-2.26 0-3.398.693-1.122.693-1.122 2.078 0 1.056.808 1.666.808.594 3.25 1.139l1.04.23q3.232.693 4.585 1.964 1.37 1.253 1.37 3.513 0 2.574-2.046 4.075-2.03 1.501-5.592 1.501-1.485 0-3.102-.297-1.6-.28-3.381-.858v-3.134q1.682.874 3.315 1.32 1.633.429 3.233.429 2.145 0 3.3-.726 1.154-.743 1.154-2.079 0-1.237-.84-1.897-.826-.66-3.646-1.27l-1.056-.247q-2.821-.594-4.075-1.815-1.254-1.237-1.254-3.382 0-2.606 1.848-4.025 1.848-1.419 5.246-1.419 1.682 0 3.167.248 1.485.247 2.739.742z" style="line-height:normal" id="prefix__path5305" opacity="1"/></g><g aria-label="reindeer" transform="matrix(1.01164 0 0 1.4092 -431.613 -259.837)" id="prefix__text4611" font-size="18.086" text-anchor="start" opacity="1" fill="#69be59" fill-opacity="1" stroke="none" stroke-width="1.507"><path d="M966.772 667.27q-.274-.159-.6-.23-.319-.079-.707-.079-1.378 0-2.12.901-.733.892-.733 2.57v5.21h-1.633v-9.89h1.633v1.536q.513-.9 1.334-1.333.821-.442 1.996-.442.167 0 .37.027.204.017.451.061z" id="prefix__path5266" opacity="1"/><path d="M976.565 670.29v.795h-7.47q.105 1.678 1.006 2.561.91.875 2.526.875.936 0 1.81-.23.883-.23 1.748-.689v1.537q-.874.37-1.792.565-.919.194-1.863.194-2.367 0-3.754-1.377-1.377-1.378-1.377-3.727 0-2.429 1.307-3.85 1.316-1.43 3.54-1.43 1.997 0 3.154 1.288 1.165 1.28 1.165 3.489zm-1.625-.476q-.017-1.334-.75-2.129-.724-.794-1.925-.794-1.36 0-2.182.768-.812.768-.936 2.164z" id="prefix__path5268" opacity="1"/><path d="M979.232 665.752h1.625v9.89h-1.625zm0-3.85h1.625v2.057h-1.625z" id="prefix__path5270" opacity="1"/><path d="M992.47 669.672v5.97h-1.625v-5.917q0-1.404-.548-2.101-.547-.698-1.642-.698-1.316 0-2.076.839t-.76 2.287v5.59h-1.633v-9.89h1.634v1.536q.583-.892 1.369-1.333.794-.442 1.828-.442 1.704 0 2.578 1.06.875 1.05.875 3.1z" id="prefix__path5272" opacity="1"/><path d="M1002.236 667.253V661.9h1.625v13.741h-1.624v-1.484q-.513.884-1.299 1.316-.777.424-1.872.424-1.792 0-2.923-1.43-1.121-1.431-1.121-3.762 0-2.332 1.121-3.762 1.13-1.43 2.923-1.43 1.095 0 1.872.432.786.424 1.299 1.307zm-5.536 3.453q0 1.792.732 2.817.742 1.015 2.032 1.015 1.289 0 2.03-1.015.742-1.025.742-2.817 0-1.793-.741-2.809-.742-1.024-2.031-1.024-1.29 0-2.032 1.024-.732 1.016-.732 2.809z" id="prefix__path5274" opacity="1"/><path d="M1015.668 670.29v.795h-7.47q.105 1.678 1.006 2.561.91.875 2.526.875.936 0 1.81-.23.883-.23 1.749-.689v1.537q-.875.37-1.793.565-.919.194-1.863.194-2.367 0-3.754-1.377-1.377-1.378-1.377-3.727 0-2.429 1.307-3.85 1.316-1.43 3.54-1.43 1.997 0 3.154 1.288 1.165 1.28 1.165 3.489zm-1.625-.476q-.018-1.334-.75-2.129-.724-.794-1.925-.794-1.36 0-2.182.768-.812.768-.936 2.164z" id="prefix__path5276" opacity="1"/><path d="M1026.795 670.29v.795h-7.47q.105 1.678 1.006 2.561.91.875 2.526.875.936 0 1.81-.23.883-.23 1.748-.689v1.537q-.874.37-1.792.565-.919.194-1.864.194-2.366 0-3.753-1.377-1.377-1.378-1.377-3.727 0-2.429 1.307-3.85 1.315-1.43 3.54-1.43 1.997 0 3.153 1.288 1.166 1.28 1.166 3.489zm-1.625-.476q-.018-1.334-.75-2.129-.725-.794-1.926-.794-1.36 0-2.18.768-.813.768-.937 2.164z" id="prefix__path5278" opacity="1"/><path d="M1035.193 667.27q-.274-.159-.6-.23-.318-.079-.707-.079-1.377 0-2.12.901-.732.892-.732 2.57v5.21h-1.634v-9.89h1.634v1.536q.512-.9 1.333-1.333.822-.442 1.996-.442.168 0 .371.027.203.017.45.061z" id="prefix__path5280" opacity="1"/></g><g aria-label="cocoa" transform="matrix(1.04463 -.39646 .29245 1.41613 -503.05 -278.36)" id="prefix__text4613" font-size="18.086" text-anchor="start" opacity="1" fill="#4dd636" fill-opacity="1" stroke="none" stroke-width="1.507"><path d="M767.778 866.769v1.519q-.689-.38-1.387-.566-.688-.194-1.395-.194-1.58 0-2.455 1.007-.874.998-.874 2.808 0 1.81.874 2.817.874.998 2.455.998.707 0 1.395-.185.698-.195 1.387-.574v1.5q-.68.319-1.413.478-.724.159-1.546.159-2.234 0-3.55-1.404-1.315-1.405-1.315-3.789 0-2.42 1.324-3.806 1.334-1.386 3.647-1.386.751 0 1.466.159.716.15 1.387.459z" id="prefix__path5255" opacity="1"/><path d="M774.454 867.528q-1.307 0-2.066 1.025-.76 1.015-.76 2.79 0 1.775.75 2.8.76 1.015 2.076 1.015 1.298 0 2.058-1.024.759-1.025.759-2.79 0-1.758-.76-2.783-.759-1.033-2.057-1.033zm0-1.377q2.12 0 3.33 1.377 1.209 1.378 1.209 3.815 0 2.429-1.21 3.815-1.21 1.378-3.33 1.378-2.127 0-3.337-1.378-1.201-1.386-1.201-3.815 0-2.437 1.2-3.815 1.21-1.377 3.339-1.377z" id="prefix__path5257" opacity="1"/><path d="M788.795 866.769v1.519q-.689-.38-1.386-.566-.689-.194-1.395-.194-1.581 0-2.455 1.007-.875.998-.875 2.808 0 1.81.875 2.817.874.998 2.455.998.706 0 1.395-.185.697-.195 1.386-.574v1.5q-.68.319-1.413.478-.724.159-1.545.159-2.234 0-3.55-1.404-1.316-1.405-1.316-3.789 0-2.42 1.325-3.806 1.333-1.386 3.647-1.386.75 0 1.466.159.715.15 1.386.459z" id="prefix__path5259" opacity="1"/><path d="M795.471 867.528q-1.307 0-2.066 1.025-.76 1.015-.76 2.79 0 1.775.751 2.8.76 1.015 2.075 1.015 1.298 0 2.058-1.024.76-1.025.76-2.79 0-1.758-.76-2.783-.76-1.033-2.058-1.033zm0-1.377q2.12 0 3.33 1.377 1.21 1.378 1.21 3.815 0 2.429-1.21 3.815-1.21 1.378-3.33 1.378-2.128 0-3.338-1.378-1.2-1.386-1.2-3.815 0-2.437 1.2-3.815 1.21-1.377 3.338-1.377z" id="prefix__path5261" opacity="1"/><path d="M807.19 871.308q-1.97 0-2.729.45-.76.45-.76 1.537 0 .865.566 1.377.574.504 1.554.504 1.351 0 2.164-.954.82-.963.82-2.552v-.362zm3.24-.671v5.643h-1.624v-1.502q-.556.901-1.387 1.334-.83.424-2.03.424-1.52 0-2.42-.848-.892-.857-.892-2.287 0-1.67 1.112-2.517 1.122-.848 3.339-.848h2.278v-.159q0-1.121-.742-1.73-.733-.619-2.066-.619-.848 0-1.652.203-.803.203-1.545.61v-1.502q.892-.344 1.73-.512.84-.176 1.634-.176 2.146 0 3.206 1.112 1.06 1.113 1.06 3.374z" id="prefix__path5263" opacity="1"/></g><g aria-label="snowman" transform="translate(626.887 512)" style="line-height:normal" id="prefix__text4615" font-style="normal" font-variant="normal" font-weight="400" font-stretch="normal" font-size="22.523" font-family="Josefin Sans" text-anchor="start" opacity="1" fill="red" stroke="none"><path d="M-36.563-.8v1.914q-.858-.44-1.781-.66-.924-.22-1.914-.22-1.507 0-2.265.462-.748.462-.748 1.386 0 .704.539 1.11.538.396 2.166.76l.693.153q2.155.462 3.057 1.309.913.836.913 2.342 0 1.716-1.364 2.717-1.352 1-3.728 1-.99 0-2.067-.197-1.067-.187-2.255-.572v-2.09q1.122.583 2.21.88 1.09.286 2.156.286 1.43 0 2.2-.484.77-.495.77-1.386 0-.824-.561-1.264-.55-.44-2.43-.847l-.705-.165q-1.88-.396-2.716-1.21-.836-.825-.836-2.254 0-1.738 1.232-2.684 1.232-.946 3.497-.946 1.122 0 2.112.165t1.825.495z" style="line-height:normal" id="prefix__path5240" opacity="1"/><path d="M-22.431 3.72v7.435h-2.024V3.786q0-1.748-.681-2.617Q-25.818.3-27.182.3q-1.639 0-2.584 1.045-.946 1.045-.946 2.848v6.962h-2.035V-1.163h2.035V.751q.726-1.11 1.704-1.66.99-.55 2.277-.55 2.122 0 3.211 1.32 1.089 1.308 1.089 3.86z" style="line-height:normal" id="prefix__path5242" opacity="1"/><path d="M-13.6.256q-1.628 0-2.573 1.276-.946 1.265-.946 3.475t.935 3.486q.945 1.265 2.584 1.265 1.617 0 2.562-1.276.946-1.275.946-3.475 0-2.188-.946-3.464Q-11.983.256-13.6.256zm0-1.716q2.64 0 4.146 1.716 1.507 1.716 1.507 4.751 0 3.024-1.507 4.75-1.507 1.717-4.146 1.717-2.65 0-4.157-1.716-1.496-1.727-1.496-4.751 0-3.035 1.496-4.75Q-16.25-1.46-13.6-1.46z" style="line-height:normal" id="prefix__path5244" opacity="1"/><path d="M-5.78-1.163h2.023l2.53 9.612L1.29-1.163h2.386l2.53 9.612 2.518-9.612h2.024L7.526 11.155H5.14L2.49 1.059-.173 11.155h-2.386z" style="line-height:normal" id="prefix__path5246" opacity="1"/><path d="M23.418 1.202q.758-1.364 1.814-2.013 1.056-.649 2.486-.649 1.924 0 2.969 1.353 1.045 1.342 1.045 3.827v7.435h-2.035V3.786q0-1.77-.627-2.628Q28.444.3 27.157.3q-1.573 0-2.486 1.045-.912 1.045-.912 2.848v6.962h-2.035V3.786q0-1.781-.627-2.628Q20.47.3 19.162.3q-1.551 0-2.464 1.056-.913 1.045-.913 2.837v6.962h-2.034V-1.163h2.034V.751q.693-1.133 1.661-1.672.968-.539 2.298-.539 1.342 0 2.277.682.946.682 1.397 1.98z" style="line-height:normal" id="prefix__path5248" opacity="1"/><path d="M41.377 4.963q-2.453 0-3.399.56-.945.562-.945 1.914 0 1.078.703 1.716.715.627 1.936.627 1.683 0 2.694-1.188 1.023-1.199 1.023-3.178v-.451zm4.036-.836v7.028h-2.024v-1.87q-.693 1.122-1.726 1.66-1.034.529-2.53.529-1.891 0-3.013-1.056-1.111-1.067-1.111-2.849 0-2.078 1.386-3.134Q37.79 3.38 40.552 3.38h2.837v-.198q0-1.396-.924-2.155-.912-.77-2.573-.77-1.056 0-2.057.253-1 .253-1.924.759v-1.87q1.11-.429 2.155-.638 1.045-.22 2.035-.22 2.672 0 3.992 1.386 1.32 1.386 1.32 4.201z" style="line-height:normal" id="prefix__path5250" opacity="1"/><path d="M59.83 3.72v7.435h-2.023V3.786q0-1.748-.682-2.617T55.079.3q-1.638 0-2.584 1.045-.946 1.045-.946 2.848v6.962h-2.034V-1.163h2.034V.751q.726-1.11 1.705-1.66.99-.55 2.276-.55 2.123 0 3.212 1.32 1.088 1.308 1.088 3.86z" style="line-height:normal" id="prefix__path5252" opacity="1"/></g></svg>