<svg xmlns="http://www.w3.org/2000/svg" xmlns:xlink="http://www.w3.org/1999/xlink" viewBox="0 0 141.732 141.732"><path d="M111.51 112.76c-8.696.001-21.031 1.428-34.504 4.229-25.155 5.229-44.748 13.266-43.776 17.955.452 2.173 5.259 3.244 12.8 3.244 8.696 0 21.027-1.425 34.495-4.226 25.154-5.229 44.748-13.266 43.775-17.955-.45-2.17-5.25-3.24-12.79-3.24" fill="#9B9C9D"/><defs><path id="prefix__a" d="M26.788 22.423l8.559-7.938a38.11 38.11 0 014.005-3.231 35.574 35.574 0 014.374-2.619 37.693 37.693 0 014.707-1.998 39.05 39.05 0 015.013-1.35c.378-.072.765-.144 1.152-.216.387-.063.783-.126 1.17-.18.396-.054.792-.099 1.188-.144s.792-.081 1.188-.117c.333-.027.666-.045.999-.072.333-.018.666-.027.999-.045.333-.009.657-.018.99-.018.333-.009.666-.009.999 0a47.61 47.61 0 019.135.99 55.216 55.216 0 018.892 2.655 64.092 64.092 0 018.514 4.086 73.762 73.762 0 018.037 5.364 78.243 78.243 0 018.19 7.245 84.002 84.002 0 017.325 8.469 87.193 87.193 0 016.301 9.585 87.707 87.707 0 015.094 10.62 82.553 82.553 0 013.563 11.097c.9 3.69 1.513 7.344 1.846 10.935.323 3.609.378 7.155.144 10.602a58.746 58.746 0 01-1.539 10.071l-10.971 4.464a56.86 56.86 0 001.665-9.801c.279-3.357.288-6.804.009-10.323a71.982 71.982 0 00-1.665-10.62 79.313 79.313 0 00-3.375-10.773c-1.413-3.591-3.06-7.029-4.905-10.296a81.26 81.26 0 00-13.238-17.433 77.269 77.269 0 00-8.02-6.948 71.06 71.06 0 00-7.866-5.103 61.85 61.85 0 00-8.36-3.852c-2.871-1.062-5.787-1.89-8.73-2.439a47.282 47.282 0 00-8.991-.828c-.324.009-.648.009-.972.018-.333.009-.657.027-.981.045a33.7 33.7 0 00-.981.063c-.324.018-.657.045-.981.081-.396.036-.792.081-1.179.135-.387.045-.774.099-1.161.162-.387.054-.774.126-1.152.189a42.03 42.03 0 00-1.134.234c-1.701.36-3.348.828-4.941 1.395A38.26 38.26 0 0035.06 16.6a38.843 38.843 0 00-4.32 2.619 39.094 39.094 0 00-3.941 3.202"/></defs><clipPath id="prefix__b"><use overflow="visible" xlink:href="#prefix__a"/></clipPath><path d="M127.63 96.212l-10.973 4.47.075-.286.073-.287.072-.288.07-.288 10.958-4.5-.067.296-.068.295c-.022.099-.046.197-.069.295s-.05.204-.07.302" clip-path="url(#prefix__b)"/><path d="M127.91 95.032l-10.958 4.5a53.945 53.945 0 00.759-3.706c.071-.417.138-.835.199-1.256l10.894-4.634a53.371 53.371 0 01-.392 2.57c-.074.425-.153.848-.237 1.269s-.17.84-.26 1.257M128.8 89.937l-10.894 4.634a62.59 62.59 0 00.325-2.632 57.613 57.613 0 00.209-2.668l10.821-4.778a66.93 66.93 0 01-.302 4.097c-.06.451-.11.9-.17 1.347" clip-path="url(#prefix__b)"/><path d="M129.26 84.492l-10.821 4.778a64.275 64.275 0 00.095-2.935 60.878 60.878 0 00-.04-2.968l10.733-4.941a71.87 71.87 0 01.085 3.051c.003.506 0 1.011-.009 1.513.01.502-.01 1.003-.03 1.502" clip-path="url(#prefix__b)"/><path d="M129.23 78.426l-10.733 4.941a67.46 67.46 0 00-.577-6.667l10.629-5.13a75.078 75.078 0 01.425 3.445c.056.572.106 1.142.149 1.71.05.569.08 1.136.11 1.701" clip-path="url(#prefix__b)"/><path d="M128.55 71.57l-10.63 5.13a71 71 0 00-1.258-6.79l10.517-5.326a74.59 74.59 0 011.092 5.248c.1.581.19 1.16.28 1.738" clip-path="url(#prefix__b)"/><path d="M127.18 64.583l-10.517 5.326a77.457 77.457 0 00-1.497-5.455c-.19-.607-.39-1.215-.598-1.824l10.391-5.542a79.612 79.612 0 011.21 3.754c.186.625.362 1.249.53 1.873a44 44 0 01.49 1.868" clip-path="url(#prefix__b)"/><path d="M124.96 57.087l-10.391 5.542a74.381 74.381 0 00-.615-1.734 77.18 77.18 0 00-1.74-4.347 86.483 86.483 0 00-1.16-2.553l10.232-5.811a92.314 92.314 0 011.782 3.974 95.965 95.965 0 01.907 2.249 80.494 80.494 0 01.668 1.788c.107.298.21.595.32.892M121.28 48.185l-10.232 5.811a81.855 81.855 0 00-4.777-8.656 81.242 81.242 0 00-5.648-7.844 79.048 79.048 0 00-6.415-6.977 74.955 74.955 0 00-7.078-6.03 68.985 68.985 0 00-7.868-5.103 61.256 61.256 0 00-8.358-3.856 53.53 53.53 0 00-8.734-2.441 46.835 46.835 0 00-8.986-.822 39.875 39.875 0 00-1.957.058 46.333 46.333 0 00-1.961.146 44.02 44.02 0 00-2.34.294 42.479 42.479 0 00-2.289.422c-1.7.364-3.348.832-4.94 1.4a37.39 37.39 0 00-12.911 7.839l8.561-7.94a37.174 37.174 0 014-3.228 36.582 36.582 0 019.081-4.614 38.616 38.616 0 016.17-1.567 43.81 43.81 0 012.351-.327 42.04 42.04 0 014.183-.255c.331-.004.663-.004.994-.001 3.051.03 6.107.373 9.137.997a55.101 55.101 0 018.89 2.65 63.822 63.822 0 018.519 4.092 72.613 72.613 0 018.031 5.356 79.383 79.383 0 017.239 6.289 83.945 83.945 0 016.578 7.247 86.552 86.552 0 015.816 8.122 85.024 85.024 0 014.94 8.938" clip-path="url(#prefix__b)"/><defs><path id="prefix__c" d="M34.888 28.534c1.737-1.503 3.465-3.006 5.202-4.509 1.197-1.044 2.394-2.088 3.591-3.123a31.008 31.008 0 013.888-2.88 30.036 30.036 0 014.275-2.223 30.498 30.498 0 014.635-1.566 34.984 34.984 0 014.959-.882 38.098 38.098 0 018.649.135c2.854.36 5.688 1.026 8.487 1.962a52.73 52.73 0 018.153 3.573 59.876 59.876 0 017.687 4.959 68.036 68.036 0 017.083 6.183 73.625 73.625 0 016.318 7.272 74.888 74.888 0 015.427 8.262 74.914 74.914 0 014.383 9.18c1.269 3.213 2.286 6.408 3.033 9.567a62.679 62.679 0 011.529 9.396c.262 3.096.271 6.129.046 9.072a47.971 47.971 0 01-1.423 8.568l-10.826 4.671a47.442 47.442 0 001.521-8.344c.271-2.861.297-5.813.081-8.829a59.898 59.898 0 00-1.377-9.125 66.143 66.143 0 00-2.871-9.288 70.771 70.771 0 00-4.221-8.892 68.704 68.704 0 00-5.256-7.974 66.999 66.999 0 00-6.156-7.002 62.984 62.984 0 00-6.912-5.931 58.023 58.023 0 00-7.533-4.725 51.27 51.27 0 00-8.001-3.357c-2.745-.864-5.535-1.476-8.334-1.782a37.933 37.933 0 00-8.514.009 34.005 34.005 0 00-4.887.936 31.88 31.88 0 00-4.572 1.593 30.976 30.976 0 00-4.221 2.241c-1.353.846-2.64 1.8-3.846 2.853"/></defs><clipPath id="prefix__d"><use overflow="visible" xlink:href="#prefix__c"/></clipPath><path clip-path="url(#prefix__d)" fill="#D1D2D3" d="M120.81 91.479l-10.83 4.671.07-.238.06-.24.07-.239.06-.242 10.82-4.696-.06.247-.06.246-.06.246-.07.245"/><path clip-path="url(#prefix__d)" d="M121.06 90.495l-10.821 4.696a43.882 43.882 0 00.482-2.093c.073-.352.142-.705.206-1.061s.126-.712.183-1.07l10.771-4.81a49.285 49.285 0 01-.819 4.338" fill="#CECFD0"/><path clip-path="url(#prefix__d)" d="M121.88 86.158l-10.771 4.81a49.918 49.918 0 00.506-4.516l10.71-4.934a54.836 54.836 0 01-.296 3.493l-.15 1.147" fill="#CBCCCD"/><path clip-path="url(#prefix__d)" d="M122.32 81.519l-10.71 4.934a51.234 51.234 0 00.106-2.503 53.149 53.149 0 00-.012-2.535l10.638-5.074a57.622 57.622 0 01.028 3.898c-.012.429-.03.855-.06 1.28" fill="#C8C9CA"/><path clip-path="url(#prefix__d)" d="M122.35 76.34l-10.638 5.074a52.035 52.035 0 00-.153-2.839 53.93 53.93 0 00-.131-1.431 54.588 54.588 0 00-.167-1.438l10.55-5.236a59.216 59.216 0 01.342 2.951c.045.49.084.978.116 1.464.03.487.05.971.08 1.455" fill="#C5C6C8"/><path clip-path="url(#prefix__d)" d="M121.81 70.47l-10.55 5.236a68.355 68.355 0 00-.205-1.451 64.12 64.12 0 00-.523-2.919 60.121 60.121 0 00-.318-1.467l10.455-5.408a70.952 70.952 0 01.647 3.015c.095.501.184 1.001.266 1.5.07.5.15.998.22 1.494" fill="#C2C3C5"/><path clip-path="url(#prefix__d)" d="M120.67 64.461l-10.455 5.408a61.439 61.439 0 00-.804-3.138 69.986 69.986 0 00-.978-3.153l10.346-5.598a71.831 71.831 0 011.483 4.868c.13.538.27 1.076.4 1.613" fill="#BFC0C2"/><path clip-path="url(#prefix__d)" d="M118.78 57.98l-10.346 5.598a83.98 83.98 0 00-.528-1.504l-.279-.753a71.359 71.359 0 00-1.714-4.137 73.303 73.303 0 00-.51-1.102l10.207-5.834a84.353 84.353 0 011.045 2.287c.168.386.333.774.496 1.164a87.647 87.647 0 01.781 1.954 71.884 71.884 0 01.575 1.552c.1.258.19.517.28.775" fill="#BCBDBF"/><path clip-path="url(#prefix__d)" d="M115.61 50.247l-10.207 5.834a69.44 69.44 0 00-4.109-7.459 68.808 68.808 0 00-4.867-6.742 66.7 66.7 0 00-5.53-5.975 63.027 63.027 0 00-6.101-5.14 57.586 57.586 0 00-7.533-4.724 50.189 50.189 0 00-8.003-3.352 43.115 43.115 0 00-8.334-1.786 37.748 37.748 0 00-8.513.011 34.683 34.683 0 00-4.886.932 32.408 32.408 0 00-4.57 1.595 31.477 31.477 0 00-8.06 5.09l8.793-7.632a30.841 30.841 0 018.158-5.105 31.991 31.991 0 014.635-1.564c1.595-.406 3.25-.7 4.96-.876a38.054 38.054 0 018.651.128 44.032 44.032 0 018.481 1.969 52.026 52.026 0 018.157 3.567 60.367 60.367 0 017.69 4.963 67.001 67.001 0 016.243 5.364 70.988 70.988 0 015.674 6.208 73.465 73.465 0 015.014 6.984 74.339 74.339 0 014.27 7.71" fill="#B9BABC"/><path fill="#871B1D" d="M111.75 65.409l-10.37 5.489-6.296-16.306 10.076-6.015z"/><defs><path id="prefix__e" d="M101.93 126.15c-3.681 1.26-7.361 2.52-11.052 3.771.153-.045.306-.099.459-.153.145-.054.297-.107.441-.162.152-.054.306-.116.449-.171.153-.054.298-.116.45-.171a37.69 37.69 0 008.676-4.859 38.06 38.06 0 006.858-6.643c1.98-2.447 3.672-5.139 5.085-8.019a49.133 49.133 0 003.366-9.063l10.971-4.464c-.81 3.258-1.898 6.381-3.267 9.297-1.386 2.961-3.061 5.715-5.022 8.217a38.03 38.03 0 01-6.857 6.796 37.146 37.146 0 01-8.748 4.959c-.145.054-.297.116-.45.171-.145.054-.297.116-.45.171-.153.054-.297.107-.45.162-.15.04-.31.09-.46.15"/></defs><clipPath id="prefix__f"><use overflow="visible" xlink:href="#prefix__e"/></clipPath><path d="M101.93 126.15l-11.048 3.773.451-.157a34.179 34.179 0 001.341-.505 36.993 36.993 0 001.876-.805 36.302 36.302 0 001.802-.889 36.717 36.717 0 003.384-2.016l11.122-3.851a36.803 36.803 0 01-7.116 3.776c-.149.06-.3.118-.449.176-.15.058-.302.115-.452.171-.151.056-.303.11-.455.165-.17.04-.32.1-.47.15" clip-path="url(#prefix__f)"/><path d="M110.86 121.7l-11.122 3.851a37.492 37.492 0 003.982-3.074 38.353 38.353 0 003.493-3.517l11.129-4.001a38.395 38.395 0 01-3.489 3.601 37.332 37.332 0 01-4.003 3.151" clip-path="url(#prefix__f)"/><path d="M118.34 114.96l-11.129 4.001a40.187 40.187 0 002.006-2.492 40.284 40.284 0 001.806-2.64l11.103-4.127a44.08 44.08 0 01-1.79 2.705c-.315.439-.64.871-.972 1.296-.34.44-.68.86-1.03 1.27" clip-path="url(#prefix__f)"/><path d="M122.12 109.7l-11.103 4.127a44.368 44.368 0 002.619-4.796l11.063-4.251a47.155 47.155 0 01-1.217 2.507c-.215.41-.436.816-.662 1.219-.22.41-.46.81-.7 1.2" clip-path="url(#prefix__f)"/><path d="M124.7 104.78l-11.063 4.251a44.35 44.35 0 001.016-2.328 51.994 51.994 0 00.898-2.392l11.014-4.373a53.597 53.597 0 01-.872 2.455c-.155.404-.315.805-.481 1.203-.15.4-.32.79-.5 1.18" clip-path="url(#prefix__f)"/><path d="M126.57 99.94l-11.014 4.373a52.293 52.293 0 00.854-2.712c.087-.305.171-.611.252-.919l10.973-4.47a56.532 56.532 0 01-.773 2.809c-.1.309-.19.616-.29.921" clip-path="url(#prefix__f)"/><defs><path id="prefix__g" d="M100.09 115.8l-10.89 4.122a31.714 31.714 0 007.443-3.933 32.333 32.333 0 005.922-5.481c1.719-2.034 3.194-4.284 4.437-6.705a41.423 41.423 0 002.979-7.649l10.826-4.671a41.617 41.617 0 01-2.897 7.848 35.442 35.442 0 01-4.401 6.867 31.791 31.791 0 01-5.922 5.606 31.603 31.603 0 01-7.5 3.99"/></defs><clipPath id="prefix__h"><use overflow="visible" xlink:href="#prefix__g"/></clipPath><path clip-path="url(#prefix__h)" d="M100.09 115.8l-10.886 4.125a34.184 34.184 0 001.61-.646 32.343 32.343 0 004.461-2.366l10.937-4.171c-.469.303-.947.594-1.436.872a30.592 30.592 0 01-3.061 1.532c-.53.25-1.07.46-1.62.67" fill="#E0E0E1"/><path clip-path="url(#prefix__h)" d="M106.21 112.74l-10.937 4.171a31.345 31.345 0 003.422-2.52 32.08 32.08 0 003.016-2.907l10.95-4.287a31.263 31.263 0 01-4.681 4.31c-.57.44-1.16.85-1.77 1.24" fill="#DDDDDE"/><path clip-path="url(#prefix__h)" d="M112.66 107.2l-10.95 4.287a33.025 33.025 0 001.738-2.07c.275-.355.544-.717.807-1.084.261-.367.516-.739.764-1.116l10.933-4.389a35.947 35.947 0 01-1.559 2.255c-.274.364-.556.724-.844 1.076-.29.35-.58.7-.89 1.04" fill="#DADBDC"/><path clip-path="url(#prefix__h)" d="M115.95 102.83l-10.933 4.389a34.868 34.868 0 001.204-1.97 38.091 38.091 0 001.085-2.05l10.902-4.488a38.566 38.566 0 01-1.648 3.123c-.21.35-.41.69-.62 1.02" fill="#D7D8D9"/><path clip-path="url(#prefix__h)" d="M118.21 98.707l-10.902 4.488a39.413 39.413 0 001.305-2.964c.133-.337.261-.676.385-1.018l10.865-4.591a40.354 40.354 0 01-1.2 3.086c-.14.328-.29.66-.45.99" fill="#D4D5D6"/><path clip-path="url(#prefix__h)" d="M119.86 94.623l-10.865 4.591a39.699 39.699 0 00.518-1.518c.082-.255.162-.512.239-.77s.152-.517.226-.776l10.832-4.671a48.099 48.099 0 01-.446 1.586 44.655 44.655 0 01-.505 1.558" fill="#D1D2D3"/><defs><path id="prefix__i" d="M26.527 39.532c.54-1.089 1.116-2.133 1.737-3.141a34.763 34.763 0 014.194-5.517 35.052 35.052 0 012.43-2.34l8.793-7.632a30.52 30.52 0 00-2.457 2.376 33.92 33.92 0 00-4.221 5.607 39.23 39.23 0 00-1.737 3.213l-8.739 7.443v-.009"/></defs><clipPath id="prefix__j"><use overflow="visible" xlink:href="#prefix__i"/></clipPath><path clip-path="url(#prefix__j)" d="M34.809 33.087l-8.737 7.412.112-.243.114-.242.115-.241.116-.239a38.975 38.975 0 011.2-2.25c.141-.243.283-.483.428-.722l8.741-7.5a38.314 38.314 0 00-1.247 2.256c-.131.258-.26.519-.386.781l-.117.245-.115.247-.114.248-.11.248" fill="#9A1A1E"/><path clip-path="url(#prefix__j)" d="M36.898 29.062l-8.741 7.5a37.257 37.257 0 011.237-1.898 33.288 33.288 0 011.336-1.789l8.755-7.571a35.87 35.87 0 00-1.345 1.821 33.592 33.592 0 00-1.242 1.937" fill="#9C191F"/><path clip-path="url(#prefix__j)" d="M39.486 25.305l-8.755 7.571a34.282 34.282 0 011.554-1.812 33.125 33.125 0 011.66-1.677l8.783-7.623a31.75 31.75 0 00-1.676 1.7 33.666 33.666 0 00-1.566 1.841" fill="#9E191F"/><path clip-path="url(#prefix__j)" fill="#A0191F" d="M42.729 21.764l-8.784 7.622.234-.218.236-.214.237-.213.239-.209 8.793-7.633-.242.212-.239.215-.238.217-.236.221"/><path fill="#871B1D" d="M105.16 48.577l-10.076 6.015-60.072 12.844L44.235 61z"/><defs><path id="prefix__k" d="M18.184 33.871a43.765 43.765 0 013.888-6.21 39.367 39.367 0 014.716-5.238l8.559-7.938a36.625 36.625 0 00-2.484 2.529 40.256 40.256 0 00-4.347 5.832 42.847 42.847 0 00-1.836 3.285c-.225.432-.432.864-.639 1.305s-.405.882-.594 1.341c-.198.45-.387.909-.567 1.368s-.351.927-.522 1.404c-.171.144-.387.342-.558.495-1.521 1.359-3.042 2.727-4.554 4.086l-.243.216-.99.882-.252.225-.252.225-.243.225-.963.855-.225.207-.216.189c.171-.459.351-.918.531-1.368s.369-.891.567-1.341a41.832 41.832 0 011.224-2.574"/></defs><clipPath id="prefix__l"><use overflow="visible" xlink:href="#prefix__k"/></clipPath><path clip-path="url(#prefix__l)" d="M24.024 32.506l-8.492 7.583a49.43 49.43 0 01.979-2.592 48.85 48.85 0 011.105-2.485l8.49-7.71A49.567 49.567 0 0025 29.847a48.22 48.22 0 00-.976 2.659" fill="#CECFD0"/><path clip-path="url(#prefix__l)" d="M26.106 27.302l-8.49 7.71.14-.289a38.132 38.132 0 01.43-.856 44.216 44.216 0 012.003-3.489l8.501-7.811a46.25 46.25 0 00-1.041 1.746 45.87 45.87 0 00-.972 1.817l-.146.291-.144.292-.142.293-.139.296" fill="#D1D2D3"/><path clip-path="url(#prefix__l)" d="M28.689 22.566l-8.501 7.811a42.884 42.884 0 012.316-3.282c.271-.348.548-.69.83-1.028l8.525-7.89a40.702 40.702 0 00-3.17 4.389" fill="#D4D5D6"/><path clip-path="url(#prefix__l)" d="M31.86 18.178l-8.525 7.89c.271-.325.546-.645.827-.959a37.445 37.445 0 011.728-1.823c.296-.292.596-.58.9-.862l8.561-7.94a37.415 37.415 0 00-1.795 1.78c-.291.308-.578.622-.86.941a33.94 33.94 0 00-.836.973" fill="#D7D8D9"/><path fill="#B6B7B9" d="M51.306 80.593l-9.581 5.726-6.713-18.883L44.235 61z"/><path fill="#fff" d="M105.16 48.577l6.59 16.832-60.444 15.184L44.235 61z"/><path fill="#B6B7B9" d="M111.75 65.409l-10.37 5.489-59.655 15.421 9.581-5.726z"/><defs><path id="prefix__m" d="M15.862 39.154l4.095-3.663 2.349-2.106.306-.279.603-.54c.18-.153.414-.369.585-.522l.288-.252c.081-.072.162-.243.27-.243-.243.657-.459 1.332-.675 2.016s-.414 1.377-.603 2.079c-.18.702-.36 1.413-.522 2.133-.153.72-.306 1.449-.441 2.187-3.168 2.772-5.472 4.77-8.514 7.38.135-.711.288-1.422.45-2.124s.342-1.395.531-2.079.387-1.35.603-2.016.441-1.323.675-1.971"/></defs><clipPath id="prefix__n"><use overflow="visible" xlink:href="#prefix__m"/></clipPath><path clip-path="url(#prefix__n)" d="M21.412 45.213l-8.552 7.225a55.758 55.758 0 011.062-6.645l8.512-7.426a55.181 55.181 0 00-.607 3.364 56.089 56.089 0 00-.231 1.727c-.07.581-.131 1.166-.184 1.755" fill="#C8C9CA"/><path clip-path="url(#prefix__n)" d="M22.434 38.367l-8.512 7.426a52.136 52.136 0 01.732-2.904 52.568 52.568 0 01.878-2.799l8.492-7.583a52.493 52.493 0 00-1.59 5.86" fill="#CBCCCD"/><path clip-path="url(#prefix__n)" d="M24.024 32.506l-8.492 7.583a49.43 49.43 0 01.979-2.592 48.85 48.85 0 011.105-2.485l8.49-7.71A49.567 49.567 0 0025 29.847a48.22 48.22 0 00-.976 2.659" fill="#CECFD0"/><defs><path id="prefix__o" d="M25.663 79.834a65.063 65.063 0 01-2.844-11.232c-.567-3.663-.792-7.236-.675-10.674.117-3.411.558-6.687 1.305-9.783.738-3.06 1.773-5.949 3.078-8.604l8.739-7.443a42.302 42.302 0 00-3.06 8.838 50.223 50.223 0 00-1.233 10.071c-.081 3.555.18 7.245.81 11.034a68.071 68.071 0 003.024 11.655A74.693 74.693 0 0039.928 85a73.81 73.81 0 006.741 10.044 70.997 70.997 0 007.983 8.479 64.127 64.127 0 008.856 6.687c3.042 1.89 6.165 3.456 9.324 4.671 3.132 1.206 6.291 2.062 9.423 2.538 3.096.477 6.174.594 9.18.324a33.578 33.578 0 008.658-1.944l-10.89 4.122a33.534 33.534 0 01-8.541 1.953c-2.952.288-5.977.198-9.018-.234-3.069-.44-6.156-1.241-9.207-2.376a53.526 53.526 0 01-9.09-4.437 62.19 62.19 0 01-8.595-6.372 66.868 66.868 0 01-7.722-8.118 69.794 69.794 0 01-6.48-9.63 70.067 70.067 0 01-4.884-10.866"/></defs><clipPath id="prefix__p"><use overflow="visible" xlink:href="#prefix__o"/></clipPath><path clip-path="url(#prefix__p)" d="M100.09 115.8l-10.886 4.125a33.823 33.823 0 01-8.538 1.949c-2.959.286-5.979.202-9.019-.234-3.072-.441-6.159-1.241-9.214-2.378-3.083-1.146-6.128-2.634-9.087-4.438a60.455 60.455 0 01-7.579-5.495 65.407 65.407 0 01-6.943-6.855 68.542 68.542 0 01-6.058-8.07 69.414 69.414 0 01-4.928-9.109l9.254-5.92a74.173 74.173 0 005.143 9.482 72.836 72.836 0 006.287 8.42 69.674 69.674 0 007.177 7.169 63.758 63.758 0 007.807 5.762c3.043 1.895 6.169 3.462 9.328 4.677 3.129 1.203 6.285 2.058 9.421 2.54 3.101.478 6.176.591 9.184.319a33.24 33.24 0 008.651-1.93" fill="#891B1D"/><path clip-path="url(#prefix__p)" d="M37.092 79.372l-9.254 5.92a67.066 67.066 0 01-1.141-2.699 62.76 62.76 0 01-1.031-2.759 70.31 70.31 0 01-.889-2.735 62.246 62.246 0 01-.267-.908l9.078-6.274a71.779 71.779 0 001.223 3.782 70.58 70.58 0 001.085 2.866 82.933 82.933 0 001.196 2.807" fill="#8B1A1D"/><path clip-path="url(#prefix__p)" d="M33.586 69.916l-9.078 6.274a64.26 64.26 0 01-1.36-5.716 61.119 61.119 0 01-.326-1.879l8.958-6.553a65.952 65.952 0 001.806 7.874" fill="#8D1A1D"/><path clip-path="url(#prefix__p)" d="M31.781 62.042l-8.958 6.553a59.735 59.735 0 01-.443-3.48 56.509 56.509 0 01-.229-3.41l8.87-6.792a58.435 58.435 0 00.27 3.526 62.899 62.899 0 00.49 3.603" fill="#8F1A1E"/><path clip-path="url(#prefix__p)" d="M31.021 54.914l-8.87 6.792a54.948 54.948 0 01-.021-3.313 49.196 49.196 0 01.18-3.225l8.806-7.004a52.43 52.43 0 00-.151 3.327c-.008.563-.007 1.13.001 1.7.011.571.029 1.145.055 1.723" fill="#911A1E"/><path clip-path="url(#prefix__p)" d="M31.117 48.164l-8.806 7.004a50.062 50.062 0 01.33-2.828 46.832 46.832 0 01.482-2.741l8.767-7.171a49.675 49.675 0 00-.773 5.736" fill="#941A1E"/><path clip-path="url(#prefix__p)" d="M31.89 42.427l-8.767 7.171a47.066 47.066 0 01.576-2.444 45.342 45.342 0 01.698-2.36l8.745-7.304a44.125 44.125 0 00-.987 3.67c-.093.419-.182.842-.265 1.267" fill="#961A1E"/><path clip-path="url(#prefix__p)" d="M33.143 37.491l-8.745 7.304a41.04 41.04 0 011.674-4.295l8.737-7.412a40.723 40.723 0 00-1.291 3.269c-.13.374-.255.752-.375 1.134" fill="#981A1E"/><path clip-path="url(#prefix__p)" d="M34.809 33.087l-8.737 7.412.112-.243.114-.242.115-.241.116-.239a38.975 38.975 0 011.2-2.25c.141-.243.283-.483.428-.722l8.741-7.5a38.314 38.314 0 00-1.247 2.256c-.131.258-.26.519-.386.781l-.117.245-.115.247-.114.248-.11.248" fill="#9A1A1E"/><path d="M94.418 23.981a67.103 67.103 0 017.075 6.186 71.58 71.58 0 016.319 7.27 73.763 73.763 0 015.426 8.259 74.27 74.27 0 014.387 9.18 70.44 70.44 0 013.037 9.572 63.167 63.167 0 011.525 9.392c.262 3.097.274 6.131.047 9.068a48.81 48.81 0 01-1.421 8.571 41.767 41.767 0 01-2.9 7.85 35.57 35.57 0 01-4.397 6.87 31.782 31.782 0 01-5.929 5.601 31.329 31.329 0 01-7.497 3.999 33.423 33.423 0 01-8.651 1.942c-3.008.271-6.083.158-9.184-.319-3.136-.482-6.292-1.337-9.421-2.54-3.159-1.215-6.284-2.782-9.328-4.677a64.016 64.016 0 01-8.851-6.681 70.484 70.484 0 01-7.987-8.479 73.7 73.7 0 01-6.738-10.041 73.872 73.872 0 01-5.121-11.305 68.563 68.563 0 01-3.028-11.655c-.627-3.79-.888-7.484-.806-11.036.082-3.521.501-6.895 1.232-10.077.724-3.149 1.751-6.107 3.058-8.833 1.295-2.695 2.858-5.156 4.667-7.347a31.945 31.945 0 016.046-5.664 30.855 30.855 0 017.228-3.837 33.36 33.36 0 018.232-1.897 38.054 38.054 0 018.651.128 44.067 44.067 0 018.481 1.969 52.026 52.026 0 018.157 3.567 61.782 61.782 0 017.681 4.968zM51.306 80.593l60.442-15.184-6.592-16.832L44.231 61l7.071 19.593" fill="#BB1520"/><defs><path id="prefix__q" d="M16.636 81.967a78.189 78.189 0 01-2.556-9.171 71.56 71.56 0 01-1.305-8.919 64.507 64.507 0 01-.135-8.523c.144-2.754.468-5.427.963-8.01 3.042-2.61 5.346-4.608 8.514-7.38a60.937 60.937 0 00-.9 8.253 67.812 67.812 0 00.225 8.82 73.94 73.94 0 001.431 9.234 81.02 81.02 0 002.7 9.522 87.423 87.423 0 006.12 13.599 87.476 87.476 0 008.127 12.069 82.875 82.875 0 009.657 10.152c3.411 3.015 6.993 5.67 10.683 7.92 3.492 2.124 7.074 3.888 10.692 5.265 3.582 1.359 7.182 2.331 10.764 2.89 3.537.558 7.038.72 10.467.459a39.71 39.71 0 009.846-1.998l-11.043 3.771a40.067 40.067 0 01-9.72 2.007c-3.366.279-6.804.153-10.269-.359-3.51-.522-7.029-1.432-10.521-2.719-3.528-1.296-7.011-2.97-10.404-4.995a71.714 71.714 0 01-10.368-7.551 78.164 78.164 0 01-9.324-9.711 81.215 81.215 0 01-13.645-24.633"/></defs><clipPath id="prefix__r"><use overflow="visible" xlink:href="#prefix__q"/></clipPath><path clip-path="url(#prefix__r)" d="M101.93 126.15l-11.048 3.773a40.125 40.125 0 01-9.713 2.006c-3.371.275-6.811.147-10.274-.365-3.505-.519-7.028-1.431-10.519-2.715-3.527-1.297-7.013-2.971-10.407-4.996a70.928 70.928 0 01-9.139-6.506 77.3 77.3 0 01-8.388-8.191 80.834 80.834 0 01-7.31-9.687 81.682 81.682 0 01-5.916-10.948l9.077-5.905a87.088 87.088 0 006.179 11.408 86.152 86.152 0 007.593 10.114 81.894 81.894 0 008.678 8.57 74.51 74.51 0 009.421 6.824c3.492 2.128 7.073 3.892 10.689 5.265 3.577 1.357 7.182 2.33 10.762 2.895 3.535.558 7.04.717 10.467.458 3.377-.25 6.675-.91 9.848-1.99" fill="#B9BABC"/><path clip-path="url(#prefix__r)" d="M28.292 82.614l-9.077 5.905a82.398 82.398 0 01-1.989-4.89 78.132 78.132 0 01-1.315-3.858 72.277 72.277 0 01-.648-2.186l8.865-6.338a89.749 89.749 0 00.687 2.27 79.577 79.577 0 00.762 2.28 88.664 88.664 0 001.288 3.444 89.985 89.985 0 001.427 3.373" fill="#BCBDBF"/><path clip-path="url(#prefix__r)" d="M24.128 71.248l-8.865 6.338a78.39 78.39 0 01-1.132-4.568c-.162-.756-.312-1.511-.449-2.262s-.261-1.499-.372-2.245l8.724-6.678a76.147 76.147 0 001.45 7.036c.202.791.416 1.584.644 2.379" fill="#BFC0C2"/><path clip-path="url(#prefix__r)" d="M22.035 61.833l-8.724 6.678a68.158 68.158 0 01-.645-6.221 66.45 66.45 0 01-.085-2.029l8.623-6.969a70.94 70.94 0 00.831 8.541" fill="#C2C3C5"/><path clip-path="url(#prefix__r)" d="M21.203 53.293l-8.623 6.969a63.538 63.538 0 01.12-5.911c.044-.642.098-1.28.161-1.913l8.552-7.225a63.372 63.372 0 00-.251 6.016c.003.684.017 1.372.041 2.064" fill="#C5C6C8"/><path clip-path="url(#prefix__r)" d="M21.412 45.213l-8.552 7.225a55.758 55.758 0 011.062-6.645l8.512-7.426a55.181 55.181 0 00-.607 3.364 56.089 56.089 0 00-.231 1.727c-.07.581-.131 1.166-.184 1.755" fill="#C8C9CA"/><path d="M96.705 17.587a79.494 79.494 0 018.198 7.245 84.677 84.677 0 017.322 8.471 86.996 86.996 0 016.295 9.585 87.395 87.395 0 015.102 10.625 83.05 83.05 0 013.563 11.094 75.16 75.16 0 011.84 10.93c.332 3.613.38 7.162.149 10.602a58.477 58.477 0 01-1.543 10.073c-.805 3.264-1.894 6.38-3.263 9.298-1.389 2.958-3.066 5.717-5.028 8.223a38.036 38.036 0 01-6.854 6.794 36.905 36.905 0 01-8.744 4.951 39.076 39.076 0 01-10.184 2.532c-3.562.397-7.217.335-10.911-.168-3.744-.509-7.521-1.468-11.271-2.851-3.793-1.399-7.552-3.229-11.212-5.46a75.064 75.064 0 01-10.683-7.919 82.994 82.994 0 01-9.656-10.15 86.799 86.799 0 01-8.127-12.069 86.727 86.727 0 01-6.121-13.596c-1.653-4.726-2.826-9.411-3.545-13.991-.714-4.545-.98-8.973-.829-13.222.15-4.207.709-8.228 1.644-12.011.923-3.737 2.211-7.234 3.832-10.442a42.565 42.565 0 014.965-7.687 38.235 38.235 0 016.236-6.105 36.57 36.57 0 017.324-4.413 37.88 37.88 0 019.4-2.849 41.45 41.45 0 013.546-.443c.333-.027.665-.05.997-.07a47.391 47.391 0 011.991-.07c.331-.004.663-.004.994-.001 3.051.03 6.107.373 9.137.997a55.101 55.101 0 018.89 2.65 63.822 63.822 0 018.519 4.092 75.31 75.31 0 018.019 5.367zm24.105 73.892a48.997 48.997 0 001.421-8.571 56.116 56.116 0 00-.047-9.068 63.47 63.47 0 00-1.525-9.392 70.396 70.396 0 00-3.037-9.572 74.202 74.202 0 00-9.813-17.439 71.706 71.706 0 00-6.319-7.27 67.103 67.103 0 00-7.075-6.186 60.508 60.508 0 00-7.69-4.963 52.067 52.067 0 00-8.157-3.567 44.216 44.216 0 00-8.481-1.969 37.996 37.996 0 00-8.651-.128 33.36 33.36 0 00-8.232 1.897 30.892 30.892 0 00-7.228 3.837 31.945 31.945 0 00-6.046 5.664c-1.809 2.191-3.372 4.652-4.667 7.347-1.307 2.726-2.334 5.683-3.058 8.833-.731 3.182-1.15 6.556-1.232 10.077-.083 3.551.178 7.246.806 11.036A68.563 68.563 0 0034.807 73.7a73.96 73.96 0 0011.859 21.346 70.413 70.413 0 007.987 8.479 64.096 64.096 0 008.851 6.681c3.043 1.895 6.169 3.462 9.328 4.677 3.129 1.203 6.285 2.058 9.421 2.54 3.101.478 6.176.591 9.184.319a33.455 33.455 0 008.651-1.942 31.329 31.329 0 007.497-3.999 31.748 31.748 0 005.929-5.601 35.522 35.522 0 004.397-6.87 41.253 41.253 0 002.9-7.851" fill="#fff"/><defs><path id="prefix__s" d="M102.06 127.21c-3.681 1.242-7.371 2.484-11.061 3.735-6.57 2.214-13.626 2.682-20.781 1.529-7.335-1.179-14.724-4.041-21.708-8.388-7.101-4.41-13.716-10.305-19.359-17.415a82.698 82.698 0 01-13.437-24.489c-2.151-6.245-3.429-12.429-3.906-18.387-.477-5.886-.162-11.529.855-16.785.999-5.175 2.673-9.954 4.95-14.22 2.241-4.194 5.04-7.875 8.334-10.953 2.853-2.655 5.697-5.319 8.541-7.974-3.339 3.114-6.165 6.867-8.406 11.142-2.286 4.365-3.96 9.279-4.932 14.598-.99 5.418-1.251 11.241-.702 17.334.549 6.174 1.926 12.582 4.194 19.071a87.926 87.926 0 0014.022 25.524c5.859 7.425 12.699 13.599 20.016 18.233 7.182 4.563 14.76 7.587 22.257 8.865 7.303 1.25 14.476.83 21.123-1.41"/></defs><clipPath id="prefix__t"><use overflow="visible" xlink:href="#prefix__s"/></clipPath><path d="M102.06 127.21l-11.064 3.738c-6.145 2.076-12.72 2.612-19.405 1.73-6.847-.903-13.764-3.288-20.387-6.992-6.734-3.767-13.106-8.863-18.725-15.076a82.533 82.533 0 01-14.113-21.695l9.059-5.899a88.052 88.052 0 0014.694 22.631c5.822 6.494 12.4 11.836 19.329 15.797 6.811 3.895 13.899 6.42 20.891 7.409 6.818.95 13.502.45 19.721-1.65M27.423 83.012l-9.059 5.899a86.81 86.81 0 01-1.399-3.328 84.06 84.06 0 01-1.255-3.4 88.187 88.187 0 01-1.063-3.322 72.817 72.817 0 01-.318-1.104l8.843-6.344a82.629 82.629 0 001.462 4.598 83.446 83.446 0 001.323 3.536 92.03 92.03 0 001.466 3.465M23.171 71.412l-8.843 6.344a79.483 79.483 0 01-1.15-4.648 74.83 74.83 0 01-.834-4.585l8.7-6.69a78.216 78.216 0 001.472 7.16c.205.804.423 1.611.655 2.419" clip-path="url(#prefix__t)"/><path d="M21.044 61.833l-8.699 6.69a69.886 69.886 0 01-.654-6.343 65.935 65.935 0 01-.084-2.068l8.597-6.987a70.65 70.65 0 00.526 6.496c.093.733.198 1.471.314 2.212M20.203 53.124l-8.597 6.987a62.528 62.528 0 01.29-7.908l8.526-7.246a61.527 61.527 0 00-.234 4.022 66.873 66.873 0 00.015 4.145" clip-path="url(#prefix__t)"/><path d="M20.421 44.958l-8.526 7.246c.059-.583.126-1.163.201-1.739a56.781 56.781 0 01.891-5.048l8.485-7.452a59.61 59.61 0 00-1.051 6.993M21.472 37.964l-8.485 7.452c.112-.5.23-.996.354-1.487a55.833 55.833 0 01.822-2.895c.149-.473.305-.942.466-1.407l8.466-7.612a50.673 50.673 0 00-.889 2.918 54.914 54.914 0 00-.734 3.031" clip-path="url(#prefix__t)"/><path d="M23.097 32.016l-8.466 7.612a51.453 51.453 0 011.003-2.643 46.151 46.151 0 011.132-2.532l8.464-7.741a48.124 48.124 0 00-2.133 5.304M25.23 26.711l-8.464 7.741a44.905 44.905 0 011.926-3.578c.229-.382.462-.76.701-1.133l8.476-7.843a44.466 44.466 0 00-2.639 4.813M27.868 21.898l-8.476 7.843a42.092 42.092 0 013.215-4.382l8.502-7.923a42.19 42.19 0 00-3.241 4.462" clip-path="url(#prefix__t)"/><path d="M31.109 17.436l-8.502 7.923a42.123 42.123 0 011.624-1.821 40.676 40.676 0 011.714-1.702l8.537-7.971a38.862 38.862 0 00-3.373 3.571" clip-path="url(#prefix__t)"/><path d="M57.82 3.765c6.827-.543 13.745.53 20.417 2.88 6.516 2.295 12.85 5.827 18.694 10.313 5.76 4.421 11.1 9.811 15.728 15.936a88.608 88.608 0 0111.553 20.485c3.016 7.547 4.817 15.09 5.487 22.327.683 7.361.2 14.471-1.392 20.975-1.633 6.669-4.441 12.743-8.386 17.801-4.066 5.216-9.354 9.37-15.813 11.968-6.681 2.686-13.964 3.447-21.422 2.447-7.664-1.027-15.45-3.907-22.863-8.414-7.548-4.588-14.626-10.813-20.697-18.363a88.181 88.181 0 01-14.493-26.107c-3.352-9.596-4.747-18.992-4.426-27.678.314-8.506 2.272-16.246 5.602-22.806 3.237-6.376 7.751-11.601 13.288-15.345 5.361-3.637 11.673-5.868 18.721-6.429zm69.81 92.447a58.507 58.507 0 001.543-10.073c.23-3.439.183-6.988-.149-10.602a75.048 75.048 0 00-1.84-10.93 82.905 82.905 0 00-3.563-11.094 87.1 87.1 0 00-11.397-20.21 84.677 84.677 0 00-7.322-8.471 79.822 79.822 0 00-8.198-7.245 72.473 72.473 0 00-8.031-5.356 63.886 63.886 0 00-8.519-4.092 55.101 55.101 0 00-8.89-2.65 47.536 47.536 0 00-10.131-.996 41.164 41.164 0 00-1.991.07 41.362 41.362 0 00-2.192.185 41.007 41.007 0 00-3.507.54 37.934 37.934 0 00-8.244 2.637 36.645 36.645 0 00-7.324 4.413 38.317 38.317 0 00-6.236 6.105 42.619 42.619 0 00-4.965 7.687c-1.621 3.208-2.909 6.706-3.832 10.442-.935 3.783-1.494 7.805-1.644 12.011-.151 4.25.115 8.677.829 13.222.72 4.58 1.893 9.265 3.545 13.991a86.543 86.543 0 006.121 13.596 86.68 86.68 0 008.127 12.069 82.921 82.921 0 009.656 10.15 75.064 75.064 0 0010.683 7.919c3.66 2.23 7.418 4.061 11.212 5.46 3.751 1.383 7.527 2.342 11.271 2.851 3.694.503 7.35.565 10.911.168a39.116 39.116 0 0010.184-2.532 36.905 36.905 0 008.744-4.951 38.036 38.036 0 006.854-6.794 42.817 42.817 0 005.028-8.223 49.432 49.432 0 003.27-9.308"/></svg>