<svg xmlns="http://www.w3.org/2000/svg" width="360" height="306"><defs><radialGradient id="prefix__b" gradientUnits="userSpaceOnUse" cx="196.132" cy="83.185" r="9.949"><stop offset="0" stop-color="#EEA292"/><stop offset="1" stop-color="#F3B9A0"/></radialGradient><radialGradient id="prefix__c" gradientUnits="userSpaceOnUse" cx="138.441" cy="83.185" r="9.949"><stop offset="0" stop-color="#EEA292"/><stop offset="1" stop-color="#F3B9A0"/></radialGradient><radialGradient id="prefix__d" gradientUnits="userSpaceOnUse" cx="303.12" cy="97.761" r="9.949"><stop offset="0" stop-color="#EEA292"/><stop offset="1" stop-color="#F3B9A0"/></radialGradient><radialGradient id="prefix__e" gradientUnits="userSpaceOnUse" cx="259.297" cy="97.761" r="9.949"><stop offset="0" stop-color="#EEA292"/><stop offset="1" stop-color="#F3B9A0"/></radialGradient><radialGradient id="prefix__g" gradientUnits="userSpaceOnUse" cx="48.635" cy="95.377" r="9.949"><stop offset="0" stop-color="#EEA292"/><stop offset="1" stop-color="#F3B9A0"/></radialGradient><radialGradient id="prefix__i" gradientUnits="userSpaceOnUse" cx="95.62" cy="95.377" r="9.949"><stop offset="0" stop-color="#EEA292"/><stop offset="1" stop-color="#F3B9A0"/></radialGradient><radialGradient id="prefix__k" gradientUnits="userSpaceOnUse" cx="263.379" cy="190.405" r="10.446"><stop offset="0" stop-color="#EEA292"/><stop offset="1" stop-color="#F3B9A0"/></radialGradient><radialGradient id="prefix__m" gradientUnits="userSpaceOnUse" cx="215.58" cy="188.424" r="10.446"><stop offset="0" stop-color="#EEA292"/><stop offset="1" stop-color="#F3B9A0"/></radialGradient><radialGradient id="prefix__o" gradientUnits="userSpaceOnUse" cx="90.909" cy="200.344" r="10.446"><stop offset="0" stop-color="#EEA292"/><stop offset="1" stop-color="#F3B9A0"/></radialGradient><radialGradient id="prefix__q" gradientUnits="userSpaceOnUse" cx="135.62" cy="193.658" r="10.446"><stop offset="0" stop-color="#EEA292"/><stop offset="1" stop-color="#F3B9A0"/></radialGradient><clipPath id="prefix__f"><path d="M48.635 85.428c5.494 0 9.95 4.454 9.95 9.949s-4.456 9.949-9.95 9.949c-5.495 0-9.949-4.454-9.949-9.949s4.454-9.949 9.949-9.949z"/></clipPath><clipPath id="prefix__h"><path d="M95.62 85.428c1.043.053.684-.016 1.093.067-.225 3.794-.091 2.007-.384 5.361 2.183 4.215 3.258 9.528 1.732 14.128-1.757.358-.94.266-2.441.342-5.495 0-9.949-4.454-9.949-9.949s4.454-9.949 9.949-9.949z"/></clipPath><clipPath id="prefix__j"><path d="M263.265 179.958c5.768-.062 10.497 4.564 10.559 10.333.063 5.771-4.565 10.497-10.333 10.56-5.769.062-10.497-4.564-10.559-10.333-.063-5.77 4.563-10.498 10.333-10.56z"/></clipPath><clipPath id="prefix__l"><path d="M215.467 177.978c5.769-.063 10.497 4.563 10.559 10.333.063 5.769-4.563 10.497-10.333 10.559-2.116.04-4.099-.617-5.849-1.771-1.338-5.316-1.412-10.822-1.389-16.263 1.83-1.932 4.434-2.7 7.012-2.858z"/></clipPath><clipPath id="prefix__n"><path d="M90.909 189.896c5.769 0 10.447 4.677 10.447 10.447s-4.678 10.447-10.447 10.447c-5.77 0-10.447-4.677-10.447-10.447s4.677-10.447 10.447-10.447z"/></clipPath><clipPath id="prefix__p"><path d="M135.62 183.211c1.252-.002 2.502.214 3.657.702.303 6.725.068 13.852-2.614 20.139l-1.043.053c-5.769 0-10.447-4.677-10.447-10.448 0-5.769 4.678-10.446 10.447-10.446z"/></clipPath><clipPath id="prefix__a"><path d="M-.33.215h360.062v306.616H-.33V.215z"/></clipPath></defs><g clip-path="url(#prefix__a)"><path d="M211.156 235.264s-2.707 57.759-2.707 84.382h-31.588s-2.123-54.601-9.184-54.601c-7.062 0-9.185 54.601-9.185 54.601h-31.587c0-26.623-2.708-84.382-2.708-84.382" fill="#8B6B46"/><path d="M211.156 235.264s-2.707 57.759-2.707 84.382h-31.588s-2.123-54.601-9.184-54.601c-7.062 0-9.185 54.601-9.185 54.601h-31.587c0-26.623-2.708-84.382-2.708-84.382" stroke="#414241" stroke-width="1.701" stroke-linecap="round" stroke-linejoin="round" fill="none"/><path d="M211.607 161.859s10.529 9.327 19.254 14.442c8.723 5.113 19.252 1.504 19.252 1.504l39.11-14.74c0-14.741-12.035-19.856-12.035-19.856l-35.197 10.529s-21.96-25.57-37.905-35.498c-15.943-9.927-36.409-7.521-36.409-7.521s-20.466-2.406-36.41 7.521c-15.945 9.928-37.905 35.498-37.905 35.498l-35.198-10.529s-12.033 5.115-12.033 19.856l39.108 14.74s10.529 3.609 19.254-1.504c8.724-5.115 19.253-14.442 19.253-14.442" fill="#8B6B46"/><path d="M211.607 161.859s10.529 9.327 19.254 14.442c8.723 5.113 19.252 1.504 19.252 1.504l39.11-14.74c0-14.741-12.035-19.856-12.035-19.856l-35.197 10.529s-21.96-25.57-37.905-35.498c-15.943-9.927-36.409-7.521-36.409-7.521s-20.466-2.406-36.41 7.521c-15.945 9.928-37.905 35.498-37.905 35.498l-35.198-10.529s-12.033 5.115-12.033 19.856l39.108 14.74s10.529 3.609 19.254-1.504c8.724-5.115 19.253-14.442 19.253-14.442" stroke="#414241" stroke-width="1.701" stroke-linecap="round" stroke-linejoin="round" fill="none"/><path d="M214.014 150.127s-2.707 66.066.301 90.434c0 0-14.157 6.919-46.638 6.919-32.482 0-46.638-6.919-46.638-6.919 3.007-24.368.3-90.434.3-90.434" fill="#8B6B46"/><path d="M214.014 150.127s-2.707 66.066.301 90.434c0 0-14.157 6.919-46.638 6.919-32.482 0-46.638-6.919-46.638-6.919 3.007-24.368.3-90.434.3-90.434" stroke="#414241" stroke-width="1.701" stroke-linecap="round" stroke-linejoin="round" fill="none"/><path d="M167.677 128.391l11.985 6.845 1.26 26.924-13.245 37.007-13.246-37.007 1.26-26.924 11.986-6.845" fill="#FFFFFE"/><path d="M167.677 128.391l11.985 6.845 1.26 26.924-13.245 37.007-13.246-37.007 1.26-26.924 11.986-6.845" stroke="#414241" stroke-width="1.701" stroke-linecap="round" stroke-linejoin="round" fill="none"/><path d="M171.374 139.197l2.446 48.453-6.143 10.116-6.144-10.116 2.448-48.453h7.393z" fill="#F6BC25"/><path d="M171.374 139.197l2.446 48.453-6.143 10.116-6.144-10.116 2.448-48.453h7.393z" stroke="#414241" stroke-width="1.701" stroke-linecap="round" stroke-linejoin="round" fill="none"/><path d="M167.677 107.941s13.702-1.017 13.702 10.705l-1.02 16.989-12.682-7.244-12.683 7.244-1.019-16.989c0-11.722 13.702-10.705 13.702-10.705z" fill="#FFFFFE"/><path d="M167.677 107.941s13.702-1.017 13.702 10.705l-1.02 16.989-12.682-7.244-12.683 7.244-1.019-16.989c0-11.722 13.702-10.705 13.702-10.705z" stroke="#414241" stroke-width="1.701" stroke-linecap="round" stroke-linejoin="round" fill="none"/><path d="M174.023 132.016s-.366 6.105-2.649 8.389c0 0-2.009.979-3.697.979-1.689 0-3.696-.979-3.696-.979-2.285-2.284-2.651-8.389-2.651-8.389s3.354-3.625 6.347-3.625c2.993 0 6.346 3.625 6.346 3.625z" fill="#F6BC25"/><path d="M174.023 132.016s-.366 6.105-2.649 8.389c0 0-2.009.979-3.697.979-1.689 0-3.696-.979-3.696-.979-2.285-2.284-2.651-8.389-2.651-8.389s3.354-3.625 6.347-3.625c2.993 0 6.346 3.625 6.346 3.625z" stroke="#414241" stroke-width="1.701" stroke-linecap="round" stroke-linejoin="round" fill="none"/><path d="M158.966 106.641s-8.73-.398-14.336 18.29l-7.136 19.368 13.422 2.887-8.665 10.535 25.426 41.446s-14.694-66.3-13.434-83.179c0 0 1.483-8.047 13.434-8.047l-8.711-1.3z" fill="#8B6B46"/><path d="M158.966 106.641s-8.73-.398-14.336 18.29l-7.136 19.368 13.422 2.887-8.665 10.535 25.426 41.446s-14.694-66.3-13.434-83.179c0 0 1.483-8.047 13.434-8.047l-8.711-1.3z" stroke="#414241" stroke-width="1.701" stroke-linecap="round" stroke-linejoin="round" fill="none"/><path d="M176.387 106.641s8.73-.398 14.336 18.29l7.136 19.368-13.422 2.887 8.665 10.535-25.425 41.446s14.694-66.3 13.434-83.179c0 0-1.484-8.047-13.434-8.047l8.71-1.3z" fill="#8B6B46"/><path d="M176.387 106.641s8.73-.398 14.336 18.29l7.136 19.368-13.422 2.887 8.665 10.535-25.425 41.446s14.694-66.3 13.434-83.179c0 0-1.484-8.047-13.434-8.047l8.71-1.3zM167.677 199.167v48.313m8.865-35.005c0 2.119-1.111 3.835-2.482 3.835-1.37 0-2.482-1.716-2.482-3.835 0-2.119 1.112-3.836 2.482-3.836 1.371 0 2.482 1.717 2.482 3.836zm0 21.66c0 2.119-1.111 3.836-2.482 3.836-1.37 0-2.482-1.717-2.482-3.836 0-2.119 1.112-3.835 2.482-3.835 1.371 0 2.482 1.716 2.482 3.835z" stroke="#414241" stroke-width="1.701" stroke-linecap="round" stroke-linejoin="round" fill="none"/><path d="M167.677 128.391l10.303-13.993c-2.546-2.547-1.357-10.193-1.357-10.193l-8.946-2.549-8.947 2.549s1.19 7.646-1.358 10.193l10.305 13.993z" fill="#F3B9A0"/><path d="M167.677 128.391l10.303-13.993c-2.546-2.547-1.357-10.193-1.357-10.193l-8.946-2.549-8.947 2.549s1.19 7.646-1.358 10.193l10.305 13.993z" stroke="#414241" stroke-width="1.701" stroke-linecap="round" stroke-linejoin="round" fill="none"/><path d="M129.197 68.137c-1.914-5.262-8.266-3.282-9.407 1.263-.797 3.174-.434 7.645 1.791 10.165 1.897 2.148 5.464 3.26 8.212 3.671 0 0 1.788-8.542-.596-15.099z" fill="#F3B9A0"/><path d="M129.197 68.137c-1.914-5.262-8.266-3.282-9.407 1.263-.797 3.174-.434 7.645 1.791 10.165 1.897 2.148 5.464 3.26 8.212 3.671 0 0 1.788-8.542-.596-15.099z" stroke="#414241" stroke-width="1.701" stroke-linecap="round" stroke-linejoin="round" fill="none"/><path d="M206.156 68.137c1.914-5.262 8.266-3.282 9.408 1.263.795 3.174.432 7.645-1.793 10.165-1.895 2.148-5.462 3.26-8.211 3.671.001 0-1.787-8.542.596-15.099z" fill="#F3B9A0"/><path d="M206.156 68.137c1.914-5.262 8.266-3.282 9.408 1.263.795 3.174.432 7.645-1.793 10.165-1.895 2.148-5.462 3.26-8.211 3.671.001 0-1.787-8.542.596-15.099z" stroke="#414241" stroke-width="1.701" stroke-linecap="round" stroke-linejoin="round" fill="none"/><path d="M167.677 9.717s59.741 2.584 38.678 65.373c0 0 13.649 31.394-38.678 36.76-52.327-5.366-38.679-36.76-38.679-36.76-21.063-62.789 38.679-65.373 38.679-65.373z" fill="#F3B9A0"/><path d="M167.677 9.717s59.741 2.584 38.678 65.373c0 0 13.649 31.394-38.678 36.76-52.327-5.366-38.679-36.76-38.679-36.76-21.063-62.789 38.679-65.373 38.679-65.373z" stroke="#414241" stroke-width="1.701" stroke-linecap="round" stroke-linejoin="round" fill="none"/><path d="M185.629 33.959s-12.547-9.644-33.57-4.475c0 0 7.237-9.242 19.111-7.011 0 0 12.3.192 14.459 11.486" fill="#616261"/><path d="M160.944 68.6a3.99 3.99 0 01-3.989 3.99h-15.179a3.99 3.99 0 01-3.99-3.99v-8.711a3.99 3.99 0 013.99-3.99h15.179a3.99 3.99 0 013.989 3.99V68.6z" fill="#FFFFFE"/><path d="M160.944 68.6a3.99 3.99 0 01-3.989 3.99h-15.179a3.99 3.99 0 01-3.99-3.99v-8.711a3.99 3.99 0 013.99-3.99h15.179a3.99 3.99 0 013.989 3.99V68.6z" stroke="#414241" stroke-width="1.701" stroke-linecap="round" stroke-linejoin="round" fill="none"/><path d="M174.409 68.6a3.99 3.99 0 003.989 3.99h15.18a3.99 3.99 0 003.989-3.99v-8.711a3.99 3.99 0 00-3.989-3.99h-15.18a3.99 3.99 0 00-3.989 3.99V68.6z" fill="#FFFFFE"/><path d="M174.409 68.6a3.99 3.99 0 003.989 3.99h15.18a3.99 3.99 0 003.989-3.99v-8.711a3.99 3.99 0 00-3.989-3.99h-15.18a3.99 3.99 0 00-3.989 3.99V68.6z" stroke="#414241" stroke-width="1.701" stroke-linecap="round" stroke-linejoin="round" fill="none"/><path d="M185.629 33.959s7.416-1.894 12.922 1.856c0 0-6.165-8.614-12.922-1.856" fill="#616261"/><path d="M174.409 64.36s-1.696-1.788-6.732-1.788c-5.036 0-6.733 1.788-6.733 1.788m-23.158-.596l-10.576-.794m70.357.794l10.577-.794m-63.449 3.378c0-2.854 2.136-5.166 4.769-5.166 2.634 0 4.769 2.312 4.769 5.166m36.425 0c0-2.854-2.135-5.166-4.769-5.166-2.633 0-4.768 2.312-4.768 5.166" stroke="#414241" stroke-width="1.701" stroke-linecap="round" stroke-linejoin="round" fill="none"/><path d="M175.123 51.916c.342-.842 1.025-1.736 1.795-2.343 2.719-2.145 7.766-3.466 11.101-3.013 2.327.315 10.22 1.723 8.799 5.27-.878 2.19-5.586.561-7.131.271-1.45-.273-2.931-.63-4.403-.31-1.53.332-6.151 2-7.702 2.31-1.533.305-3.284-.154-2.459-2.185z" fill="#777776"/><path d="M175.123 51.916c.342-.842 1.025-1.736 1.795-2.343 2.719-2.145 7.766-3.466 11.101-3.013 2.327.315 10.22 1.723 8.799 5.27-.878 2.19-5.586.561-7.131.271-1.45-.273-2.931-.63-4.403-.31-1.53.332-6.151 2-7.702 2.31-1.533.305-3.284-.154-2.459-2.185z" stroke="#414241" stroke-width="1.701" stroke-linecap="round" stroke-linejoin="round" fill="none"/><path d="M160.23 51.916c-.342-.842-1.024-1.736-1.795-2.343-2.719-2.145-7.766-3.466-11.1-3.013-2.328.315-10.221 1.723-8.799 5.27.877 2.19 5.585.561 7.13.271 1.45-.273 2.932-.63 4.403-.31 1.531.332 6.152 2 7.703 2.31 1.532.305 3.284-.154 2.458-2.185z" fill="#777776"/><path d="M160.23 51.916c-.342-.842-1.024-1.736-1.795-2.343-2.719-2.145-7.766-3.466-11.1-3.013-2.328.315-10.221 1.723-8.799 5.27.877 2.19 5.585.561 7.13.271 1.45-.273 2.932-.63 4.403-.31 1.531.332 6.152 2 7.703 2.31 1.532.305 3.284-.154 2.458-2.185z" stroke="#414241" stroke-width="1.701" stroke-linecap="round" stroke-linejoin="round" fill="none"/><path d="M169.732 68.335s-14.108-2.979-14.108 7.749c0 0-1.391 10.928 14.704 8.543" fill="#F3B9A0"/><path d="M169.732 68.335s-14.108-2.979-14.108 7.749c0 0-1.391 10.928 14.704 8.543" stroke="#414241" stroke-width="1.701" stroke-linecap="round" stroke-linejoin="round" fill="none"/><path d="M206.355 75.09c3.241-14.306-1.056-32.586-8.606-40.137-7.55-7.551-12.12-.994-12.12-.994-1.789-12.121-17.952-11.723-17.952-11.723-14.376 0-19.404 13.313-19.404 13.313-1.193-5.565 3.973-10.134 3.973-10.134-5.365.993-12.717 11.525-12.717 11.525 0-7.155 6.557-11.327 6.557-11.327-21.59 6.287-17.088 49.477-17.088 49.477-9.736-16.492-6.16-32.785-6.16-32.785l-1.589 2.782c-2.385-41.331 46.428-39.741 46.428-39.741l-5.296-2.186c18.678-1.191 24.241 9.141 24.241 9.141s15.3-3.18 24.44 15.697l-4.769-2.385s16.891 20.387.062 49.477z" fill="#777776"/><path d="M206.355 75.09c3.241-14.306-1.056-32.586-8.606-40.137-7.55-7.551-12.12-.994-12.12-.994-1.789-12.121-17.952-11.723-17.952-11.723-14.376 0-19.404 13.313-19.404 13.313-1.193-5.565 3.973-10.134 3.973-10.134-5.365.993-12.717 11.525-12.717 11.525 0-7.155 6.557-11.327 6.557-11.327-21.59 6.287-17.088 49.477-17.088 49.477-9.736-16.492-6.16-32.785-6.16-32.785l-1.589 2.782c-2.385-41.331 46.428-39.741 46.428-39.741l-5.296-2.186c18.678-1.191 24.241 9.141 24.241 9.141s15.3-3.18 24.44 15.697l-4.769-2.385s16.891 20.387.062 49.477z" stroke="#414241" stroke-width="1.701" stroke-linecap="round" stroke-linejoin="round" fill="none"/><path d="M176.281 23.658s3.76-.064 3.76 6.417m-6.889-7.27s2.779.885 1.83 5.629m-7.305-6.198s3.425 1.361 2.318 5.057m-7.376-4.46s1.925 1.239 1.495 4.11m-6.617-2.039s1.541-.021 1.203 2.643" stroke="#414241" stroke-width="1.701" stroke-linecap="round" stroke-linejoin="round" fill="none"/><path d="M138.489 16.648s-11.007 5.701-11.007 15.528l8.845-6.879-.59 3.145 12.383-7.272.393 2.357 13.562-7.665-10.024 2.359.197-3.145-11.597 6.879 1.18-2.752-7.47 4.129 4.128-6.684M193.916 17.828s13.563 5.504 13.563 13.955l-8.059-5.306-.983 4.127-13.757-10.221 9.433 3.735-.197-2.753 4.719 1.967-4.719-5.504" fill="#9E9F9E"/><path d="M185.094 88.602c-1.391 7.55-17.417 8.744-17.417 8.744s-16.027-1.194-17.418-8.744m1.391-3.577s-5.352 3.543-4.57 13.116m36.623-13.116s5.352 3.543 4.57 13.116" stroke="#414241" stroke-width="1.701" stroke-linecap="round" stroke-linejoin="round" fill="none"/><path d="M206.081 83.185c0 5.495-4.455 9.949-9.949 9.949-5.495 0-9.949-4.454-9.949-9.949s4.454-9.95 9.949-9.95c5.494 0 9.949 4.455 9.949 9.95z" fill="url(#prefix__b)"/><path d="M148.39 83.185c0 5.495-4.455 9.949-9.949 9.949-5.495 0-9.949-4.454-9.949-9.949s4.454-9.95 9.949-9.95c5.494 0 9.949 4.455 9.949 9.95z" fill="url(#prefix__c)"/><path d="M304.606 110.508s4.371 3.075 1.782 11.165c-2.588 8.09-3.883 23.626 5.662 30.584 0 0-4.205-8.576-1.133-13.917 0 0-1.132 7.929 2.43 11.487 0 0-.567-10.113 3.074-13.755 3.641-3.641 11.164-23.46-4.532-29.447l-7.283 3.883z" fill="#8B6B46"/><path d="M304.606 110.508s4.371 3.075 1.782 11.165c-2.588 8.09-3.883 23.626 5.662 30.584 0 0-4.205-8.576-1.133-13.917 0 0-1.132 7.929 2.43 11.487 0 0-.567-10.113 3.074-13.755 3.641-3.641 11.164-23.46-4.532-29.447l-7.283 3.883z" stroke="#414241" stroke-width="1.701" stroke-linecap="round" stroke-linejoin="round" fill="none"/><path d="M336.69 144.08s-1.734-14.353-3.154-19.873c0 0-1.104-4.259 1.893-3.154 0 0 4.101 2.839 4.889 16.087.163-2.972.234-5.957.205-8.934-.022-2.053-.157-4.078-.327-6.121-.292-3.498 3.282-3.395 4.356-.541.829 2.2.769 5.724.812 8.042.051 2.655-.012 5.368-.156 8.019.104-1.924 1.262-4.193 1.694-6.088.357-1.555.95-7.089 3.392-6.346 2.608.793 1.252 5.148 1.008 6.879-.424 3.006-1.051 5.943-1.836 8.876 1.578-.947 1.455-1.615 2.07-2.396.683-.865 1.158-1.865 1.645-2.845.377-.761 1.342-3.302 2.558-2.965 1.03.285 1.341 1.893 1.357 2.783.022 1.254-.353 2.475-.847 3.614-1.146 2.633-1.722 3.466-3.786 5.437 0 0-.315 11.986-6.624 14.194l-9.267-1.125" fill="#F3B9A0"/><path d="M336.69 144.08s-1.734-14.353-3.154-19.873c0 0-1.104-4.259 1.893-3.154 0 0 4.101 2.839 4.889 16.087.163-2.972.234-5.957.205-8.934-.022-2.053-.157-4.078-.327-6.121-.292-3.498 3.282-3.395 4.356-.541.829 2.2.769 5.724.812 8.042.051 2.655-.012 5.368-.156 8.019.104-1.924 1.262-4.193 1.694-6.088.357-1.555.95-7.089 3.392-6.346 2.608.793 1.252 5.148 1.008 6.879-.424 3.006-1.051 5.943-1.836 8.876 1.578-.947 1.455-1.615 2.07-2.396.683-.865 1.158-1.865 1.645-2.845.377-.761 1.342-3.302 2.558-2.965 1.03.285 1.341 1.893 1.357 2.783.022 1.254-.353 2.475-.847 3.614-1.146 2.633-1.722 3.466-3.786 5.437 0 0-.315 11.986-6.624 14.194l-9.267-1.125" stroke="#414241" stroke-width="1.701" stroke-linecap="round" stroke-linejoin="round" fill="none"/><path d="M337.007 157.013s-4.417-3.943-4.733-9.147c0 0-1.892-8.045-4.257-10.726-2.367-2.68-1.105-3.627 2.05-2.838 0 0 5.204 3.311 6.309 8.043 0 0 8.674-.947 8.674 9.148" fill="#F3B9A0"/><path d="M337.007 157.013s-4.417-3.943-4.733-9.147c0 0-1.892-8.045-4.257-10.726-2.367-2.68-1.105-3.627 2.05-2.838 0 0 5.204 3.311 6.309 8.043 0 0 8.674-.947 8.674 9.148" stroke="#414241" stroke-width="1.701" stroke-linecap="round" stroke-linejoin="round" fill="none"/><path d="M256.192 219.167s-7.5 72.5-8 100.5h17.75s5.25-72.25 13.5-75.25c0 0 9.5 7.25 10.5 75.5h18.5s-1.75-59.25-1.5-75.75-1-25.75-1-25.75l-49.75.75z" fill="#F3B9A0"/><path d="M256.192 219.167s-7.5 72.5-8 100.5h17.75s5.25-72.25 13.5-75.25c0 0 9.5 7.25 10.5 75.5h18.5s-1.75-59.25-1.5-75.75-1-25.75-1-25.75l-49.75.75z" stroke="#414241" stroke-width="1.701" stroke-linecap="round" stroke-linejoin="round" fill="none"/><path d="M257.562 211.615s-21.781 26.53-31.31 75.536c0 0 59.964 20.692 101.01 2.178 0 0-4.084-51.576-20.148-76.625l-49.552-1.089z" fill="#777776"/><path d="M257.562 211.615s-21.781 26.53-31.31 75.536c0 0 59.964 20.692 101.01 2.178 0 0-4.084-51.576-20.148-76.625l-49.552-1.089z" stroke="#414241" stroke-width="1.701" stroke-linecap="round" stroke-linejoin="round" fill="none"/><path d="M231.471 246.588s3.512 8.032-4.318 11.445l-11.54-.237.293-7.045 8.807-9.1 6.758 4.937z" fill="#F3B9A0"/><path d="M231.471 246.588s3.512 8.032-4.318 11.445l-11.54-.237.293-7.045 8.807-9.1 6.758 4.937z" stroke="#414241" stroke-width="1.701" stroke-linecap="round" stroke-linejoin="round" fill="none"/><path d="M226.088 262.364s3.213 3.012 5.019-1.104c1.807-4.116-.502-8.635-3.714-6.727l-1.305 7.831z" fill="#F3B9A0"/><path d="M226.088 262.364s3.213 3.012 5.019-1.104c1.807-4.116-.502-8.635-3.714-6.727l-1.305 7.831z" stroke="#414241" stroke-width="1.701" stroke-linecap="round" stroke-linejoin="round" fill="none"/><path d="M218.441 261.611s1.106 3.514 6.426 2.109c2.053-.542 3.78-2.163 4.389-4.212.342-1.15.727-3.284-.089-4.275a1.715 1.715 0 00-1.106-.637c-.347-.053-1.808.153-1.889.59 0 0-.804 4.317-7.731 6.425z" fill="#F3B9A0"/><path d="M218.441 261.611s1.106 3.514 6.426 2.109c2.053-.542 3.78-2.163 4.389-4.212.342-1.15.727-3.284-.089-4.275a1.715 1.715 0 00-1.106-.637c-.347-.053-1.808.153-1.889.59 0 0-.804 4.317-7.731 6.425z" stroke="#414241" stroke-width="1.701" stroke-linecap="round" stroke-linejoin="round" fill="none"/><path d="M213.815 257.754s.301 5.622 5.12 5.321c0 0 6.928-.201 8.936-6.224 0 0 1.807-5.421-3.614-3.815 0 0-2.611 4.718-10.442 4.718z" fill="#F3B9A0"/><path d="M213.815 257.754s.301 5.622 5.12 5.321c0 0 6.928-.201 8.936-6.224 0 0 1.807-5.421-3.614-3.815 0 0-2.611 4.718-10.442 4.718z" stroke="#414241" stroke-width="1.701" stroke-linecap="round" stroke-linejoin="round" fill="none"/><path d="M220.505 242.143s-13.301 8.221-7.738 15.961c0 0 3.385 4.112 9.431 1.21 0-.001 7.014-3.387 4.112-6.773 0 0-2.177-1.208-7.014 3.87" fill="#F3B9A0"/><path d="M220.505 242.143s-13.301 8.221-7.738 15.961c0 0 3.385 4.112 9.431 1.21 0-.001 7.014-3.387 4.112-6.773 0 0-2.177-1.208-7.014 3.87" stroke="#414241" stroke-width="1.701" stroke-linecap="round" stroke-linejoin="round" fill="none"/><path d="M222.234 242.07s-12.371 11.922-7.292 14.099c0 0 2.661.483 5.563-4.837 0 0 9.579 3.159 10.062-5.547" fill="#F3B9A0"/><path d="M222.234 242.07s-12.371 11.922-7.292 14.099c0 0 2.661.483 5.563-4.837 0 0 9.579 3.159 10.062-5.547" stroke="#414241" stroke-width="1.701" stroke-linecap="round" stroke-linejoin="round" fill="none"/><path d="M333.523 185.866l-9.256-34.849c-3.267-15.247-8.713-23.688-19.992-26.143-11.278-2.455-31.057-.938-31.057-.938s-18.818.357-27.23 15.245c-8.418 14.882-16.13 53.833-16.13 53.833l-11.95 49.677s10.397 4.836 16.204 2.419l13.06-48.956 12.567-37.534" fill="#949594"/><path d="M333.523 185.866l-9.256-34.849c-3.267-15.247-8.713-23.688-19.992-26.143-11.278-2.455-31.057-.938-31.057-.938s-18.818.357-27.23 15.245c-8.418 14.882-16.13 53.833-16.13 53.833l-11.95 49.677s10.397 4.836 16.204 2.419l13.06-48.956 12.567-37.534" stroke="#414241" stroke-width="1.701" stroke-linecap="round" stroke-linejoin="round" fill="none"/><path d="M255.579 149.826s-3.122 16.013 3.514 28.633c0 0-2.422 23.717-4.526 33.749 0 0 9.257 8.662 27.498 8.662 0 0 20.489 1.09 28.997-5.99-5.035-16.877 4.495-58.143 4.495-58.143" fill="#949594"/><path d="M255.579 149.826s-3.122 16.013 3.514 28.633c0 0-2.422 23.717-4.526 33.749 0 0 9.257 8.662 27.498 8.662 0 0 20.489 1.09 28.997-5.99-5.035-16.877 4.495-58.143 4.495-58.143" stroke="#414241" stroke-width="1.701" stroke-linecap="round" stroke-linejoin="round" fill="none"/><path d="M281.416 182.351s-12.379-15.259-12.379-47.255l3.817-9.394h22.602l3.229 10.275s-1.244 30.348-17.269 46.374" fill="#FFFFFE"/><path d="M277.748 154.032s-3.237 10.682-1.617 19.098l5.285 9.221 7.334-9.71s1.134-12.297-.159-18.767l-10.843.158z" fill="#EBA3BF"/><path d="M277.748 154.032s-3.237 10.682-1.617 19.098l5.285 9.221 7.334-9.71s1.134-12.297-.159-18.767l-10.843.158z" stroke="#414241" stroke-width="1.701" stroke-linecap="round" stroke-linejoin="round" fill="none"/><path d="M274.521 138.66s1.823 5.071 4.362 7.445l8.412.489s4.532-3.401 6.311-7.768c0 0-11.33-2.635-19.085-.166z" fill="#EBA3BF"/><path d="M274.521 138.66s1.823 5.071 4.362 7.445l8.412.489s4.532-3.401 6.311-7.768c0 0-11.33-2.635-19.085-.166z" stroke="#414241" stroke-width="1.701" stroke-linecap="round" stroke-linejoin="round" fill="none"/><path d="M279.151 178.399l-2.659-5.933 3.034-17.977 2.323-.516-2.698 24.426M283.415 179.704l3.012-3.987-.74-20.141-1.705-.301-.567 24.429" fill="#E88FB2"/><path d="M276.344 143.713s-4.336 5.015.844 12.461c0 0 1.293 2.694 3.505.483 0 0 1.591 2.509 3.774.324 0 0 1.944 3.077 3.722-.324 0 0 4.465-6.696 1.242-12.833 0 0-.918-3.024-3.83-.113 0 0-3.443-2.326-4.908.005 0 0-2.852-3.344-4.349-.003z" fill="#EBA3BF"/><path d="M276.344 143.713s-4.336 5.015.844 12.461c0 0 1.293 2.694 3.505.483 0 0 1.591 2.509 3.774.324 0 0 1.944 3.077 3.722-.324 0 0 4.465-6.696 1.242-12.833 0 0-.918-3.024-3.83-.113 0 0-3.443-2.326-4.908.005 0 0-2.852-3.344-4.349-.003z" stroke="#414241" stroke-width="1.701" stroke-linecap="round" stroke-linejoin="round" fill="none"/><path d="M281.183 145.535s-.43 5.426.965 9.418c0 0-6.489-4.864-.965-9.418M284.524 145.878s.639 4.954-.626 8.787c0 0 7.123-3.284.626-8.787" fill="#E88FB2"/><path d="M308.747 167.624s11.436 38.39 24.504 38.39c0 0 14.431-.545 17.697-49.008l-17.697-2.178s-1.634 21.508-2.995 33.216" fill="#949594"/><path d="M308.747 167.624s11.436 38.39 24.504 38.39c0 0 14.431-.545 17.697-49.008l-17.697-2.178s-1.634 21.508-2.995 33.216M281.416 182.351s-12.379-15.259-12.379-47.255l3.817-9.394h22.602l3.229 10.275s-1.244 30.348-17.269 46.374z" stroke="#414241" stroke-width="1.701" stroke-linecap="round" stroke-linejoin="round" fill="none"/><path d="M277.058 118.045c-1.37.641-2.688 1.429-3.409 2.302-1.806 2.196-3.026 5.159-3.992 7.796l-5.5 15.049s10.679-10.678 18.121.65c0 0 10.922-9.144 19.902-.162 0 0-2.585-17.451-2.587-17.478-1.183-7.214-9.372-11.015-16.086-10.081-2.157.299-4.474 1.007-6.449 1.924z" fill="#FFFFFE"/><path d="M277.058 118.045c-1.37.641-2.688 1.429-3.409 2.302-1.806 2.196-3.026 5.159-3.992 7.796l-5.5 15.049s10.679-10.678 18.121.65c0 0 10.922-9.144 19.902-.162 0 0-2.585-17.451-2.587-17.478-1.183-7.214-9.372-11.015-16.086-10.081-2.157.299-4.474 1.007-6.449 1.924z" stroke="#414241" stroke-width="1.701" stroke-linecap="round" stroke-linejoin="round" fill="none"/><path d="M276.616 115.363s5.749 8.864-.808 14.401l6.47 14.078 11.49-14.886s-6.576-3.419-1.783-13.594l-15.369.001z" fill="#F3B9A0"/><path d="M276.616 115.363s5.749 8.864-.808 14.401l6.47 14.078 11.49-14.886s-6.576-3.419-1.783-13.594l-15.369.001z" stroke="#414241" stroke-width="1.701" stroke-linecap="round" stroke-linejoin="round" fill="none"/><path d="M249.451 84.25s-8.033-5.462-9.32 5.46c0 0 .646 9.639 9.639 9.319 0 0 8.997-2.892-.319-14.779z" fill="#F3B9A0"/><path d="M249.451 84.25s-8.033-5.462-9.32 5.46c0 0 .646 9.639 9.639 9.319 0 0 8.997-2.892-.319-14.779z" stroke="#414241" stroke-width="1.701" stroke-linecap="round" stroke-linejoin="round" fill="none"/><path d="M323.316 91.09c-.781-6.64-4.054-7.222-6.501-6.659 2.109-16.875-3.78-30.927-3.78-30.927l-8.009-14.207-30.367-1.082-24.863 15.289s-8.352 19.915-1.606 40.799c-.918.789-1.212 1.869-1.559 2.999-1.748 5.687-.063 10.13 4.437 13.944 10.765 9.115 26.741 10.345 40.099 8.301 3.895-.599 7.798-1.326 11.567-2.502 7.091-2.212 13.98-6.996 14.139-15.301.01-.555-.024-1.121-.078-1.686 6.029-1.696 6.521-8.968 6.521-8.968z" fill="#F3B9A0"/><path d="M323.316 91.09c-.781-6.64-4.054-7.222-6.501-6.659 2.109-16.875-3.78-30.927-3.78-30.927l-8.009-14.207-30.367-1.082-24.863 15.289s-8.352 19.915-1.606 40.799c-.918.789-1.212 1.869-1.559 2.999-1.748 5.687-.063 10.13 4.437 13.944 10.765 9.115 26.741 10.345 40.099 8.301 3.895-.599 7.798-1.326 11.567-2.502 7.091-2.212 13.98-6.996 14.139-15.301.01-.555-.024-1.121-.078-1.686 6.029-1.696 6.521-8.968 6.521-8.968zM280.268 91.261s-6.611 1.283 0 4.5" stroke="#414241" stroke-width="1.701" stroke-linecap="round" stroke-linejoin="round" fill="none"/><path d="M295.394 81.544c-.002 2.738 1.422 4.962 3.185 4.962 1.763 0 3.188-2.224 3.188-4.96 0-2.739-1.427-4.962-3.188-4.962-1.758.005-3.187 2.225-3.185 4.96M260.813 81.544c-.002 2.738 1.423 4.962 3.186 4.962s3.187-2.224 3.187-4.96c0-2.739-1.426-4.962-3.187-4.962-1.758.005-3.188 2.225-3.186 4.96" fill="#414241"/><path d="M329.77 66.203c-.32-8.458-1.946-16.651-6.244-23.901-3.283-5.54-9.3-10.396-14.985-13.439-.574-.307-2.343-1.059-3.812-1.059.002 0 3.858-3.857 7.068-3.855 0 0-11.403-3.376-16.704 1.925 0 0-4.175-6.423-10.282-4.173 0 0 3.538 1.283 4.499 3.533 0 0-27.627-8.033-44.976 19.273 0 0-14.135 21.523 3.856 49.796 0 0-4.498-20.561 3.213-32.446 0 0 5.782-8.033 11.242-8.033 0 0-3.958 5.914-8.351 8.355 0 0 30.196-1.929 39.514-15.74 0 0 3.784 17.008 17.597 23.116l-2.178-9.303s11.151 11.562 5.414 34.051c.473-1.853 3.332-8.02 4.434-9.808 0 0 4.158 2.165 4.036 5.295 0 0 7.028-13.817 6.659-23.587z" fill="#8B6B46"/><path d="M329.77 66.203c-.32-8.458-1.946-16.651-6.244-23.901-3.283-5.54-9.3-10.396-14.985-13.439-.574-.307-2.343-1.059-3.812-1.059.002 0 3.858-3.857 7.068-3.855 0 0-11.403-3.376-16.704 1.925 0 0-4.175-6.423-10.282-4.173 0 0 3.538 1.283 4.499 3.533 0 0-27.627-8.033-44.976 19.273 0 0-14.135 21.523 3.856 49.796 0 0-4.498-20.561 3.213-32.446 0 0 5.782-8.033 11.242-8.033 0 0-3.958 5.914-8.351 8.355 0 0 30.196-1.929 39.514-15.74 0 0 3.784 17.008 17.597 23.116l-2.178-9.303s11.151 11.562 5.414 34.051c.473-1.853 3.332-8.02 4.434-9.808 0 0 4.158 2.165 4.036 5.295 0 0 7.028-13.817 6.659-23.587z" stroke="#414241" stroke-width="1.701" stroke-linecap="round" stroke-linejoin="round" fill="none"/><path d="M264.005 32.787s-14.021 4.974-15.744 22.195l15.645-11.697-1.198 6.798 13.394-6.402-2.398 6.149 16.921-11.474-9.173 2.326 1.602-4.101-12.825 5.626 3.375-4.224-13.796 3.7 4.197-8.896M296.901 42.53l11.949 11.744 1.199-6.798 12.321 9.623s2.79-5.747-7.424-17.522l.777 8.024-8.449-6.747-.975 5.524-9.398-3.848" fill="#A88155"/><path d="M273.166 100.956s6.807 3.665 16.754-.523c0 0-.524 13.089-9.162 13.089 0-.001-7.592-.787-7.592-12.566z" fill="#E5787A"/><path d="M273.166 100.956s6.807 3.665 16.754-.523c0 0-.524 13.089-9.162 13.089 0-.001-7.592-.787-7.592-12.566zM270.244 70.372s-8.899-7.592-15.183 1.57m34.778-2.339c0-.001 8.224-8.318 15.261.28" stroke="#414241" stroke-width="1.701" stroke-linecap="round" stroke-linejoin="round" fill="none"/><path d="M330.256 188.044c1.361-11.708 2.995-33.216 2.995-33.216l17.697 2.178c-3.266 48.463-17.697 49.008-17.697 49.008-13.068 0-24.504-38.39-24.504-38.39l6.695-20.957 6.5 19.25 13.25 17" fill="#949594"/><path d="M308.747 167.624s11.436 38.39 24.504 38.39c0 0 14.431-.545 17.697-49.008l-17.697-2.178s-1.634 21.508-2.995 33.216" stroke="#414241" stroke-width="1.701" stroke-linecap="round" stroke-linejoin="round" fill="none"/><path d="M313.069 97.761c0 5.495-4.455 9.949-9.949 9.949-5.495 0-9.949-4.454-9.949-9.949s4.454-9.95 9.949-9.95c5.494 0 9.949 4.455 9.949 9.95z" fill="url(#prefix__d)"/><path d="M269.246 97.761c0 5.495-4.455 9.949-9.949 9.949-5.495 0-9.949-4.454-9.949-9.949s4.454-9.95 9.949-9.95c5.494 0 9.949 4.455 9.949 9.95z" fill="url(#prefix__e)"/><path d="M29.573 164.517c1.427 10.458-2.139 91.506-2.139 91.506 37.077 11.17 69.639.237 69.639.237-2.851-15.687-.475-92.456-.475-92.456l-5.87-12.482-44.145-2.257-16.303 1.253-3.26 9.031 2.553 5.168" fill="#777776"/><path d="M5.237 280.746c-8.3-7.916 5.213-22.394 5.213-22.394l11.101.299 1.585 4.302" fill="#F3B9A0"/><path d="M5.237 280.746c-8.3-7.916 5.213-22.394 5.213-22.394l11.101.299 1.585 4.302" stroke="#414241" stroke-width="1.701" stroke-linecap="round" stroke-linejoin="round" fill="none"/><path d="M8.906 275.533s-1.351 5.791.773 8.881c0 0-7.529 1.156-5.406-11.005" fill="#F3B9A0"/><path d="M8.906 275.533s-1.351 5.791.773 8.881c0 0-7.529 1.156-5.406-11.005" stroke="#414241" stroke-width="1.701" stroke-linecap="round" stroke-linejoin="round" fill="none"/><path d="M13.154 275.533s-2.704 4.439-.195 9.459c0 0-2.702 2.704-4.631-.192 0 0-3.477-3.475-.967-11.777" fill="#F3B9A0"/><path d="M13.154 275.533s-2.704 4.439-.195 9.459c0 0-2.702 2.704-4.631-.192 0 0-3.477-3.475-.967-11.777" stroke="#414241" stroke-width="1.701" stroke-linecap="round" stroke-linejoin="round" fill="none"/><path d="M22.806 260.861s3.281 10.424.772 15.057c0 0-2.897 4.441-4.247 4.635 0 0-3.089-.579-.58-5.02 0 0 2.125-3.089-.771-5.598 0 0-3.669 6.756-3.477 9.653 0 0-.386 2.123.967 4.633 0 0 .194 3.859-3.669 1.351 0 0-4.825-3.861-.192-12.549" fill="#F3B9A0"/><path d="M22.806 260.861s3.281 10.424.772 15.057c0 0-2.897 4.441-4.247 4.635 0 0-3.089-.579-.58-5.02 0 0 2.125-3.089-.771-5.598 0 0-3.669 6.756-3.477 9.653 0 0-.386 2.123.967 4.633 0 0 .194 3.859-3.669 1.351 0 0-4.825-3.861-.192-12.549" stroke="#414241" stroke-width="1.701" stroke-linecap="round" stroke-linejoin="round" fill="none"/><path d="M106.862 279.005l1.716-1.931c3.861-6.22-3.86-17.59-3.86-17.59l-9.197-.073-3.168.905 1.357 5.886 2.491 6.113 1.132 4.3" fill="#F3B9A0"/><path d="M106.862 279.005l1.716-1.931c3.861-6.22-3.86-17.59-3.86-17.59l-9.197-.073-3.168.905 1.357 5.886 2.491 6.113 1.132 4.3" stroke="#414241" stroke-width="1.701" stroke-linecap="round" stroke-linejoin="round" fill="none"/><path d="M106.648 270.854s3.218 10.51-3.432 12.012c0 0-2.574 0-3.432-.43" fill="#F3B9A0"/><path d="M106.648 270.854s3.218 10.51-3.432 12.012c0 0-2.574 0-3.432-.43" stroke="#414241" stroke-width="1.701" stroke-linecap="round" stroke-linejoin="round" fill="none"/><path d="M103.86 272.57s1.93 10.94-3.646 11.369c0 0-2.576-.001-4.076-1.289" fill="#F3B9A0"/><path d="M103.86 272.57s1.93 10.94-3.646 11.369c0 0-2.576-.001-4.076-1.289" stroke="#414241" stroke-width="1.701" stroke-linecap="round" stroke-linejoin="round" fill="none"/><path d="M100.214 273.215s1.072 11.581-4.506 10.937c0 0-2.788-.213-4.504-2.574 0 0-.215-3.002 3.646-1.715 0 0 1.073-3.861.643-6.648 0 0-4.719-5.15-2.789-13.731" fill="#F3B9A0"/><path d="M100.214 273.215s1.072 11.581-4.506 10.937c0 0-2.788-.213-4.504-2.574 0 0-.215-3.002 3.646-1.715 0 0 1.073-3.861.643-6.648 0 0-4.719-5.15-2.789-13.731" stroke="#414241" stroke-width="1.701" stroke-linecap="round" stroke-linejoin="round" fill="none"/><path d="M106.845 255.202l.713 4.516s-7.605 2.615-15.211.951l-.239-4.754 14.737-.713z" fill="#FFFFFE"/><path d="M106.845 255.202l.713 4.516s-7.605 2.615-15.211.951l-.239-4.754 14.737-.713z" stroke="#414241" stroke-width="1.701" stroke-linecap="round" stroke-linejoin="round" fill="none"/><path d="M24.677 254.373v5.704s-10.459 1.901-17.113-.713l.951-5.466 16.162.475z" fill="#FFFFFE"/><path d="M24.677 254.373v5.704s-10.459 1.901-17.113-.713l.951-5.466 16.162.475z" stroke="#414241" stroke-width="1.701" stroke-linecap="round" stroke-linejoin="round" fill="none"/><path d="M92.32 253.408s1.941 43.495 2.278 60.37H67.74s-1.327-28.996-2.515-34.225l-2.238 34.225H31.612s-1.326-11.408-2.039-20.44c-.713-9.032-1.213-35.414 2.484-46.109l60.263 6.179z" fill="#777776"/><path d="M92.32 253.408s1.941 43.495 2.278 60.37H67.74s-1.327-28.996-2.515-34.225l-2.238 34.225H31.612s-1.326-11.408-2.039-20.44c-.713-9.032-1.213-35.414 2.484-46.109l60.263 6.179z" stroke="#414241" stroke-width="1.701" stroke-linecap="round" stroke-linejoin="round" fill="none"/><path d="M91.846 257.57c11.884 2.615 17.112-2.377 17.112-2.377-2.615-13.309-2.852-83.545-2.852-83.545 0-17.826-2.852-25.669-2.852-25.669-6.418-14.022-28.522-19.49-28.522-19.49-.862-.125-1.733-.209-2.6-.294a92.548 92.548 0 00-6.984-.408c-1.083-.023-2.167-.031-3.251-.023" fill="#777776"/><path d="M91.846 257.57c11.884 2.615 17.112-2.377 17.112-2.377-2.615-13.309-2.852-83.545-2.852-83.545 0-17.826-2.852-25.669-2.852-25.669-6.418-14.022-28.522-19.49-28.522-19.49-.862-.125-1.733-.209-2.6-.294a92.548 92.548 0 00-6.984-.408c-1.083-.023-2.167-.031-3.251-.023" stroke="#414241" stroke-width="1.701" stroke-linecap="round" stroke-linejoin="round" fill="none"/><path d="M96.598 163.804s-2.376 76.769.475 92.456c0 0-32.562 10.933-69.639-.237 0-.001 3.566-81.048 2.139-91.506" fill="#777776"/><path d="M96.598 163.804s-2.376 76.769.475 92.456c0 0-32.562 10.933-69.639-.237 0-.001 3.566-81.048 2.139-91.506" stroke="#414241" stroke-width="1.701" stroke-linecap="round" stroke-linejoin="round" fill="none"/><path d="M61.897 125.764c-2.212.015-4.424.098-6.63.245-6.032.399-11.883 1.469-17.639 3.322-6.557 2.11-13.092 4.723-17.662 10.117-3.288 3.882-5.822 8.532-7.647 13.265-2.99 7.752-4.282 16.02-4.91 24.269-.697 9.161-.932 18.349-1.127 27.532-.188 8.882-.431 17.763-.702 26.644-.184 6.058-.271 20.861-.318 22.407l-.065 2.098-.004.139s13.208 2.835 22.241.221L31 178.611" fill="#777776"/><path d="M61.897 125.764c-2.212.015-4.424.098-6.63.245-6.032.399-11.883 1.469-17.639 3.322-6.557 2.11-13.092 4.723-17.662 10.117-3.288 3.882-5.822 8.532-7.647 13.265-2.99 7.752-4.282 16.02-4.91 24.269-.697 9.161-.932 18.349-1.127 27.532-.188 8.882-.431 17.763-.702 26.644-.184 6.058-.271 20.861-.318 22.407l-.065 2.098-.004.139s13.208 2.835 22.241.221L31 178.611" stroke="#414241" stroke-width="1.701" stroke-linecap="round" stroke-linejoin="round" fill="none"/><path d="M62.137 118.883s11.408-1.664 16.399 10.695l9.983 19.965-11.884 5.229 10.458 9.032-13.666 29.829-28.641-25.788 9.508-8.794-14.023-4.041s1.188-12.359 1.188-19.727 3.803-16.4 20.678-16.4z" fill="#777776"/><path d="M62.137 118.883s11.408-1.664 16.399 10.695l9.983 19.965-11.884 5.229 10.458 9.032-13.666 29.829-28.641-25.788 9.508-8.794-14.023-4.041s1.188-12.359 1.188-19.727 3.803-16.4 20.678-16.4z" stroke="#414241" stroke-width="1.701" stroke-linecap="round" stroke-linejoin="round" fill="none"/><path d="M63.21 138.963l9.397 8.828.82 45.842-17.286-43.686 7.069-10.984z" fill="#FFFFFE"/><path d="M63.21 138.963l9.397 8.828.82 45.842-17.286-43.686 7.069-10.984z" stroke="#414241" stroke-width="1.701" stroke-linecap="round" stroke-linejoin="round" fill="none"/><path d="M67.389 149.995l5.688 24.033.35 19.605-7.454-18.239-3.347-24.686 4.763-.713z" fill="#00A3DA"/><path d="M67.389 149.995l5.688 24.033.35 19.605-7.454-18.239-3.347-24.686 4.763-.713z" stroke="#414241" stroke-width="1.701" stroke-linecap="round" stroke-linejoin="round" fill="none"/><path d="M68.83 141.817s1.148 4.827-.515 9.105c0 0-4.514 2.377-6.178.713 0 0-3.015-5.37-3.015-8.746 0 0 4.518-3.996 9.708-1.072z" fill="#00A3DA"/><path d="M68.83 141.817s1.148 4.827-.515 9.105c0 0-4.514 2.377-6.178.713 0 0-3.015-5.37-3.015-8.746 0 0 4.518-3.996 9.708-1.072z" stroke="#414241" stroke-width="1.701" stroke-linecap="round" stroke-linejoin="round" fill="none"/><path d="M64.99 123.159s6.894 0 7.368 11.884l.249 12.748-9.397-8.828-7.069 10.984-7.551-17.281s-5.466-13.072 16.4-9.507z" fill="#FFFFFE"/><path d="M64.99 123.159s6.894 0 7.368 11.884l.249 12.748-9.397-8.828-7.069 10.984-7.551-17.281s-5.466-13.072 16.4-9.507z" stroke="#414241" stroke-width="1.701" stroke-linecap="round" stroke-linejoin="round" fill="none"/><path d="M67.131 114.6s-.475 10.22 1.188 14.736l-5.109 9.627-12.479-10.578s.714-7.605 0-14.736l16.4.951z" fill="#F3B9A0"/><path d="M67.131 114.6s-.475 10.22 1.188 14.736l-5.109 9.627-12.479-10.578s.714-7.605 0-14.736l16.4.951z" stroke="#414241" stroke-width="1.701" stroke-linecap="round" stroke-linejoin="round" fill="none"/><path d="M16.684 87.522c-.239 2.285.168 4.36.168 4.36 1.643 10.884 11.089 9.036 11.089 9.036 5.165 24.831 47.235 19.716 47.235 19.716 34.091-7.188 21.153-29.778 21.153-29.778 2.465-25.466-3.902-39.226-3.902-39.226L77.351 38.066H55.247L32.058 50.189 21.022 70.866l-4.338 16.656" fill="#F3B9A0"/><path d="M91.61 78.472c0-3.02-2.128-5.467-4.753-5.467s-4.753 2.447-4.753 5.467m-15.688.951a5.466 5.466 0 10-10.932 0m20.916 4.04s7.369-.712 7.606 4.754c0 0 .001 6.18-7.606 6.18m6.417 8.08s-9.507 7.843-19.727-.238m18.063-35.888s4.517-6.657 10.934.474m-22.816-.474s-8.558-6.418-14.975.713" stroke="#414241" stroke-width="1.701" stroke-linecap="round" stroke-linejoin="round" fill="none"/><path d="M79.255 31.47s11.159 3.455 13.816 16.209l-7.174-3.987 1.594 4.518-11.426-7.706 4.784.798-.532-2.923 7.44 2.392-8.502-9.301" fill="#414241"/><g clip-path="url(#prefix__f)"><path d="M48.635 85.428c5.494 0 9.95 4.454 9.95 9.949s-4.456 9.949-9.95 9.949c-5.495 0-9.949-4.454-9.949-9.949s4.454-9.949 9.949-9.949z" fill="url(#prefix__g)"/></g><g clip-path="url(#prefix__h)"><path d="M95.62 85.428c1.043.053.684-.016 1.093.067-.225 3.794-.091 2.007-.384 5.361 2.183 4.215 3.258 9.528 1.732 14.128-1.757.358-.94.266-2.441.342-5.495 0-9.949-4.454-9.949-9.949s4.454-9.949 9.949-9.949z" fill="url(#prefix__i)"/></g><path d="M16.684 87.522c-.239 2.285.168 4.36.168 4.36 1.643 10.884 11.089 9.036 11.089 9.036 5.165 24.831 47.235 19.716 47.235 19.716 34.091-7.188 21.153-29.778 21.153-29.778 2.465-25.466-3.902-39.226-3.902-39.226L77.351 38.066H55.247L32.058 50.189 21.022 70.866l-4.338 16.656z" stroke="#414241" stroke-width="1.701" stroke-linecap="round" stroke-linejoin="round" fill="none"/><path d="M16.684 87.522c.351-3.365 2.103-7.184 8.616-5.485 4.031 1.052 5.64 6.046 7.169 9.413.32.706.637 1.413.956 2.12.247.551.865 1.418.906 2.014 0 0-.949-13.785 5.23-28.759 0 0 5.229-9.269 8.081-11.884 0 0-.952 9.033-4.754 14.737 0 0 16.398-5.229 19.726-18.777 0 0 .714 9.27-4.753 15.45 0 0 18.778-7.843 18.539-21.154 0 0 16.839 8.556 20.04 24.481 0 0 2.302-2.614.875-15.211 0 0 2.615 3.803 3.566 9.982 0 0 3.565-31.136-26.382-37.078 0 0-16.504-7.844-29.473 1.426 0 0-.238-5.704 3.09-7.606 0 0-10.457 1.664-10.932 10.458 0 0-9.507-2.376-14.498 4.754 0 0 7.264-2.378 8.318.475 0 0-23.828 5.962-14.32 50.644z" fill="#414241"/><path d="M16.684 87.522c.351-3.365 2.103-7.184 8.616-5.485 4.031 1.052 5.64 6.046 7.169 9.413.32.706.637 1.413.956 2.12.247.551.865 1.418.906 2.014 0 0-.949-13.785 5.23-28.759 0 0 5.229-9.269 8.081-11.884 0 0-.952 9.033-4.754 14.737 0 0 16.398-5.229 19.726-18.777 0 0 .714 9.27-4.753 15.45 0 0 18.778-7.843 18.539-21.154 0 0 16.839 8.556 20.04 24.481 0 0 2.302-2.614.875-15.211 0 0 2.615 3.803 3.566 9.982 0 0 3.565-31.136-26.382-37.078 0 0-16.504-7.844-29.473 1.426 0 0-.238-5.704 3.09-7.606 0 0-10.457 1.664-10.932 10.458 0 0-9.507-2.376-14.498 4.754 0 0 7.264-2.378 8.318.475 0 0-23.828 5.962-14.32 50.644z" stroke="#414241" stroke-width="1.417" stroke-linecap="round" stroke-linejoin="round" fill="none"/><path d="M30.896 42.896s-14.615 6.111-11.692 27.102l5.58-10.362 1.86 9.034 4.252-9.832 1.162 8.237 9.465-13.285-7.97 5.314-1.495-6.643-3.554 5.58-.797-5.048-4.252 4.251s3.455-13.02 7.441-14.348" fill="#595A59"/><g><path d="M268.149 227.365c-6.557-3.422-39.444-4.029-40.137-3.322-.202.205-1.659.105-1.926.133-1.8.174-3.588.46-5.353.853-5.557 1.237-11.107 3.424-15.848 6.595a35.506 35.506 0 00-4.47 3.555c-5.401 5.04-6.183 12.541-6.429 19.518-.37 10.485-.066 20.84.408 31.316.137 3.046.258 6.094.317 9.143.077 4.028.106 8.057.173 12.085.124 7.489.257 14.978.385 22.468.028 1.62.057 3.24.13 9.037l24.866-.268.691-74.601 46.6-1.827" fill="#A0D8EB"/><path d="M268.149 227.365c-6.557-3.422-39.444-4.029-40.137-3.322-.202.205-1.659.105-1.926.133-1.8.174-3.588.46-5.353.853-5.557 1.237-11.107 3.424-15.848 6.595a35.506 35.506 0 00-4.47 3.555c-5.401 5.04-6.183 12.541-6.429 19.518-.37 10.485-.066 20.84.408 31.316.137 3.046.258 6.094.317 9.143.077 4.028.106 8.057.173 12.085.124 7.489.257 14.978.385 22.468.028 1.62.057 3.24.13 9.037l24.866-.268.691-74.601 46.6-1.827" stroke="#414241" stroke-width="1.701" stroke-linecap="round" stroke-linejoin="round" fill="none"/></g><path d="M205.971 253.631s2.741 69.301 2.881 82.289l74.135-.771-3.454-97.643-7.98-5.038-1.94-4.827-10.041 1.821-18.592 2.138" fill="#A0D8EB"/><g><path d="M240.986 243.291l-8.827 4.734 6.675 47.691 11.569-47.072-9.417-5.353z" fill="#FFFFFE"/><path d="M240.986 243.291l-8.827 4.734 6.675 47.691 11.569-47.072-9.417-5.353z" stroke="#414241" stroke-width="1.701" stroke-linecap="round" stroke-linejoin="round" fill="none"/></g><g><path d="M238.229 251.105l-3.188 19.751 3.793 24.86 5.82-23.677-1.333-20.743-5.092-.191z" fill="#E46E5F"/><path d="M238.229 251.105l-3.188 19.751 3.793 24.86 5.82-23.677-1.333-20.743-5.092-.191z" stroke="#414241" stroke-width="1.701" stroke-linecap="round" stroke-linejoin="round" fill="none"/></g><g><path d="M238.758 220.323s-8.637 1.328-10.249 12.47l1.662 16.297 10.815-5.799 11.939 6.788 2.002-20.537s.361-12.363-16.169-9.219z" fill="#FFFFFE"/><path d="M238.758 220.323s-8.637 1.328-10.249 12.47l1.662 16.297 10.815-5.799 11.939 6.788 2.002-20.537s.361-12.363-16.169-9.219z" stroke="#414241" stroke-width="1.701" stroke-linecap="round" stroke-linejoin="round" fill="none"/></g><g><path d="M229.108 219.437s-3.695 1.03-6.748 15.895l-4.512 17.105 9.65.882-5.342 8.96 16.678 33.437-9.198-65.726s1.283-6.154 6.642-8.039l-7.17-2.514z" fill="#A0D8EB"/><path d="M229.108 219.437s-3.695 1.03-6.748 15.895l-4.512 17.105 9.65.882-5.342 8.96 16.678 33.437-9.198-65.726s1.283-6.154 6.642-8.039l-7.17-2.514z" stroke="#414241" stroke-width="1.701" stroke-linecap="round" stroke-linejoin="round" fill="none"/></g><g><path d="M238.834 295.716l15.977-65.005s.831-6.81-6.395-10.219l4.921-2.954s7.998 1.552 11.456 32.909l-11.343 2.592 5.278 8.102-19.894 34.575z" fill="#A0D8EB"/><path d="M238.834 295.716l15.977-65.005s.831-6.81-6.395-10.219l4.921-2.954s7.998 1.552 11.456 32.909l-11.343 2.592 5.278 8.102-19.894 34.575z" stroke="#414241" stroke-width="1.701" stroke-linecap="round" stroke-linejoin="round" fill="none"/></g><g><path d="M233.539 217.907s4.746 4.639.128 11.858l7.319 13.526 9.325-15.54s-3.347-3.064-1.46-11.493l-15.312 1.649z" fill="#F3B9A0"/><path d="M233.539 217.907s4.746 4.639.128 11.858l7.319 13.526 9.325-15.54s-3.347-3.064-1.46-11.493l-15.312 1.649z" stroke="#414241" stroke-width="1.701" stroke-linecap="round" stroke-linejoin="round" fill="none"/></g><g><path d="M235.502 246.406s-.262 7.147 1.427 8.799l6.686.205s3.072-2.679 3.007-8.729l-5.642-3.21-5.478 2.935z" fill="#E46E5F"/><path d="M235.502 246.406s-.262 7.147 1.427 8.799l6.686.205s3.072-2.679 3.007-8.729l-5.642-3.21-5.478 2.935z" stroke="#414241" stroke-width="1.701" stroke-linecap="round" stroke-linejoin="round" fill="none"/></g><path d="M282.987 335.149l-3.285-82.051m-72.401 7.198s1.455 66.769 1.595 79.758" stroke="#414241" stroke-width="1.701" stroke-linecap="round" stroke-linejoin="round" fill="none"/><g><path d="M238.977 290.311l.491 45.278" fill="#FFFFFE"/><path d="M238.977 290.311l.491 45.278" stroke="#414241" stroke-width="1.701" stroke-linecap="round" stroke-linejoin="round" fill="none"/></g><g><path d="M212.515 166.752c.112-1.067-4.188-2.806-4.929-2.907-4.64-.637-6.249 4.825-6.174 8.429.058 2.854.882 5.732 2.79 7.908.654.748 6.292 5.185 6.591 2.33l1.722-15.76z" fill="#F3B9A0"/><path d="M212.515 166.752c.112-1.067-4.188-2.806-4.929-2.907-4.64-.637-6.249 4.825-6.174 8.429.058 2.854.882 5.732 2.79 7.908.654.748 6.292 5.185 6.591 2.33l1.722-15.76z" stroke="#414241" stroke-width="1.701" stroke-linecap="round" stroke-linejoin="round" fill="none"/></g><g><path d="M274.787 174.001c.182-1.053 4.789-1.564 5.53-1.461 4.639.642 4.709 6.336 3.665 9.786-.83 2.731-2.4 5.277-4.827 6.859-.831.542-7.46 3.288-6.975.456l2.607-15.64z" fill="#F3B9A0"/><path d="M274.787 174.001c.182-1.053 4.789-1.564 5.53-1.461 4.639.642 4.709 6.336 3.665 9.786-.83 2.731-2.4 5.277-4.827 6.859-.831.542-7.46 3.288-6.975.456l2.607-15.64z" stroke="#414241" stroke-width="1.701" stroke-linecap="round" stroke-linejoin="round" fill="none"/></g><path d="M211.526 157.877s-15.97 59.288 24.298 64.076c0 0 41.491 10.637 42.286-55.7 0 0 4.985-30.812-22.411-35.032 0 0-41.454-6.266-44.173 26.656" fill="#F3B9A0"/><path d="M233.147 172.05s-2.501 8.569-4.328 12.766c-1.822 4.198-1.541 5.419 4.907 6.415" stroke="#414241" stroke-width="1.701" stroke-linecap="round" stroke-linejoin="round" fill="none"/><path d="M226.066 170.519c-.144 2.183-1.3 3.88-2.584 3.797-1.284-.084-2.209-1.919-2.061-4.104.141-2.183 1.299-3.883 2.582-3.798 1.283.085 2.206 1.922 2.063 4.105M255.995 172.065c-.146 2.183-1.303 3.883-2.586 3.8-1.282-.084-2.208-1.921-2.06-4.105.141-2.182 1.298-3.882 2.581-3.796 1.284.085 2.207 1.92 2.065 4.101" fill="#414241"/><path d="M231.158 159.015s-6.037-10.305-12.338.627m31.112.157s8.286-9.966 14.318-.155m-32.615 43.313s14.451 12.188 21.691-3.197" stroke="#414241" stroke-width="1.701" stroke-linecap="round" stroke-linejoin="round" fill="none"/><g><path d="M248.606 299.386c.022 1.902-.967 3.455-2.21 3.469-1.24.013-2.262-1.519-2.283-3.421-.02-1.904.968-3.457 2.209-3.47 1.242-.015 2.264 1.518 2.284 3.422z" fill="#A0D8EB"/><path d="M248.606 299.386c.022 1.902-.967 3.455-2.21 3.469-1.24.013-2.262-1.519-2.283-3.421-.02-1.904.968-3.457 2.209-3.47 1.242-.015 2.264 1.518 2.284 3.422z" stroke="#414241" stroke-width="1.701" stroke-linecap="round" stroke-linejoin="round" fill="none"/></g><g><path d="M275.286 260.323l14.13 55.101-8.793 22.747 20.076.082s10.015-16.048 7.75-31.424l-11.307-48.097c-5.668-28.547-22.445-29.038-28.993-31.385" fill="#A0D8EB"/><path d="M275.286 260.323l14.13 55.101-8.793 22.747 20.076.082s10.015-16.048 7.75-31.424l-11.307-48.097c-5.668-28.547-22.445-29.038-28.993-31.385" stroke="#414241" stroke-width="1.701" stroke-linecap="round" stroke-linejoin="round" fill="none"/></g><g clip-path="url(#prefix__j)"><path d="M263.265 179.958c5.768-.062 10.497 4.564 10.559 10.333.063 5.771-4.565 10.497-10.333 10.56-5.769.062-10.497-4.564-10.559-10.333-.063-5.77 4.563-10.498 10.333-10.56z" fill="url(#prefix__k)"/></g><g clip-path="url(#prefix__l)"><path d="M215.467 177.978c5.769-.063 10.497 4.563 10.559 10.333.063 5.769-4.563 10.497-10.333 10.559-2.116.04-4.099-.617-5.849-1.771-1.338-5.316-1.412-10.822-1.389-16.263 1.83-1.933 4.434-2.7 7.012-2.858z" fill="url(#prefix__m)"/></g><path d="M211.526 157.877s-15.97 59.288 24.298 64.076c0 0 41.491 10.637 42.286-55.7 0 0 4.985-30.812-22.411-35.032 0 0-41.454-6.266-44.173 26.656z" stroke="#414241" stroke-width="1.701" stroke-linecap="round" stroke-linejoin="round" fill="none"/><g><path d="M266.926 128.707s-.016-7.544-16.414-8.184c-16.399-.643-34.833-1.836-39.277-5.113 0 0-3.897 6.943 4.231 10.786 0 0-14.664.332-4.695 7.525 0 0-7.436-.674-2.571 5.968 0 0-8.5 3.169-4.218 9.014 4.287 5.845 5.517 15.906 4.988 23.857 0 0 7.252-25.272 12.565-29.165 0 0 36.868 5.446 43.405-4.861 0 0 1.044 6.994 8.764 11.956 0 0 4.32 18.111 3.385 30.927 0 0 3.661-15.465 10.035-20.139 3.719-2.724 3.02-9.034 2.154-12.914-.642-2.886-1.588-5.907-3.021-8.507-1.346-2.449-3.46-4.368-4.942-6.731-1.328-2.115-2.23-4.295-4.623-5.436-3.268-1.556-6.7-.633-9.766 1.017z" fill="#5F4E33"/><path d="M266.926 128.707s-.016-7.544-16.414-8.184c-16.399-.643-34.833-1.836-39.277-5.113 0 0-3.897 6.943 4.231 10.786 0 0-14.664.332-4.695 7.525 0 0-7.436-.674-2.571 5.968 0 0-8.5 3.169-4.218 9.014 4.287 5.845 5.517 15.906 4.988 23.857 0 0 7.252-25.272 12.565-29.165 0 0 36.868 5.446 43.405-4.861 0 0 1.044 6.994 8.764 11.956 0 0 4.32 18.111 3.385 30.927 0 0 3.661-15.465 10.035-20.139 3.719-2.724 3.02-9.034 2.154-12.914-.642-2.886-1.588-5.907-3.021-8.507-1.346-2.449-3.46-4.368-4.942-6.731-1.328-2.115-2.23-4.295-4.623-5.436-3.268-1.556-6.7-.633-9.766 1.017z" stroke="#414241" stroke-width="1.701" stroke-linecap="round" stroke-linejoin="round" fill="none"/></g><path d="M235.359 124.178s-14.56 2.284-22.157 2.062c0 0 5.809 3.278 11.586 3.823 0 0-9.372 4.05-14.537 4.107 0 0 11.574 2.915 17.341 2.243 0 0-7.553 4.031-12.406 4.691 0 0 21.572.072 30.327-4.884l-13.05 1.052 2.695-3.372-9.427-.808 7.852-4.643-5.479-.851 7.255-3.42M267.544 130.881s8.754 5.964 9.362 13.33l-6.639-5.194-.2 6.058-7.998-9.129 4.772 2.843.221-3.688 3.707 1.804-3.225-6.024" fill="#836A47"/><g><path d="M29.447 129.734s3.026-3.159 6.579.393c3.554 3.555 2.813 12.503-4.474 12.503l-2.105-12.896z" fill="#F3B9A0"/><path d="M29.447 129.734s3.026-3.159 6.579.393c3.554 3.555 2.813 12.503-4.474 12.503l-2.105-12.896z" stroke="#414241" stroke-width="1.701" stroke-linecap="round" stroke-linejoin="round" fill="none"/></g><g><path d="M21.419 131.443s2.896-4.737 7.633-3.289c0 0 4.869 2.369 4.869 8.817 0 0 .921 9.606-6.186 6.185" fill="#F3B9A0"/><path d="M21.419 131.443s2.896-4.737 7.633-3.289c0 0 4.869 2.369 4.869 8.817 0 0 .921 9.606-6.186 6.185" stroke="#414241" stroke-width="1.701" stroke-linecap="round" stroke-linejoin="round" fill="none"/></g><g><path d="M16.945 135.918s-.79-5.922 4.869-5.922c0 0 3.685-1.053 6.711 6.186 0 0 2.501 7.633-1.447 8.816 0 0-3.341.421-4.343-4.343" fill="#F3B9A0"/><path d="M16.945 135.918s-.79-5.922 4.869-5.922c0 0 3.685-1.053 6.711 6.186 0 0 2.501 7.633-1.447 8.816 0 0-3.341.421-4.343-4.343" stroke="#414241" stroke-width="1.701" stroke-linecap="round" stroke-linejoin="round" fill="none"/></g><g><path d="M17.603 138.945l.789 1.974c.79 3.159 3.553 3.815 3.553 3.815 4.08 0 1.579-5.922 1.579-5.922-2.895-6.842-7.96-4.341-7.96-4.341-3.75 1.447-2.173 9.08-2.173 9.08l1.15 4.172s2.019-3.583 4.068-6.125" fill="#F3B9A0"/><path d="M17.603 138.945l.789 1.974c.79 3.159 3.553 3.815 3.553 3.815 4.08 0 1.579-5.922 1.579-5.922-2.895-6.842-7.96-4.341-7.96-4.341-3.75 1.447-2.173 9.08-2.173 9.08l1.15 4.172s2.019-3.583 4.068-6.125" stroke="#414241" stroke-width="1.701" stroke-linecap="round" stroke-linejoin="round" fill="none"/></g><g><path d="M305.64 120.783s-3.026-3.159-6.578.393c-3.555 3.554-2.814 12.503 4.472 12.503l2.106-12.896z" fill="#F3B9A0"/><path d="M305.64 120.783s-3.026-3.159-6.578.393c-3.555 3.554-2.814 12.503 4.472 12.503l2.106-12.896z" stroke="#414241" stroke-width="1.701" stroke-linecap="round" stroke-linejoin="round" fill="none"/></g><g><path d="M313.668 122.492s-2.895-4.737-7.633-3.289c0 0-4.869 2.369-4.869 8.817 0 0-.921 9.606 6.186 6.185" fill="#F3B9A0"/><path d="M313.668 122.492s-2.895-4.737-7.633-3.289c0 0-4.869 2.369-4.869 8.817 0 0-.921 9.606 6.186 6.185" stroke="#414241" stroke-width="1.701" stroke-linecap="round" stroke-linejoin="round" fill="none"/></g><g><path d="M318.142 126.967s.791-5.922-4.869-5.922c0 0-3.685-1.053-6.711 6.185 0 0-2.5 7.633 1.447 8.817 0 0 3.342.421 4.343-4.343" fill="#F3B9A0"/><path d="M318.142 126.967s.791-5.922-4.869-5.922c0 0-3.685-1.053-6.711 6.185 0 0-2.5 7.633 1.447 8.817 0 0 3.342.421 4.343-4.343" stroke="#414241" stroke-width="1.701" stroke-linecap="round" stroke-linejoin="round" fill="none"/></g><g><path d="M317.484 129.994l-.79 1.974c-.789 3.159-3.552 3.815-3.552 3.815-4.08 0-1.58-5.922-1.58-5.922 2.896-6.842 7.961-4.342 7.961-4.342 3.75 1.448 2.173 9.081 2.173 9.081l-1.15 4.172s-2.02-3.583-4.069-6.125" fill="#F3B9A0"/><path d="M317.484 129.994l-.79 1.974c-.789 3.159-3.552 3.815-3.552 3.815-4.08 0-1.58-5.922-1.58-5.922 2.896-6.842 7.961-4.342 7.961-4.342 3.75 1.448 2.173 9.081 2.173 9.081l-1.15 4.172s-2.02-3.583-4.069-6.125" stroke="#414241" stroke-width="1.701" stroke-linecap="round" stroke-linejoin="round" fill="none"/></g><g><path d="M82.079 336.319c3.674-12.075 2.362-33.075 2.362-33.075-11.288-15.225-17.063-38.85-17.063-38.85-3.937-26.25 37.87-37.794 37.87-37.794s41.25.519 45.868 15.219c.878 2.796 1.469 5.674 1.924 8.568 1.344 8.56 1.127 17.171-.948 25.593-.692 2.807-1.589 5.546-2.422 8.313-1.01 3.353-1.687 6.827-2.403 10.254-1.758 8.415-2.591 17.054-2.628 25.643-.022 5.401.366 10.796 1.227 16.129" fill="#96D1CD"/><path d="M82.079 336.319c3.674-12.075 2.362-33.075 2.362-33.075-11.288-15.225-17.063-38.85-17.063-38.85-3.937-26.25 37.87-37.794 37.87-37.794s41.25.519 45.868 15.219c.878 2.796 1.469 5.674 1.924 8.568 1.344 8.56 1.127 17.171-.948 25.593-.692 2.807-1.589 5.546-2.422 8.313-1.01 3.353-1.687 6.827-2.403 10.254-1.758 8.415-2.591 17.054-2.628 25.643-.022 5.401.366 10.796 1.227 16.129" stroke="#414241" stroke-width="1.701" stroke-linecap="round" stroke-linejoin="round" fill="none"/></g><g><path d="M100.509 220.136s-6.299 2.887-6.299 13.913l-.789 19.687 10.238-9.713 11.025 2.363 7.128-5.303 10.722 1.891-9.535-19.717s-4.053-10.681-22.49-3.121z" fill="#FFFFFE"/><path d="M100.509 220.136s-6.299 2.887-6.299 13.913l-.789 19.687 10.238-9.713 11.025 2.363 7.128-5.303 10.722 1.891-9.535-19.717s-4.053-10.681-22.49-3.121z" stroke="#414241" stroke-width="1.701" stroke-linecap="round" stroke-linejoin="round" fill="none"/></g><g><path d="M101.559 218.823s3.023 6.459-.389 9.872l13.514 17.691 6.037-19.688s-3.952-3.781-2.099-9.974l-17.063 2.099z" fill="#F3B9A0"/><path d="M101.559 218.823s3.023 6.459-.389 9.872l13.514 17.691 6.037-19.688s-3.952-3.781-2.099-9.974l-17.063 2.099z" stroke="#414241" stroke-width="1.701" stroke-linecap="round" stroke-linejoin="round" fill="none"/></g><g><path d="M76.844 133.621s15.356-16.669 43.239-6.3c0 0 18.981 5.486 25.021 37.892 0 0 .831 19.548 3.887 30.951 3.056 11.408-6.151 18.548 3.228 23.963 0 0-6.314 1.117-11.106-6.934 0 0-.077 4.645 2.703 8.856 0 0-8.561-1.739-10.389-5.474 0 0-.579 4.612 2.353 6.306 0 0-7.09.827-10.828-4.573l-26.694 3.898s.098 7.73-9.254 8.583c0 0 2.4-4.606 1.492-7.996 0 0-1.122 6.907-9.443 9.136 0 0 1.843-5.449 1.018-8.531 0-.001-3.745 8.99-11.638 9.121 0 0 2.244-4.659 1.254-8.357 0 0-2.565-5.383-5.015-8.358-2.449-2.978-7.469-11.964-12.118-25.908-3.76-11.281-6.539-49.212 22.29-56.275z" fill="#9E6653"/><path d="M76.844 133.621s15.356-16.669 43.239-6.3c0 0 18.981 5.486 25.021 37.892 0 0 .831 19.548 3.887 30.951 3.056 11.408-6.151 18.548 3.228 23.963 0 0-6.314 1.117-11.106-6.934 0 0-.077 4.645 2.703 8.856 0 0-8.561-1.739-10.389-5.474 0 0-.579 4.612 2.353 6.306 0 0-7.09.827-10.828-4.573l-26.694 3.898s.098 7.73-9.254 8.583c0 0 2.4-4.606 1.492-7.996 0 0-1.122 6.907-9.443 9.136 0 0 1.843-5.449 1.018-8.531 0-.001-3.745 8.99-11.638 9.121 0 0 2.244-4.659 1.254-8.357 0 0-2.565-5.383-5.015-8.358-2.449-2.978-7.469-11.964-12.118-25.908-3.76-11.281-6.539-49.212 22.29-56.275z" stroke="#414241" stroke-width="1.701" stroke-linecap="round" stroke-linejoin="round" fill="none"/></g><path d="M135.212 161.584s18.482 54.183-22.045 60.751c0 0-44.596 10.554-47.613-53.721 0 0 .974-31.57 35.442-34.858 0 0 23.673-5.354 34.216 27.828" fill="#F3B9A0"/><path d="M116.908 186.972s11.608 6.267 1.579 10.863" stroke="#414241" stroke-width="1.701" stroke-linecap="round" stroke-linejoin="round" fill="none"/><g><path d="M123.998 203.575s-10.517 5.129-19.011 1.789c0 0 11.021 20.174 19.011-1.789z" fill="#E5787A"/><path d="M123.998 203.575s-10.517 5.129-19.011 1.789c0 0 11.021 20.174 19.011-1.789z" stroke="#414241" stroke-width="1.701" stroke-linecap="round" stroke-linejoin="round" fill="none"/></g><path d="M123.577 178.051c.435 2.463 1.893 4.262 3.263 4.018 1.364-.238 2.12-2.429 1.687-4.889-.433-2.462-1.894-4.264-3.261-4.021-1.366.245-2.122 2.433-1.689 4.892M96.185 182.208c.501 2.837 2.181 4.909 3.756 4.631 1.576-.277 2.446-2.803 1.947-5.638-.498-2.835-2.182-4.906-3.756-4.63-1.575.279-2.447 2.805-1.947 5.637" fill="#414241"/><path d="M101.109 165.858s-10.125-3.267-12.586 6.416m30.704-8.393s9.408-4.966 13.503 4.148" stroke="#414241" stroke-width="1.701" stroke-linecap="round" stroke-linejoin="round" fill="none"/><g><path d="M136.165 231.02c21.404 1.721 22.3 41.905 22.3 41.905 2.365 50.305-15.516 50.305-15.516 50.305-18.083 2.112-13.62-45.837-13.62-45.837l18.112-3.024s2.512 23.158 1.912 32.55" fill="#96D1CD"/><path d="M136.165 231.02c21.404 1.721 22.3 41.905 22.3 41.905 2.365 50.305-15.516 50.305-15.516 50.305-18.083 2.112-13.62-45.837-13.62-45.837l18.112-3.024s2.512 23.158 1.912 32.55" stroke="#414241" stroke-width="1.701" stroke-linecap="round" stroke-linejoin="round" fill="none"/></g><g><path d="M128.325 252.564l7.826 3.235-8.072 10.33s-7.705-6.174-11.128-12.245l11.374-1.32z" fill="#52BBB9"/><path d="M128.325 252.564l7.826 3.235-8.072 10.33s-7.705-6.174-11.128-12.245l11.374-1.32z" stroke="#414241" stroke-width="1.701" stroke-linecap="round" stroke-linejoin="round" fill="none"/></g><g><path d="M105.814 256.535l-6.247 5.717 11.12 6.942s5.121-8.438 6.264-15.31l-11.137 2.651z" fill="#52BBB9"/><path d="M105.814 256.535l-6.247 5.717 11.12 6.942s5.121-8.438 6.264-15.31l-11.137 2.651z" stroke="#414241" stroke-width="1.701" stroke-linecap="round" stroke-linejoin="round" fill="none"/></g><g><path d="M117.545 253.148s7.111 6.662 12.395 6.713l1.639-13.149s-10.535-1.772-15.147 2.01l1.113 4.426z" fill="#52BBB9"/><path d="M117.545 253.148s7.111 6.662 12.395 6.713l1.639-13.149s-10.535-1.772-15.147 2.01l1.113 4.426z" stroke="#414241" stroke-width="1.701" stroke-linecap="round" stroke-linejoin="round" fill="none"/></g><g><path d="M115.628 253.487s-4.407 8.695-9.363 10.551l-6.035-11.803s9.301-5.261 14.923-3.284l.475 4.536z" fill="#52BBB9"/><path d="M115.628 253.487s-4.407 8.695-9.363 10.551l-6.035-11.803s9.301-5.261 14.923-3.284l.475 4.536z" stroke="#414241" stroke-width="1.701" stroke-linecap="round" stroke-linejoin="round" fill="none"/></g><g><path d="M112.667 250.884a3.696 3.696 0 004.284 3 3.72 3.72 0 003.009-4.292 3.707 3.707 0 00-4.295-3.002 3.699 3.699 0 00-2.998 4.294z" fill="#52BBB9"/><path d="M112.667 250.884a3.696 3.696 0 004.284 3 3.72 3.72 0 003.009-4.292 3.707 3.707 0 00-4.295-3.002 3.699 3.699 0 00-2.998 4.294z" stroke="#414241" stroke-width="1.701" stroke-linecap="round" stroke-linejoin="round" fill="none"/></g><g><path d="M128.997 276.823l-.534-15.843c0-.001-1.732-8.778-3.253-11.779 0 0-1.981-4.654 2.876-2.365 0 0 4.192 2.578 5.286 9.945 0 0 1.415-12.043 2.177-15.597.202-.942.847-3.821 1.227-4.145.569-.487 1.549-.628 2.218-.286.829.42.954 1.503 1.077 2.32.065.438-1.497 16.103-1.497 16.103l5.906-15.537s1.27-4.493 3.499-3.962c0 0 2.589.046 1.381 4.959l-6.022 16.199c1.591-2.337 7.483-11.655 9.475-13.415.471-.414 2.323-1.729 3.033-.861 1.923 2.339-.734 5.731-2.306 7.766-1.811 2.342-5.209 8.042-5.691 8.453.001-.001 6.658-4.884 6.668-4.893.898-.804 4.005-2.683 4.341-.395.105.724-.33 1.462-.723 2.035-.469.688-7.661 7.043-8.76 7.931-.075.06-4.65 8.754-9.664 12.203l-10.714 1.164z" fill="#F3B9A0"/><path d="M128.997 276.823l-.534-15.843c0-.001-1.732-8.778-3.253-11.779 0 0-1.981-4.654 2.876-2.365 0 0 4.192 2.578 5.286 9.945 0 0 1.415-12.043 2.177-15.597.202-.942.847-3.821 1.227-4.145.569-.487 1.549-.628 2.218-.286.829.42.954 1.503 1.077 2.32.065.438-1.497 16.103-1.497 16.103l5.906-15.537s1.27-4.493 3.499-3.962c0 0 2.589.046 1.381 4.959l-6.022 16.199c1.591-2.337 7.483-11.655 9.475-13.415.471-.414 2.323-1.729 3.033-.861 1.923 2.339-.734 5.731-2.306 7.766-1.811 2.342-5.209 8.042-5.691 8.453.001-.001 6.658-4.884 6.668-4.893.898-.804 4.005-2.683 4.341-.395.105.724-.33 1.462-.723 2.035-.469.688-7.661 7.043-8.76 7.931-.075.06-4.65 8.754-9.664 12.203l-10.714 1.164z" stroke="#414241" stroke-width="1.701" stroke-linecap="round" stroke-linejoin="round" fill="none"/></g><g><path d="M118.151 271.615s-1.358-5.653-.453-13.566c0 0-.452-9.494-1.582-12.886 0 0-1.357-5.201 3.391-2.036 0 0 4.003 3.362 4.003 11.275 0 0 5.411-17.974 5.797-18.922.189-.466.41-1.011.862-1.294.673-.423 1.724-.418 2.375.044.805.573.768 1.73.769 2.608.001.471-4.084 16.69-4.084 16.69l8.631-15.408s2.034-4.521 4.296-3.617c0 0 2.713.452.677 5.427l-8.856 16.085c2.037-2.207 9.682-11.081 12.051-12.621.558-.363 2.71-1.454 3.322-.434 1.655 2.76-1.667 5.911-3.637 7.805-2.267 2.178-6.171 6.928-7.267 8.181l7.74-4.288c1.068-.705 4.627-2.194 4.623.263-.001.776-.576 1.484-1.077 2.025-.6.65-1.173 1.3-1.883 1.832-1.466 1.099-7.151 5.429-8.446 6.189-.086.052-1.363 10.192-11.084 12.454l-10.168-5.806z" fill="#F3B9A0"/><path d="M118.151 271.615s-1.358-5.653-.453-13.566c0 0-.452-9.494-1.582-12.886 0 0-1.357-5.201 3.391-2.036 0 0 4.003 3.362 4.003 11.275 0 0 5.411-17.974 5.797-18.922.189-.466.41-1.011.862-1.294.673-.423 1.724-.418 2.375.044.805.573.768 1.73.769 2.608.001.471-4.084 16.69-4.084 16.69l8.631-15.408s2.034-4.521 4.296-3.617c0 0 2.713.452.677 5.427l-8.856 16.085c2.037-2.207 9.682-11.081 12.051-12.621.558-.363 2.71-1.454 3.322-.434 1.655 2.76-1.667 5.911-3.637 7.805-2.267 2.178-6.171 6.928-7.267 8.181l7.74-4.288c1.068-.705 4.627-2.194 4.623.263-.001.776-.576 1.484-1.077 2.025-.6.65-1.173 1.3-1.883 1.832-1.466 1.099-7.151 5.429-8.446 6.189-.086.052-1.363 10.192-11.084 12.454l-10.168-5.806z" stroke="#414241" stroke-width="1.701" stroke-linecap="round" stroke-linejoin="round" fill="none"/></g><g><path d="M70.502 249.152c-11.176 19.413 10.264 58.03 10.264 58.03 11.416 35.923 27.824 14.437 27.824 14.437 7.219-7.219 25.463-42.525 25.463-42.525-3.544-3.544-19.162-10.5-19.162-10.5L97.04 306.656" fill="#96D1CD"/><path d="M70.502 249.152c-11.176 19.413 10.264 58.03 10.264 58.03 11.416 35.923 27.824 14.437 27.824 14.437 7.219-7.219 25.463-42.525 25.463-42.525-3.544-3.544-19.162-10.5-19.162-10.5L97.04 306.656" stroke="#414241" stroke-width="1.701" stroke-linecap="round" stroke-linejoin="round" fill="none"/></g><path d="M99.876 300.608l-7.532-27.701" stroke="#414241" stroke-width="1.701" stroke-linecap="round" stroke-linejoin="round" fill="none"/><g clip-path="url(#prefix__n)"><path d="M90.909 189.896c5.769 0 10.447 4.677 10.447 10.447s-4.678 10.447-10.447 10.447c-5.77 0-10.447-4.677-10.447-10.447s4.677-10.447 10.447-10.447z" fill="url(#prefix__o)"/></g><g clip-path="url(#prefix__p)"><path d="M135.62 183.211c1.252-.002 2.502.214 3.657.702.303 6.725.068 13.852-2.614 20.139l-1.043.053c-5.769 0-10.447-4.677-10.447-10.448 0-5.769 4.678-10.446 10.447-10.446z" fill="url(#prefix__q)"/></g><path d="M135.212 161.584s18.482 54.183-22.045 60.751c0 0-44.596 10.554-47.613-53.721 0 0 .974-31.57 35.442-34.858 0 0 23.673-5.354 34.216 27.828z" stroke="#414241" stroke-width="1.701" stroke-linecap="round" stroke-linejoin="round" fill="none"/><path d="M137.155 152.806c7.211 14.586 1.268 29.392 1.268 29.392-1.792-19.008-18.429-28.096-18.429-28.096l6.461 6.858c-8.757-.626-21.119-8.546-21.119-8.546l8.146 5.744c-15.396.493-28.26-14.229-28.26-14.229s2.875 14.428-6.547 24.881L80 160.192s-7.143 7.862-5.629 19.68c0 0-3.213-7.069-2.973-11.096 0 0 3.802 28.48 20.744 43.111 0 0-15.331-.735-23.962-13.836l-4.266-26.708 4.322-20.329 7.162-12.41 19.371-7.361 23.497 1.301 18.889 20.262" fill="#9E6653"/><path d="M137.155 152.806c7.211 14.586 2.162 29.392 2.162 29.392-1.792-19.008-19.323-28.096-19.323-28.096l6.461 6.858c-8.757-.626-21.119-8.546-21.119-8.546l8.146 5.744c-15.396.493-28.26-14.229-28.26-14.229s2.875 14.428-6.547 24.881L80 160.192s-7.143 7.862-5.629 19.68c0 0-3.213-7.069-2.973-11.096 0 0 3.802 28.48 20.744 43.111 0 0-15.331-.735-23.962-13.836" stroke="#414241" stroke-width="1.701" stroke-linecap="round" stroke-linejoin="round" fill="none"/><path d="M111.844 128.884s15.791 2.686 21.487 15.629l-10.083-3.591 2.709 7.765-11.398-7.323 1.009 7.279-19.307-8.667 13.74 1.979-.457-5.221 8.673 3.019-2.961-5.181 7.183 2.164s-8.147-6.938-10.595-7.852M68.344 144.941s-7.796 9.637-3.478 21.062l5.901-8.503 2.88 4.888 6.56-13.077-5.884 5.035-.571-3.306-6.019 5.7s-1.616-8.372.611-11.799" fill="#C67E65"/></g></svg>