<svg xmlns="http://www.w3.org/2000/svg" viewBox="0 0 1920 1118"><path fill="#84C341" d="M0 750.19h1920V1118H0z"/><path fill="#A3D8F7" d="M0 0h1920v750.19H0z"/><path fill="#FFF" d="M547.33 101.55c18.58-2.34 38.09 4.49 50.81 18.28 1.93 1.79 3.35 4.31 5.77 5.47 4.08.31 8.21-.35 12.26.46 11.4 2.2 22.02 8.97 28.28 18.82 7.5 11.48 8.98 26.74 3.49 39.35-6.59 15.94-23.69 26.81-40.93 25.77-4.5.29-8.61-1.78-12.97-2.37-3.58 1.85-6.47 4.82-10.08 6.65-19.66 11.58-46.14 10.28-64.24-3.74-1.85-1.14-3.61-3.5-6.02-2.63-7.72 2.39-16.14 3.04-23.96.74-13.15-3.35-24.33-13.56-28.92-26.32-3.69-9.21-3.52-19.84-.02-29.07 4.79-13.57 17.11-24 31.15-26.91 4.61-1.23 9.4-.38 14.09-.75 1.74-.93 2.77-2.74 4.13-4.12 9.37-10.88 22.96-17.84 37.16-19.63zM1219.76 226.83c15.03-8.59 35.53-5.67 47.49 6.87 1.95 1.83 3.57 4.79 6.69 4.41 5.05.07 10.23.73 14.7 3.27 8.92 4.73 15.03 14.45 15.08 24.59.45 6.91-2.64 13.53-6.82 18.85-3.35 4.34-8.54 6.47-13.18 9.07 6.73.82 13.52.37 20.29.45 59.33.04 118.66-.03 177.98.03 23.31.12 46.64-.32 69.95.22-110.07.29-220.14-.07-330.2.2 0-2.63.01-5.26.03-7.89-4.86-.26-9.77.35-14.58-.43.17-4.4.14-8.81.26-13.2-5.85-1.09-11.82-.41-17.72-.54.18-9.6.13-19.2.01-28.8l.8-.05c3.52.01 7.04.03 10.57 0-.01-2.03 0-4.06-.01-6.09 1.69.18 3.39.35 5.11.53 4.05-4.34 8.23-8.7 13.55-11.49zM361.5 798.73c3.42-.77 6.99-.75 10.49-.93 19.68-.04 39.37.02 59.05-.03 3.3-.06 6.93.34 9.39 2.79 2.08 1.83 2.2 4.79 2.22 7.37-.05 34.02-.01 68.04-.02 102.06.46 4.73-3.88 9.12-8.65 8.62-22.98-.01-45.96.04-68.94-.03-5.15.38-8.76-4.82-8.48-9.56.02-33.69 0-67.38 0-101.07-.18-3.67 1.69-7.42 4.94-9.22zM464.64 798.63c2.77-.43 5.54-.93 8.35-.88 20.99.1 41.98-.04 62.97.07 4.84-.32 10.13 2.99 10.29 8.19.13 24.99-.03 50 .08 74.99.17 4.62-3.52 9.64-8.44 9.47-22.32.12-44.64.01-66.96.05-3.03 0-6.66-.13-8.61-2.83-1.74-1.8-2.18-4.31-2.07-6.71-.03-22.67-.01-45.34-.01-68 .02-2.98-.17-5.96.25-8.91.44-2.36 2.53-3.86 4.15-5.44zM565.69 806.96c-.22-5.07 4.36-9.27 9.34-9.1 21.31-.24 42.63.09 63.94-.11 3.41-.05 7.16.05 9.95 2.3 2.11 2.05 2.99 5.05 2.81 7.96-.04 24.68.03 49.36-.03 74.04.29 4.58-4.1 8.85-8.68 8.44-22.99.04-45.97.05-68.95-.01-3.1.32-5.31-2.01-7.41-3.87-1.48-5.08-.91-10.38-.99-15.58.02-21.35-.05-42.71.02-64.07zM671.5 806.04c-.19-5 4.72-8.54 9.44-8.19 16.03-.17 32.08-.01 48.12-.06 8.14.12 16.34-.55 24.42.91 3.02 2.93 4.51 7.07 4.06 11.28-.13 23.99.02 47.98-.08 71.97-.03 4.42-3.85 8.8-8.44 8.53-19.99.07-39.98.01-59.96.03-4.86-.08-9.87.54-14.52-1.23-2.43-2.46-3.43-5.86-3.12-9.27.1-24.65-.08-49.31.08-73.97zM774.59 804.86c1.48-3.98 4.96-7.12 9.4-6.99 21.33-.23 42.66.02 63.99-.12 3.83-.04 8.29.29 10.93 3.48 1.73 1.82 1.76 4.43 1.75 6.8-.12 25 .1 50-.1 75 .34 2.66-1.85 4.41-3.28 6.31-2.04.62-4.1 1.28-6.25 1.19-22.69-.08-45.4.06-68.09-.06-5.04.26-8.48-4.9-8.37-9.49 0-25.37-.01-50.75.02-76.12zM743.5 996.75c14.03-3.03 29.11 7.12 31.57 21.25 3.26 14.06-6.85 29.34-21.04 31.87-14.03 3.35-29.22-6.7-31.95-20.78-3.51-14.32 6.92-29.93 21.42-32.34m3.86 10.65c-7.18.55-13.78 6.28-14.59 13.56-1.45 8.28 4.72 17.27 13.23 18.19 8.37 1.64 17.44-4.64 18.3-13.23 1.95-9.73-7.05-19.6-16.94-18.52z"/><path fill="#4A1117" d="M878.88 178.96c.07-4.12 4.27-6.64 8.08-6.26 59.67.01 119.35 0 179.02 0 3.8-.45 8.02 2.17 8.08 6.26.35 8.99-.02 18.01.16 27.01 42.2-.14 84.42-.24 126.62.05 0 10.59-.14 21.19.26 31.77.01 2.03 0 4.06.01 6.09-3.53.03-7.05.01-10.57 0 3.17-.44 6.37-.72 9.58-.8-.34-11.96-.03-23.93-.42-35.89-9.86-1.15-19.81-.26-29.71-.5-18.67-.02-37.35-.06-56.02-.01-13.26.13-26.53-.37-39.77.31.08 12.35-.1 24.71.01 37.06-.65 3.91-4.25 6.54-8.17 6.14-59.67.06-119.34.03-179 .01a7.464 7.464 0 01-8.29-6.19c-.02-12.3-.04-24.6.07-36.89-4.25-.45-8.52-.55-12.79-.49-35.06.21-70.14-.15-105.2.2-.42 12.08-.32 24.19.05 36.28 3.84-.05 7.7-.03 11.52.53-.84.04-2.53.14-3.38.19-3.07.07-6.15.02-9.21.02.16-12.55-.42-25.15.27-37.67 12.59-1.06 25.26.46 37.88-.32 26.94.05 53.86.12 80.79 0 .09-8.96-.24-17.94.13-26.9m5.16-1.97c-2.29 2.32-.92 6.06-1.27 8.99 0 18.02.05 36.04-.03 54.05.06 1.62-.18 3.32.41 4.88.73 1.46 2.53 1.18 3.9 1.3 59.64-.02 119.29-.01 178.93-.01 2.03.3 4.52-.7 4.15-3.16.13-20.32-.02-40.65.07-60.98-.11-1.52.16-3.2-.67-4.56-1.31-1-3.02-.71-4.53-.79-48.69.06-97.37.01-146.06.03-11.63.17-23.3-.34-34.9.25z"/><path fill="#CDCDCD" d="M884.04 176.99c11.6-.59 23.27-.08 34.9-.25 48.69-.02 97.37.03 146.06-.03 1.51.08 3.22-.21 4.53.79.83 1.36.56 3.04.67 4.56-.09 20.33.06 40.66-.07 60.98.37 2.46-2.12 3.46-4.15 3.16-59.64 0-119.29-.01-178.93.01-1.37-.12-3.17.16-3.9-1.3-.59-1.56-.35-3.26-.41-4.88.08-18.01.03-36.03.03-54.05.35-2.93-1.02-6.67 1.27-8.99M902.56 201c.35 5.3 5.17 8.52 8.74 11.79 2.14 1.93 5.66 4.19 4.16 7.58-2.78 3.53-7.48.84-9.35-2.21-1.67.94-3.37 1.82-4.9 2.95 2.5 6.91 12.66 9.3 18 4.13 4.27-3.86 3.65-11.2-.62-14.82-3.07-3.6-8.21-5.7-9.84-10.31 1.28-4.03 6.27-1.45 8.18.7 1.4-1.21 2.87-2.38 4.14-3.77-1.7-2.44-4.38-4.08-7.22-4.84-5.37-1.41-11.7 3.05-11.29 8.8m54.61-8.94c.06 11.63.03 23.26.02 34.88 2.03.03 4.07.05 6.13.08.23-5.08-.46-10.25.48-15.26.77-3.94 7.18-5.48 8.74-1.38 1.11 5.43.51 11.04.64 16.56 2.05.03 4.09.05 6.16.07-.13-6.01.25-12.04-.2-18.03-.38-4.44-4.98-7.49-9.22-6.98-2.45.42-4.5 1.92-6.62 3.11.05-4.38.05-8.76 0-13.14l-6.13.09m88.48-.1c-.06 11.7-.05 23.41-.02 35.11 2.01-.06 4.04-.11 6.07-.18-.09-11.6-.08-23.2-.01-34.81-2.02-.05-4.04-.08-6.04-.12M934.1 203.18c-6.51 2.16-10.24 10.44-6.89 16.59 4.17 8.96 18.52 9.82 23.99 1.69-1.53-1.06-3.04-2.14-4.53-3.22-4.05 4.45-13.95 3.76-14.44-3.23-.52-7.3 10.31-9.44 14.26-4.16 1.7-.97 3.39-1.97 5.08-2.98-3.8-5.48-11.43-7.41-17.47-4.69m61.06-.89c-4.85 1.04-9 4.96-9.98 9.87-1.43 6.1 2.84 12.54 8.75 14.23 7.26 2.55 16.1-2.54 17.04-10.31 1.39-8.53-7.74-15.8-15.81-13.79m29.99-.01c-4.63 1.01-8.66 4.62-9.82 9.26-1.76 5.94 2.05 12.5 7.75 14.55 7.31 3.17 16.97-1.89 17.88-9.99 1.48-8.57-7.75-15.79-15.81-13.82z"/><path fill="#73282D" d="M902.56 201c-.41-5.75 5.92-10.21 11.29-8.8 2.84.76 5.52 2.4 7.22 4.84-1.27 1.39-2.74 2.56-4.14 3.77-1.91-2.15-6.9-4.73-8.18-.7 1.63 4.61 6.77 6.71 9.84 10.31 4.27 3.62 4.89 10.96.62 14.82-5.34 5.17-15.5 2.78-18-4.13 1.53-1.13 3.23-2.01 4.9-2.95 1.87 3.05 6.57 5.74 9.35 2.21 1.5-3.39-2.02-5.65-4.16-7.58-3.57-3.27-8.39-6.49-8.74-11.79zM934.1 203.18c6.04-2.72 13.67-.79 17.47 4.69-1.69 1.01-3.38 2.01-5.08 2.98-3.95-5.28-14.78-3.14-14.26 4.16.49 6.99 10.39 7.68 14.44 3.23 1.49 1.08 3 2.16 4.53 3.22-5.47 8.13-19.82 7.27-23.99-1.69-3.35-6.15.38-14.43 6.89-16.59z"/><path fill="#71292D" d="M957.17 192.06l6.13-.09c.05 4.38.05 8.76 0 13.14 2.12-1.19 4.17-2.69 6.62-3.11 4.24-.51 8.84 2.54 9.22 6.98.45 5.99.07 12.02.2 18.03-2.07-.02-4.11-.04-6.16-.07-.13-5.52.47-11.13-.64-16.56-1.56-4.1-7.97-2.56-8.74 1.38-.94 5.01-.25 10.18-.48 15.26-2.06-.03-4.1-.05-6.13-.08.01-11.62.04-23.25-.02-34.88z"/><path fill="#702A2D" d="M1045.65 191.96c2 .04 4.02.07 6.04.12-.07 11.61-.08 23.21.01 34.81-2.03.07-4.06.12-6.07.18-.03-11.7-.04-23.41.02-35.11z"/><path fill="#72282D" d="M995.16 202.29c8.07-2.01 17.2 5.26 15.81 13.79-.94 7.77-9.78 12.86-17.04 10.31-5.91-1.69-10.18-8.13-8.75-14.23.98-4.91 5.13-8.83 9.98-9.87m.06 6.12c-5.08 1.64-5.44 9.76-.6 11.91 4.39 2.47 11.04-.98 10.18-6.35.04-4.7-5.6-7.27-9.58-5.56zM755.31 273.31c5.66-.8 11.38-.57 17.07-.38-5.2 1.02-10.52.09-15.76.7l-.13 1.3c-.22 3.22-.11 6.45.03 9.68-.32 1.04-.63 2.08-.96 3.11-4.42.31-8.85.43-13.27.48-.34 2.19-.7 4.38-1.04 6.57.02-2.49.06-4.98.06-7.47 4.68.11 9.35.08 14.03-.03.04-4.65.06-9.31-.03-13.96z"/><path fill="#72292D" d="M1025.15 202.28c8.06-1.97 17.29 5.25 15.81 13.82-.91 8.1-10.57 13.16-17.88 9.99-5.7-2.05-9.51-8.61-7.75-14.55 1.16-4.64 5.19-8.25 9.82-9.26m1.01 5.84c-4.87.82-6.65 7.54-3.27 10.91 3.63 4.02 11.85 1.83 11.91-3.96.84-4.72-4.36-8.21-8.64-6.95z"/><path fill="#74282C" d="M760.83 206.83c35.06-.35 70.14.01 105.2-.2 4.27-.06 8.54.04 12.79.49-.11 12.29-.09 24.59-.07 36.89-34.37-.01-68.74-.03-103.11.06-.07 3.8-.01 7.6-.22 11.39-2.06-3.6.05-8.09-2.25-11.57-1.19 9.64.09 19.38-.79 29.04-.24-9.76-.2-19.53.02-29.29-3.82-.56-7.68-.58-11.52-.53-.37-12.09-.47-24.2-.05-36.28zM1074.2 206.99c13.24-.68 26.51-.18 39.77-.31 18.67-.05 37.35-.01 56.02.01 9.9.24 19.85-.65 29.71.5.39 11.96.08 23.93.42 35.89-3.21.08-6.41.36-9.58.8l-.8.05c.12 9.6.17 19.2-.01 28.8 5.9.13 11.87-.55 17.72.54-.12 4.39-.09 8.8-.26 13.2-1.04-4.13-.05-8.49-1.3-12.58-5.04-.95-10.16-.29-15.24-.48-.75-.2-1.44-.41-2.15-.62 1.51-5.5.71-11.21.86-16.82-.03-3.66.27-7.37-.41-10.98-.5-.23-1.49-.69-1.99-.92-.08 3.71-.23 7.43-.66 11.13-.07-3.74-.04-7.48-.02-11.21-37.36.12-74.71-.05-112.07.06-.11-12.35.07-24.71-.01-37.06zM409.08 294.82c110.72-.02 221.45.07 332.17-.05-.98 5.71-.49 11.52-.56 17.28.06 6.96-.15 13.93.13 20.89-105.97.04-211.94-.03-317.92.05-.01 3.73-.08 7.46-.37 11.19-.16-3.76-.19-7.53-.15-11.29-4.23-.06-8.45.05-12.66.11l-.78-.11c.19-12.69-.21-25.38.14-38.07zM1221.74 294.79c110.06-.27 220.13.09 330.2-.2-.08 12.76-.02 25.52-.04 38.28-5.78 0-11.55-.03-17.32.04-104.25.13-208.5-.05-312.76.1-.22-12.74-.11-25.48-.08-38.22zM897.02 583.65c1.2-.07 2.42-.12 3.64-.16 54.89-.1 109.8-.13 164.7.02 1.43.05 2.88.14 4.34.21 27.39.33 54.78-.02 82.17.18-.02 11.61.06 23.23-.03 34.85-6.3-.03-12.59-.05-18.87.03-.11 53.33.01 106.65-.07 159.98-3.3-.11-6.61-.02-9.89.2-.18 4.21-.12 8.44-.4 12.65-2.15-3.17-4.4-6.26-6.75-9.26.2-1.46.36-2.93.33-4.38-1.28-.84-2.7-1.39-4.11-1.87-.27-8.54.95-17.21-.81-25.63-.05-1.65-.05-3.28.03-4.91.4-2.16.86-4.32.87-6.51-.12-40.08.04-80.16-.07-120.23-55.04-.29-110.09-.04-165.13-.13-31.1.09-62.19-.17-93.28.14-.22 32.07-.01 64.15-.1 96.22.14 17.39-.22 34.8.17 52.19l.04.95c-7.03.58-14.1.37-21.14.21-.03-49.72.21-99.46-.11-149.16-4.99-1.22-10.38-.18-15.51-.51-.27-11.62-.05-23.24-.11-34.85 26.7-.2 53.4.25 80.09-.23z"/><path fill="#CECDCD" d="M995.22 208.41c3.98-1.71 9.62.86 9.58 5.56.86 5.37-5.79 8.82-10.18 6.35-4.84-2.15-4.48-10.27.6-11.91z"/><path fill="#CECCCD" d="M1026.16 208.12c4.28-1.26 9.48 2.23 8.64 6.95-.06 5.79-8.28 7.98-11.91 3.96-3.38-3.37-1.6-10.09 3.27-10.91z"/><path fill="#D1CDCF" d="M769.02 243.83c.85-.05 2.54-.15 3.38-.19-.22 9.76-.26 19.53-.02 29.29-5.69-.19-11.41-.42-17.07.38.09 4.65.07 9.31.03 13.96-4.68.11-9.35.14-14.03.03 0 2.49-.04 4.98-.06 7.47-110.72.12-221.45.03-332.17.05-.35 12.69.05 25.38-.14 38.07l-.66-.33c-.37-12.77-.06-25.56-.04-38.33 8.56-.49 17.13.01 25.7-.11 85.35-.07 170.69-.01 256.04-.03 16.53-.16 33.07.38 49.59-.32.21-2.52.43-5.03.66-7.54 4.37-.52 8.81-.26 13.19-.84.66-4.37.43-8.82.79-13.22 5.6-.79 11.27-.26 16.87-.96.25-8.39.18-16.79.17-25.18l-2.23-2.2zM894.69 791.98c12.02.64 24.09.07 36.13.28 49.86.06 99.71.02 149.57.02.03 1.84.05 3.69.09 5.55-61.53-.04-123.06-.02-184.6-.01-.15-2-.55-3.96-1.19-5.84z"/><path fill="#A74D4C" d="M775.64 244.07c34.37-.09 68.74-.07 103.11-.06a7.464 7.464 0 008.29 6.19c59.66.02 119.33.05 179-.01 3.92.4 7.52-2.23 8.17-6.14 37.36-.11 74.71.06 112.07-.06-.02 3.73-.05 7.47.02 11.21-134.09-.16-268.18.02-402.28-.09-2.88-.02-5.75.09-8.6.35.21-3.79.15-7.59.22-11.39z"/><path fill="#BB5056" d="M773.17 243.89c2.3 3.48.19 7.97 2.25 11.57.66 3.81.31 7.7.37 11.55.03 146.34 0 292.67.01 439.01.08 20.47-.2 40.94.18 61.4-1.36-.06-2.71-.09-4.05-.07-.06-164 .12-328-.09-491.99-5.12-.21-10.23-.57-15.35-.43l.13-1.3c5.24-.61 10.56.32 15.76-.7.88-9.66-.4-19.4.79-29.04z"/><path fill="#BB5158" d="M1186.96 244.07c.5.23 1.49.69 1.99.92.68 3.61.38 7.32.41 10.98-.15 5.61.65 11.32-.86 16.82.71.21 1.4.42 2.15.62-1.03 6.14-.69 12.39-.67 18.59-.09 105.33.05 210.67-.05 316 .16 57.04-.23 114.08.18 171.11 4.78.99 9.95 1.47 14.6-.36.13-.68.4-2.04.53-2.72-.04-161 .03-322-.04-483-.29-6.39-.75-12.84.69-19.14 1.25 4.09.26 8.45 1.3 12.58 4.81.78 9.72.17 14.58.43-.02 2.63-.03 5.26-.03 7.89-.03 12.74-.14 25.48.08 38.22.1 3.67.16 7.36.06 11.04-.33 49.3-.03 98.61-.14 147.91 0 91.69.02 183.37 0 275.06.08 3.87-.48 7.83.47 11.64 6.08.74 12.3-.61 18.33.85-1.23 5.76-.55 11.65-.66 17.49-.09 9.59.11 19.18-.11 28.77-9.91.55-19.84-.13-29.76.1-27.33.11-54.66-.12-81.98.17-2.14.23-3.92-.95-5.45-2.25.02-.54.07-1.62.1-2.16.05-1.87.09-3.72.19-5.56l.07-1.03c.5.25 1.5.74 2 .99-.13 3.06-.14 6.13-.11 9.21 38.12-.05 76.24.12 114.36-.09.15-14.8.17-29.61-.02-44.41-38.11-.09-76.22-.14-114.33.01-.04 4.62.07 9.25-.29 13.87-.7-1.04-1.27-2.01-1.94-3.01.28-4.21.22-8.44.4-12.65 3.28-.22 6.59-.31 9.89-.2 17.66.16 35.33.01 52.99.12.26-157.59.03-315.19.12-472.78.22-16.97-.43-33.96.29-50.9.43-3.7.58-7.42.66-11.13m21.06 45.08c-.11 1.61-.22 3.23-.25 4.85.04 105.69 0 211.37.02 317.06.11 55.99-.21 111.99.13 167.98 3.96.31 7.95.36 11.92-.01.24-44.36-.02-88.72.05-133.08.02-106.31.04-212.62-.01-318.93-.05-12.62.28-25.26-.45-37.86-3.81-.18-7.61-.18-11.41-.01z"/><path fill="#F5867B" d="M775.42 255.46c2.85-.26 5.72-.37 8.6-.35 134.1.11 268.19-.07 402.28.09-.72 16.94-.07 33.93-.29 50.9-.09 157.59.14 315.19-.12 472.78-17.66-.11-35.33.04-52.99-.12.08-53.33-.04-106.65.07-159.98 6.28-.08 12.57-.06 18.87-.03.09-11.62.01-23.24.03-34.85-27.39-.2-54.78.15-82.17-.18-.17-82.47-.06-164.94-.08-247.41-57.61-.39-115.23.01-172.85-.19-.43 79.28 0 158.58-.22 237.87-.05 3.22.15 6.45.47 9.66-26.69.48-53.39.03-80.09.23.06 11.61-.16 23.23.11 34.85 5.13.33 10.52-.71 15.51.51.32 49.7.08 99.44.11 149.16-13.23-.47-26.47-.03-39.7-.11-5.44.1-10.88-.22-16.29.35l-.69-1.22c-.38-20.46-.1-40.93-.18-61.4-.01-146.34.02-292.67-.01-439.01-.06-3.85.29-7.74-.37-11.55m23.9 150.7c.07 32.63.19 65.27-.05 97.9 2.23.23 4.48.41 6.74.38 21.62-.17 43.24.17 64.85-.18.05-32.72.01-65.44.02-98.15-23.85-.16-47.71-.3-71.56.05m292.44-.18c-.3 32.75-.14 65.52-.05 98.27 23.74.24 47.5.26 71.25.02.06-32.75.09-65.51-.02-98.25-23.73-.04-47.45-.06-71.18-.04z"/><path fill="#F5867B" d="M900.74 340.17c54.83 0 109.67-.03 164.51.01.4 24.59.06 49.2.16 73.79-.02 56.52.1 113.03-.05 169.54-54.9-.15-109.81-.12-164.7-.02-.03-81.1-.2-162.22.08-243.32m19.47 15.06c-.11 32.82-.13 65.64.01 98.46 17.47-.18 34.95.02 52.42-.09-.05-32.77-.06-65.53-.01-98.3-17.47-.2-34.95-.04-52.42-.07m73.01.02c-.2 32.8-.25 65.62.02 98.42 17.48-.09 34.96-.09 52.44-.01-.1-32.78-.1-65.56-.02-98.34-17.48-.23-34.96-.09-52.44-.07m.04 114.09c-.36 32.85-.15 65.72-.1 98.58 17.51-.07 35.02.18 52.53-.11-.2-32.81.01-65.63-.07-98.44-17.45.05-34.91.16-52.36-.03m-73.17.44c.11 32.7.04 65.4.04 98.1 17.51.02 35.02.24 52.53-.15-.25-32.7.24-65.42-.24-98.12-17.44.17-34.89-.26-52.33.17zM422.53 344.18c106.11-.27 212.21-.01 318.32-.13-.08 1.64-.14 3.29-.16 4.94.02 101.68 0 203.36 0 305.04.17 37.84-.28 75.68.21 113.51-15.96.65-31.94.07-47.9.51-17.41.05-34.82.19-52.23.1-23.91-.65-47.85.3-71.77.11-11.25-.16-22.53.63-33.76-.28-7.37-1.33-14.83.16-22.25-.26-7.82.29-15.76-.72-23.49.82-1.41.29-2.79.69-4.17 1.06-4.77.21-9.54-.07-14.31-.01-.62-.28-1.84-.85-2.45-1.13-8.17-4.4-17.69-3.03-26.58-3.05-5.08.34-11.61-1.04-14.6 4.25-1.28.06-2.55.14-3.83.22-1.76-42.19-1.51-84.43-.72-126.64.56-.27 1.68-.81 2.24-1.09 3.87 4.66 8.73 8.6 14.61 10.38 4.37 1.51 9.11 1.26 13.66.84-.03 23.88.12 47.75-.07 71.62 18.53.54 37.09.06 55.64.21 5.29.03 10.59.12 15.88-.14.08-32.73.03-65.46.04-98.19-16.37-.3-32.74-.17-49.11-.02-.04-3.25-.62-6.45-1.4-9.59 9.86.7 20.26-2.48 26.87-10.08 9.54-10.13 10.23-27.15 1.81-38.16-1.98-2.64-4.49-4.81-6.94-6.99 5.86-4.95 10.12-12.19 9.66-20.07.04-10.96-8.57-20.83-19.26-22.8.3-5.01.19-10.11-1.34-14.92 13.24.27 26.49.27 39.74 0-.08-32.72-.01-65.44-.03-98.17-23.83-.08-47.68-.25-71.51.09 0 27.19.17 54.39-.1 81.59-5.56 1.06-9.68 4.97-14.17 8.03-4.27-3.1-8.35-6.53-13.24-8.65-1.54-1.33-3.5-2.8-3.2-5.09-.1-45.95.07-91.91-.09-137.86m121.42 61.87c-.12 32.75-.18 65.52.03 98.27 23.73.13 47.47.16 71.21-.04.19-32.75.21-65.51 0-98.26-23.75-.04-47.5-.11-71.24.03m90.31.1c.19 32.27-.04 64.54.13 96.81-.2 1.99 2.42 1.21 3.6 1.46 22.62-.13 45.24.19 67.85-.17-.04-32.71.02-65.43-.04-98.14-23.84-.18-47.7-.27-71.54.04m-90.3 220.66c-.18 32.76-.05 65.53-.07 98.29 23.77.23 47.54.12 71.31.06.16-32.78.25-65.57-.04-98.35-23.73-.11-47.47-.12-71.2 0m90.33 3.18c.07 31.65.07 63.3.03 94.96 2.88.22 5.77.35 8.67.29 20.95-.17 41.92.23 62.86-.22-.04-32.71-.03-65.43.01-98.15-23.3-.35-46.61-.03-69.92-.14-2.07-.49-1.49 2.11-1.65 3.26zM1221.88 344.05c104.19.12 208.39-.14 312.58.13-.06 52.31-.06 104.63 0 156.95-.03 54.5-.01 109.01-.01 163.51-.03 37.85.09 75.71-.06 113.56-6.79-.25-11.08-5.85-15.28-10.41-1.71-2.28-4.73-2.13-7.27-2.27-7.31-.1-14.63-.39-21.94-.06-6.64.22-12.37 4.27-18.93 4.87-4.76.53-9.25-1.56-13.92-1.94-12.98-.96-26-.33-38.98-.87-6.31-.3-8.83 6.23-12.57 10.01-2.52 2.98-6.77 2.28-10.2 1.99-7.74-1.22-15.54-1.99-23.32-2.89-4.12-.55-7.85 2.18-11.97 1.69-10.05-.8-20.17-1.17-30.04-3.3-4.25-.99-8.62-1.09-12.94-1.39-2.81-.17-5.3-1.62-8.02-2.13-6.79 1.83-12.54 6.19-18.57 9.61-5.95.07-11.51 3.33-17.48 2.12-5.97-.95-11.87-2.41-17.9-2.77-4.38-.28-8.78.03-13.11-.64l-1.41-.31c-6.03-1.46-12.25-.11-18.33-.85-.95-3.81-.39-7.77-.47-11.64.02-91.69 0-183.37 0-275.06.11-49.3-.19-98.61.14-147.91m26.96 61.98c-.35 8-.04 16.01-.14 24.02.11 24.74-.23 49.5.15 74.24 23.76.14 47.53.28 71.29-.07.1-32.73.12-65.46-.01-98.19-23.76-.07-47.53-.07-71.29 0m92.14.02c-.31 32.73-.19 65.48-.08 98.23 23.73.2 47.48.23 71.22-.03.25-32.74.17-65.49.04-98.24-23.73-.03-47.45-.1-71.18.04m90.3.11c.02 32.66.06 65.33-.04 98 11.92.57 23.86.07 35.8.26 11.9-.21 23.82.29 35.72-.23.04-32.69-.02-65.38.03-98.07-23.84-.2-47.68-.28-71.51.04m-182.46 220.61c-.24 32.77-.19 65.56-.01 98.33 23.76.21 47.54.19 71.31.02.1-32.76.22-65.52-.05-98.27-23.75-.25-47.5-.1-71.25-.08m92.02.06c.01 32.77-.11 65.54.04 98.31 23.76.1 47.52.17 71.28-.04.15-32.76.15-65.53.01-98.28-23.77-.14-47.56-.17-71.33.01m90.4.1c.16 32.37-.04 64.75.1 97.12-.1 1.82 2.59.88 3.72 1.21 22.58-.24 45.17.23 67.75-.22-.09-32.7-.03-65.4-.02-98.1-9.24-.53-18.5-.04-27.74-.22-14.6.16-29.22-.25-43.81.21z"/><path fill="#D05F53" d="M1190.65 273.41c5.08.19 10.2-.47 15.24.48-1.44 6.3-.98 12.75-.69 19.14.07 161 0 322 .04 483-.13.68-.4 2.04-.53 2.72-4.65 1.83-9.82 1.35-14.6.36-.41-57.03-.02-114.07-.18-171.11.1-105.33-.04-210.67.05-316-.02-6.2-.36-12.45.67-18.59zM1208.02 289.15c3.8-.17 7.6-.17 11.41.01.73 12.6.4 25.24.45 37.86.05 106.31.03 212.62.01 318.93-.07 44.36.19 88.72-.05 133.08-3.97.37-7.96.32-11.92.01-.34-55.99-.02-111.99-.13-167.98-.02-105.69.02-211.37-.02-317.06.03-1.62.14-3.24.25-4.85z"/><path fill="#D05E53" d="M756.49 274.93c5.12-.14 10.23.22 15.35.43.21 163.99.03 327.99.09 491.99-4.95.06-9.89.05-14.82.01-.14-152.78.01-305.55-.08-458.32-.21-8.15.44-16.32-.51-24.43-.14-3.23-.25-6.46-.03-9.68zM743.64 289.67c3.48-1.48 7.49-.53 11.19-.57.31 73.3.06 146.59.16 219.89l-.03 258.36c-4 0-7.99-.06-11.98.09-.06-154.81.04-309.63-.06-464.44.25-4.41-.88-9.14.72-13.33z"/><path fill="#BF5251" d="M755.56 287.72c.33-1.03.64-2.07.96-3.11.95 8.11.3 16.28.51 24.43.09 152.77-.06 305.54.08 458.32-.54-.01-1.62-.01-2.15-.01l.03-258.36c-.1-73.3.15-146.59-.16-219.89-3.7.04-7.71-.91-11.19.57-1.6 4.19-.47 8.92-.72 13.33.1 154.81 0 309.63.06 464.44-.52.03-1.56.08-2.08.1-.49-37.83-.04-75.67-.21-113.51 0-101.68.02-203.36 0-305.04.02-1.65.08-3.3.16-4.94.17-3.7.14-7.41-.03-11.11-.28-6.96-.07-13.93-.13-20.89.07-5.76-.42-11.57.56-17.28.34-2.19.7-4.38 1.04-6.57 4.42-.05 8.85-.17 13.27-.48z"/><path fill="#CFA7AD" d="M409.72 333c4.21-.06 8.43-.17 12.66-.11-.04 3.76-.01 7.53.15 11.29.16 45.95-.01 91.91.09 137.86-.3 2.29 1.66 3.76 3.2 5.09-2.61-.98-5.29-1.76-7.97-2.46.83-.12 2.5-.35 3.34-.46.27-46.73-.1-93.46.18-140.18-.26-3.34 1.09-7.48-1.49-10.15-3.37-.56-6.8-.33-10.16-.88z"/><path fill="#A84E4D" d="M422.9 332.99c105.98-.08 211.95-.01 317.92-.05.17 3.7.2 7.41.03 11.11-106.11.12-212.21-.14-318.32.13.29-3.73.36-7.46.37-11.19zM1221.82 333.01c104.26-.15 208.51.03 312.76-.1-.06 3.75-.09 7.51-.12 11.27-104.19-.27-208.39-.01-312.58-.13.1-3.68.04-7.37-.06-11.04z"/><path fill="#BB5156" d="M896.77 336.12c57.62.2 115.24-.2 172.85.19.02 82.47-.09 164.94.08 247.41-1.46-.07-2.91-.16-4.34-.21.15-56.51.03-113.02.05-169.54-.1-24.59.24-49.2-.16-73.79-54.84-.04-109.68-.01-164.51-.01-.28 81.1-.11 162.22-.08 243.32-1.22.04-2.44.09-3.64.16-.32-3.21-.52-6.44-.47-9.66.22-79.29-.21-158.59.22-237.87z"/><path fill="#BA5357" d="M920.21 355.23c17.47.03 34.95-.13 52.42.07-.05 32.77-.04 65.53.01 98.3-17.47.11-34.95-.09-52.42.09-.14-32.82-.12-65.64-.01-98.46zM993.22 355.25c17.48-.02 34.96-.16 52.44.07-.08 32.78-.08 65.56.02 98.34-17.48-.08-34.96-.08-52.44.01-.27-32.8-.22-65.62-.02-98.42zM453.33 406.16c23.83-.34 47.68-.17 71.51-.09.02 32.73-.05 65.45.03 98.17-13.25.27-26.5.27-39.74 0-2.7-7.07-8.51-12.8-15.54-15.53-5.25-1.81-10.93-1.53-16.36-.96.27-27.2.1-54.4.1-81.59zM543.95 406.05c23.74-.14 47.49-.07 71.24-.03.21 32.75.19 65.51 0 98.26-23.74.2-47.48.17-71.21.04-.21-32.75-.15-65.52-.03-98.27zM634.26 406.15c23.84-.31 47.7-.22 71.54-.04.06 32.71 0 65.43.04 98.14-22.61.36-45.23.04-67.85.17-1.18-.25-3.8.53-3.6-1.46-.17-32.27.06-64.54-.13-96.81zM799.32 406.16c23.85-.35 47.71-.21 71.56-.05-.01 32.71.03 65.43-.02 98.15-21.61.35-43.23.01-64.85.18-2.26.03-4.51-.15-6.74-.38.24-32.63.12-65.27.05-97.9zM1091.76 405.98c23.73-.02 47.45 0 71.18.04.11 32.74.08 65.5.02 98.25-23.75.24-47.51.22-71.25-.02-.09-32.75-.25-65.52.05-98.27zM1248.84 406.03c23.76-.07 47.53-.07 71.29 0 .13 32.73.11 65.46.01 98.19-23.76.35-47.53.21-71.29.07-.38-24.74-.04-49.5-.15-74.24.1-8.01-.21-16.02.14-24.02zM1340.98 406.05c23.73-.14 47.45-.07 71.18-.04.13 32.75.21 65.5-.04 98.24-23.74.26-47.49.23-71.22.03-.11-32.75-.23-65.5.08-98.23zM1431.28 406.16c23.83-.32 47.67-.24 71.51-.04-.05 32.69.01 65.38-.03 98.07-11.9.52-23.82.02-35.72.23-11.94-.19-23.88.31-35.8-.26.1-32.67.06-65.34.04-98zM993.26 469.34c17.45.19 34.91.08 52.36.03.08 32.81-.13 65.63.07 98.44-17.51.29-35.02.04-52.53.11-.05-32.86-.26-65.73.1-98.58zM920.09 469.78c17.44-.43 34.89 0 52.33-.17.48 32.7-.01 65.42.24 98.12-17.51.39-35.02.17-52.53.15 0-32.7.07-65.4-.04-98.1zM475.73 626.85c16.37-.15 32.74-.28 49.11.02-.01 32.73.04 65.46-.04 98.19-5.29.26-10.59.17-15.88.14-18.55-.15-37.11.33-55.64-.21.19-23.87.04-47.74.07-71.62 5.46-1.44 10.89-3.97 14.59-8.37 4.36-5.04 8.07-11.25 7.79-18.15zM543.96 626.81c23.73-.12 47.47-.11 71.2 0 .29 32.78.2 65.57.04 98.35-23.77.06-47.54.17-71.31-.06.02-32.76-.11-65.53.07-98.29zM634.29 629.99c.16-1.15-.42-3.75 1.65-3.26 23.31.11 46.62-.21 69.92.14-.04 32.72-.05 65.44-.01 98.15-20.94.45-41.91.05-62.86.22-2.9.06-5.79-.07-8.67-.29.04-31.66.04-63.31-.03-94.96zM1248.82 626.77c23.75-.02 47.5-.17 71.25.08.27 32.75.15 65.51.05 98.27-23.77.17-47.55.19-71.31-.02-.18-32.77-.23-65.56.01-98.33zM1340.84 626.83c23.77-.18 47.56-.15 71.33-.01.14 32.75.14 65.52-.01 98.28-23.76.21-47.52.14-71.28.04-.15-32.77-.03-65.54-.04-98.31zM1431.24 626.93c14.59-.46 29.21-.05 43.81-.21 9.24.18 18.5-.31 27.74.22-.01 32.7-.07 65.4.02 98.1-22.58.45-45.17-.02-67.75.22-1.13-.33-3.82.61-3.72-1.21-.14-32.37.06-64.75-.1-97.12z"/><path fill="#41651B" d="M385.63 490.7c9.39-6.2 21.22-8.27 32.22-6.03 2.68.7 5.36 1.48 7.97 2.46 4.89 2.12 8.97 5.55 13.24 8.65 4.49-3.06 8.61-6.97 14.17-8.03 5.43-.57 11.11-.85 16.36.96 7.03 2.73 12.84 8.46 15.54 15.53 1.53 4.81 1.64 9.91 1.34 14.92 10.69 1.97 19.3 11.84 19.26 22.8.46 7.88-3.8 15.12-9.66 20.07 2.45 2.18 4.96 4.35 6.94 6.99 8.42 11.01 7.73 28.03-1.81 38.16-6.61 7.6-17.01 10.78-26.87 10.08.78 3.14 1.36 6.34 1.4 9.59.28 6.9-3.43 13.11-7.79 18.15-3.7 4.4-9.13 6.93-14.59 8.37-4.55.42-9.29.67-13.66-.84-5.88-1.78-10.74-5.72-14.61-10.38-.56.28-1.68.82-2.24 1.09-4.28 2.25-9.02 3.33-13.75 4.16-.33 1.89-.67 3.78-.91 5.7.1-1.89.17-3.78.26-5.65-10.42.46-20.87-3.14-28.61-10.16-7.14 5.14-16.12 8.08-24.93 6.51-13.03-1.81-23.94-12.51-26.43-25.37-8-2.12-15.57-6.76-19.83-14.02-6.65-10.47-5.74-25.04 2.13-34.62 4.12-5.34 10.19-8.73 16.55-10.71-2.01-4.16-4.23-8.33-5.03-12.93-3.46-15.81 5.87-33 20.81-39.03 8.79-3.92 18.74-3.07 27.66-.08 3.57-6.53 8.54-12.36 14.87-16.34zM1534.46 501.13c3.42-.88 6.97-1.86 10.54-1.25 6.23.85 11.57 4.96 15.16 9.97 5.09 6.98 7.32 15.65 7.67 24.19-.49 2.64 2.36 3.1 4.13 4.01 14.64 6.3 23.73 23.33 20.72 39.01-1.28 4.81 2.27 9.11 2.01 13.92.9 10.99-5.65 21.66-15.34 26.63 2.81 5.55 3.8 12.21 1.37 18.09-1.64 4.93-5.68 8.42-9.8 11.31-1.02 6.41-4.27 12.53-9.62 16.34-5.42 4.16-12.61 5.33-19.24 4.17-2.58-.85-5.09-1.91-7.61-2.88 0-54.5-.02-109.01.01-163.51z"/><path fill="#CA5B50" d="M853.69 618.83c31.09-.31 62.18-.05 93.28-.14 55.04.09 110.09-.16 165.13.13.11 40.07-.05 80.15.07 120.23-.01 2.19-.47 4.35-.87 6.51-1.16-10.63-12.9-18.45-23.18-15.98-5.31.74-10.51 3.29-13.71 7.71-.78-23.64.28-47.32-.53-70.96-60.22.02-120.44.08-180.65-.02-.19 30.9-.04 61.8-.09 92.7-.03 6.11.17 12.24-.22 18.36-2.72-3-5.2-6.44-8.93-8.26-3.64-2.07-7.96-1.72-11.97-1.79-6.09.11-12.18.24-18.26-.08-.39-17.39-.03-34.8-.17-52.19.09-32.07-.12-64.15.1-96.22z"/><path fill="#4F2926" d="M409.09 647.4c4.73-.83 9.47-1.91 13.75-4.16-.79 42.21-1.04 84.45.72 126.64-9.53.64-19.1-.21-28.62.61 1.33-6.7 2.12-13.49 3.02-20.26 4.32-32.27 7.95-64.65 10.22-97.13.24-1.92.58-3.81.91-5.7z"/><path fill="#4F2924" d="M1534.45 664.64c2.52.97 5.03 2.03 7.61 2.88 1.75 27.51 2.26 55.15.58 82.67-.73 10.7-1.64 21.4-1.85 32.13-2.02-1.56-4.13-3-6.4-4.12.15-37.85.03-75.71.06-113.56z"/><path fill="#903439" d="M893.23 666.31c60.21.1 120.43.04 180.65.02.81 23.64-.25 47.32.53 70.96-3.45 6.3-4.74 15.3.14 21.19-.6 5.35-.76 10.76-.02 16.11-3.46.92-6.86 2-10.2 3.25-3.46-4.59-7.9-8.41-12.61-11.65-2.63-1.78-6.43-2.82-9.06-.47-2.65 2.08-3.25 6.71-.24 8.76 3.67 2.24 8.25 1.57 12.38 1.68 3.54 4.56 6.96 9.23 10.73 13.62l.4.49c-40.27-.37-80.58.15-120.86-.26-.2-1.03-.36-2.06-.5-3.08l-.05-.95c-.22-5.18-.13-10.36.02-15.54 2.92-.25 5.6-1.53 8.23-2.75.54-5.84-3.69-10.7-8.2-13.79-.41-4.04-.42-8.09-.26-12.13 1.39 1.27 2.79 2.55 4.18 3.85.43-.52.87-1.02 1.32-1.51 1.65 1.94 3.3 3.89 4.92 5.88-.44 2.84-1.58 5.88-.44 8.69 1.92 3.45 7.71 1.12 7.22-2.65-1.38-7-6.4-12.47-10.24-18.25.18-1.19.35-2.37.53-3.54-4.12-1.28-8.39-2.12-12.71-2.14.07-1.63.08-3.25.36-4.85 1.2-1.48 2.92-2.43 4.59-3.32l1.4.35c2.69-4.73 4.14-11.01 1.11-15.92-3.58-5.74-11.24-8.04-17.41-5.26-8.72 2.41-11.25 16.24-3.24 20.96l.3-1c1.21 1.35 2.59 2.54 3.69 4.01.28 1.77.23 3.58.32 5.39-3.84.87-7.83 1.51-11.33 3.35-.21.92-.35 1.86-.43 2.81-3.01 5.5-8.12 10-9.34 16.36-.52 3.37 4.03 5.89 6.62 3.66 2.09-2.79.76-6.5.36-9.62 1.36-1.37 2.77-2.69 4.31-3.88 2.8-.27 4.76-2.38 6.74-4.15.92 4.3-.74 9.56 2.8 12.91l-2.91-.2c-2.53 3.86-6.35 6.92-8.04 11.28 1.71 2.76 4.87 4.22 7.96 4.82.13 5.38.12 10.77.03 16.15l.77-.22c-.46 1.51-.85 3.03-1.21 4.58-10.63.25-21.27.15-31.91.05-.1-2.93-.65-5.81-1.45-8.61-1.61-5.9-6.13-11.2-12.06-12.99-4.62-1.25-9.46-1.15-14.18-.86-4.38.28-8.78-.32-13.14.29l-.04-.95c6.08.32 12.17.19 18.26.08 4.01.07 8.33-.28 11.97 1.79 3.73 1.82 6.21 5.26 8.93 8.26.39-6.12.19-12.25.22-18.36.05-30.9-.1-61.8.09-92.7z"/><path fill="#030102" d="M929.14 703.1c6.17-2.78 13.83-.48 17.41 5.26 3.03 4.91 1.58 11.19-1.11 15.92l-1.4-.35c-.4-.97-.77-1.93-1.12-2.89.5-2.36 1.43-4.96.22-7.24-1.9-3.57-5.84-5.84-9.74-6.5-6.18 2.43-8.17 9.71-7.2 15.76l-.3 1c-8.01-4.72-5.48-18.55 3.24-20.96z"/><path fill="#FECF9B" d="M933.4 707.3c3.9.66 7.84 2.93 9.74 6.5 1.21 2.28.28 4.88-.22 7.24.35.96.72 1.92 1.12 2.89-1.67.89-3.39 1.84-4.59 3.32-.28 1.6-.29 3.22-.36 4.85-2.97-.06-5.94 0-8.88.36-.09-1.81-.04-3.62-.32-5.39-1.1-1.47-2.48-2.66-3.69-4.01-.97-6.05 1.02-13.33 7.2-15.76z"/><path fill="#020101" d="M1074.41 737.29c3.2-4.42 8.4-6.97 13.71-7.71 10.28-2.47 22.02 5.35 23.18 15.98a61.69 61.69 0 00-.03 4.91c-.59 4.28-1.84 8.51-4.06 12.25-.9-.22-1.35-1.11-1.89-1.73-.7-1.16-1.34-2.31-1.99-3.45 1.35-3.56 2.44-7.73.44-11.26-2.79-5.25-8.64-7.5-13.85-9.55-3.4 1.86-6.71 4.19-8.61 7.67-3.25 5.5-3.29 12.43-1.37 18.39-2.03-1.14-3.76-2.71-5.39-4.31-4.88-5.89-3.59-14.89-.14-21.19z"/><path fill="#C92929" d="M918.88 735.81c3.5-1.84 7.49-2.48 11.33-3.35 2.94-.36 5.91-.42 8.88-.36 4.32.02 8.59.86 12.71 2.14-.18 1.17-.35 2.35-.53 3.54-.4 2.12-.95 4.21-1.46 6.33-.45.49-.89.99-1.32 1.51-1.39-1.3-2.79-2.58-4.18-3.85-.16 4.04-.15 8.09.26 12.13-4.83 1.13-9.78.68-14.63 0-3.54-3.35-1.88-8.61-2.8-12.91-1.98 1.77-3.94 3.88-6.74 4.15-.49-2.23-1.18-4.39-1.95-6.52.08-.95.22-1.89.43-2.81zM1074.53 774.59c3.24-.9 6.55-1.59 9.92-1.8 4.55-.1 9.11.11 13.65.57 4.71.61 9.35 1.68 13.98 2.74 1.41.48 2.83 1.03 4.11 1.87.03 1.45-.13 2.92-.33 4.38-.84 3.25-1.47 6.55-1.97 9.87-.36 1.28-.72 2.56-1.1 3.84-1.28-1.36-2.57-2.71-3.78-4.12-.27-.5-.83-1.51-1.1-2.01-.37-.98-.9-1.82-1.59-2.52-1.74-.82-1.48 1.9-1.06 2.81.04.4.11 1.2.15 1.6.16 2 .29 4.01.43 6.03l.16 2.24c.09 1.88.12 3.77.27 5.66l.26.88c-8.62 2.32-17.53.73-26.16-.55l-.02-.42.35-.03c.01-1.83-.1-3.67-.15-5.48-.04-.78-.06-1.56-.07-2.32-.04-1.86-.06-3.71-.09-5.55-.03-.65-.06-1.28-.07-1.9-.06-.95-.17-2.85-.23-3.8-2.64.42-5.29 1.17-7.04 3.33-2.37.28-4.75.64-7.12.36l-.4-.49c-.11-4.01-.44-8.01-1.2-11.94 3.34-1.25 6.74-2.33 10.2-3.25z"/><path fill="#FFCF99" d="M1081.31 744.4c1.9-3.48 5.21-5.81 8.61-7.67 5.21 2.05 11.06 4.3 13.85 9.55 2 3.53.91 7.7-.44 11.26.65 1.14 1.29 2.29 1.99 3.45-2.3 1.87-4.69 3.62-7.16 5.25-.04 2.36-.06 4.74-.06 7.12-4.54-.46-9.1-.67-13.65-.57.11-2.27.34-4.54.08-6.79-.91-1.73-3.08-2.19-4.59-3.21-1.92-5.96-1.88-12.89 1.37-18.39z"/><path fill="#FDCF9A" d="M949.81 744.11c.51-2.12 1.06-4.21 1.46-6.33 3.84 5.78 8.86 11.25 10.24 18.25.49 3.77-5.3 6.1-7.22 2.65-1.14-2.81 0-5.85.44-8.69-1.62-1.99-3.27-3.94-4.92-5.88z"/><path fill="#FDCF9B" d="M918.45 738.62c.77 2.13 1.46 4.29 1.95 6.52-1.54 1.19-2.95 2.51-4.31 3.88.4 3.12 1.73 6.83-.36 9.62-2.59 2.23-7.14-.29-6.62-3.66 1.22-6.36 6.33-10.86 9.34-16.36z"/><path fill="#C95C51" d="M1111.27 750.47c1.76 8.42.54 17.09.81 25.63-4.63-1.06-9.27-2.13-13.98-2.74 0-2.38.02-4.76.06-7.12 2.47-1.63 4.86-3.38 7.16-5.25.54.62.99 1.51 1.89 1.73 2.22-3.74 3.47-7.97 4.06-12.25zM1074.53 774.59c-.74-5.35-.58-10.76.02-16.11 1.63 1.6 3.36 3.17 5.39 4.31 1.51 1.02 3.68 1.48 4.59 3.21.26 2.25.03 4.52-.08 6.79-3.37.21-6.68.9-9.92 1.8z"/><path fill="#624A79" d="M918.99 764.98c1.69-4.36 5.51-7.42 8.04-11.28l2.91.2c4.85.68 9.8 1.13 14.63 0 4.51 3.09 8.74 7.95 8.2 13.79-2.63 1.22-5.31 2.5-8.23 2.75-2.3.26-4.58.64-6.81 1.19-1.32.21-2.63.38-3.94.51-.96-.73-2.02-1.32-3.12-1.74 7.2-.12 14.96.13 21.19-4.11-1.46-3.35-2.8-6.97-5.61-9.46-1.36-1.45-3.46-.79-5.18-.87-4.4.4-8.77-.31-13.03-1.3-2.58 3.49-5.29 6.87-8.06 10.21 2.73 1.76 5.43 3.59 8.28 5.16l-1.31-.23c-3.09-.6-6.25-2.06-7.96-4.82z"/><path fill="#2858BA" d="M919.98 764.87c2.77-3.34 5.48-6.72 8.06-10.21 4.26.99 8.63 1.7 13.03 1.3 1.72.08 3.82-.58 5.18.87 2.81 2.49 4.15 6.11 5.61 9.46-6.23 4.24-13.99 3.99-21.19 4.11-.6-.09-1.81-.28-2.41-.37-2.85-1.57-5.55-3.4-8.28-5.16zM1080.37 806.08c8.63 1.28 17.54 2.87 26.16.55.33.38.99 1.12 1.31 1.5 1.69 1.82 3.4 3.64 4.94 5.61.51.75 1.01 1.53 1.5 2.34.94 1.75 1.72 3.59 2.5 5.44-.4 1.09-.8 2.17-1.15 3.29-13.75 7.1-31.86 7.58-44.57-2-1.49-.82-.32-2.54-.2-3.76.88-.99 1.76-1.97 2.65-2.95.65-.77 1.32-1.55 1.99-2.32 1.48-1.79 2.83-3.7 3.93-5.75.24-.49.71-1.46.94-1.95z"/><path fill="#699730" d="M427.39 769.66c2.99-5.29 9.52-3.91 14.6-4.25 8.89.02 18.41-1.35 26.58 3.05-13.33 1.51-26.81-.38-40.13 1.15l-1.05.05z"/><path fill="#FECE9A" d="M1042.66 765.72c2.63-2.35 6.43-1.31 9.06.47 4.71 3.24 9.15 7.06 12.61 11.65.76 3.93 1.09 7.93 1.2 11.94-3.77-4.39-7.19-9.06-10.73-13.62-4.13-.11-8.71.56-12.38-1.68-3.01-2.05-2.41-6.68.24-8.76z"/><path fill="#65982F" d="M1470.97 770.33c6.56-.6 12.29-4.65 18.93-4.87 7.31-.33 14.63-.04 21.94.06 2.54.14 5.56-.01 7.27 2.27 4.2 4.56 8.49 10.16 15.28 10.41 2.27 1.12 4.38 2.56 6.4 4.12 2.39 2.76 4.34 6.06 4.93 9.73.55 3.72-.68 7.36-1.27 11.01-1.1 6.95-.35 14.05 1.26 20.86-48.24.38-96.48.39-144.72.39-24.99.58-50 .26-75 .33-27.9.02-55.8.09-83.69.25-.54-15.01.18-30.05-.35-45.07 4.33.67 8.73.36 13.11.64 6.03.36 11.93 1.82 17.9 2.77 5.97 1.21 11.53-2.05 17.48-2.12 6.03-3.42 11.78-7.78 18.57-9.61 2.72.51 5.21 1.96 8.02 2.13 4.32.3 8.69.4 12.94 1.39 9.87 2.13 19.99 2.5 30.04 3.3 4.12.49 7.85-2.24 11.97-1.69 7.78.9 15.58 1.67 23.32 2.89 3.43.29 7.68.99 10.2-1.99 3.74-3.78 6.26-10.31 12.57-10.01 12.98.54 26-.09 38.98.87 4.67.38 9.16 2.47 13.92 1.94z"/><path fill="#8E8937" d="M512.99 767.72c7.42.42 14.88-1.07 22.25.26l-.36 1.08c-15.11-.82-30.28.7-45.38-.52 7.73-1.54 15.67-.53 23.49-.82z"/><path fill="#E0823F" d="M740.9 767.54c.52-.02 1.56-.07 2.08-.1 3.99-.15 7.98-.09 11.98-.09.53 0 1.61 0 2.15.01 4.93.04 9.87.05 14.82-.01 1.34-.02 2.69.01 4.05.07l.69 1.22c-6.2.92-12.46.36-18.68.54-7.33.14-14.66.04-21.97-.37-29.28-.17-58.57.75-87.83.18-2.49-.23-4.95-.59-7.42-.84 17.41.09 34.82-.05 52.23-.1 15.96-.44 31.94.14 47.9-.51z"/><path fill="#F69954" d="M535.24 767.98c11.23.91 22.51.12 33.76.28 23.92.19 47.86-.76 71.77-.11 2.47.25 4.93.61 7.42.84l-.16 1.24c-37.17-.35-74.34.34-111.5-.04l-1.65-1.13.36-1.08z"/><path fill="#FFC129" d="M776.67 768.64c5.41-.57 10.85-.25 16.29-.35 13.23.08 26.47-.36 39.7.11 7.04.16 14.11.37 21.14-.21 4.36-.61 8.76-.01 13.14-.29 4.72-.29 9.56-.39 14.18.86 5.93 1.79 10.45 7.09 12.06 12.99-.17.66-.5 1.99-.67 2.66-2.09-5.07-4.43-10.79-9.82-13.13-6.02-2.32-12.55-.77-18.8-.69-47.3.1-94.6-.01-141.9.08-16.32.24-32.64-.44-48.96-.31-8.34-.05-16.67.19-25-.13l.16-1.24c29.26.57 58.55-.35 87.83-.18 7.31.41 14.64.51 21.97.37 6.22-.18 12.48.38 18.68-.54z"/><path fill="#7A9314" d="M428.44 769.61c13.32-1.53 26.8.36 40.13-1.15.61.28 1.83.85 2.45 1.13-7.34.68-14.7.29-22.05.43-6.85-.03-13.71.38-20.53-.41z"/><path fill="#939D1B" d="M485.33 769.6c1.38-.37 2.76-.77 4.17-1.06 15.1 1.22 30.27-.3 45.38.52l1.65 1.13h-.98c-16.73-.79-33.5.49-50.22-.59z"/><path fill="#FFCB05" d="M347.99 771.94c3.29-2.04 7.28-1.52 10.95-1.59 12 .15 24.01-.34 36 .14 3.02.42 6.06.81 9.12.72 20.32-.25 40.65-.39 60.97-.17 15.63-.76 31.28.04 46.93-.16 7.86-.23 15.8.64 23.59-.69h.98c37.16.38 74.33-.31 111.5.04 8.33.32 16.66.08 25 .13 16.32-.13 32.64.55 48.96.31 47.3-.09 94.6.02 141.9-.08 6.25-.08 12.78-1.63 18.8.69 5.39 2.34 7.73 8.06 9.82 13.13.17-.67.5-2 .67-2.66.8 2.8 1.35 5.68 1.45 8.61.02.41.04 1.21.06 1.62-2.05 10.08-.23 20.45-.84 30.66-1.02 8.74-.14 17.55-.46 26.33.01 13.34-.09 26.69.09 40.04.2 3.13-1.28 5.96-1.96 8.95-.12 4.4 4.13 7.6 3.92 12.06 0 26.31 0 52.63.01 78.95.11 6.92-.4 13.86.37 20.77-2.7 7.28-9.87 13.06-17.84 12.87-19.97.1-39.95-.01-59.93.04-.67-10.89-2.8-21.92-8.21-31.52-3.46-5.99-7.38-11.76-12.17-16.76-9.4-9.08-21.08-16.17-33.95-18.9-11.38-2.25-23.37-2.35-34.56.96-23 6.36-41.84 25.58-47.99 48.61-1.5 5.5-2.08 11.18-2.44 16.86-24.59.64-49.2.04-73.8.26-46.3 0-92.59.03-138.89.01-14.26-.14-28.54.36-42.78-.34.32-16.01-6.1-31.65-16.42-43.73-4.52-6.18-11.03-10.39-17.26-14.63-15.02-8.86-33.42-11.67-50.46-8.18-13.42 3.28-26.16 10.03-35.63 20.2-11.83 12.43-18.72 29.31-19.2 46.45-12.28.49-24.6.49-36.88.02-1.53-7.37-4.49-14.39-5.29-21.91-2.59-16.43-1.8-34.03 6.06-49 8.23-16.32 24.51-26.96 41.44-32.63 15.82-5.28 32.55-7.09 49.14-7.65-1.53-4.1-2.61-8.35-3.17-12.69-6.94-.2-13.88.34-20.81-.27 6.89-.34 13.8-.14 20.7-.35.65-10.13.01-20.3.68-30.42.12-24.35.27-48.71.25-73.06.2-8.52 3.66-17.87 11.58-22.04m13.51 26.79c-3.25 1.8-5.12 5.55-4.94 9.22 0 33.69.02 67.38 0 101.07-.28 4.74 3.33 9.94 8.48 9.56 22.98.07 45.96.02 68.94.03 4.77.5 9.11-3.89 8.65-8.62.01-34.02-.03-68.04.02-102.06-.02-2.58-.14-5.54-2.22-7.37-2.46-2.45-6.09-2.85-9.39-2.79-19.68.05-39.37-.01-59.05.03-3.5.18-7.07.16-10.49.93m103.14-.1c-1.62 1.58-3.71 3.08-4.15 5.44-.42 2.95-.23 5.93-.25 8.91 0 22.66-.02 45.33.01 68-.11 2.4.33 4.91 2.07 6.71 1.95 2.7 5.58 2.83 8.61 2.83 22.32-.04 44.64.07 66.96-.05 4.92.17 8.61-4.85 8.44-9.47-.11-24.99.05-50-.08-74.99-.16-5.2-5.45-8.51-10.29-8.19-20.99-.11-41.98.03-62.97-.07-2.81-.05-5.58.45-8.35.88m101.05 8.33c-.07 21.36 0 42.72-.02 64.07.08 5.2-.49 10.5.99 15.58 2.1 1.86 4.31 4.19 7.41 3.87 22.98.06 45.96.05 68.95.01 4.58.41 8.97-3.86 8.68-8.44.06-24.68-.01-49.36.03-74.04.18-2.91-.7-5.91-2.81-7.96-2.79-2.25-6.54-2.35-9.95-2.3-21.31.2-42.63-.13-63.94.11-4.98-.17-9.56 4.03-9.34 9.1m105.81-.92c-.16 24.66.02 49.32-.08 73.97-.31 3.41.69 6.81 3.12 9.27 4.65 1.77 9.66 1.15 14.52 1.23 19.98-.02 39.97.04 59.96-.03 4.59.27 8.41-4.11 8.44-8.53.1-23.99-.05-47.98.08-71.97.45-4.21-1.04-8.35-4.06-11.28-8.08-1.46-16.28-.79-24.42-.91-16.04.05-32.09-.11-48.12.06-4.72-.35-9.63 3.19-9.44 8.19m103.09-1.18c-.03 25.37-.02 50.75-.02 76.12-.11 4.59 3.33 9.75 8.37 9.49 22.69.12 45.4-.02 68.09.06 2.15.09 4.21-.57 6.25-1.19 1.43-1.9 3.62-3.65 3.28-6.31.2-25-.02-50 .1-75 .01-2.37-.02-4.98-1.75-6.8-2.64-3.19-7.1-3.52-10.93-3.48-21.33.14-42.66-.11-63.99.12-4.44-.13-7.92 3.01-9.4 6.99m86.41 3.09c.11 15.36 0 30.72.03 46.08.23 10.1-.4 20.24.4 30.32.55-1.39 1.02-2.82.95-4.32-.08-20.67-.05-41.33-.06-62-.06-4.79.35-9.61-.5-14.35-.55 1.36-.91 2.78-.82 4.27m-288.48 83.31c2.81 1.85 6.33.83 9.49 1.01 19 0 38-.06 57 .04 1.85-.03 3.84.03 5.51-.92-7.46-.88-15-.15-22.49-.42-16.5.22-33.03-.42-49.51.29m105.4.27c4.27 1.08 8.7.61 13.06.72 17.35.1 34.71-.01 52.07.04 2.78-.01 5.66.16 8.29-.93-18.42-.82-36.89-.27-55.34-.39-6.02.24-12.11-.5-18.08.56m102.95-.15c4.92 1.48 10.09.74 15.14.89 18.03.04 36.06-.05 54.09.07 1.5.04 3.02-.26 4.35-1.02-14.46-.84-28.96-.14-43.44-.37-10.04.23-20.13-.52-30.14.43m-318.2 13.25c-3.38 3.04-1.47 10.07 3.35 10.23 6.32.61 12.68.08 19.02.19 129.33.03 258.65-.07 387.97.05 1.71-.24 5.15.12 4.85-2.57 1.05-2.02 1.06-4.31.47-6.46-.33-1.68-1.39-3.21-3.28-3.01-134.7-.07-269.42-.04-404.11-.01-2.76.07-6.22-.79-8.27 1.58m-98.7 35.32a68.968 68.968 0 01-4.24 3.76c.07 1.67-.3 3.67 1.21 4.86 1.83 1.16 3.84 2.19 6.08 2.06 168.32.02 336.64 0 504.95.01 2.43.08 5.25-.7 6.4-3.03.85-1.77.27-3.8-.86-5.25-1.48-2.16-3.95-3.23-6.52-3.2-144.65-.04-289.33.01-433.98-.01-3.99.29-7.99 1.14-11.98.41-3.33-.71-6.72-.39-10.04.1-10.96-1.03-22-.23-32.99-.52-6.01.16-12.12-.58-18.03.81m-.09 11.48c3.93 1.39 8.12.88 12.2.9 163.34 0 326.68-.01 490.02.01 2.8-.05 5.77.36 8.41-.87-4.17-.53-8.36-.32-12.54-.3-148.68-.02-297.36.02-446.04 0-17.35.14-34.72-.32-52.05.26M435.99 973c-.13 5.62-.43 11.3.14 16.91 1.29 3.17 4.32 6.17 7.95 6.11 74.97 0 149.94.02 224.92-.01 4.48.13 8.41-3.7 8.76-8.11.47-6.53.48-13.18-1.15-19.56-2.55-1.81-5.28-3.8-8.59-3.37-74.34-.01-148.68-.02-223.01.01-4.51-.43-9.28 3.28-9.02 8.02z"/><path fill="#E9C421" d="M394.94 770.49c9.52-.82 19.09.03 28.62-.61 1.28-.08 2.55-.16 3.83-.22l1.05-.05c6.82.79 13.68.38 20.53.41 7.35-.14 14.71.25 22.05-.43 4.77-.06 9.54.22 14.31.01 16.72 1.08 33.49-.2 50.22.59-7.79 1.33-15.73.46-23.59.69-15.65.2-31.3-.6-46.93.16-20.32-.22-40.65-.08-60.97.17-3.06.09-6.1-.3-9.12-.72z"/><path fill="#FFCE9D" d="M926.95 769.8l1.31.23c.6.09 1.81.28 2.41.37 1.1.42 2.16 1.01 3.12 1.74-.26 4.51-.38 9.04.08 13.54-2.04-.38-4.16-.8-6.12.05l-.77.22c.09-5.38.1-10.77-.03-16.15z"/><path fill="#FECE9C" d="M937.73 771.63c2.23-.55 4.51-.93 6.81-1.19-.15 5.18-.24 10.36-.02 15.54-1.48-.32-2.93-1-4.45-.8-.57.06-1.69.16-2.26.22.06-4.6-.05-9.18-.08-13.77z"/><path fill="#8E3536" d="M933.79 772.14c1.31-.13 2.62-.3 3.94-.51.03 4.59.14 9.17.08 13.77.57-.06 1.69-.16 2.26-.22-.98.53-1.92 1.1-2.83 1.71-.2 1.01-.37 2.04-.52 3.07l-2.48-.08c-.13-1.41-.26-2.81-.37-4.2-.46-4.5-.34-9.03-.08-13.54z"/><path fill="#A27444" d="M1239.88 797c.11-5.84-.57-11.73.66-17.49l1.41.31c.53 15.02-.19 30.06.35 45.07-1.48 1.38-3.13 2.83-5.31 2.56-27.35-.04-54.71.04-82.06-.01-10.55-.2-21.13.45-31.65-.4-.18-.81-.53-2.44-.7-3.25 1.53 1.3 3.31 2.48 5.45 2.25 27.32-.29 54.65-.06 81.98-.17 9.92-.23 19.85.45 29.76-.1.22-9.59.02-19.18.11-28.77z"/><path fill="#F7ACA6" d="M1124.84 780.75c38.11-.15 76.22-.1 114.33-.01.19 14.8.17 29.61.02 44.41-38.12.21-76.24.04-114.36.09-.03-3.08-.02-6.15.11-9.21 2.26-1.23 5.5-2.11 5.87-5.12 1-6.15-3.35-11.32-6.26-16.29.36-4.62.25-9.25.29-13.87z"/><path fill="#FECF9A" d="M1113.89 792.22c.5-3.32 1.13-6.62 1.97-9.87 2.35 3 4.6 6.09 6.75 9.26.67 1 1.24 1.97 1.94 3.01 2.91 4.97 7.26 10.14 6.26 16.29-.37 3.01-3.61 3.89-5.87 5.12-.5-.25-1.5-.74-2-.99-1.01-.49-2-.95-3.01-1.34-.1-1.88-.17-3.73-.15-5.59.05-.59.15-1.77.21-2.36.19-1.85.49-3.68.66-5.52l-.09-.68c-.31-.45-.93-1.35-1.23-1.8-1.51-2.13-3.38-3.96-5.44-5.53z"/><path fill="#080100" d="M927.75 785.73c1.96-.85 4.08-.43 6.12-.05.11 1.39.24 2.79.37 4.2-1.15.78-2.29 1.58-3.42 2.38-12.04-.21-24.11.36-36.13-.28-.02-.41-.04-1.21-.06-1.62 10.64.1 21.28.2 31.91-.05.36-1.55.75-3.07 1.21-4.58z"/><path fill="#040200" d="M940.07 785.18c1.52-.2 2.97.48 4.45.8l.05.95c-.6 1.79-.93 4.74-3.5 4.45-2.7.43-3.04-2.71-3.83-4.49.91-.61 1.85-1.18 2.83-1.71z"/><path fill="#391313" d="M936.72 789.96c.15-1.03.32-2.06.52-3.07.79 1.78 1.13 4.92 3.83 4.49 2.57.29 2.9-2.66 3.5-4.45.14 1.02.3 2.05.5 3.08 40.28.41 80.59-.11 120.86.26 2.37.28 4.75-.08 7.12-.36 2.41.11 4.84.3 7.27.47.01.62.04 1.25.07 1.9-49.86 0-99.71.04-149.57-.02 1.13-.8 2.27-1.6 3.42-2.38l2.48.08z"/><path fill="#C85854" d="M1073.05 789.91c1.75-2.16 4.4-2.91 7.04-3.33.06.95.17 2.85.23 3.8-2.43-.17-4.86-.36-7.27-.47z"/><path fill="#CC4745" d="M1105.26 790.22c-.42-.91-.68-3.63 1.06-2.81.69.7 1.22 1.54 1.59 2.52-.66.07-1.99.22-2.65.29z"/><path fill="#6D1B1A" d="M1105.26 790.22c.66-.07 1.99-.22 2.65-.29.27.5.83 1.51 1.1 2.01-1.25.67-2.45.63-3.6-.12-.04-.4-.11-1.2-.15-1.6z"/><path fill="#D6C06F" d="M893.85 822.64c.61-10.21-1.21-20.58.84-30.66.64 1.88 1.04 3.84 1.19 5.84l-1.76 1.12c.38.3 1.13.91 1.51 1.21.08 1.87.09 3.75.02 5.64-.38.3-1.15.91-1.53 1.22.44.27 1.32.81 1.76 1.09-.22 1.87-.54 3.75-.76 5.64.08.63.23 1.9.31 2.53.35 1.69.12 3.46-.47 5.09l-1.11 1.28z"/><path fill="#D5CACC" d="M1105.41 791.82c1.15.75 2.35.79 3.6.12 1.21 1.41 2.5 2.76 3.78 4.12.38-1.28.74-2.56 1.1-3.84 2.06 1.57 3.93 3.4 5.44 5.53-4.5.06-9 .06-13.49.1-.14-2.02-.27-4.03-.43-6.03z"/><path fill="#110706" d="M894.12 798.94l1.76-1.12c61.54-.01 123.07-.03 184.6.01.01.76.03 1.54.07 2.32-61.64.05-123.28.04-184.92 0-.38-.3-1.13-.91-1.51-1.21z"/><path fill="#190B08" d="M1105.84 797.85c4.49-.04 8.99-.04 13.49-.1.3.45.92 1.35 1.23 1.8l.09.68c-4.89-.08-9.78.06-14.65-.14l-.16-2.24z"/><path fill="#CECDCB" d="M895.63 800.15c61.64.04 123.28.05 184.92 0 .05 1.81.16 3.65.15 5.48l-.35.03c-61.56.25-123.14 0-184.7.13.07-1.89.06-3.77-.02-5.64zM363.97 939.95c5.91-1.39 12.02-.65 18.03-.81 10.99.29 22.03-.51 32.99.52 3.32-.49 6.71-.81 10.04-.1 3.99.73 7.99-.12 11.98-.41 144.65.02 289.33-.03 433.98.01 2.57-.03 5.04 1.04 6.52 3.2-.85-.57-1.69-1.09-2.54-1.56-2.17-1.1-4.63-.93-6.97-.96-166.67.04-333.34-.01-500 .03-1.39.02-2.72.32-3.98.9-3.01 1.46-4.72 4.63-3.08 7.8-1.51-1.19-1.14-3.19-1.21-4.86 1.47-1.2 2.88-2.45 4.24-3.76z"/><path fill="#CFCDCD" d="M1106 800.09c4.87.2 9.76.06 14.65.14-.17 1.84-.47 3.67-.66 5.52h-13.72c-.15-1.89-.18-3.78-.27-5.66z"/><path fill="#EEC840" d="M861 807.95c-.09-1.49.27-2.91.82-4.27.85 4.74.44 9.56.5 14.35.01 20.67-.02 41.33.06 62 .07 1.5-.4 2.93-.95 4.32-.8-10.08-.17-20.22-.4-30.32-.03-15.36.08-30.72-.03-46.08z"/><path fill="#12150A" d="M894.12 807.01c.38-.31 1.15-.92 1.53-1.22 61.56-.13 123.14.12 184.7-.13l.02.42c-.23.49-.7 1.46-.94 1.95-61.18.2-122.37.07-183.55.07-.44-.28-1.32-.82-1.76-1.09z"/><path fill="#151A12" d="M1106.27 805.75h13.72c-.06.59-.16 1.77-.21 2.36-3.98.02-7.96.01-11.94.02-.32-.38-.98-1.12-1.31-1.5l-.26-.88z"/><path fill="#CECECD" d="M895.88 808.1c61.18 0 122.37.13 183.55-.07-1.1 2.05-2.45 3.96-3.93 5.75-60.13-.15-120.25-.07-180.38-.04.22-1.89.54-3.77.76-5.64z"/><path fill="#D0CDCD" d="M1107.84 808.13c3.98-.01 7.96 0 11.94-.02-.02 1.86.05 3.71.15 5.59-2.4-.07-4.78-.01-7.15.04-1.54-1.97-3.25-3.79-4.94-5.61z"/><path fill="#111408" d="M1112.78 813.74c2.37-.05 4.75-.11 7.15-.04 1.01.39 2 .85 3.01 1.34l-.07 1.03c-2.87.11-5.74.05-8.59.01-.49-.81-.99-1.59-1.5-2.34z"/><path fill="#121708" d="M895.12 813.74c60.13-.03 120.25-.11 180.38.04-.67.77-1.34 1.55-1.99 2.32-59.36.14-118.73-.18-178.08.17-.08-.63-.23-1.9-.31-2.53z"/><path fill="#CFCECB" d="M895.43 816.27c59.35-.35 118.72-.03 178.08-.17-.89.98-1.77 1.96-2.65 2.95-.94.89-1.91 1.75-2.87 2.61-51.68-.27-103.36-.04-155.04-.12-6-.06-12 .16-17.99-.18.59-1.63.82-3.4.47-5.09z"/><path fill="#D3CDCE" d="M1114.28 816.08c2.85.04 5.72.1 8.59-.01-.1 1.84-.14 3.69-.19 5.56-1.98-.03-3.95-.07-5.9-.11-.78-1.85-1.56-3.69-2.5-5.44z"/><path fill="#3D648D" d="M1067.99 821.66c.96-.86 1.93-1.72 2.87-2.61-.12 1.22-1.29 2.94.2 3.76 12.71 9.58 30.82 9.1 44.57 2 .35-1.12.75-2.2 1.15-3.29.62.74 1.25 1.47 1.91 2.22-2.92 4.07-8.28 4.79-12.72 6.27-7.87 2.02-16.16 2.39-23.98-.1-4.43-1.38-8.6-3.52-12.34-6.24-.42-.5-1.25-1.51-1.66-2.01z"/><path fill="#1D3508" d="M1116.78 821.52c1.95.04 3.92.08 5.9.11-.03.54-.08 1.62-.1 2.16-1.32-.05-2.61-.07-3.89-.05-.66-.75-1.29-1.48-1.91-2.22z"/><path fill="#CCCA1B" d="M893.85 822.64l1.11-1.28c.05.62.14 1.88.18 2.5.47 11.36.08 22.75.21 34.12-.23 12.66.65 25.37-.85 37.97-.46 3.69 1.08 7.14 2.11 10.6 1.32 4.36.81 8.97.88 13.46 0 27.31-.05 54.63 0 81.95.05 2.68-.63 5.31-1.67 7.78-.77-6.91-.26-13.85-.37-20.77-.01-26.32-.01-52.64-.01-78.95.21-4.46-4.04-7.66-3.92-12.06.68-2.99 2.16-5.82 1.96-8.95-.18-13.35-.08-26.7-.09-40.04.32-8.78-.56-17.59.46-26.33z"/><path fill="#385518" d="M894.96 821.36c5.99.34 11.99.12 17.99.18 51.68.08 103.36-.15 155.04.12.41.5 1.24 1.51 1.66 2.01-58.17.26-116.34-.14-174.51.19-.04-.62-.13-1.88-.18-2.5z"/><path fill="#FED099" d="M1080.11 829.44c.47.12 1.41.35 1.88.47 7.82 2.49 16.11 2.12 23.98.1-.25 8.01-.47 16.06.08 24.06-2.87-2.37-6.85-2.61-10.01-.68.24-7.11.22-14.23.04-21.33-2.06-.08-4.11-.14-6.14-.19-.37 7.08.01 14.18-.33 21.27-3.16-1.75-6.94-1.29-9.69.98.57-8.21.2-16.46.19-24.68z"/><path fill="#030003" d="M1079.92 854.12c2.75-2.27 6.53-2.73 9.69-.98 1.16 1.72 2.25 4.21.43 5.92-3.55 4.17-12.38 1.1-10.12-4.94z"/><path fill="#020102" d="M1096.04 853.39c3.16-1.93 7.14-1.69 10.01.68-.01 1.48.63 3.24-.34 4.57-2.39 3.14-7.92 3.08-10.17-.16-1.13-1.61-.17-3.53.5-5.09z"/><path fill="#F0CB33" d="M572.52 891.26c16.48-.71 33.01-.07 49.51-.29 7.49.27 15.03-.46 22.49.42-1.67.95-3.66.89-5.51.92-19-.1-38-.04-57-.04-3.16-.18-6.68.84-9.49-1.01z"/><path fill="#F1CB32" d="M677.92 891.53c5.97-1.06 12.06-.32 18.08-.56 18.45.12 36.92-.43 55.34.39-2.63 1.09-5.51.92-8.29.93-17.36-.05-34.72.06-52.07-.04-4.36-.11-8.79.36-13.06-.72z"/><path fill="#F0CB32" d="M780.87 891.38c10.01-.95 20.1-.2 30.14-.43 14.48.23 28.98-.47 43.44.37-1.33.76-2.85 1.06-4.35 1.02-18.03-.12-36.06-.03-54.09-.07-5.05-.15-10.22.59-15.14-.89z"/><path fill="#FFED05" d="M220.71 904.65c3.36-4.31 9.16-5.49 14.31-6.02 26.58-.31 53.18-.03 79.76-.82 6.93.61 13.87.07 20.81.27.56 4.34 1.64 8.59 3.17 12.69-16.59.56-33.32 2.37-49.14 7.65-16.93 5.67-33.21 16.31-41.44 32.63-7.86 14.97-8.65 32.57-6.06 49 .8 7.52 3.76 14.54 5.29 21.91 12.28.47 24.6.47 36.88-.02 6.42-.2 12.99-1.01 19.29.67-2.53.4-5.07.81-7.63.8-18.98-.15-37.96-.12-56.94-.03-5.47.09-11.25-.46-15.97-3.48-5.62-3.69-9.93-10.02-9.67-16.94.05-23.3.23-46.61.35-69.91.07-5.61-.22-11.26.7-16.81.77-4.44 3.41-8.25 6.29-11.59z"/><path fill="#E9C130" d="M462.67 904.63c2.05-2.37 5.51-1.51 8.27-1.58 134.69-.03 269.41-.06 404.11.01 1.89-.2 2.95 1.33 3.28 3.01-1.85-1.3-3.98-2.2-6.28-1.99-134.7.06-269.4-.03-404.1.04-3.62-.52-6.93 3.32-5.4 6.8.97 2.65 3.92 3.23 6.42 3.07 132.33.01 264.67-.05 397 .01 3.96-.12 8.3.72 11.89-1.47.3 2.69-3.14 2.33-4.85 2.57-129.32-.12-258.64-.02-387.97-.05-6.34-.11-12.7.42-19.02-.19-4.82-.16-6.73-7.19-3.35-10.23z"/><path fill="#000100" d="M462.55 910.92c-1.53-3.48 1.78-7.32 5.4-6.8 134.7-.07 269.4.02 404.1-.04 2.3-.21 4.43.69 6.28 1.99.59 2.15.58 4.44-.47 6.46-3.59 2.19-7.93 1.35-11.89 1.47-132.33-.06-264.67 0-397-.01-2.5.16-5.45-.42-6.42-3.07z"/><path fill="#B0952E" d="M364.02 940.77c1.26-.58 2.59-.88 3.98-.9 166.66-.04 333.33.01 500-.03 2.34.03 4.8-.14 6.97.96-24.64.58-49.29.08-73.93.25H416.95c-17.64-.18-35.3.36-52.93-.28z"/><path fill="#010101" d="M360.94 948.57c-1.64-3.17.07-6.34 3.08-7.8 17.63.64 35.29.1 52.93.28h384.09c24.64-.17 49.29.33 73.93-.25.85.47 1.69.99 2.54 1.56 1.13 1.45 1.71 3.48.86 5.25-1.15 2.33-3.97 3.11-6.4 3.03-168.31-.01-336.63.01-504.95-.01-2.24.13-4.25-.9-6.08-2.06z"/><path fill="#EEC933" d="M363.88 951.43c17.33-.58 34.7-.12 52.05-.26 148.68.02 297.36-.02 446.04 0 4.18-.02 8.37-.23 12.54.3-2.64 1.23-5.61.82-8.41.87-163.34-.02-326.68-.01-490.02-.01-4.08-.02-8.27.49-12.2-.9z"/><path fill="#FFEB01" d="M339.12 955.29c17.04-3.49 35.44-.68 50.46 8.18 6.23 4.24 12.74 8.45 17.26 14.63 10.32 12.08 16.74 27.72 16.42 43.73 14.24.7 28.52.2 42.78.34 46.3.02 92.59-.01 138.89-.01 24.6-.22 49.21.38 73.8-.26.36-5.68.94-11.36 2.44-16.86 6.15-23.03 24.99-42.25 47.99-48.61 11.19-3.31 23.18-3.21 34.56-.96 12.87 2.73 24.55 9.82 33.95 18.9 4.79 5 8.71 10.77 12.17 16.76 5.41 9.6 7.54 20.63 8.21 31.52-6.41.07-12.82.01-19.23.06-.03-17.81-10.49-35.04-26.13-43.49-14.94-8.31-34.2-8.19-48.98.43-15.61 8.61-25.55 26.05-25.52 43.82-97.86.01-195.71-.04-293.57.02-.12-12.44-4.73-24.82-13.19-33.99-9.43-10.39-23.35-16.65-37.42-16.39-13.81-.07-27.44 5.98-36.74 16.17-8.33 8.99-13.23 21.12-13.26 33.4l-.43-.07c-6.3-1.68-12.87-.87-19.29-.67.48-17.14 7.37-34.02 19.2-46.45 9.47-10.17 22.21-16.92 35.63-20.2z"/><path fill="#FFB806" d="M435.99 973c-.26-4.74 4.51-8.45 9.02-8.02 74.33-.03 148.67-.02 223.01-.01 3.31-.43 6.04 1.56 8.59 3.37 1.63 6.38 1.62 13.03 1.15 19.56-.35 4.41-4.28 8.24-8.76 8.11-74.98.03-149.95.01-224.92.01-3.63.06-6.66-2.94-7.95-6.11-.57-5.61-.27-11.29-.14-16.91z"/><path d="M317.27 989.28c9.3-10.19 22.93-16.24 36.74-16.17 14.07-.26 27.99 6 37.42 16.39 8.46 9.17 13.07 21.55 13.19 33.99 97.86-.06 195.71-.01 293.57-.02-.03-17.77 9.91-35.21 25.52-43.82 14.78-8.62 34.04-8.74 48.98-.43 15.64 8.45 26.1 25.68 26.13 43.49.36 16.1-7.74 31.98-20.77 41.37-15.44 11.49-37.59 12.72-54.23 3.08-15.56-8.62-25.52-25.89-25.66-43.61-97.84.06-195.69 0-293.53.03-.29 8.75-2.4 17.53-6.93 25.09-7.46 12.89-20.9 22.2-35.66 24.37-13.63 2.16-28.12-1.55-38.91-10.18-12.15-9.45-19.5-24.78-19.12-40.18.03-12.28 4.93-24.41 13.26-33.4m32.25 7.42c-13.56 2.11-23.92 15.75-22.2 29.39 1.09 14.75 15.95 26.52 30.58 24.12 14.22-1.6 25.35-15.92 23.2-30.12-1.35-14.94-16.88-26.45-31.58-23.39m393.98.05c-14.5 2.41-24.93 18.02-21.42 32.34 2.73 14.08 17.92 24.13 31.95 20.78 14.19-2.53 24.3-17.81 21.04-31.87-2.46-14.13-17.54-24.28-31.57-21.25z"/><path fill="#FFFEFF" d="M349.52 996.7c14.7-3.06 30.23 8.45 31.58 23.39 2.15 14.2-8.98 28.52-23.2 30.12-14.63 2.4-29.49-9.37-30.58-24.12-1.72-13.64 8.64-27.28 22.2-29.39m2.83 10.74c-8.04.78-14.72 8.47-14.08 16.58-.02 9.31 9.6 16.9 18.68 15.14 9.69-1.1 15.8-12.57 12.38-21.44-2.42-6.84-9.9-11.03-16.98-10.28z"/><path fill="#E6DFE6" d="M352.35 1007.44c7.08-.75 14.56 3.44 16.98 10.28 3.42 8.87-2.69 20.34-12.38 21.44-9.08 1.76-18.7-5.83-18.68-15.14-.64-8.11 6.04-15.8 14.08-16.58zM747.36 1007.4c9.89-1.08 18.89 8.79 16.94 18.52-.86 8.59-9.93 14.87-18.3 13.23-8.51-.92-14.68-9.91-13.23-18.19.81-7.28 7.41-13.01 14.59-13.56z"/></svg>